<svg xmlns="http://www.w3.org/2000/svg" xmlns:dc="http://purl.org/dc/elements/1.1/" xmlns:ns2="http://creativecommons.org/ns#" xmlns:rdf="http://www.w3.org/1999/02/22-rdf-syntax-ns#" xmlns:xlink="http://www.w3.org/1999/xlink" width="1078.5" height="501.0" viewBox="0.0 0.0 1077.75 501.0">
<g id="graph0" class="graph" transform="scale(1.5 1.5) rotate(0) translate(4 330)">
<title>G</title>
<polygon fill="white" stroke="transparent" points="-4,4 -4,-330 714.5,-330 714.5,4 -4,4" />
<g id="clust13" class="cluster">
<title>cluster_legend</title>
</g>

<g id="node1" class="node">
<title>node4</title>
<text text-anchor="start" x="43" y="-138.4" font-family="Helvetica,sans-Serif" font-size="12.00" fill="#444443">Dinophysis fortii@0.07</text>
</g>

<g id="node13" class="node">
<title>leaf5</title>
<polygon fill="none" stroke="#444443" stroke-width="0" points="67,-83 0,-83 0,0 67,0 67,-83" />
<svg width="59px" height="75px" viewBox="0 0 78.519997 99.516236" version="1.1" preserveAspectRatio="xMinYMin meet" x="4.5" y="-78.5">
 <metadata>
  <rdf:RDF>
   <ns2:Work>
    <dc:type rdf:resource="http://purl.org/dc/dcmitype/StillImage" />
    <dc:date>2023-05-18T02:49:27.482311</dc:date>
    <dc:format>image/svg+xml</dc:format>
    <dc:creator>
     <ns2:Agent>
      <dc:title>Matplotlib v3.5.2, https://matplotlib.org/</dc:title>
     </ns2:Agent>
    </dc:creator>
   </ns2:Work>
  </rdf:RDF>
 </metadata>
 <defs>
  <style type="text/css">*{stroke-linejoin: round; stroke-linecap: butt}</style>
 </defs>
 <g id="figure_1">
  <g id="patch_1">
   <path d="M 0 99.516236  L 78.519997 99.516236  L 78.519997 -0  L 0 -0  L 0 99.516236  z " style="fill: none" />
  </g>
  <g id="axes_1">
   <g id="patch_2">
    <path d="M 78.519997 39.259999  C 78.519997 35.319611 77.926772 31.401583 76.760295 27.637811  C 75.593817 23.874039 73.867323 20.307236 71.638934 17.057477  C 69.410546 13.807717 66.705551 10.911881 63.615012 8.467454  C 60.524474 6.023027 57.083464 4.057751 53.407822 2.637784  C 49.732179 1.217816 45.863618 0.359273 41.93237 0.091057  C 38.001122 -0.17716 34.051801 0.147994 30.217358 1.055571  C 26.382914 1.963149 22.706865 3.442851 19.312959 5.444865  C 15.919054 7.446878 12.845809 9.948483 10.196683 12.865465  C 7.547557 15.782447 5.352614 19.081702 3.685744 22.652164  C 2.018875 26.222626 0.898995 30.023775 0.363806 33.927648  C -0.171383 37.831521 -0.115809 41.793815 0.528659 45.681142  C 1.173126 49.56847 2.399173 53.336715 4.165525 56.859023  C 5.931876 60.381331 8.218488 63.617728 10.948382 66.459265  C 13.678276 69.300802 16.820472 71.71523 20.269192 73.62127  C 23.717911 75.52731 27.434015 76.90333 31.292404 77.703009  C 35.150793 78.502689 39.107679 78.716951 43.029859 78.338583  L 39.259997 39.259999  L 78.519997 39.259999  z " style="fill: #fefebb; stroke: #444443; stroke-width: 0.5; stroke-linejoin: miter" />
   </g>
   <g id="patch_3">
    <path d="M 43.029859 78.338583  C 52.741627 77.401701 61.763768 72.877317 68.32331 65.654532  C 74.882852 58.431748 78.519997 49.016853 78.519997 39.259999  L 39.259997 39.259999  L 43.029859 78.338583  z " style="fill: #a1dab4; stroke: #444443; stroke-width: 0.5; stroke-linejoin: miter" />
   </g>
   <g id="text_1">
    
    <g style="fill: #444443" transform="translate(26.622028 88.10283)scale(0.09 -0.09)">
     <defs>
      <path id="ArialMT-6e" d="M 422 0  L 422 3319  L 928 3319  L 928 2847  Q 1294 3394 1984 3394  Q 2284 3394 2536 3286  Q 2788 3178 2913 3003  Q 3038 2828 3088 2588  Q 3119 2431 3119 2041  L 3119 0  L 2556 0  L 2556 2019  Q 2556 2363 2490 2533  Q 2425 2703 2258 2804  Q 2091 2906 1866 2906  Q 1506 2906 1245 2678  Q 984 2450 984 1813  L 984 0  L 422 0  z " transform="scale(0.015625)" />
      <path id="ArialMT-3d" d="M 3381 2694  L 356 2694  L 356 3219  L 3381 3219  L 3381 2694  z M 3381 1303  L 356 1303  L 356 1828  L 3381 1828  L 3381 1303  z " transform="scale(0.015625)" />
      <path id="ArialMT-32" d="M 3222 541  L 3222 0  L 194 0  Q 188 203 259 391  Q 375 700 629 1000  Q 884 1300 1366 1694  Q 2113 2306 2375 2664  Q 2638 3022 2638 3341  Q 2638 3675 2398 3904  Q 2159 4134 1775 4134  Q 1369 4134 1125 3890  Q 881 3647 878 3216  L 300 3275  Q 359 3922 746 4261  Q 1134 4600 1788 4600  Q 2447 4600 2831 4234  Q 3216 3869 3216 3328  Q 3216 3053 3103 2787  Q 2991 2522 2730 2228  Q 2469 1934 1863 1422  Q 1356 997 1212 845  Q 1069 694 975 541  L 3222 541  z " transform="scale(0.015625)" />
      <path id="ArialMT-35" d="M 266 1200  L 856 1250  Q 922 819 1161 601  Q 1400 384 1738 384  Q 2144 384 2425 690  Q 2706 997 2706 1503  Q 2706 1984 2436 2262  Q 2166 2541 1728 2541  Q 1456 2541 1237 2417  Q 1019 2294 894 2097  L 366 2166  L 809 4519  L 3088 4519  L 3088 3981  L 1259 3981  L 1013 2750  Q 1425 3038 1878 3038  Q 2478 3038 2890 2622  Q 3303 2206 3303 1553  Q 3303 931 2941 478  Q 2500 -78 1738 -78  Q 1113 -78 717 272  Q 322 622 266 1200  z " transform="scale(0.015625)" />
      <path id="ArialMT-37" d="M 303 3981  L 303 4522  L 3269 4522  L 3269 4084  Q 2831 3619 2401 2847  Q 1972 2075 1738 1259  Q 1569 684 1522 0  L 944 0  Q 953 541 1156 1306  Q 1359 2072 1739 2783  Q 2119 3494 2547 3981  L 303 3981  z " transform="scale(0.015625)" />
     </defs>
     <use xlink:href="#ArialMT-6e" />
     <use xlink:href="#ArialMT-3d" x="55.615234" />
     <use xlink:href="#ArialMT-32" x="114.013672" />
     <use xlink:href="#ArialMT-35" x="169.628906" />
     <use xlink:href="#ArialMT-37" x="225.244141" />
    </g>
    
    <g style="fill: #444443" transform="translate(31.752731 97.622018)scale(0.09 -0.09)">
     <defs>
      <path id="ArialMT-65" d="M 2694 1069  L 3275 997  Q 3138 488 2766 206  Q 2394 -75 1816 -75  Q 1088 -75 661 373  Q 234 822 234 1631  Q 234 2469 665 2931  Q 1097 3394 1784 3394  Q 2450 3394 2872 2941  Q 3294 2488 3294 1666  Q 3294 1616 3291 1516  L 816 1516  Q 847 969 1125 678  Q 1403 388 1819 388  Q 2128 388 2347 550  Q 2566 713 2694 1069  z M 847 1978  L 2700 1978  Q 2663 2397 2488 2606  Q 2219 2931 1791 2931  Q 1403 2931 1139 2672  Q 875 2413 847 1978  z " transform="scale(0.015625)" />
      <path id="ArialMT-67" d="M 319 -275  L 866 -356  Q 900 -609 1056 -725  Q 1266 -881 1628 -881  Q 2019 -881 2231 -725  Q 2444 -569 2519 -288  Q 2563 -116 2559 434  Q 2191 0 1641 0  Q 956 0 581 494  Q 206 988 206 1678  Q 206 2153 378 2554  Q 550 2956 876 3175  Q 1203 3394 1644 3394  Q 2231 3394 2613 2919  L 2613 3319  L 3131 3319  L 3131 450  Q 3131 -325 2973 -648  Q 2816 -972 2473 -1159  Q 2131 -1347 1631 -1347  Q 1038 -1347 672 -1080  Q 306 -813 319 -275  z M 784 1719  Q 784 1066 1043 766  Q 1303 466 1694 466  Q 2081 466 2343 764  Q 2606 1063 2606 1700  Q 2606 2309 2336 2618  Q 2066 2928 1684 2928  Q 1309 2928 1046 2623  Q 784 2319 784 1719  z " transform="scale(0.015625)" />
     </defs>
     <use xlink:href="#ArialMT-6e" />
     <use xlink:href="#ArialMT-65" x="55.615234" />
     <use xlink:href="#ArialMT-67" x="111.230469" />
    </g>
   </g>
  </g>
 </g>
</svg></g>

<g id="edge1" class="edge">
<title>node4-&gt;leaf5</title>
<path fill="none" stroke="#444443" stroke-width="0.3" d="M99.54,-134.95C92.81,-125.53 78.57,-105.6 65.03,-86.64" />
<polygon fill="#444443" stroke="#444443" stroke-width="0.3" points="66.15,-85.81 62.69,-83.37 63.88,-87.44 66.15,-85.81" />
</g>

<g id="node14" class="node">
<title>leaf6</title>
<polygon fill="none" stroke="#444443" stroke-width="0" points="148,-82.5 81,-82.5 81,-0.5 148,-0.5 148,-82.5" />
<svg width="59px" height="74px" viewBox="0 0 78.519991 99.410533" version="1.1" preserveAspectRatio="xMinYMin meet" x="85.5" y="-78.5">
 <metadata>
  <rdf:RDF>
   <ns2:Work>
    <dc:type rdf:resource="http://purl.org/dc/dcmitype/StillImage" />
    <dc:date>2023-05-18T02:49:27.521504</dc:date>
    <dc:format>image/svg+xml</dc:format>
    <dc:creator>
     <ns2:Agent>
      <dc:title>Matplotlib v3.5.2, https://matplotlib.org/</dc:title>
     </ns2:Agent>
    </dc:creator>
   </ns2:Work>
  </rdf:RDF>
 </metadata>
 <defs>
  <style type="text/css">*{stroke-linejoin: round; stroke-linecap: butt}</style>
 </defs>
 <g id="figure_1">
  <g id="patch_1">
   <path d="M 0 99.410533  L 78.519991 99.410533  L 78.519991 -0  L 0 -0  L 0 99.410533  z " style="fill: none" />
  </g>
  <g id="axes_1">
   <g id="patch_2">
    <path d="M 78.519991 39.259764  C 78.519991 30.03183 75.266498 21.09293 69.334896 14.023923  C 63.403294 6.954915 55.16516 2.198626 46.077418 0.596212  C 36.989677 -1.006202 27.621616 0.64564 19.629991 5.259607  C 11.638365 9.873574 5.523798 17.160632 2.367659 25.832054  L 39.259991 39.259764  L 78.519991 39.259764  z " style="fill: #fefebb; stroke: #444443; stroke-width: 0.5; stroke-linejoin: miter" />
   </g>
   <g id="patch_3">
    <path d="M 2.367659 25.832054  C 0.406964 31.219019 -0.350249 36.970627 0.149388 42.6815  C 0.649025 48.392373 2.393491 53.925113 5.259835 58.889766  C 8.126179 63.854419 12.04544 68.131541 16.741383 71.419675  C 21.437326 74.70781 26.796972 76.927847 32.442568 77.923317  C 38.088163 78.918788 43.883881 78.66574 49.421232 77.182011  C 54.958583 75.698281 60.104344 73.019567 64.495837 69.334665  C 68.88733 65.649764 72.4189 61.047331 74.841638 55.851751  C 77.264375 50.656171 78.519992 44.992445 78.519991 39.259757  L 39.259991 39.259764  L 2.367659 25.832054  z " style="fill: #a1dab4; stroke: #444443; stroke-width: 0.5; stroke-linejoin: miter" />
   </g>
   <g id="text_1">
    
    <g style="fill: #444443" transform="translate(29.124444 88.102595)scale(0.09 -0.09)">
     <defs>
      <path id="ArialMT-6e" d="M 422 0  L 422 3319  L 928 3319  L 928 2847  Q 1294 3394 1984 3394  Q 2284 3394 2536 3286  Q 2788 3178 2913 3003  Q 3038 2828 3088 2588  Q 3119 2431 3119 2041  L 3119 0  L 2556 0  L 2556 2019  Q 2556 2363 2490 2533  Q 2425 2703 2258 2804  Q 2091 2906 1866 2906  Q 1506 2906 1245 2678  Q 984 2450 984 1813  L 984 0  L 422 0  z " transform="scale(0.015625)" />
      <path id="ArialMT-3d" d="M 3381 2694  L 356 2694  L 356 3219  L 3381 3219  L 3381 2694  z M 3381 1303  L 356 1303  L 356 1828  L 3381 1828  L 3381 1303  z " transform="scale(0.015625)" />
      <path id="ArialMT-39" d="M 350 1059  L 891 1109  Q 959 728 1153 556  Q 1347 384 1650 384  Q 1909 384 2104 503  Q 2300 622 2425 820  Q 2550 1019 2634 1356  Q 2719 1694 2719 2044  Q 2719 2081 2716 2156  Q 2547 1888 2255 1720  Q 1963 1553 1622 1553  Q 1053 1553 659 1965  Q 266 2378 266 3053  Q 266 3750 677 4175  Q 1088 4600 1706 4600  Q 2153 4600 2523 4359  Q 2894 4119 3086 3673  Q 3278 3228 3278 2384  Q 3278 1506 3087 986  Q 2897 466 2520 194  Q 2144 -78 1638 -78  Q 1100 -78 759 220  Q 419 519 350 1059  z M 2653 3081  Q 2653 3566 2395 3850  Q 2138 4134 1775 4134  Q 1400 4134 1122 3828  Q 844 3522 844 3034  Q 844 2597 1108 2323  Q 1372 2050 1759 2050  Q 2150 2050 2401 2323  Q 2653 2597 2653 3081  z " transform="scale(0.015625)" />
      <path id="ArialMT-35" d="M 266 1200  L 856 1250  Q 922 819 1161 601  Q 1400 384 1738 384  Q 2144 384 2425 690  Q 2706 997 2706 1503  Q 2706 1984 2436 2262  Q 2166 2541 1728 2541  Q 1456 2541 1237 2417  Q 1019 2294 894 2097  L 366 2166  L 809 4519  L 3088 4519  L 3088 3981  L 1259 3981  L 1013 2750  Q 1425 3038 1878 3038  Q 2478 3038 2890 2622  Q 3303 2206 3303 1553  Q 3303 931 2941 478  Q 2500 -78 1738 -78  Q 1113 -78 717 272  Q 322 622 266 1200  z " transform="scale(0.015625)" />
     </defs>
     <use xlink:href="#ArialMT-6e" />
     <use xlink:href="#ArialMT-3d" x="55.615234" />
     <use xlink:href="#ArialMT-39" x="114.013672" />
     <use xlink:href="#ArialMT-35" x="169.628906" />
    </g>
    
    <g style="fill: #444443" transform="translate(32.005148 97.621783)scale(0.09 -0.09)">
     <defs>
      <path id="ArialMT-70" d="M 422 -1272  L 422 3319  L 934 3319  L 934 2888  Q 1116 3141 1344 3267  Q 1572 3394 1897 3394  Q 2322 3394 2647 3175  Q 2972 2956 3137 2557  Q 3303 2159 3303 1684  Q 3303 1175 3120 767  Q 2938 359 2589 142  Q 2241 -75 1856 -75  Q 1575 -75 1351 44  Q 1128 163 984 344  L 984 -1272  L 422 -1272  z M 931 1641  Q 931 1000 1190 694  Q 1450 388 1819 388  Q 2194 388 2461 705  Q 2728 1022 2728 1688  Q 2728 2322 2467 2637  Q 2206 2953 1844 2953  Q 1484 2953 1207 2617  Q 931 2281 931 1641  z " transform="scale(0.015625)" />
      <path id="ArialMT-6f" d="M 213 1659  Q 213 2581 725 3025  Q 1153 3394 1769 3394  Q 2453 3394 2887 2945  Q 3322 2497 3322 1706  Q 3322 1066 3130 698  Q 2938 331 2570 128  Q 2203 -75 1769 -75  Q 1072 -75 642 372  Q 213 819 213 1659  z M 791 1659  Q 791 1022 1069 705  Q 1347 388 1769 388  Q 2188 388 2466 706  Q 2744 1025 2744 1678  Q 2744 2294 2464 2611  Q 2184 2928 1769 2928  Q 1347 2928 1069 2612  Q 791 2297 791 1659  z " transform="scale(0.015625)" />
      <path id="ArialMT-7a" d="M 125 0  L 125 456  L 2238 2881  Q 1878 2863 1603 2863  L 250 2863  L 250 3319  L 2963 3319  L 2963 2947  L 1166 841  L 819 456  Q 1197 484 1528 484  L 3063 484  L 3063 0  L 125 0  z " transform="scale(0.015625)" />
     </defs>
     <use xlink:href="#ArialMT-70" />
     <use xlink:href="#ArialMT-6f" x="55.615234" />
     <use xlink:href="#ArialMT-7a" x="111.230469" />
    </g>
   </g>
  </g>
 </g>
</svg></g>

<g id="edge2" class="edge">
<title>node4-&gt;leaf6</title>
<path fill="none" stroke="#444443" stroke-width="0.3" d="M104.12,-134.95C105.17,-125.61 107.38,-105.94 109.49,-87.13" />
<polygon fill="#444443" stroke="#444443" stroke-width="0.3" points="110.91,-87.01 109.97,-82.88 108.13,-86.7 110.91,-87.01" />
</g>

<g id="node2" class="node">
<title>node2</title>
<text text-anchor="start" x="93" y="-203.4" font-family="Helvetica,sans-Serif" font-size="12.00" fill="#444443">T@9.83</text>
</g>

<g id="edge5" class="edge">
<title>node2-&gt;node4</title>
<path fill="none" stroke="#444443" stroke-width="0.3" d="M113.48,-199.69C111.59,-188.85 107.51,-165.46 105.19,-152.2" />
<polygon fill="#444443" stroke="#444443" stroke-width="0.3" points="106.55,-151.82 104.48,-148.12 103.79,-152.3 106.55,-151.82" />
</g>

<g id="node4" class="node">
<title>node7</title>
<text text-anchor="start" x="154" y="-203.4" font-family="Helvetica,sans-Serif" font-size="12.00" fill="#444443">wind strength@3.16</text>
</g>


<g id="node15" class="node">
<title>leaf3</title>
<polygon fill="none" stroke="#444443" stroke-width="0" points="29.5,-159 7.5,-159 7.5,-124 29.5,-124 29.5,-159" />
<svg width="14px" height="27px" viewBox="0 0 18.724 37.222929" version="1.1" preserveAspectRatio="xMinYMin meet" x="11.5" y="-154.5">
 <metadata>
  <rdf:RDF>
   <ns2:Work>
    <dc:type rdf:resource="http://purl.org/dc/dcmitype/StillImage" />
    <dc:date>2023-05-18T02:49:27.437979</dc:date>
    <dc:format>image/svg+xml</dc:format>
    <dc:creator>
     <ns2:Agent>
      <dc:title>Matplotlib v3.5.2, https://matplotlib.org/</dc:title>
     </ns2:Agent>
    </dc:creator>
   </ns2:Work>
  </rdf:RDF>
 </metadata>
 <defs>
  <style type="text/css">*{stroke-linejoin: round; stroke-linecap: butt}</style>
 </defs>
 <g id="figure_1">
  <g id="patch_1">
   <path d="M 0 37.222929  L 18.724 37.222929  L 18.724 0  L 0 0  L 0 37.222929  z " style="fill: none" />
  </g>
  <g id="axes_1">
   <g id="patch_2">
    <path d="M 18.724 9.362  C 18.724 8.132593 18.481834 6.915141 18.01136 5.779318  C 17.540887 4.643494 16.851255 3.611388 15.981934 2.742066  C 15.112612 1.872745 14.080506 1.183113 12.944682 0.71264  C 11.808859 0.242166 10.591407 0 9.362 0  C 8.132593 0 6.915141 0.242166 5.779318 0.71264  C 4.643494 1.183113 3.611388 1.872745 2.742066 2.742066  C 1.872745 3.611388 1.183113 4.643494 0.71264 5.779318  C 0.242166 6.915141 0 8.132593 0 9.362  C 0 10.591407 0.242166 11.808859 0.71264 12.944682  C 1.183113 14.080506 1.872745 15.112612 2.742066 15.981934  C 3.611388 16.851255 4.643494 17.540887 5.779318 18.01136  C 6.915141 18.481834 8.132593 18.724 9.362 18.724  C 10.591407 18.724 11.808859 18.481834 12.944682 18.01136  C 14.080506 17.540887 15.112612 16.851255 15.981934 15.981934  C 16.851255 15.112612 17.540887 14.080506 18.01136 12.944682  C 18.481834 11.808859 18.724 10.591407 18.724 9.362  M 9.362 9.362  M 18.724 9.362  z " style="fill: #a1dab4; stroke: #444443; stroke-width: 0.5; stroke-linejoin: miter" />
   </g>
   <g id="text_1">
    
    <g style="fill: #444443" transform="translate(1.728875 25.914991)scale(0.09 -0.09)">
     <defs>
      <path id="ArialMT-6e" d="M 422 0  L 422 3319  L 928 3319  L 928 2847  Q 1294 3394 1984 3394  Q 2284 3394 2536 3286  Q 2788 3178 2913 3003  Q 3038 2828 3088 2588  Q 3119 2431 3119 2041  L 3119 0  L 2556 0  L 2556 2019  Q 2556 2363 2490 2533  Q 2425 2703 2258 2804  Q 2091 2906 1866 2906  Q 1506 2906 1245 2678  Q 984 2450 984 1813  L 984 0  L 422 0  z " transform="scale(0.015625)" />
      <path id="ArialMT-3d" d="M 3381 2694  L 356 2694  L 356 3219  L 3381 3219  L 3381 2694  z M 3381 1303  L 356 1303  L 356 1828  L 3381 1828  L 3381 1303  z " transform="scale(0.015625)" />
      <path id="ArialMT-38" d="M 1131 2484  Q 781 2613 612 2850  Q 444 3088 444 3419  Q 444 3919 803 4259  Q 1163 4600 1759 4600  Q 2359 4600 2725 4251  Q 3091 3903 3091 3403  Q 3091 3084 2923 2848  Q 2756 2613 2416 2484  Q 2838 2347 3058 2040  Q 3278 1734 3278 1309  Q 3278 722 2862 322  Q 2447 -78 1769 -78  Q 1091 -78 675 323  Q 259 725 259 1325  Q 259 1772 486 2073  Q 713 2375 1131 2484  z M 1019 3438  Q 1019 3113 1228 2906  Q 1438 2700 1772 2700  Q 2097 2700 2305 2904  Q 2513 3109 2513 3406  Q 2513 3716 2298 3927  Q 2084 4138 1766 4138  Q 1444 4138 1231 3931  Q 1019 3725 1019 3438  z M 838 1322  Q 838 1081 952 856  Q 1066 631 1291 507  Q 1516 384 1775 384  Q 2178 384 2440 643  Q 2703 903 2703 1303  Q 2703 1709 2433 1975  Q 2163 2241 1756 2241  Q 1359 2241 1098 1978  Q 838 1716 838 1322  z " transform="scale(0.015625)" />
     </defs>
     <use xlink:href="#ArialMT-6e" />
     <use xlink:href="#ArialMT-3d" x="55.615234" />
     <use xlink:href="#ArialMT-38" x="114.013672" />
    </g>
    
    <g style="fill: #444443" transform="translate(2.107156 35.434179)scale(0.09 -0.09)">
     <defs>
      <path id="ArialMT-70" d="M 422 -1272  L 422 3319  L 934 3319  L 934 2888  Q 1116 3141 1344 3267  Q 1572 3394 1897 3394  Q 2322 3394 2647 3175  Q 2972 2956 3137 2557  Q 3303 2159 3303 1684  Q 3303 1175 3120 767  Q 2938 359 2589 142  Q 2241 -75 1856 -75  Q 1575 -75 1351 44  Q 1128 163 984 344  L 984 -1272  L 422 -1272  z M 931 1641  Q 931 1000 1190 694  Q 1450 388 1819 388  Q 2194 388 2461 705  Q 2728 1022 2728 1688  Q 2728 2322 2467 2637  Q 2206 2953 1844 2953  Q 1484 2953 1207 2617  Q 931 2281 931 1641  z " transform="scale(0.015625)" />
      <path id="ArialMT-6f" d="M 213 1659  Q 213 2581 725 3025  Q 1153 3394 1769 3394  Q 2453 3394 2887 2945  Q 3322 2497 3322 1706  Q 3322 1066 3130 698  Q 2938 331 2570 128  Q 2203 -75 1769 -75  Q 1072 -75 642 372  Q 213 819 213 1659  z M 791 1659  Q 791 1022 1069 705  Q 1347 388 1769 388  Q 2188 388 2466 706  Q 2744 1025 2744 1678  Q 2744 2294 2464 2611  Q 2184 2928 1769 2928  Q 1347 2928 1069 2612  Q 791 2297 791 1659  z " transform="scale(0.015625)" />
      <path id="ArialMT-7a" d="M 125 0  L 125 456  L 2238 2881  Q 1878 2863 1603 2863  L 250 2863  L 250 3319  L 2963 3319  L 2963 2947  L 1166 841  L 819 456  Q 1197 484 1528 484  L 3063 484  L 3063 0  L 125 0  z " transform="scale(0.015625)" />
     </defs>
     <use xlink:href="#ArialMT-70" />
     <use xlink:href="#ArialMT-6f" x="55.615234" />
     <use xlink:href="#ArialMT-7a" x="111.230469" />
    </g>
   </g>
  </g>
 </g>
</svg></g>

<g id="edge4" class="edge">
<title>node2-&gt;leaf3</title>
<path fill="none" stroke="#444443" stroke-width="0.3" d="M105.98,-199.91C89.58,-189.15 53.46,-165.45 33.14,-152.11" />
<polygon fill="#444443" stroke="#444443" stroke-width="0.3" points="33.89,-150.92 29.78,-149.9 32.35,-153.26 33.89,-150.92" />
</g>

<g id="node3" class="node">
<title>node8</title>
<text text-anchor="start" x="171" y="-138.4" font-family="Helvetica,sans-Serif" font-size="12.00" fill="#444443">DSP@9.20</text>
</g>

<g id="node16" class="node">
<title>leaf9</title>
<polygon fill="none" stroke="#444443" stroke-width="0" points="218.5,-72 172.5,-72 172.5,-11 218.5,-11 218.5,-72" />
<svg width="38px" height="53px" viewBox="0 0 51.339996 71.143563" version="1.1" preserveAspectRatio="xMinYMin meet" x="176.5" y="-67.5">
 <metadata>
  <rdf:RDF>
   <ns2:Work>
    <dc:type rdf:resource="http://purl.org/dc/dcmitype/StillImage" />
    <dc:date>2023-05-18T02:49:27.558988</dc:date>
    <dc:format>image/svg+xml</dc:format>
    <dc:creator>
     <ns2:Agent>
      <dc:title>Matplotlib v3.5.2, https://matplotlib.org/</dc:title>
     </ns2:Agent>
    </dc:creator>
   </ns2:Work>
  </rdf:RDF>
 </metadata>
 <defs>
  <style type="text/css">*{stroke-linejoin: round; stroke-linecap: butt}</style>
 </defs>
 <g id="figure_1">
  <g id="patch_1">
   <path d="M 0 71.143563  L 51.339996 71.143563  L 51.339996 0  L 0 0  L 0 71.143563  z " style="fill: none" />
  </g>
  <g id="axes_1">
   <g id="patch_2">
    <path d="M 51.339996 25.669994  C 51.339996 19.05278 48.781317 12.685262 44.202609 7.907923  C 39.623901 3.130585 33.370713 0.303966 26.759461 0.023124  C 20.148209 -0.257719 13.677835 2.02841 8.710475 6.400237  C 3.743116 10.772064 0.653651 16.899651 0.092472 23.493028  L 25.669996 25.669994  L 51.339996 25.669994  z " style="fill: #fefebb; stroke: #444443; stroke-width: 0.5; stroke-linejoin: miter" />
   </g>
   <g id="patch_3">
    <path d="M 0.092472 23.493028  C -0.201182 26.943217 0.206279 30.417419 1.290272 33.706035  C 2.374265 36.994651 4.112544 40.03019 6.400239 42.629515  C 8.687933 45.228841 11.478092 47.338608 14.602386 48.831534  C 17.726679 50.32446 21.120988 51.169905 24.580531 51.316865  C 28.040074 51.463824 31.493853 50.909282 34.733501 49.686692  C 37.973148 48.464103 40.932176 46.598558 43.432067 44.202607  C 45.931958 41.806656 47.921406 38.929469 49.280388 35.744629  C 50.639371 32.559789 51.339996 29.132658 51.339996 25.669994  L 25.669996 25.669994  L 0.092472 23.493028  z " style="fill: #a1dab4; stroke: #444443; stroke-width: 0.5; stroke-linejoin: miter" />
   </g>
   <g id="text_1">
    
    <g style="fill: #444443" transform="translate(15.534449 59.835626)scale(0.09 -0.09)">
     <defs>
      <path id="ArialMT-6e" d="M 422 0  L 422 3319  L 928 3319  L 928 2847  Q 1294 3394 1984 3394  Q 2284 3394 2536 3286  Q 2788 3178 2913 3003  Q 3038 2828 3088 2588  Q 3119 2431 3119 2041  L 3119 0  L 2556 0  L 2556 2019  Q 2556 2363 2490 2533  Q 2425 2703 2258 2804  Q 2091 2906 1866 2906  Q 1506 2906 1245 2678  Q 984 2450 984 1813  L 984 0  L 422 0  z " transform="scale(0.015625)" />
      <path id="ArialMT-3d" d="M 3381 2694  L 356 2694  L 356 3219  L 3381 3219  L 3381 2694  z M 3381 1303  L 356 1303  L 356 1828  L 3381 1828  L 3381 1303  z " transform="scale(0.015625)" />
      <path id="ArialMT-33" d="M 269 1209  L 831 1284  Q 928 806 1161 595  Q 1394 384 1728 384  Q 2125 384 2398 659  Q 2672 934 2672 1341  Q 2672 1728 2419 1979  Q 2166 2231 1775 2231  Q 1616 2231 1378 2169  L 1441 2663  Q 1497 2656 1531 2656  Q 1891 2656 2178 2843  Q 2466 3031 2466 3422  Q 2466 3731 2256 3934  Q 2047 4138 1716 4138  Q 1388 4138 1169 3931  Q 950 3725 888 3313  L 325 3413  Q 428 3978 793 4289  Q 1159 4600 1703 4600  Q 2078 4600 2393 4439  Q 2709 4278 2876 4000  Q 3044 3722 3044 3409  Q 3044 3113 2884 2869  Q 2725 2625 2413 2481  Q 2819 2388 3044 2092  Q 3269 1797 3269 1353  Q 3269 753 2831 336  Q 2394 -81 1725 -81  Q 1122 -81 723 278  Q 325 638 269 1209  z " transform="scale(0.015625)" />
      <path id="ArialMT-35" d="M 266 1200  L 856 1250  Q 922 819 1161 601  Q 1400 384 1738 384  Q 2144 384 2425 690  Q 2706 997 2706 1503  Q 2706 1984 2436 2262  Q 2166 2541 1728 2541  Q 1456 2541 1237 2417  Q 1019 2294 894 2097  L 366 2166  L 809 4519  L 3088 4519  L 3088 3981  L 1259 3981  L 1013 2750  Q 1425 3038 1878 3038  Q 2478 3038 2890 2622  Q 3303 2206 3303 1553  Q 3303 931 2941 478  Q 2500 -78 1738 -78  Q 1113 -78 717 272  Q 322 622 266 1200  z " transform="scale(0.015625)" />
     </defs>
     <use xlink:href="#ArialMT-6e" />
     <use xlink:href="#ArialMT-3d" x="55.615234" />
     <use xlink:href="#ArialMT-33" x="114.013672" />
     <use xlink:href="#ArialMT-35" x="169.628906" />
    </g>
    
    <g style="fill: #444443" transform="translate(18.415152 69.354813)scale(0.09 -0.09)">
     <defs>
      <path id="ArialMT-70" d="M 422 -1272  L 422 3319  L 934 3319  L 934 2888  Q 1116 3141 1344 3267  Q 1572 3394 1897 3394  Q 2322 3394 2647 3175  Q 2972 2956 3137 2557  Q 3303 2159 3303 1684  Q 3303 1175 3120 767  Q 2938 359 2589 142  Q 2241 -75 1856 -75  Q 1575 -75 1351 44  Q 1128 163 984 344  L 984 -1272  L 422 -1272  z M 931 1641  Q 931 1000 1190 694  Q 1450 388 1819 388  Q 2194 388 2461 705  Q 2728 1022 2728 1688  Q 2728 2322 2467 2637  Q 2206 2953 1844 2953  Q 1484 2953 1207 2617  Q 931 2281 931 1641  z " transform="scale(0.015625)" />
      <path id="ArialMT-6f" d="M 213 1659  Q 213 2581 725 3025  Q 1153 3394 1769 3394  Q 2453 3394 2887 2945  Q 3322 2497 3322 1706  Q 3322 1066 3130 698  Q 2938 331 2570 128  Q 2203 -75 1769 -75  Q 1072 -75 642 372  Q 213 819 213 1659  z M 791 1659  Q 791 1022 1069 705  Q 1347 388 1769 388  Q 2188 388 2466 706  Q 2744 1025 2744 1678  Q 2744 2294 2464 2611  Q 2184 2928 1769 2928  Q 1347 2928 1069 2612  Q 791 2297 791 1659  z " transform="scale(0.015625)" />
      <path id="ArialMT-7a" d="M 125 0  L 125 456  L 2238 2881  Q 1878 2863 1603 2863  L 250 2863  L 250 3319  L 2963 3319  L 2963 2947  L 1166 841  L 819 456  Q 1197 484 1528 484  L 3063 484  L 3063 0  L 125 0  z " transform="scale(0.015625)" />
     </defs>
     <use xlink:href="#ArialMT-70" />
     <use xlink:href="#ArialMT-6f" x="55.615234" />
     <use xlink:href="#ArialMT-7a" x="111.230469" />
    </g>
   </g>
  </g>
 </g>
</svg></g>

<g id="edge7" class="edge">
<title>node8-&gt;leaf9</title>
<path fill="none" stroke="#444443" stroke-width="0.3" d="M201.16,-134.95C200.48,-123.79 198.89,-97.85 197.57,-76.28" />
<polygon fill="#444443" stroke="#444443" stroke-width="0.3" points="198.95,-75.94 197.31,-72.03 196.16,-76.11 198.95,-75.94" />
</g>

<g id="node17" class="node">
<title>leaf10</title>
<polygon fill="none" stroke="#444443" stroke-width="0" points="299,-83 232,-83 232,0 299,0 299,-83" />
<svg width="59px" height="75px" viewBox="0 0 78.52 99.516229" version="1.1" preserveAspectRatio="xMinYMin meet" x="236.5" y="-78.5">
 <metadata>
  <rdf:RDF>
   <ns2:Work>
    <dc:type rdf:resource="http://purl.org/dc/dcmitype/StillImage" />
    <dc:date>2023-05-18T02:49:27.602343</dc:date>
    <dc:format>image/svg+xml</dc:format>
    <dc:creator>
     <ns2:Agent>
      <dc:title>Matplotlib v3.5.2, https://matplotlib.org/</dc:title>
     </ns2:Agent>
    </dc:creator>
   </ns2:Work>
  </rdf:RDF>
 </metadata>
 <defs>
  <style type="text/css">*{stroke-linejoin: round; stroke-linecap: butt}</style>
 </defs>
 <g id="figure_1">
  <g id="patch_1">
   <path d="M -0 99.516229  L 78.52 99.516229  L 78.52 0  L -0 0  L -0 99.516229  z " style="fill: none" />
  </g>
  <g id="axes_1">
   <g id="patch_2">
    <path d="M 78.52 39.259992  C 78.52 34.707902 77.728296 30.190301 76.180342 25.909489  C 74.632388 21.628676 72.351639 17.649518 69.440228 14.150204  C 66.528816 10.650889 63.03086 7.684442 59.102996 5.383701  C 55.175133 3.08296 50.876882 1.482787 46.400721 0.65484  C 41.924559 -0.173107 37.338313 -0.216283 32.847358 0.527246  C 28.356402 1.270774 24.028786 2.78974 20.058304 5.016124  C 16.087821 7.242508 12.534635 10.142574 9.557859 13.586456  C 6.581083 17.030338 4.225823 20.965851 2.597549 25.216762  C 0.969275 29.467673 0.09266 33.969568 0.006958 38.52085  C -0.078743 43.072133 0.627768 47.603838 2.094854 51.913035  C 3.56194 56.222232 5.767369 60.243624 8.612384 63.797131  C 11.457398 67.350638 14.898886 70.382415 18.782737 72.756698  C 22.666589 75.13098 26.933952 76.811791 31.393732 77.723863  C 35.853513 78.635936 40.438133 78.765449 44.942291 78.106602  C 49.446449 77.447756 53.801895 76.010535 57.813589 73.859297  C 61.825284 71.708059 65.432439 68.875402 68.473525 65.488174  L 39.26 39.259992  L 78.52 39.259992  z " style="fill: #fefebb; stroke: #444443; stroke-width: 0.5; stroke-linejoin: miter" />
   </g>
   <g id="patch_3">
    <path d="M 68.473525 65.488174  C 71.68052 61.916152 74.205346 57.786041 75.922452 53.303218  C 77.639558 48.820395 78.520001 44.060417 78.52 39.259984  L 39.26 39.259992  L 68.473525 65.488174  z " style="fill: #a1dab4; stroke: #444443; stroke-width: 0.5; stroke-linejoin: miter" />
   </g>
   <g id="text_1">
    
    <g style="fill: #444443" transform="translate(26.622031 88.102823)scale(0.09 -0.09)">
     <defs>
      <path id="ArialMT-6e" d="M 422 0  L 422 3319  L 928 3319  L 928 2847  Q 1294 3394 1984 3394  Q 2284 3394 2536 3286  Q 2788 3178 2913 3003  Q 3038 2828 3088 2588  Q 3119 2431 3119 2041  L 3119 0  L 2556 0  L 2556 2019  Q 2556 2363 2490 2533  Q 2425 2703 2258 2804  Q 2091 2906 1866 2906  Q 1506 2906 1245 2678  Q 984 2450 984 1813  L 984 0  L 422 0  z " transform="scale(0.015625)" />
      <path id="ArialMT-3d" d="M 3381 2694  L 356 2694  L 356 3219  L 3381 3219  L 3381 2694  z M 3381 1303  L 356 1303  L 356 1828  L 3381 1828  L 3381 1303  z " transform="scale(0.015625)" />
      <path id="ArialMT-31" d="M 2384 0  L 1822 0  L 1822 3584  Q 1619 3391 1289 3197  Q 959 3003 697 2906  L 697 3450  Q 1169 3672 1522 3987  Q 1875 4303 2022 4600  L 2384 4600  L 2384 0  z " transform="scale(0.015625)" />
      <path id="ArialMT-38" d="M 1131 2484  Q 781 2613 612 2850  Q 444 3088 444 3419  Q 444 3919 803 4259  Q 1163 4600 1759 4600  Q 2359 4600 2725 4251  Q 3091 3903 3091 3403  Q 3091 3084 2923 2848  Q 2756 2613 2416 2484  Q 2838 2347 3058 2040  Q 3278 1734 3278 1309  Q 3278 722 2862 322  Q 2447 -78 1769 -78  Q 1091 -78 675 323  Q 259 725 259 1325  Q 259 1772 486 2073  Q 713 2375 1131 2484  z M 1019 3438  Q 1019 3113 1228 2906  Q 1438 2700 1772 2700  Q 2097 2700 2305 2904  Q 2513 3109 2513 3406  Q 2513 3716 2298 3927  Q 2084 4138 1766 4138  Q 1444 4138 1231 3931  Q 1019 3725 1019 3438  z M 838 1322  Q 838 1081 952 856  Q 1066 631 1291 507  Q 1516 384 1775 384  Q 2178 384 2440 643  Q 2703 903 2703 1303  Q 2703 1709 2433 1975  Q 2163 2241 1756 2241  Q 1359 2241 1098 1978  Q 838 1716 838 1322  z " transform="scale(0.015625)" />
     </defs>
     <use xlink:href="#ArialMT-6e" />
     <use xlink:href="#ArialMT-3d" x="55.615234" />
     <use xlink:href="#ArialMT-31" x="114.013672" />
     <use xlink:href="#ArialMT-38" x="169.628906" />
     <use xlink:href="#ArialMT-38" x="225.244141" />
    </g>
    
    <g style="fill: #444443" transform="translate(31.752734 97.62201)scale(0.09 -0.09)">
     <defs>
      <path id="ArialMT-65" d="M 2694 1069  L 3275 997  Q 3138 488 2766 206  Q 2394 -75 1816 -75  Q 1088 -75 661 373  Q 234 822 234 1631  Q 234 2469 665 2931  Q 1097 3394 1784 3394  Q 2450 3394 2872 2941  Q 3294 2488 3294 1666  Q 3294 1616 3291 1516  L 816 1516  Q 847 969 1125 678  Q 1403 388 1819 388  Q 2128 388 2347 550  Q 2566 713 2694 1069  z M 847 1978  L 2700 1978  Q 2663 2397 2488 2606  Q 2219 2931 1791 2931  Q 1403 2931 1139 2672  Q 875 2413 847 1978  z " transform="scale(0.015625)" />
      <path id="ArialMT-67" d="M 319 -275  L 866 -356  Q 900 -609 1056 -725  Q 1266 -881 1628 -881  Q 2019 -881 2231 -725  Q 2444 -569 2519 -288  Q 2563 -116 2559 434  Q 2191 0 1641 0  Q 956 0 581 494  Q 206 988 206 1678  Q 206 2153 378 2554  Q 550 2956 876 3175  Q 1203 3394 1644 3394  Q 2231 3394 2613 2919  L 2613 3319  L 3131 3319  L 3131 450  Q 3131 -325 2973 -648  Q 2816 -972 2473 -1159  Q 2131 -1347 1631 -1347  Q 1038 -1347 672 -1080  Q 306 -813 319 -275  z M 784 1719  Q 784 1066 1043 766  Q 1303 466 1694 466  Q 2081 466 2343 764  Q 2606 1063 2606 1700  Q 2606 2309 2336 2618  Q 2066 2928 1684 2928  Q 1309 2928 1046 2623  Q 784 2319 784 1719  z " transform="scale(0.015625)" />
     </defs>
     <use xlink:href="#ArialMT-6e" />
     <use xlink:href="#ArialMT-65" x="55.615234" />
     <use xlink:href="#ArialMT-67" x="111.230469" />
    </g>
   </g>
  </g>
 </g>
</svg></g>

<g id="edge8" class="edge">
<title>node8-&gt;leaf10</title>
<path fill="none" stroke="#444443" stroke-width="0.3" d="M205.12,-134.95C211.22,-125.61 224.08,-105.93 236.36,-87.11" />
<polygon fill="#444443" stroke="#444443" stroke-width="0.3" points="237.8,-87.48 238.81,-83.37 235.45,-85.95 237.8,-87.48" />
</g>

<g id="node18" class="node">
<title>leaf11</title>
<polygon fill="none" stroke="#444443" stroke-width="0" points="313,-183 246,-183 246,-100 313,-100 313,-183" />
<svg width="59px" height="75px" viewBox="0 0 78.52 99.516238" version="1.1" preserveAspectRatio="xMinYMin meet" x="250.5" y="-178.5">
 <metadata>
  <rdf:RDF>
   <ns2:Work>
    <dc:type rdf:resource="http://purl.org/dc/dcmitype/StillImage" />
    <dc:date>2023-05-18T02:49:27.640693</dc:date>
    <dc:format>image/svg+xml</dc:format>
    <dc:creator>
     <ns2:Agent>
      <dc:title>Matplotlib v3.5.2, https://matplotlib.org/</dc:title>
     </ns2:Agent>
    </dc:creator>
   </ns2:Work>
  </rdf:RDF>
 </metadata>
 <defs>
  <style type="text/css">*{stroke-linejoin: round; stroke-linecap: butt}</style>
 </defs>
 <g id="figure_1">
  <g id="patch_1">
   <path d="M -0 99.516238  L 78.52 99.516238  L 78.52 0  L -0 0  L -0 99.516238  z " style="fill: none" />
  </g>
  <g id="axes_1">
   <g id="patch_2">
    <path d="M 78.52 39.26  C 78.52 34.104424 77.504464 28.99898 75.53151 24.235848  C 73.558557 19.472717 70.666555 15.14453 67.021012 11.498988  C 63.37547 7.853445 59.047283 4.961443 54.284152 2.98849  C 49.52102 1.015536 44.415576 0 39.26 0  C 34.104424 0 28.99898 1.015536 24.235848 2.98849  C 19.472717 4.961443 15.14453 7.853445 11.498988 11.498988  C 7.853445 15.14453 4.961443 19.472717 2.98849 24.235848  C 1.015536 28.99898 0 34.104424 0 39.26  C 0 44.415576 1.015536 49.52102 2.98849 54.284152  C 4.961443 59.047283 7.853445 63.37547 11.498988 67.021012  C 15.14453 70.666555 19.472717 73.558557 24.235848 75.53151  C 28.99898 77.504464 34.104424 78.52 39.26 78.52  C 44.415576 78.52 49.52102 77.504464 54.284152 75.53151  C 59.047283 73.558557 63.37547 70.666555 67.021012 67.021012  C 70.666555 63.37547 73.558557 59.047283 75.53151 54.284152  C 77.504464 49.52102 78.52 44.415576 78.52 39.26  M 39.26 39.26  M 78.52 39.26  z " style="fill: #fefebb; stroke: #444443; stroke-width: 0.5; stroke-linejoin: miter" />
   </g>
   <g id="text_1">
    
    <g style="fill: #444443" transform="translate(26.622031 88.102831)scale(0.09 -0.09)">
     <defs>
      <path id="ArialMT-6e" d="M 422 0  L 422 3319  L 928 3319  L 928 2847  Q 1294 3394 1984 3394  Q 2284 3394 2536 3286  Q 2788 3178 2913 3003  Q 3038 2828 3088 2588  Q 3119 2431 3119 2041  L 3119 0  L 2556 0  L 2556 2019  Q 2556 2363 2490 2533  Q 2425 2703 2258 2804  Q 2091 2906 1866 2906  Q 1506 2906 1245 2678  Q 984 2450 984 1813  L 984 0  L 422 0  z " transform="scale(0.015625)" />
      <path id="ArialMT-3d" d="M 3381 2694  L 356 2694  L 356 3219  L 3381 3219  L 3381 2694  z M 3381 1303  L 356 1303  L 356 1828  L 3381 1828  L 3381 1303  z " transform="scale(0.015625)" />
      <path id="ArialMT-31" d="M 2384 0  L 1822 0  L 1822 3584  Q 1619 3391 1289 3197  Q 959 3003 697 2906  L 697 3450  Q 1169 3672 1522 3987  Q 1875 4303 2022 4600  L 2384 4600  L 2384 0  z " transform="scale(0.015625)" />
      <path id="ArialMT-32" d="M 3222 541  L 3222 0  L 194 0  Q 188 203 259 391  Q 375 700 629 1000  Q 884 1300 1366 1694  Q 2113 2306 2375 2664  Q 2638 3022 2638 3341  Q 2638 3675 2398 3904  Q 2159 4134 1775 4134  Q 1369 4134 1125 3890  Q 881 3647 878 3216  L 300 3275  Q 359 3922 746 4261  Q 1134 4600 1788 4600  Q 2447 4600 2831 4234  Q 3216 3869 3216 3328  Q 3216 3053 3103 2787  Q 2991 2522 2730 2228  Q 2469 1934 1863 1422  Q 1356 997 1212 845  Q 1069 694 975 541  L 3222 541  z " transform="scale(0.015625)" />
      <path id="ArialMT-36" d="M 3184 3459  L 2625 3416  Q 2550 3747 2413 3897  Q 2184 4138 1850 4138  Q 1581 4138 1378 3988  Q 1113 3794 959 3422  Q 806 3050 800 2363  Q 1003 2672 1297 2822  Q 1591 2972 1913 2972  Q 2475 2972 2870 2558  Q 3266 2144 3266 1488  Q 3266 1056 3080 686  Q 2894 316 2569 119  Q 2244 -78 1831 -78  Q 1128 -78 684 439  Q 241 956 241 2144  Q 241 3472 731 4075  Q 1159 4600 1884 4600  Q 2425 4600 2770 4297  Q 3116 3994 3184 3459  z M 888 1484  Q 888 1194 1011 928  Q 1134 663 1356 523  Q 1578 384 1822 384  Q 2178 384 2434 671  Q 2691 959 2691 1453  Q 2691 1928 2437 2201  Q 2184 2475 1800 2475  Q 1419 2475 1153 2201  Q 888 1928 888 1484  z " transform="scale(0.015625)" />
     </defs>
     <use xlink:href="#ArialMT-6e" />
     <use xlink:href="#ArialMT-3d" x="55.615234" />
     <use xlink:href="#ArialMT-31" x="114.013672" />
     <use xlink:href="#ArialMT-32" x="169.628906" />
     <use xlink:href="#ArialMT-36" x="225.244141" />
    </g>
    
    <g style="fill: #444443" transform="translate(31.752734 97.622019)scale(0.09 -0.09)">
     <defs>
      <path id="ArialMT-65" d="M 2694 1069  L 3275 997  Q 3138 488 2766 206  Q 2394 -75 1816 -75  Q 1088 -75 661 373  Q 234 822 234 1631  Q 234 2469 665 2931  Q 1097 3394 1784 3394  Q 2450 3394 2872 2941  Q 3294 2488 3294 1666  Q 3294 1616 3291 1516  L 816 1516  Q 847 969 1125 678  Q 1403 388 1819 388  Q 2128 388 2347 550  Q 2566 713 2694 1069  z M 847 1978  L 2700 1978  Q 2663 2397 2488 2606  Q 2219 2931 1791 2931  Q 1403 2931 1139 2672  Q 875 2413 847 1978  z " transform="scale(0.015625)" />
      <path id="ArialMT-67" d="M 319 -275  L 866 -356  Q 900 -609 1056 -725  Q 1266 -881 1628 -881  Q 2019 -881 2231 -725  Q 2444 -569 2519 -288  Q 2563 -116 2559 434  Q 2191 0 1641 0  Q 956 0 581 494  Q 206 988 206 1678  Q 206 2153 378 2554  Q 550 2956 876 3175  Q 1203 3394 1644 3394  Q 2231 3394 2613 2919  L 2613 3319  L 3131 3319  L 3131 450  Q 3131 -325 2973 -648  Q 2816 -972 2473 -1159  Q 2131 -1347 1631 -1347  Q 1038 -1347 672 -1080  Q 306 -813 319 -275  z M 784 1719  Q 784 1066 1043 766  Q 1303 466 1694 466  Q 2081 466 2343 764  Q 2606 1063 2606 1700  Q 2606 2309 2336 2618  Q 2066 2928 1684 2928  Q 1309 2928 1046 2623  Q 784 2319 784 1719  z " transform="scale(0.015625)" />
     </defs>
     <use xlink:href="#ArialMT-6e" />
     <use xlink:href="#ArialMT-65" x="55.615234" />
     <use xlink:href="#ArialMT-67" x="111.230469" />
    </g>
   </g>
  </g>
 </g>
</svg></g>


<g id="edge10" class="edge">
<title>node7-&gt;node8</title>
<path fill="none" stroke="#444443" stroke-width="0.3" d="M206.95,-199.69C205.91,-188.85 203.69,-165.46 202.42,-152.2" />
<polygon fill="#444443" stroke="#444443" stroke-width="0.3" points="203.81,-151.97 202.04,-148.12 201.02,-152.23 203.81,-151.97" />
</g>

<g id="edge11" class="edge">
<title>node7-&gt;leaf11</title>
<path fill="none" stroke="#444443" stroke-width="0.3" d="M214.14,-199.69C220.83,-193.84 231.68,-184.34 242.65,-174.75" />
<polygon fill="#444443" stroke="#444443" stroke-width="0.3" points="243.65,-175.73 245.74,-172.04 241.81,-173.62 243.65,-175.73" />
</g>

<g id="node5" class="node">
<title>node1</title>
<text text-anchor="start" x="206.5" y="-233.4" font-family="Helvetica,sans-Serif" font-size="12.00" fill="#444443">salinity@37.02</text>
</g>

<g id="edge13" class="edge">
<title>node1-&gt;node2</title>
<path fill="none" stroke="#444443" stroke-width="0.3" d="M220.42,-229.97C197.22,-225.05 163.48,-217.89 140.35,-212.98" />
<polygon fill="#444443" stroke="#444443" stroke-width="0.3" points="140.36,-211.55 136.16,-212.09 139.78,-214.29 140.36,-211.55" />
</g>

<g id="edge14" class="edge">
<title>node1-&gt;node7</title>
<path fill="none" stroke="#444443" stroke-width="0.3" d="M238.61,-229.83C232.9,-225.73 225.1,-220.14 218.74,-215.57" />
<polygon fill="#444443" stroke="#444443" stroke-width="0.3" points="219.45,-214.35 215.38,-213.16 217.81,-216.63 219.45,-214.35" />
</g>

<g id="node11" class="node">
<title>node12</title>
<text text-anchor="start" x="316.5" y="-233.4" font-family="Helvetica,sans-Serif" font-size="12.00" fill="#444443">Soca@3279.23</text>
</g>


<g id="node6" class="node">
<title>node14</title>
<text text-anchor="start" x="320.5" y="-138.4" font-family="Helvetica,sans-Serif" font-size="12.00" fill="#444443">salinity@29.59</text>
</g>

<g id="node7" class="node">
<title>node17</title>
<text text-anchor="start" x="414" y="-138.4" font-family="Helvetica,sans-Serif" font-size="12.00" fill="#444443">Phalacroma rotundatum@9.88</text>
</g>


<g id="node19" class="node">
<title>leaf15</title>
<polygon fill="none" stroke="#444443" stroke-width="0" points="343,-56 324,-56 324,-27 343,-27 343,-56" />
<svg width="11px" height="21px" viewBox="0 0 15.26625 28.428689" version="1.1" preserveAspectRatio="xMinYMin meet" x="328.5" y="-51.5">
 <metadata>
  <rdf:RDF>
   <ns2:Work>
    <dc:type rdf:resource="http://purl.org/dc/dcmitype/StillImage" />
    <dc:date>2023-05-18T02:49:27.677800</dc:date>
    <dc:format>image/svg+xml</dc:format>
    <dc:creator>
     <ns2:Agent>
      <dc:title>Matplotlib v3.5.2, https://matplotlib.org/</dc:title>
     </ns2:Agent>
    </dc:creator>
   </ns2:Work>
  </rdf:RDF>
 </metadata>
 <defs>
  <style type="text/css">*{stroke-linejoin: round; stroke-linecap: butt}</style>
 </defs>
 <g id="figure_1">
  <g id="patch_1">
   <path d="M 0 28.428689  L 15.26625 28.428689  L 15.26625 0  L 0 0  L 0 28.428689  z " style="fill: none" />
  </g>
  <g id="axes_1">
   <g id="patch_2">
    <path d="M 12.767125 5.134  C 12.767125 4.459809 12.634324 3.792174 12.376323 3.169303  C 12.118321 2.546432 11.740136 1.980439 11.263411 1.503714  C 10.786686 1.026989 10.220693 0.648804 9.597822 0.390802  C 8.974951 0.132801 8.307316 0 7.633125 0  C 6.958934 0 6.291299 0.132801 5.668428 0.390802  C 5.045557 0.648804 4.479564 1.026989 4.002839 1.503714  C 3.526114 1.980439 3.147929 2.546432 2.889927 3.169303  C 2.631926 3.792174 2.499125 4.459809 2.499125 5.134  C 2.499125 5.808191 2.631926 6.475826 2.889927 7.098697  C 3.147929 7.721568 3.526114 8.287561 4.002839 8.764286  C 4.479564 9.241011 5.045557 9.619196 5.668428 9.877198  C 6.291299 10.135199 6.958934 10.268 7.633125 10.268  C 8.307316 10.268 8.974951 10.135199 9.597822 9.877198  C 10.220693 9.619196 10.786686 9.241011 11.263411 8.764286  C 11.740136 8.287561 12.118321 7.721568 12.376323 7.098697  C 12.634324 6.475826 12.767125 5.808191 12.767125 5.134  M 7.633125 5.134  M 12.767125 5.134  z " style="fill: #a1dab4; stroke: #444443; stroke-width: 0.5; stroke-linejoin: miter" />
   </g>
   <g id="text_1">
    
    <g style="fill: #444443" transform="translate(0 17.120751)scale(0.09 -0.09)">
     <defs>
      <path id="ArialMT-6e" d="M 422 0  L 422 3319  L 928 3319  L 928 2847  Q 1294 3394 1984 3394  Q 2284 3394 2536 3286  Q 2788 3178 2913 3003  Q 3038 2828 3088 2588  Q 3119 2431 3119 2041  L 3119 0  L 2556 0  L 2556 2019  Q 2556 2363 2490 2533  Q 2425 2703 2258 2804  Q 2091 2906 1866 2906  Q 1506 2906 1245 2678  Q 984 2450 984 1813  L 984 0  L 422 0  z " transform="scale(0.015625)" />
      <path id="ArialMT-3d" d="M 3381 2694  L 356 2694  L 356 3219  L 3381 3219  L 3381 2694  z M 3381 1303  L 356 1303  L 356 1828  L 3381 1828  L 3381 1303  z " transform="scale(0.015625)" />
      <path id="ArialMT-31" d="M 2384 0  L 1822 0  L 1822 3584  Q 1619 3391 1289 3197  Q 959 3003 697 2906  L 697 3450  Q 1169 3672 1522 3987  Q 1875 4303 2022 4600  L 2384 4600  L 2384 0  z " transform="scale(0.015625)" />
     </defs>
     <use xlink:href="#ArialMT-6e" />
     <use xlink:href="#ArialMT-3d" x="55.615234" />
     <use xlink:href="#ArialMT-31" x="114.013672" />
    </g>
    
    <g style="fill: #444443" transform="translate(0.378281 26.639939)scale(0.09 -0.09)">
     <defs>
      <path id="ArialMT-70" d="M 422 -1272  L 422 3319  L 934 3319  L 934 2888  Q 1116 3141 1344 3267  Q 1572 3394 1897 3394  Q 2322 3394 2647 3175  Q 2972 2956 3137 2557  Q 3303 2159 3303 1684  Q 3303 1175 3120 767  Q 2938 359 2589 142  Q 2241 -75 1856 -75  Q 1575 -75 1351 44  Q 1128 163 984 344  L 984 -1272  L 422 -1272  z M 931 1641  Q 931 1000 1190 694  Q 1450 388 1819 388  Q 2194 388 2461 705  Q 2728 1022 2728 1688  Q 2728 2322 2467 2637  Q 2206 2953 1844 2953  Q 1484 2953 1207 2617  Q 931 2281 931 1641  z " transform="scale(0.015625)" />
      <path id="ArialMT-6f" d="M 213 1659  Q 213 2581 725 3025  Q 1153 3394 1769 3394  Q 2453 3394 2887 2945  Q 3322 2497 3322 1706  Q 3322 1066 3130 698  Q 2938 331 2570 128  Q 2203 -75 1769 -75  Q 1072 -75 642 372  Q 213 819 213 1659  z M 791 1659  Q 791 1022 1069 705  Q 1347 388 1769 388  Q 2188 388 2466 706  Q 2744 1025 2744 1678  Q 2744 2294 2464 2611  Q 2184 2928 1769 2928  Q 1347 2928 1069 2612  Q 791 2297 791 1659  z " transform="scale(0.015625)" />
      <path id="ArialMT-7a" d="M 125 0  L 125 456  L 2238 2881  Q 1878 2863 1603 2863  L 250 2863  L 250 3319  L 2963 3319  L 2963 2947  L 1166 841  L 819 456  Q 1197 484 1528 484  L 3063 484  L 3063 0  L 125 0  z " transform="scale(0.015625)" />
     </defs>
     <use xlink:href="#ArialMT-70" />
     <use xlink:href="#ArialMT-6f" x="55.615234" />
     <use xlink:href="#ArialMT-7a" x="111.230469" />
    </g>
   </g>
  </g>
 </g>
</svg></g>

<g id="edge16" class="edge">
<title>node14-&gt;leaf15</title>
<path fill="none" stroke="#444443" stroke-width="0.3" d="M358.97,-134.95C355.06,-120.77 344.59,-82.74 338.35,-60.11" />
<polygon fill="#444443" stroke="#444443" stroke-width="0.3" points="339.65,-59.56 337.24,-56.08 336.95,-60.31 339.65,-59.56" />
</g>

<g id="node20" class="node">
<title>leaf16</title>
<polygon fill="none" stroke="#444443" stroke-width="0" points="410,-75.5 357,-75.5 357,-7.5 410,-7.5 410,-75.5" />
<svg width="45px" height="60px" viewBox="0 0 59.796 80.043278" version="1.1" preserveAspectRatio="xMinYMin meet" x="361.5" y="-71.5">
 <metadata>
  <rdf:RDF>
   <ns2:Work>
    <dc:type rdf:resource="http://purl.org/dc/dcmitype/StillImage" />
    <dc:date>2023-05-18T02:49:27.714376</dc:date>
    <dc:format>image/svg+xml</dc:format>
    <dc:creator>
     <ns2:Agent>
      <dc:title>Matplotlib v3.5.2, https://matplotlib.org/</dc:title>
     </ns2:Agent>
    </dc:creator>
   </ns2:Work>
  </rdf:RDF>
 </metadata>
 <defs>
  <style type="text/css">*{stroke-linejoin: round; stroke-linecap: butt}</style>
 </defs>
 <g id="figure_1">
  <g id="patch_1">
   <path d="M 0 80.043278  L 59.796 80.043278  L 59.796 0  L 0 0  L 0 80.043278  z " style="fill: none" />
  </g>
  <g id="axes_1">
   <g id="patch_2">
    <path d="M 59.796 29.898  C 59.796 25.971831 59.02263 22.083838 57.52015 18.456531  C 56.01767 14.829223 53.8153 11.533142 51.039079 8.756921  C 48.262858 5.9807 44.966777 3.77833 41.339469 2.27585  C 37.712162 0.77337 33.824169 0 29.898 0  C 25.971831 0 22.083838 0.77337 18.456531 2.27585  C 14.829223 3.77833 11.533142 5.9807 8.756921 8.756921  C 5.9807 11.533142 3.77833 14.829223 2.27585 18.456531  C 0.77337 22.083838 0 25.971831 0 29.898  C 0 33.824169 0.77337 37.712162 2.27585 41.339469  C 3.77833 44.966777 5.9807 48.262858 8.756921 51.039079  C 11.533142 53.8153 14.829223 56.01767 18.456531 57.52015  C 22.083838 59.02263 25.971831 59.796 29.898 59.796  C 33.824169 59.796 37.712162 59.02263 41.339469 57.52015  C 44.966777 56.01767 48.262858 53.8153 51.039079 51.039079  C 53.8153 48.262858 56.01767 44.966777 57.52015 41.339469  C 59.02263 37.712162 59.796 33.824169 59.796 29.898  M 29.898 29.898  M 59.796 29.898  z " style="fill: #fefebb; stroke: #444443; stroke-width: 0.5; stroke-linejoin: miter" />
   </g>
   <g id="text_1">
    
    <g style="fill: #444443" transform="translate(19.762453 68.629871)scale(0.09 -0.09)">
     <defs>
      <path id="ArialMT-6e" d="M 422 0  L 422 3319  L 928 3319  L 928 2847  Q 1294 3394 1984 3394  Q 2284 3394 2536 3286  Q 2788 3178 2913 3003  Q 3038 2828 3088 2588  Q 3119 2431 3119 2041  L 3119 0  L 2556 0  L 2556 2019  Q 2556 2363 2490 2533  Q 2425 2703 2258 2804  Q 2091 2906 1866 2906  Q 1506 2906 1245 2678  Q 984 2450 984 1813  L 984 0  L 422 0  z " transform="scale(0.015625)" />
      <path id="ArialMT-3d" d="M 3381 2694  L 356 2694  L 356 3219  L 3381 3219  L 3381 2694  z M 3381 1303  L 356 1303  L 356 1828  L 3381 1828  L 3381 1303  z " transform="scale(0.015625)" />
      <path id="ArialMT-34" d="M 2069 0  L 2069 1097  L 81 1097  L 81 1613  L 2172 4581  L 2631 4581  L 2631 1613  L 3250 1613  L 3250 1097  L 2631 1097  L 2631 0  L 2069 0  z M 2069 1613  L 2069 3678  L 634 1613  L 2069 1613  z " transform="scale(0.015625)" />
      <path id="ArialMT-32" d="M 3222 541  L 3222 0  L 194 0  Q 188 203 259 391  Q 375 700 629 1000  Q 884 1300 1366 1694  Q 2113 2306 2375 2664  Q 2638 3022 2638 3341  Q 2638 3675 2398 3904  Q 2159 4134 1775 4134  Q 1369 4134 1125 3890  Q 881 3647 878 3216  L 300 3275  Q 359 3922 746 4261  Q 1134 4600 1788 4600  Q 2447 4600 2831 4234  Q 3216 3869 3216 3328  Q 3216 3053 3103 2787  Q 2991 2522 2730 2228  Q 2469 1934 1863 1422  Q 1356 997 1212 845  Q 1069 694 975 541  L 3222 541  z " transform="scale(0.015625)" />
     </defs>
     <use xlink:href="#ArialMT-6e" />
     <use xlink:href="#ArialMT-3d" x="55.615234" />
     <use xlink:href="#ArialMT-34" x="114.013672" />
     <use xlink:href="#ArialMT-32" x="169.628906" />
    </g>
    
    <g style="fill: #444443" transform="translate(22.390734 78.149059)scale(0.09 -0.09)">
     <defs>
      <path id="ArialMT-65" d="M 2694 1069  L 3275 997  Q 3138 488 2766 206  Q 2394 -75 1816 -75  Q 1088 -75 661 373  Q 234 822 234 1631  Q 234 2469 665 2931  Q 1097 3394 1784 3394  Q 2450 3394 2872 2941  Q 3294 2488 3294 1666  Q 3294 1616 3291 1516  L 816 1516  Q 847 969 1125 678  Q 1403 388 1819 388  Q 2128 388 2347 550  Q 2566 713 2694 1069  z M 847 1978  L 2700 1978  Q 2663 2397 2488 2606  Q 2219 2931 1791 2931  Q 1403 2931 1139 2672  Q 875 2413 847 1978  z " transform="scale(0.015625)" />
      <path id="ArialMT-67" d="M 319 -275  L 866 -356  Q 900 -609 1056 -725  Q 1266 -881 1628 -881  Q 2019 -881 2231 -725  Q 2444 -569 2519 -288  Q 2563 -116 2559 434  Q 2191 0 1641 0  Q 956 0 581 494  Q 206 988 206 1678  Q 206 2153 378 2554  Q 550 2956 876 3175  Q 1203 3394 1644 3394  Q 2231 3394 2613 2919  L 2613 3319  L 3131 3319  L 3131 450  Q 3131 -325 2973 -648  Q 2816 -972 2473 -1159  Q 2131 -1347 1631 -1347  Q 1038 -1347 672 -1080  Q 306 -813 319 -275  z M 784 1719  Q 784 1066 1043 766  Q 1303 466 1694 466  Q 2081 466 2343 764  Q 2606 1063 2606 1700  Q 2606 2309 2336 2618  Q 2066 2928 1684 2928  Q 1309 2928 1046 2623  Q 784 2319 784 1719  z " transform="scale(0.015625)" />
     </defs>
     <use xlink:href="#ArialMT-6e" />
     <use xlink:href="#ArialMT-65" x="55.615234" />
     <use xlink:href="#ArialMT-67" x="111.230469" />
    </g>
   </g>
  </g>
 </g>
</svg></g>

<g id="edge17" class="edge">
<title>node14-&gt;leaf16</title>
<path fill="none" stroke="#444443" stroke-width="0.3" d="M361.8,-134.95C364.28,-124.4 369.86,-100.63 374.74,-79.84" />
<polygon fill="#444443" stroke="#444443" stroke-width="0.3" points="376.15,-79.94 375.7,-75.73 373.42,-79.3 376.15,-79.94" />
</g>

<g id="node21" class="node">
<title>leaf18</title>
<polygon fill="none" stroke="#444443" stroke-width="0" points="478.5,-60.5 454.5,-60.5 454.5,-22.5 478.5,-22.5 478.5,-60.5" />
<svg width="16px" height="30px" viewBox="0 0 22.348 40.991889" version="1.1" preserveAspectRatio="xMinYMin meet" x="458.5" y="-56.5">
 <metadata>
  <rdf:RDF>
   <ns2:Work>
    <dc:type rdf:resource="http://purl.org/dc/dcmitype/StillImage" />
    <dc:date>2023-05-18T02:49:27.752116</dc:date>
    <dc:format>image/svg+xml</dc:format>
    <dc:creator>
     <ns2:Agent>
      <dc:title>Matplotlib v3.5.2, https://matplotlib.org/</dc:title>
     </ns2:Agent>
    </dc:creator>
   </ns2:Work>
  </rdf:RDF>
 </metadata>
 <defs>
  <style type="text/css">*{stroke-linejoin: round; stroke-linecap: butt}</style>
 </defs>
 <g id="figure_1">
  <g id="patch_1">
   <path d="M 0 40.991889  L 22.348 40.991889  L 22.348 0  L 0 0  L 0 40.991889  z " style="fill: none" />
  </g>
  <g id="axes_1">
   <g id="patch_2">
    <path d="M 22.348 11.174  C 22.348 9.706644 22.058963 8.253556 21.49743 6.897895  C 20.935897 5.542235 20.112789 4.310366 19.075211 3.272789  C 18.037634 2.235211 16.805765 1.412103 15.450105 0.85057  C 14.094444 0.289037 12.641356 -0 11.174 -0  C 9.706644 -0 8.253556 0.289037 6.897895 0.85057  C 5.542235 1.412103 4.310366 2.235211 3.272789 3.272789  C 2.235211 4.310366 1.412103 5.542235 0.85057 6.897895  C 0.289037 8.253556 0 9.706644 0 11.174  C 0 12.641356 0.289037 14.094444 0.85057 15.450105  C 1.412103 16.805765 2.235211 18.037634 3.272789 19.075211  C 4.310366 20.112789 5.542235 20.935897 6.897895 21.49743  C 8.253556 22.058963 9.706644 22.348 11.174 22.348  C 12.641356 22.348 14.094444 22.058963 15.450105 21.49743  C 16.805765 20.935897 18.037634 20.112789 19.075211 19.075211  C 20.112789 18.037634 20.935897 16.805765 21.49743 15.450105  C 22.058963 14.094444 22.348 12.641356 22.348 11.174  M 11.174 11.174  M 22.348 11.174  z " style="fill: #a1dab4; stroke: #444443; stroke-width: 0.5; stroke-linejoin: miter" />
   </g>
   <g id="text_1">
    
    <g style="fill: #444443" transform="translate(1.370328 29.683951)scale(0.09 -0.09)">
     <defs>
      <path id="ArialMT-6e" d="M 422 0  L 422 3319  L 928 3319  L 928 2847  Q 1294 3394 1984 3394  Q 2284 3394 2536 3286  Q 2788 3178 2913 3003  Q 3038 2828 3088 2588  Q 3119 2431 3119 2041  L 3119 0  L 2556 0  L 2556 2019  Q 2556 2363 2490 2533  Q 2425 2703 2258 2804  Q 2091 2906 1866 2906  Q 1506 2906 1245 2678  Q 984 2450 984 1813  L 984 0  L 422 0  z " transform="scale(0.015625)" />
      <path id="ArialMT-3d" d="M 3381 2694  L 356 2694  L 356 3219  L 3381 3219  L 3381 2694  z M 3381 1303  L 356 1303  L 356 1828  L 3381 1828  L 3381 1303  z " transform="scale(0.015625)" />
      <path id="ArialMT-31" d="M 2384 0  L 1822 0  L 1822 3584  Q 1619 3391 1289 3197  Q 959 3003 697 2906  L 697 3450  Q 1169 3672 1522 3987  Q 1875 4303 2022 4600  L 2384 4600  L 2384 0  z " transform="scale(0.015625)" />
     </defs>
     <use xlink:href="#ArialMT-6e" />
     <use xlink:href="#ArialMT-3d" x="55.615234" />
     <use xlink:href="#ArialMT-31" x="114.013672" />
     <use xlink:href="#ArialMT-31" x="162.253906" />
    </g>
    
    <g style="fill: #444443" transform="translate(3.919156 39.203139)scale(0.09 -0.09)">
     <defs>
      <path id="ArialMT-70" d="M 422 -1272  L 422 3319  L 934 3319  L 934 2888  Q 1116 3141 1344 3267  Q 1572 3394 1897 3394  Q 2322 3394 2647 3175  Q 2972 2956 3137 2557  Q 3303 2159 3303 1684  Q 3303 1175 3120 767  Q 2938 359 2589 142  Q 2241 -75 1856 -75  Q 1575 -75 1351 44  Q 1128 163 984 344  L 984 -1272  L 422 -1272  z M 931 1641  Q 931 1000 1190 694  Q 1450 388 1819 388  Q 2194 388 2461 705  Q 2728 1022 2728 1688  Q 2728 2322 2467 2637  Q 2206 2953 1844 2953  Q 1484 2953 1207 2617  Q 931 2281 931 1641  z " transform="scale(0.015625)" />
      <path id="ArialMT-6f" d="M 213 1659  Q 213 2581 725 3025  Q 1153 3394 1769 3394  Q 2453 3394 2887 2945  Q 3322 2497 3322 1706  Q 3322 1066 3130 698  Q 2938 331 2570 128  Q 2203 -75 1769 -75  Q 1072 -75 642 372  Q 213 819 213 1659  z M 791 1659  Q 791 1022 1069 705  Q 1347 388 1769 388  Q 2188 388 2466 706  Q 2744 1025 2744 1678  Q 2744 2294 2464 2611  Q 2184 2928 1769 2928  Q 1347 2928 1069 2612  Q 791 2297 791 1659  z " transform="scale(0.015625)" />
      <path id="ArialMT-7a" d="M 125 0  L 125 456  L 2238 2881  Q 1878 2863 1603 2863  L 250 2863  L 250 3319  L 2963 3319  L 2963 2947  L 1166 841  L 819 456  Q 1197 484 1528 484  L 3063 484  L 3063 0  L 125 0  z " transform="scale(0.015625)" />
     </defs>
     <use xlink:href="#ArialMT-70" />
     <use xlink:href="#ArialMT-6f" x="55.615234" />
     <use xlink:href="#ArialMT-7a" x="111.230469" />
    </g>
   </g>
  </g>
 </g>
</svg></g>

<g id="edge19" class="edge">
<title>node17-&gt;leaf18</title>
<path fill="none" stroke="#444443" stroke-width="0.3" d="M493.86,-134.95C489.92,-121.63 479.75,-87.26 472.98,-64.39" />
<polygon fill="#444443" stroke="#444443" stroke-width="0.3" points="474.32,-63.98 471.84,-60.54 471.63,-64.78 474.32,-63.98" />
</g>

<g id="node22" class="node">
<title>leaf19</title>
<polygon fill="none" stroke="#444443" stroke-width="0" points="554.5,-80.5 492.5,-80.5 492.5,-2.5 554.5,-2.5 554.5,-80.5" />
<svg width="54px" height="70px" viewBox="0 0 73.083976 93.862787" version="1.1" preserveAspectRatio="xMinYMin meet" x="496.5" y="-76.5">
 <metadata>
  <rdf:RDF>
   <ns2:Work>
    <dc:type rdf:resource="http://purl.org/dc/dcmitype/StillImage" />
    <dc:date>2023-05-18T02:49:27.787474</dc:date>
    <dc:format>image/svg+xml</dc:format>
    <dc:creator>
     <ns2:Agent>
      <dc:title>Matplotlib v3.5.2, https://matplotlib.org/</dc:title>
     </ns2:Agent>
    </dc:creator>
   </ns2:Work>
  </rdf:RDF>
 </metadata>
 <defs>
  <style type="text/css">*{stroke-linejoin: round; stroke-linecap: butt}</style>
 </defs>
 <g id="figure_1">
  <g id="patch_1">
   <path d="M -0 93.862787  L 73.083976 93.862787  L 73.083976 0  L -0 0  L -0 93.862787  z " style="fill: none" />
  </g>
  <g id="axes_1">
   <g id="patch_2">
    <path d="M 73.083976 36.54199  C 73.083976 31.421186 72.007572 26.357105 69.924754 21.679019  C 67.841935 17.000932 64.798844 12.812477 60.993345 9.385991  C 57.187846 5.959504 52.704246 3.370897 47.834073 1.788482  C 42.963899 0.206067 37.815045 -0.335099 32.722293 0.200171  C 27.629542 0.735441 22.705718 2.335289 18.270972 4.895691  C 13.836227 7.456094 9.988806 10.920328 6.978874 15.063145  C 3.968942 19.205962 1.863179 23.935584 0.798505 28.944486  C -0.266169 33.953388 -0.266168 39.130604 0.798507 44.139505  L 36.541976 36.54199  L 73.083976 36.54199  z " style="fill: #fefebb; stroke: #444443; stroke-width: 0.5; stroke-linejoin: miter" />
   </g>
   <g id="patch_3">
    <path d="M 0.798507 44.139505  C 2.675452 52.969825 7.759654 60.798807 15.063132 66.105093  C 22.366611 71.411379 31.383521 73.82745 40.361661 72.883808  C 49.339802 71.940166 57.65734 67.702167 63.697978 60.993355  C 69.738617 54.284544 73.083977 45.569578 73.083976 36.541983  L 36.541976 36.54199  L 0.798507 44.139505  z " style="fill: #a1dab4; stroke: #444443; stroke-width: 0.5; stroke-linejoin: miter" />
   </g>
   <g id="text_1">
    
    <g style="fill: #444443" transform="translate(26.406429 82.449381)scale(0.09 -0.09)">
     <defs>
      <path id="ArialMT-6e" d="M 422 0  L 422 3319  L 928 3319  L 928 2847  Q 1294 3394 1984 3394  Q 2284 3394 2536 3286  Q 2788 3178 2913 3003  Q 3038 2828 3088 2588  Q 3119 2431 3119 2041  L 3119 0  L 2556 0  L 2556 2019  Q 2556 2363 2490 2533  Q 2425 2703 2258 2804  Q 2091 2906 1866 2906  Q 1506 2906 1245 2678  Q 984 2450 984 1813  L 984 0  L 422 0  z " transform="scale(0.015625)" />
      <path id="ArialMT-3d" d="M 3381 2694  L 356 2694  L 356 3219  L 3381 3219  L 3381 2694  z M 3381 1303  L 356 1303  L 356 1828  L 3381 1828  L 3381 1303  z " transform="scale(0.015625)" />
      <path id="ArialMT-35" d="M 266 1200  L 856 1250  Q 922 819 1161 601  Q 1400 384 1738 384  Q 2144 384 2425 690  Q 2706 997 2706 1503  Q 2706 1984 2436 2262  Q 2166 2541 1728 2541  Q 1456 2541 1237 2417  Q 1019 2294 894 2097  L 366 2166  L 809 4519  L 3088 4519  L 3088 3981  L 1259 3981  L 1013 2750  Q 1425 3038 1878 3038  Q 2478 3038 2890 2622  Q 3303 2206 3303 1553  Q 3303 931 2941 478  Q 2500 -78 1738 -78  Q 1113 -78 717 272  Q 322 622 266 1200  z " transform="scale(0.015625)" />
      <path id="ArialMT-33" d="M 269 1209  L 831 1284  Q 928 806 1161 595  Q 1394 384 1728 384  Q 2125 384 2398 659  Q 2672 934 2672 1341  Q 2672 1728 2419 1979  Q 2166 2231 1775 2231  Q 1616 2231 1378 2169  L 1441 2663  Q 1497 2656 1531 2656  Q 1891 2656 2178 2843  Q 2466 3031 2466 3422  Q 2466 3731 2256 3934  Q 2047 4138 1716 4138  Q 1388 4138 1169 3931  Q 950 3725 888 3313  L 325 3413  Q 428 3978 793 4289  Q 1159 4600 1703 4600  Q 2078 4600 2393 4439  Q 2709 4278 2876 4000  Q 3044 3722 3044 3409  Q 3044 3113 2884 2869  Q 2725 2625 2413 2481  Q 2819 2388 3044 2092  Q 3269 1797 3269 1353  Q 3269 753 2831 336  Q 2394 -81 1725 -81  Q 1122 -81 723 278  Q 325 638 269 1209  z " transform="scale(0.015625)" />
     </defs>
     <use xlink:href="#ArialMT-6e" />
     <use xlink:href="#ArialMT-3d" x="55.615234" />
     <use xlink:href="#ArialMT-35" x="114.013672" />
     <use xlink:href="#ArialMT-33" x="169.628906" />
    </g>
    
    <g style="fill: #444443" transform="translate(29.03471 91.968569)scale(0.09 -0.09)">
     <defs>
      <path id="ArialMT-65" d="M 2694 1069  L 3275 997  Q 3138 488 2766 206  Q 2394 -75 1816 -75  Q 1088 -75 661 373  Q 234 822 234 1631  Q 234 2469 665 2931  Q 1097 3394 1784 3394  Q 2450 3394 2872 2941  Q 3294 2488 3294 1666  Q 3294 1616 3291 1516  L 816 1516  Q 847 969 1125 678  Q 1403 388 1819 388  Q 2128 388 2347 550  Q 2566 713 2694 1069  z M 847 1978  L 2700 1978  Q 2663 2397 2488 2606  Q 2219 2931 1791 2931  Q 1403 2931 1139 2672  Q 875 2413 847 1978  z " transform="scale(0.015625)" />
      <path id="ArialMT-67" d="M 319 -275  L 866 -356  Q 900 -609 1056 -725  Q 1266 -881 1628 -881  Q 2019 -881 2231 -725  Q 2444 -569 2519 -288  Q 2563 -116 2559 434  Q 2191 0 1641 0  Q 956 0 581 494  Q 206 988 206 1678  Q 206 2153 378 2554  Q 550 2956 876 3175  Q 1203 3394 1644 3394  Q 2231 3394 2613 2919  L 2613 3319  L 3131 3319  L 3131 450  Q 3131 -325 2973 -648  Q 2816 -972 2473 -1159  Q 2131 -1347 1631 -1347  Q 1038 -1347 672 -1080  Q 306 -813 319 -275  z M 784 1719  Q 784 1066 1043 766  Q 1303 466 1694 466  Q 2081 466 2343 764  Q 2606 1063 2606 1700  Q 2606 2309 2336 2618  Q 2066 2928 1684 2928  Q 1309 2928 1046 2623  Q 784 2319 784 1719  z " transform="scale(0.015625)" />
     </defs>
     <use xlink:href="#ArialMT-6e" />
     <use xlink:href="#ArialMT-65" x="55.615234" />
     <use xlink:href="#ArialMT-67" x="111.230469" />
    </g>
   </g>
  </g>
 </g>
</svg></g>

<g id="edge20" class="edge">
<title>node17-&gt;leaf19</title>
<path fill="none" stroke="#444443" stroke-width="0.3" d="M497.09,-134.95C499.86,-125.23 505.84,-104.31 511.41,-84.83" />
<polygon fill="#444443" stroke="#444443" stroke-width="0.3" points="512.76,-85.18 512.51,-80.95 510.07,-84.41 512.76,-85.18" />
</g>

<g id="node8" class="node">
<title>node13</title>
<text text-anchor="start" x="327" y="-203.4" font-family="Helvetica,sans-Serif" font-size="12.00" fill="#444443">Dinophysis fortii@0.49</text>
</g>

<g id="edge22" class="edge">
<title>node13-&gt;node14</title>
<path fill="none" stroke="#444443" stroke-width="0.3" d="M385.01,-199.69C380.32,-188.75 370.17,-165.05 364.51,-151.85" />
<polygon fill="#444443" stroke="#444443" stroke-width="0.3" points="365.77,-151.24 362.91,-148.12 363.2,-152.35 365.77,-151.24" />
</g>

<g id="edge23" class="edge">
<title>node13-&gt;node17</title>
<path fill="none" stroke="#444443" stroke-width="0.3" d="M397.08,-199.91C416.41,-188.64 460.09,-163.16 482.17,-150.27" />
<polygon fill="#444443" stroke="#444443" stroke-width="0.3" points="483.03,-151.39 485.78,-148.17 481.62,-148.98 483.03,-151.39" />
</g>

<g id="node10" class="node">
<title>node20</title>
<text text-anchor="start" x="497" y="-203.4" font-family="Helvetica,sans-Serif" font-size="12.00" fill="#444443">wind strength@2.61</text>
</g>


<g id="node9" class="node">
<title>node22</title>
<text text-anchor="start" x="622.5" y="-138.4" font-family="Helvetica,sans-Serif" font-size="12.00" fill="#444443">Soca@5859.78</text>
</g>

<g id="node23" class="node">
<title>leaf23</title>
<polygon fill="none" stroke="#444443" stroke-width="0" points="665,-70 622,-70 622,-13 665,-13 665,-70" />
<svg width="35px" height="49px" viewBox="0 0 46.508 66.118289" version="1.1" preserveAspectRatio="xMinYMin meet" x="626.5" y="-65.5">
 <metadata>
  <rdf:RDF>
   <ns2:Work>
    <dc:type rdf:resource="http://purl.org/dc/dcmitype/StillImage" />
    <dc:date>2023-05-18T02:49:27.861447</dc:date>
    <dc:format>image/svg+xml</dc:format>
    <dc:creator>
     <ns2:Agent>
      <dc:title>Matplotlib v3.5.2, https://matplotlib.org/</dc:title>
     </ns2:Agent>
    </dc:creator>
   </ns2:Work>
  </rdf:RDF>
 </metadata>
 <defs>
  <style type="text/css">*{stroke-linejoin: round; stroke-linecap: butt}</style>
 </defs>
 <g id="figure_1">
  <g id="patch_1">
   <path d="M 0 66.118289  L 46.508 66.118289  L 46.508 0  L 0 0  L 0 66.118289  z " style="fill: none" />
  </g>
  <g id="axes_1">
   <g id="patch_2">
    <path d="M 46.508 23.254  C 46.508 20.200313 45.90649 17.176319 44.737895 14.355079  C 43.569299 11.53384 41.856344 8.970222 39.697061 6.810939  C 37.537778 4.651656 34.97416 2.938701 32.152921 1.770105  C 29.331681 0.60151 26.307687 0 23.254 0  C 20.200313 0 17.176319 0.60151 14.355079 1.770105  C 11.53384 2.938701 8.970222 4.651656 6.810939 6.810939  C 4.651656 8.970222 2.938701 11.53384 1.770105 14.355079  C 0.60151 17.176319 0 20.200313 0 23.254  C 0 26.307687 0.60151 29.331681 1.770105 32.152921  C 2.938701 34.97416 4.651656 37.537778 6.810939 39.697061  C 8.970222 41.856344 11.53384 43.569299 14.355079 44.737895  C 17.176319 45.90649 20.200313 46.508 23.254 46.508  C 26.307687 46.508 29.331681 45.90649 32.152921 44.737895  C 34.97416 43.569299 37.537778 41.856344 39.697061 39.697061  C 41.856344 37.537778 43.569299 34.97416 44.737895 32.152921  C 45.90649 29.331681 46.508 26.307687 46.508 23.254  M 23.254 23.254  M 46.508 23.254  z " style="fill: #a1dab4; stroke: #444443; stroke-width: 0.5; stroke-linejoin: miter" />
   </g>
   <g id="text_1">
    
    <g style="fill: #444443" transform="translate(13.118453 54.810351)scale(0.09 -0.09)">
     <defs>
      <path id="ArialMT-6e" d="M 422 0  L 422 3319  L 928 3319  L 928 2847  Q 1294 3394 1984 3394  Q 2284 3394 2536 3286  Q 2788 3178 2913 3003  Q 3038 2828 3088 2588  Q 3119 2431 3119 2041  L 3119 0  L 2556 0  L 2556 2019  Q 2556 2363 2490 2533  Q 2425 2703 2258 2804  Q 2091 2906 1866 2906  Q 1506 2906 1245 2678  Q 984 2450 984 1813  L 984 0  L 422 0  z " transform="scale(0.015625)" />
      <path id="ArialMT-3d" d="M 3381 2694  L 356 2694  L 356 3219  L 3381 3219  L 3381 2694  z M 3381 1303  L 356 1303  L 356 1828  L 3381 1828  L 3381 1303  z " transform="scale(0.015625)" />
      <path id="ArialMT-33" d="M 269 1209  L 831 1284  Q 928 806 1161 595  Q 1394 384 1728 384  Q 2125 384 2398 659  Q 2672 934 2672 1341  Q 2672 1728 2419 1979  Q 2166 2231 1775 2231  Q 1616 2231 1378 2169  L 1441 2663  Q 1497 2656 1531 2656  Q 1891 2656 2178 2843  Q 2466 3031 2466 3422  Q 2466 3731 2256 3934  Q 2047 4138 1716 4138  Q 1388 4138 1169 3931  Q 950 3725 888 3313  L 325 3413  Q 428 3978 793 4289  Q 1159 4600 1703 4600  Q 2078 4600 2393 4439  Q 2709 4278 2876 4000  Q 3044 3722 3044 3409  Q 3044 3113 2884 2869  Q 2725 2625 2413 2481  Q 2819 2388 3044 2092  Q 3269 1797 3269 1353  Q 3269 753 2831 336  Q 2394 -81 1725 -81  Q 1122 -81 723 278  Q 325 638 269 1209  z " transform="scale(0.015625)" />
      <path id="ArialMT-31" d="M 2384 0  L 1822 0  L 1822 3584  Q 1619 3391 1289 3197  Q 959 3003 697 2906  L 697 3450  Q 1169 3672 1522 3987  Q 1875 4303 2022 4600  L 2384 4600  L 2384 0  z " transform="scale(0.015625)" />
     </defs>
     <use xlink:href="#ArialMT-6e" />
     <use xlink:href="#ArialMT-3d" x="55.615234" />
     <use xlink:href="#ArialMT-33" x="114.013672" />
     <use xlink:href="#ArialMT-31" x="169.628906" />
    </g>
    
    <g style="fill: #444443" transform="translate(15.999156 64.329539)scale(0.09 -0.09)">
     <defs>
      <path id="ArialMT-70" d="M 422 -1272  L 422 3319  L 934 3319  L 934 2888  Q 1116 3141 1344 3267  Q 1572 3394 1897 3394  Q 2322 3394 2647 3175  Q 2972 2956 3137 2557  Q 3303 2159 3303 1684  Q 3303 1175 3120 767  Q 2938 359 2589 142  Q 2241 -75 1856 -75  Q 1575 -75 1351 44  Q 1128 163 984 344  L 984 -1272  L 422 -1272  z M 931 1641  Q 931 1000 1190 694  Q 1450 388 1819 388  Q 2194 388 2461 705  Q 2728 1022 2728 1688  Q 2728 2322 2467 2637  Q 2206 2953 1844 2953  Q 1484 2953 1207 2617  Q 931 2281 931 1641  z " transform="scale(0.015625)" />
      <path id="ArialMT-6f" d="M 213 1659  Q 213 2581 725 3025  Q 1153 3394 1769 3394  Q 2453 3394 2887 2945  Q 3322 2497 3322 1706  Q 3322 1066 3130 698  Q 2938 331 2570 128  Q 2203 -75 1769 -75  Q 1072 -75 642 372  Q 213 819 213 1659  z M 791 1659  Q 791 1022 1069 705  Q 1347 388 1769 388  Q 2188 388 2466 706  Q 2744 1025 2744 1678  Q 2744 2294 2464 2611  Q 2184 2928 1769 2928  Q 1347 2928 1069 2612  Q 791 2297 791 1659  z " transform="scale(0.015625)" />
      <path id="ArialMT-7a" d="M 125 0  L 125 456  L 2238 2881  Q 1878 2863 1603 2863  L 250 2863  L 250 3319  L 2963 3319  L 2963 2947  L 1166 841  L 819 456  Q 1197 484 1528 484  L 3063 484  L 3063 0  L 125 0  z " transform="scale(0.015625)" />
     </defs>
     <use xlink:href="#ArialMT-70" />
     <use xlink:href="#ArialMT-6f" x="55.615234" />
     <use xlink:href="#ArialMT-7a" x="111.230469" />
    </g>
   </g>
  </g>
 </g>
</svg></g>

<g id="edge25" class="edge">
<title>node22-&gt;leaf23</title>
<path fill="none" stroke="#444443" stroke-width="0.3" d="M663.31,-134.95C660.84,-123.44 655.01,-96.21 650.31,-74.26" />
<polygon fill="#444443" stroke="#444443" stroke-width="0.3" points="651.65,-73.85 649.44,-70.23 648.91,-74.43 651.65,-73.85" />
</g>

<g id="node24" class="node">
<title>leaf24</title>
<polygon fill="none" stroke="#444443" stroke-width="0" points="710.5,-64.5 678.5,-64.5 678.5,-18.5 710.5,-18.5 710.5,-64.5" />
<svg width="24px" height="38px" viewBox="0 0 32.011999 51.042447" version="1.1" preserveAspectRatio="xMinYMin meet" x="682.5" y="-60.5">
 <metadata>
  <rdf:RDF>
   <ns2:Work>
    <dc:type rdf:resource="http://purl.org/dc/dcmitype/StillImage" />
    <dc:date>2023-05-18T02:49:27.904367</dc:date>
    <dc:format>image/svg+xml</dc:format>
    <dc:creator>
     <ns2:Agent>
      <dc:title>Matplotlib v3.5.2, https://matplotlib.org/</dc:title>
     </ns2:Agent>
    </dc:creator>
   </ns2:Work>
  </rdf:RDF>
 </metadata>
 <defs>
  <style type="text/css">*{stroke-linejoin: round; stroke-linecap: butt}</style>
 </defs>
 <g id="figure_1">
  <g id="patch_1">
   <path d="M 0 51.042447  L 32.011999 51.042447  L 32.011999 0  L 0 0  L 0 51.042447  z " style="fill: none" />
  </g>
  <g id="axes_1">
   <g id="patch_2">
    <path d="M 32.011999 16.005998  C 32.011999 12.993399 31.161466 10.041133 29.558666 7.490292  C 27.955867 4.939452 25.665 2.892208 22.950742 1.58509  L 16.005999 16.005998  L 32.011999 16.005998  z " style="fill: #fefebb; stroke: #444443; stroke-width: 0.5; stroke-linejoin: miter" />
   </g>
   <g id="patch_3">
    <path d="M 22.950742 1.58509  C 21.396784 0.836743 19.732032 0.344468 18.02099 0.127338  C 16.309949 -0.089792 14.575005 -0.028936 12.883383 0.307549  C 11.19176 0.644034 9.565592 1.251744 8.067888 2.107134  C 6.570184 2.962523 5.22054 4.054399 4.07125 5.340456  C 2.92196 6.626512 1.988061 8.089921 1.30574 9.673982  C 0.623419 11.258042 0.201603 12.942026 0.056636 14.660687  C -0.088331 16.379347 0.045448 18.110196 0.452789 19.786168  C 0.860129 21.46214 1.535703 23.061306 2.453332 24.521705  C 3.370962 25.982104 4.518641 27.284626 5.851902 28.378805  C 7.185162 29.472983 8.686558 30.3445 10.297917 30.959587  C 11.909275 31.574675 13.609512 31.925285 15.332749 31.997833  C 17.055986 32.07038 18.779675 31.863916 20.43703 31.38644  C 22.094385 30.908964 23.66372 30.166724 25.084229 29.188478  C 26.504737 28.210232 27.757833 27.008782 28.794962 25.630677  C 29.832092 24.252573 30.639685 22.715847 31.18645 21.080043  C 31.733216 19.444238 32.011999 17.730759 32.011999 16.005995  L 16.005999 16.005998  L 22.950742 1.58509  z " style="fill: #a1dab4; stroke: #444443; stroke-width: 0.5; stroke-linejoin: miter" />
   </g>
   <g id="text_1">
    
    <g style="fill: #444443" transform="translate(5.870452 39.734509)scale(0.09 -0.09)">
     <defs>
      <path id="ArialMT-6e" d="M 422 0  L 422 3319  L 928 3319  L 928 2847  Q 1294 3394 1984 3394  Q 2284 3394 2536 3286  Q 2788 3178 2913 3003  Q 3038 2828 3088 2588  Q 3119 2431 3119 2041  L 3119 0  L 2556 0  L 2556 2019  Q 2556 2363 2490 2533  Q 2425 2703 2258 2804  Q 2091 2906 1866 2906  Q 1506 2906 1245 2678  Q 984 2450 984 1813  L 984 0  L 422 0  z " transform="scale(0.015625)" />
      <path id="ArialMT-3d" d="M 3381 2694  L 356 2694  L 356 3219  L 3381 3219  L 3381 2694  z M 3381 1303  L 356 1303  L 356 1828  L 3381 1828  L 3381 1303  z " transform="scale(0.015625)" />
      <path id="ArialMT-31" d="M 2384 0  L 1822 0  L 1822 3584  Q 1619 3391 1289 3197  Q 959 3003 697 2906  L 697 3450  Q 1169 3672 1522 3987  Q 1875 4303 2022 4600  L 2384 4600  L 2384 0  z " transform="scale(0.015625)" />
      <path id="ArialMT-39" d="M 350 1059  L 891 1109  Q 959 728 1153 556  Q 1347 384 1650 384  Q 1909 384 2104 503  Q 2300 622 2425 820  Q 2550 1019 2634 1356  Q 2719 1694 2719 2044  Q 2719 2081 2716 2156  Q 2547 1888 2255 1720  Q 1963 1553 1622 1553  Q 1053 1553 659 1965  Q 266 2378 266 3053  Q 266 3750 677 4175  Q 1088 4600 1706 4600  Q 2153 4600 2523 4359  Q 2894 4119 3086 3673  Q 3278 3228 3278 2384  Q 3278 1506 3087 986  Q 2897 466 2520 194  Q 2144 -78 1638 -78  Q 1100 -78 759 220  Q 419 519 350 1059  z M 2653 3081  Q 2653 3566 2395 3850  Q 2138 4134 1775 4134  Q 1400 4134 1122 3828  Q 844 3522 844 3034  Q 844 2597 1108 2323  Q 1372 2050 1759 2050  Q 2150 2050 2401 2323  Q 2653 2597 2653 3081  z " transform="scale(0.015625)" />
     </defs>
     <use xlink:href="#ArialMT-6e" />
     <use xlink:href="#ArialMT-3d" x="55.615234" />
     <use xlink:href="#ArialMT-31" x="114.013672" />
     <use xlink:href="#ArialMT-39" x="169.628906" />
    </g>
    
    <g style="fill: #444443" transform="translate(8.751155 49.253697)scale(0.09 -0.09)">
     <defs>
      <path id="ArialMT-70" d="M 422 -1272  L 422 3319  L 934 3319  L 934 2888  Q 1116 3141 1344 3267  Q 1572 3394 1897 3394  Q 2322 3394 2647 3175  Q 2972 2956 3137 2557  Q 3303 2159 3303 1684  Q 3303 1175 3120 767  Q 2938 359 2589 142  Q 2241 -75 1856 -75  Q 1575 -75 1351 44  Q 1128 163 984 344  L 984 -1272  L 422 -1272  z M 931 1641  Q 931 1000 1190 694  Q 1450 388 1819 388  Q 2194 388 2461 705  Q 2728 1022 2728 1688  Q 2728 2322 2467 2637  Q 2206 2953 1844 2953  Q 1484 2953 1207 2617  Q 931 2281 931 1641  z " transform="scale(0.015625)" />
      <path id="ArialMT-6f" d="M 213 1659  Q 213 2581 725 3025  Q 1153 3394 1769 3394  Q 2453 3394 2887 2945  Q 3322 2497 3322 1706  Q 3322 1066 3130 698  Q 2938 331 2570 128  Q 2203 -75 1769 -75  Q 1072 -75 642 372  Q 213 819 213 1659  z M 791 1659  Q 791 1022 1069 705  Q 1347 388 1769 388  Q 2188 388 2466 706  Q 2744 1025 2744 1678  Q 2744 2294 2464 2611  Q 2184 2928 1769 2928  Q 1347 2928 1069 2612  Q 791 2297 791 1659  z " transform="scale(0.015625)" />
      <path id="ArialMT-7a" d="M 125 0  L 125 456  L 2238 2881  Q 1878 2863 1603 2863  L 250 2863  L 250 3319  L 2963 3319  L 2963 2947  L 1166 841  L 819 456  Q 1197 484 1528 484  L 3063 484  L 3063 0  L 125 0  z " transform="scale(0.015625)" />
     </defs>
     <use xlink:href="#ArialMT-70" />
     <use xlink:href="#ArialMT-6f" x="55.615234" />
     <use xlink:href="#ArialMT-7a" x="111.230469" />
    </g>
   </g>
  </g>
 </g>
</svg></g>

<g id="edge26" class="edge">
<title>node22-&gt;leaf24</title>
<path fill="none" stroke="#444443" stroke-width="0.3" d="M666.2,-134.95C670.04,-122.4 679.61,-91.14 686.56,-68.44" />
<polygon fill="#444443" stroke="#444443" stroke-width="0.3" points="687.9,-68.83 687.74,-64.59 685.23,-68.01 687.9,-68.83" />
</g>

<g id="edge29" class="edge">
<title>node20-&gt;node22</title>
<path fill="none" stroke="#444443" stroke-width="0.3" d="M560.62,-199.91C581.1,-188.59 627.5,-162.95 650.72,-150.11" />
<polygon fill="#444443" stroke="#444443" stroke-width="0.3" points="651.42,-151.33 654.24,-148.17 650.06,-148.88 651.42,-151.33" />
</g>

<g id="node25" class="node">
<title>leaf21</title>
<polygon fill="none" stroke="#444443" stroke-width="0" points="608.5,-160.5 584.5,-160.5 584.5,-122.5 608.5,-122.5 608.5,-160.5" />
<svg width="16px" height="30px" viewBox="0 0 22.348 41.097358" version="1.1" preserveAspectRatio="xMinYMin meet" x="588.5" y="-156.5">
 <metadata>
  <rdf:RDF>
   <ns2:Work>
    <dc:type rdf:resource="http://purl.org/dc/dcmitype/StillImage" />
    <dc:date>2023-05-18T02:49:27.825251</dc:date>
    <dc:format>image/svg+xml</dc:format>
    <dc:creator>
     <ns2:Agent>
      <dc:title>Matplotlib v3.5.2, https://matplotlib.org/</dc:title>
     </ns2:Agent>
    </dc:creator>
   </ns2:Work>
  </rdf:RDF>
 </metadata>
 <defs>
  <style type="text/css">*{stroke-linejoin: round; stroke-linecap: butt}</style>
 </defs>
 <g id="figure_1">
  <g id="patch_1">
   <path d="M 0 41.097358  L 22.348 41.097358  L 22.348 -0  L 0 -0  L 0 41.097358  z " style="fill: none" />
  </g>
  <g id="axes_1">
   <g id="patch_2">
    <path d="M 22.348 11.174  C 22.348 9.706644 22.058963 8.253556 21.49743 6.897895  C 20.935897 5.542235 20.112789 4.310366 19.075211 3.272789  C 18.037634 2.235211 16.805765 1.412103 15.450105 0.85057  C 14.094444 0.289037 12.641356 -0 11.174 -0  C 9.706644 -0 8.253556 0.289037 6.897895 0.85057  C 5.542235 1.412103 4.310366 2.235211 3.272789 3.272789  C 2.235211 4.310366 1.412103 5.542235 0.85057 6.897895  C 0.289037 8.253556 0 9.706644 0 11.174  C 0 12.641356 0.289037 14.094444 0.85057 15.450105  C 1.412103 16.805765 2.235211 18.037634 3.272789 19.075211  C 4.310366 20.112789 5.542235 20.935897 6.897895 21.49743  C 8.253556 22.058963 9.706644 22.348 11.174 22.348  C 12.641356 22.348 14.094444 22.058963 15.450105 21.49743  C 16.805765 20.935897 18.037634 20.112789 19.075211 19.075211  C 20.112789 18.037634 20.935897 16.805765 21.49743 15.450105  C 22.058963 14.094444 22.348 12.641356 22.348 11.174  M 11.174 11.174  M 22.348 11.174  z " style="fill: #fefebb; stroke: #444443; stroke-width: 0.5; stroke-linejoin: miter" />
   </g>
   <g id="text_1">
    
    <g style="fill: #444443" transform="translate(1.370328 29.683951)scale(0.09 -0.09)">
     <defs>
      <path id="ArialMT-6e" d="M 422 0  L 422 3319  L 928 3319  L 928 2847  Q 1294 3394 1984 3394  Q 2284 3394 2536 3286  Q 2788 3178 2913 3003  Q 3038 2828 3088 2588  Q 3119 2431 3119 2041  L 3119 0  L 2556 0  L 2556 2019  Q 2556 2363 2490 2533  Q 2425 2703 2258 2804  Q 2091 2906 1866 2906  Q 1506 2906 1245 2678  Q 984 2450 984 1813  L 984 0  L 422 0  z " transform="scale(0.015625)" />
      <path id="ArialMT-3d" d="M 3381 2694  L 356 2694  L 356 3219  L 3381 3219  L 3381 2694  z M 3381 1303  L 356 1303  L 356 1828  L 3381 1828  L 3381 1303  z " transform="scale(0.015625)" />
      <path id="ArialMT-31" d="M 2384 0  L 1822 0  L 1822 3584  Q 1619 3391 1289 3197  Q 959 3003 697 2906  L 697 3450  Q 1169 3672 1522 3987  Q 1875 4303 2022 4600  L 2384 4600  L 2384 0  z " transform="scale(0.015625)" />
     </defs>
     <use xlink:href="#ArialMT-6e" />
     <use xlink:href="#ArialMT-3d" x="55.615234" />
     <use xlink:href="#ArialMT-31" x="114.013672" />
     <use xlink:href="#ArialMT-31" x="162.253906" />
    </g>
    
    <g style="fill: #444443" transform="translate(3.666734 39.203139)scale(0.09 -0.09)">
     <defs>
      <path id="ArialMT-65" d="M 2694 1069  L 3275 997  Q 3138 488 2766 206  Q 2394 -75 1816 -75  Q 1088 -75 661 373  Q 234 822 234 1631  Q 234 2469 665 2931  Q 1097 3394 1784 3394  Q 2450 3394 2872 2941  Q 3294 2488 3294 1666  Q 3294 1616 3291 1516  L 816 1516  Q 847 969 1125 678  Q 1403 388 1819 388  Q 2128 388 2347 550  Q 2566 713 2694 1069  z M 847 1978  L 2700 1978  Q 2663 2397 2488 2606  Q 2219 2931 1791 2931  Q 1403 2931 1139 2672  Q 875 2413 847 1978  z " transform="scale(0.015625)" />
      <path id="ArialMT-67" d="M 319 -275  L 866 -356  Q 900 -609 1056 -725  Q 1266 -881 1628 -881  Q 2019 -881 2231 -725  Q 2444 -569 2519 -288  Q 2563 -116 2559 434  Q 2191 0 1641 0  Q 956 0 581 494  Q 206 988 206 1678  Q 206 2153 378 2554  Q 550 2956 876 3175  Q 1203 3394 1644 3394  Q 2231 3394 2613 2919  L 2613 3319  L 3131 3319  L 3131 450  Q 3131 -325 2973 -648  Q 2816 -972 2473 -1159  Q 2131 -1347 1631 -1347  Q 1038 -1347 672 -1080  Q 306 -813 319 -275  z M 784 1719  Q 784 1066 1043 766  Q 1303 466 1694 466  Q 2081 466 2343 764  Q 2606 1063 2606 1700  Q 2606 2309 2336 2618  Q 2066 2928 1684 2928  Q 1309 2928 1046 2623  Q 784 2319 784 1719  z " transform="scale(0.015625)" />
     </defs>
     <use xlink:href="#ArialMT-6e" />
     <use xlink:href="#ArialMT-65" x="55.615234" />
     <use xlink:href="#ArialMT-67" x="111.230469" />
    </g>
   </g>
  </g>
 </g>
</svg></g>

<g id="edge28" class="edge">
<title>node20-&gt;leaf21</title>
<path fill="none" stroke="#444443" stroke-width="0.3" d="M554.75,-199.69C560.84,-191.33 572.39,-175.52 581.79,-162.64" />
<polygon fill="#444443" stroke="#444443" stroke-width="0.3" points="583.16,-163.15 584.38,-159.09 580.89,-161.5 583.16,-163.15" />
</g>

<g id="edge31" class="edge">
<title>node12-&gt;node13</title>
<path fill="none" stroke="#444443" stroke-width="0.3" d="M364.37,-229.83C368.46,-225.89 373.98,-220.55 378.61,-216.08" />
<polygon fill="#444443" stroke="#444443" stroke-width="0.3" points="379.73,-216.94 381.64,-213.16 377.79,-214.93 379.73,-216.94" />
</g>

<g id="edge32" class="edge">
<title>node12-&gt;node20</title>
<path fill="none" stroke="#444443" stroke-width="0.3" d="M396.43,-229.97C428.78,-225.25 475.21,-218.48 508.64,-213.61" />
<polygon fill="#444443" stroke="#444443" stroke-width="0.3" points="508.89,-214.98 512.65,-213.02 508.49,-212.21 508.89,-214.98" />
</g>

<g id="node12" class="node">
<title>node0</title>
<text text-anchor="start" x="257" y="-292.9" font-family="Helvetica,sans-Serif" font-size="12.00" fill="#444443">DSP@100.24</text>
</g>

<g id="edge34" class="edge">
<title>node0-&gt;node1</title>
<path fill="none" stroke="#444443" stroke-width="0.3" d="M289.72,-289.28C281.31,-279.2 263.81,-258.24 253.85,-246.31" />
<polygon fill="#444443" stroke="#444443" stroke-width="0.3" points="254.9,-245.37 251.26,-243.2 252.75,-247.17 254.9,-245.37" />
<text text-anchor="start" x="269.5" y="-254.8" font-family="Times,serif" font-size="14.00">&#8804;</text>
</g>

<g id="edge35" class="edge">
<title>node0-&gt;node12</title>
<path fill="none" stroke="#444443" stroke-width="0.3" d="M300.87,-289.28C312.18,-279.12 335.81,-257.88 349.03,-246.01" />
<polygon fill="#444443" stroke="#444443" stroke-width="0.3" points="350.12,-246.92 352.16,-243.2 348.24,-244.83 350.12,-246.92" />
<text text-anchor="start" x="342.5" y="-254.8" font-family="Times,serif" font-size="14.00">&gt;</text>
</g>








<g id="node26" class="node">
<title>legend</title>
<polygon fill="none" stroke="black" stroke-width="0" points="385.5,-318 339.5,-318 339.5,-274 385.5,-274 385.5,-318" />
<svg width="42px" height="40px" viewBox="0 0 56.182812 54.36" version="1.1" preserveAspectRatio="xMinYMin meet" x="341.5" y="-316">
 <metadata>
  <rdf:RDF>
   <ns2:Work>
    <dc:type rdf:resource="http://purl.org/dc/dcmitype/StillImage" />
    <dc:date>2023-05-18T02:49:27.290369</dc:date>
    <dc:format>image/svg+xml</dc:format>
    <dc:creator>
     <ns2:Agent>
      <dc:title>Matplotlib v3.5.2, https://matplotlib.org/</dc:title>
     </ns2:Agent>
    </dc:creator>
   </ns2:Work>
  </rdf:RDF>
 </metadata>
 <defs>
  <style type="text/css">*{stroke-linejoin: round; stroke-linecap: butt}</style>
 </defs>
 <g id="figure_1">
  <g id="patch_1">
   <path d="M 0 54.36  L 56.182812 54.36  L 56.182812 0  L 0 0  L 0 54.36  z " style="fill: none" />
  </g>
  <g id="axes_1">
   <g id="legend_1">
    <g id="patch_2">
     <path d="M 2 54.262031  L 54.182812 54.262031  Q 56.182812 54.262031 56.182812 52.262031  L 56.182812 2.097969  Q 56.182812 0.097969 54.182812 0.097969  L 2 0.097969  Q 0 0.097969 0 2.097969  L 0 52.262031  Q 0 54.262031 2 54.262031  z " style="fill: #ffffff; opacity: 0.8; stroke: #444443; stroke-width: 0.5; stroke-linejoin: miter" />
    </g>
    <g id="text_1">
     
     <g style="fill: #444443" transform="translate(10.501562 15.696406)scale(0.1 -0.1)">
      <defs>
       <path id="DejaVuSans-Bold-74" d="M 1759 4494  L 1759 3500  L 2913 3500  L 2913 2700  L 1759 2700  L 1759 1216  Q 1759 972 1856 886  Q 1953 800 2241 800  L 2816 800  L 2816 0  L 1856 0  Q 1194 0 917 276  Q 641 553 641 1216  L 641 2700  L 84 2700  L 84 3500  L 641 3500  L 641 4494  L 1759 4494  z " transform="scale(0.015625)" />
       <path id="DejaVuSans-Bold-61" d="M 2106 1575  Q 1756 1575 1579 1456  Q 1403 1338 1403 1106  Q 1403 894 1545 773  Q 1688 653 1941 653  Q 2256 653 2472 879  Q 2688 1106 2688 1447  L 2688 1575  L 2106 1575  z M 3816 1997  L 3816 0  L 2688 0  L 2688 519  Q 2463 200 2181 54  Q 1900 -91 1497 -91  Q 953 -91 614 226  Q 275 544 275 1050  Q 275 1666 698 1953  Q 1122 2241 2028 2241  L 2688 2241  L 2688 2328  Q 2688 2594 2478 2717  Q 2269 2841 1825 2841  Q 1466 2841 1156 2769  Q 847 2697 581 2553  L 581 3406  Q 941 3494 1303 3539  Q 1666 3584 2028 3584  Q 2975 3584 3395 3211  Q 3816 2838 3816 1997  z " transform="scale(0.015625)" />
       <path id="DejaVuSans-Bold-72" d="M 3138 2547  Q 2991 2616 2845 2648  Q 2700 2681 2553 2681  Q 2122 2681 1889 2404  Q 1656 2128 1656 1613  L 1656 0  L 538 0  L 538 3500  L 1656 3500  L 1656 2925  Q 1872 3269 2151 3426  Q 2431 3584 2822 3584  Q 2878 3584 2943 3579  Q 3009 3575 3134 3559  L 3138 2547  z " transform="scale(0.015625)" />
       <path id="DejaVuSans-Bold-67" d="M 2919 594  Q 2688 288 2409 144  Q 2131 0 1766 0  Q 1125 0 706 504  Q 288 1009 288 1791  Q 288 2575 706 3076  Q 1125 3578 1766 3578  Q 2131 3578 2409 3434  Q 2688 3291 2919 2981  L 2919 3500  L 4044 3500  L 4044 353  Q 4044 -491 3511 -936  Q 2978 -1381 1966 -1381  Q 1638 -1381 1331 -1331  Q 1025 -1281 716 -1178  L 716 -306  Q 1009 -475 1290 -558  Q 1572 -641 1856 -641  Q 2406 -641 2662 -400  Q 2919 -159 2919 353  L 2919 594  z M 2181 2772  Q 1834 2772 1640 2515  Q 1447 2259 1447 1791  Q 1447 1309 1634 1061  Q 1822 813 2181 813  Q 2531 813 2725 1069  Q 2919 1325 2919 1791  Q 2919 2259 2725 2515  Q 2531 2772 2181 2772  z " transform="scale(0.015625)" />
       <path id="DejaVuSans-Bold-65" d="M 4031 1759  L 4031 1441  L 1416 1441  Q 1456 1047 1700 850  Q 1944 653 2381 653  Q 2734 653 3104 758  Q 3475 863 3866 1075  L 3866 213  Q 3469 63 3072 -14  Q 2675 -91 2278 -91  Q 1328 -91 801 392  Q 275 875 275 1747  Q 275 2603 792 3093  Q 1309 3584 2216 3584  Q 3041 3584 3536 3087  Q 4031 2591 4031 1759  z M 2881 2131  Q 2881 2450 2695 2645  Q 2509 2841 2209 2841  Q 1884 2841 1681 2658  Q 1478 2475 1428 2131  L 2881 2131  z " transform="scale(0.015625)" />
      </defs>
      <use xlink:href="#DejaVuSans-Bold-74" />
      <use xlink:href="#DejaVuSans-Bold-61" x="47.802734" />
      <use xlink:href="#DejaVuSans-Bold-72" x="115.283203" />
      <use xlink:href="#DejaVuSans-Bold-67" x="164.599609" />
      <use xlink:href="#DejaVuSans-Bold-65" x="236.181641" />
      <use xlink:href="#DejaVuSans-Bold-74" x="304.003906" />
     </g>
    </g>
    <g id="patch_3">
     <path d="M 8 30.012031  L 28 30.012031  L 28 23.012031  L 8 23.012031  z " style="fill: #fefebb; stroke: #444443; stroke-width: 0.4; stroke-linejoin: miter" />
    </g>
    <g id="text_2">
     
     <g style="fill: #444443" transform="translate(31.5 30.012031)scale(0.1 -0.1)">
      <defs>
       <path id="ArialMT-6e" d="M 422 0  L 422 3319  L 928 3319  L 928 2847  Q 1294 3394 1984 3394  Q 2284 3394 2536 3286  Q 2788 3178 2913 3003  Q 3038 2828 3088 2588  Q 3119 2431 3119 2041  L 3119 0  L 2556 0  L 2556 2019  Q 2556 2363 2490 2533  Q 2425 2703 2258 2804  Q 2091 2906 1866 2906  Q 1506 2906 1245 2678  Q 984 2450 984 1813  L 984 0  L 422 0  z " transform="scale(0.015625)" />
       <path id="ArialMT-65" d="M 2694 1069  L 3275 997  Q 3138 488 2766 206  Q 2394 -75 1816 -75  Q 1088 -75 661 373  Q 234 822 234 1631  Q 234 2469 665 2931  Q 1097 3394 1784 3394  Q 2450 3394 2872 2941  Q 3294 2488 3294 1666  Q 3294 1616 3291 1516  L 816 1516  Q 847 969 1125 678  Q 1403 388 1819 388  Q 2128 388 2347 550  Q 2566 713 2694 1069  z M 847 1978  L 2700 1978  Q 2663 2397 2488 2606  Q 2219 2931 1791 2931  Q 1403 2931 1139 2672  Q 875 2413 847 1978  z " transform="scale(0.015625)" />
       <path id="ArialMT-67" d="M 319 -275  L 866 -356  Q 900 -609 1056 -725  Q 1266 -881 1628 -881  Q 2019 -881 2231 -725  Q 2444 -569 2519 -288  Q 2563 -116 2559 434  Q 2191 0 1641 0  Q 956 0 581 494  Q 206 988 206 1678  Q 206 2153 378 2554  Q 550 2956 876 3175  Q 1203 3394 1644 3394  Q 2231 3394 2613 2919  L 2613 3319  L 3131 3319  L 3131 450  Q 3131 -325 2973 -648  Q 2816 -972 2473 -1159  Q 2131 -1347 1631 -1347  Q 1038 -1347 672 -1080  Q 306 -813 319 -275  z M 784 1719  Q 784 1066 1043 766  Q 1303 466 1694 466  Q 2081 466 2343 764  Q 2606 1063 2606 1700  Q 2606 2309 2336 2618  Q 2066 2928 1684 2928  Q 1309 2928 1046 2623  Q 784 2319 784 1719  z " transform="scale(0.015625)" />
      </defs>
      <use xlink:href="#ArialMT-6e" />
      <use xlink:href="#ArialMT-65" x="55.615234" />
      <use xlink:href="#ArialMT-67" x="111.230469" />
     </g>
    </g>
    <g id="patch_4">
     <path d="M 8 44.274531  L 28 44.274531  L 28 37.274531  L 8 37.274531  z " style="fill: #a1dab4; stroke: #444443; stroke-width: 0.4; stroke-linejoin: miter" />
    </g>
    <g id="text_3">
     
     <g style="fill: #444443" transform="translate(31.5 44.274531)scale(0.1 -0.1)">
      <defs>
       <path id="ArialMT-70" d="M 422 -1272  L 422 3319  L 934 3319  L 934 2888  Q 1116 3141 1344 3267  Q 1572 3394 1897 3394  Q 2322 3394 2647 3175  Q 2972 2956 3137 2557  Q 3303 2159 3303 1684  Q 3303 1175 3120 767  Q 2938 359 2589 142  Q 2241 -75 1856 -75  Q 1575 -75 1351 44  Q 1128 163 984 344  L 984 -1272  L 422 -1272  z M 931 1641  Q 931 1000 1190 694  Q 1450 388 1819 388  Q 2194 388 2461 705  Q 2728 1022 2728 1688  Q 2728 2322 2467 2637  Q 2206 2953 1844 2953  Q 1484 2953 1207 2617  Q 931 2281 931 1641  z " transform="scale(0.015625)" />
       <path id="ArialMT-6f" d="M 213 1659  Q 213 2581 725 3025  Q 1153 3394 1769 3394  Q 2453 3394 2887 2945  Q 3322 2497 3322 1706  Q 3322 1066 3130 698  Q 2938 331 2570 128  Q 2203 -75 1769 -75  Q 1072 -75 642 372  Q 213 819 213 1659  z M 791 1659  Q 791 1022 1069 705  Q 1347 388 1769 388  Q 2188 388 2466 706  Q 2744 1025 2744 1678  Q 2744 2294 2464 2611  Q 2184 2928 1769 2928  Q 1347 2928 1069 2612  Q 791 2297 791 1659  z " transform="scale(0.015625)" />
       <path id="ArialMT-7a" d="M 125 0  L 125 456  L 2238 2881  Q 1878 2863 1603 2863  L 250 2863  L 250 3319  L 2963 3319  L 2963 2947  L 1166 841  L 819 456  Q 1197 484 1528 484  L 3063 484  L 3063 0  L 125 0  z " transform="scale(0.015625)" />
      </defs>
      <use xlink:href="#ArialMT-70" />
      <use xlink:href="#ArialMT-6f" x="55.615234" />
      <use xlink:href="#ArialMT-7a" x="111.230469" />
     </g>
    </g>
   </g>
  </g>
 </g>
</svg></g>
</g>
</svg>