<svg xmlns="http://www.w3.org/2000/svg" xmlns:dc="http://purl.org/dc/elements/1.1/" xmlns:ns2="http://creativecommons.org/ns#" xmlns:rdf="http://www.w3.org/1999/02/22-rdf-syntax-ns#" xmlns:xlink="http://www.w3.org/1999/xlink" width="1270.5" height="501.0" viewBox="0.0 0.0 1269.75 501.0">
<g id="graph0" class="graph" transform="scale(1.5 1.5) rotate(0) translate(4 330)">
<title>G</title>
<polygon fill="white" stroke="transparent" points="-4,4 -4,-330 842.5,-330 842.5,4 -4,4" />
<g id="clust14" class="cluster">
<title>cluster_legend</title>
</g>

<g id="node1" class="node">
<title>node3</title>
<text text-anchor="start" x="37.5" y="-138.4" font-family="Helvetica,sans-Serif" font-size="12.00" fill="#444443">precipitation@54.00</text>
</g>

<g id="node14" class="node">
<title>leaf4</title>
<polygon fill="none" stroke="#444443" stroke-width="0" points="67,-83 0,-83 0,0 67,0 67,-83" />
<svg width="59px" height="75px" viewBox="0 0 78.52 99.516237" version="1.1" preserveAspectRatio="xMinYMin meet" x="4.5" y="-78.5">
 <metadata>
  <rdf:RDF>
   <ns2:Work>
    <dc:type rdf:resource="http://purl.org/dc/dcmitype/StillImage" />
    <dc:date>2023-05-17T22:09:43.333964</dc:date>
    <dc:format>image/svg+xml</dc:format>
    <dc:creator>
     <ns2:Agent>
      <dc:title>Matplotlib v3.5.2, https://matplotlib.org/</dc:title>
     </ns2:Agent>
    </dc:creator>
   </ns2:Work>
  </rdf:RDF>
 </metadata>
 <defs>
  <style type="text/css">*{stroke-linejoin: round; stroke-linecap: butt}</style>
 </defs>
 <g id="figure_1">
  <g id="patch_1">
   <path d="M 0 99.516237  L 78.52 99.516237  L 78.52 0  L 0 0  L 0 99.516237  z " style="fill: none" />
  </g>
  <g id="axes_1">
   <g id="patch_2">
    <path d="M 78.52 39.26  C 78.52 35.1275 77.867521 31.020795 76.586698 27.091794  C 75.305875 23.162793 73.412698 19.460546 70.977196 16.122  C 68.541695 12.783454 65.594274 9.850288 62.24396 7.431001  C 58.893645 5.011713 55.182263 3.136508 51.247099 1.874748  C 47.311934 0.612988 43.202114 -0.019573 39.069663 0.000461  C 34.937212 0.020496 30.833718 0.692878 26.910973 1.992734  C 22.988228 3.29259 19.295202 5.203694 15.968503 7.655352  C 12.641804 10.10701 9.722962 13.068617 7.319946 16.430621  C 4.91693 19.792625 3.059739 23.513055 1.817073 27.45429  C 0.574406 31.395525 -0.038224 35.508364 0.001846 39.64067  C 0.041915 43.772975 0.734182 47.873161 2.053041 51.789558  C 3.3719 55.705955 5.300885 59.389672 7.768643 62.704446  C 10.236401 66.01922 13.212124 68.92367 16.585738 71.310358  C 19.959353 73.697047 23.688743 75.536178 27.635956 76.759723  C 31.58317 77.983267 35.69893 78.57595 39.830993 78.515848  C 43.963056 78.455745 48.059837 77.743607 51.969794 76.405777  L 39.26 39.26  L 78.52 39.26  z " style="fill: #fefebb; stroke: #444443; stroke-width: 0.5; stroke-linejoin: miter" />
   </g>
   <g id="patch_3">
    <path d="M 51.969794 76.405777  C 59.714641 73.755801 66.440158 68.748839 71.200054 62.089379  C 75.959951 55.429918 78.52 47.44566 78.52 39.26  L 39.26 39.26  L 51.969794 76.405777  z " style="fill: #a1dab4; stroke: #444443; stroke-width: 0.5; stroke-linejoin: miter" />
   </g>
   <g id="text_1">
    
    <g style="fill: #444443" transform="translate(29.124453 88.102831)scale(0.09 -0.09)">
     <defs>
      <path id="ArialMT-6e" d="M 422 0  L 422 3319  L 928 3319  L 928 2847  Q 1294 3394 1984 3394  Q 2284 3394 2536 3286  Q 2788 3178 2913 3003  Q 3038 2828 3088 2588  Q 3119 2431 3119 2041  L 3119 0  L 2556 0  L 2556 2019  Q 2556 2363 2490 2533  Q 2425 2703 2258 2804  Q 2091 2906 1866 2906  Q 1506 2906 1245 2678  Q 984 2450 984 1813  L 984 0  L 422 0  z " transform="scale(0.015625)" />
      <path id="ArialMT-3d" d="M 3381 2694  L 356 2694  L 356 3219  L 3381 3219  L 3381 2694  z M 3381 1303  L 356 1303  L 356 1828  L 3381 1828  L 3381 1303  z " transform="scale(0.015625)" />
      <path id="ArialMT-39" d="M 350 1059  L 891 1109  Q 959 728 1153 556  Q 1347 384 1650 384  Q 1909 384 2104 503  Q 2300 622 2425 820  Q 2550 1019 2634 1356  Q 2719 1694 2719 2044  Q 2719 2081 2716 2156  Q 2547 1888 2255 1720  Q 1963 1553 1622 1553  Q 1053 1553 659 1965  Q 266 2378 266 3053  Q 266 3750 677 4175  Q 1088 4600 1706 4600  Q 2153 4600 2523 4359  Q 2894 4119 3086 3673  Q 3278 3228 3278 2384  Q 3278 1506 3087 986  Q 2897 466 2520 194  Q 2144 -78 1638 -78  Q 1100 -78 759 220  Q 419 519 350 1059  z M 2653 3081  Q 2653 3566 2395 3850  Q 2138 4134 1775 4134  Q 1400 4134 1122 3828  Q 844 3522 844 3034  Q 844 2597 1108 2323  Q 1372 2050 1759 2050  Q 2150 2050 2401 2323  Q 2653 2597 2653 3081  z " transform="scale(0.015625)" />
      <path id="ArialMT-35" d="M 266 1200  L 856 1250  Q 922 819 1161 601  Q 1400 384 1738 384  Q 2144 384 2425 690  Q 2706 997 2706 1503  Q 2706 1984 2436 2262  Q 2166 2541 1728 2541  Q 1456 2541 1237 2417  Q 1019 2294 894 2097  L 366 2166  L 809 4519  L 3088 4519  L 3088 3981  L 1259 3981  L 1013 2750  Q 1425 3038 1878 3038  Q 2478 3038 2890 2622  Q 3303 2206 3303 1553  Q 3303 931 2941 478  Q 2500 -78 1738 -78  Q 1113 -78 717 272  Q 322 622 266 1200  z " transform="scale(0.015625)" />
     </defs>
     <use xlink:href="#ArialMT-6e" />
     <use xlink:href="#ArialMT-3d" x="55.615234" />
     <use xlink:href="#ArialMT-39" x="114.013672" />
     <use xlink:href="#ArialMT-35" x="169.628906" />
    </g>
    
    <g style="fill: #444443" transform="translate(31.752734 97.622019)scale(0.09 -0.09)">
     <defs>
      <path id="ArialMT-65" d="M 2694 1069  L 3275 997  Q 3138 488 2766 206  Q 2394 -75 1816 -75  Q 1088 -75 661 373  Q 234 822 234 1631  Q 234 2469 665 2931  Q 1097 3394 1784 3394  Q 2450 3394 2872 2941  Q 3294 2488 3294 1666  Q 3294 1616 3291 1516  L 816 1516  Q 847 969 1125 678  Q 1403 388 1819 388  Q 2128 388 2347 550  Q 2566 713 2694 1069  z M 847 1978  L 2700 1978  Q 2663 2397 2488 2606  Q 2219 2931 1791 2931  Q 1403 2931 1139 2672  Q 875 2413 847 1978  z " transform="scale(0.015625)" />
      <path id="ArialMT-67" d="M 319 -275  L 866 -356  Q 900 -609 1056 -725  Q 1266 -881 1628 -881  Q 2019 -881 2231 -725  Q 2444 -569 2519 -288  Q 2563 -116 2559 434  Q 2191 0 1641 0  Q 956 0 581 494  Q 206 988 206 1678  Q 206 2153 378 2554  Q 550 2956 876 3175  Q 1203 3394 1644 3394  Q 2231 3394 2613 2919  L 2613 3319  L 3131 3319  L 3131 450  Q 3131 -325 2973 -648  Q 2816 -972 2473 -1159  Q 2131 -1347 1631 -1347  Q 1038 -1347 672 -1080  Q 306 -813 319 -275  z M 784 1719  Q 784 1066 1043 766  Q 1303 466 1694 466  Q 2081 466 2343 764  Q 2606 1063 2606 1700  Q 2606 2309 2336 2618  Q 2066 2928 1684 2928  Q 1309 2928 1046 2623  Q 784 2319 784 1719  z " transform="scale(0.015625)" />
     </defs>
     <use xlink:href="#ArialMT-6e" />
     <use xlink:href="#ArialMT-65" x="55.615234" />
     <use xlink:href="#ArialMT-67" x="111.230469" />
    </g>
   </g>
  </g>
 </g>
</svg></g>

<g id="edge1" class="edge">
<title>node3-&gt;leaf4</title>
<path fill="none" stroke="#444443" stroke-width="0.3" d="M88.22,-134.95C82.69,-125.61 71.04,-105.93 59.9,-87.11" />
<polygon fill="#444443" stroke="#444443" stroke-width="0.3" points="60.93,-86.1 57.69,-83.37 58.52,-87.52 60.93,-86.1" />
</g>

<g id="node15" class="node">
<title>leaf5</title>
<polygon fill="none" stroke="#444443" stroke-width="0" points="142.5,-80.5 80.5,-80.5 80.5,-2.5 142.5,-2.5 142.5,-80.5" />
<svg width="54px" height="70px" viewBox="0 0 73.084 93.862797" version="1.1" preserveAspectRatio="xMinYMin meet" x="84.5" y="-76.5">
 <metadata>
  <rdf:RDF>
   <ns2:Work>
    <dc:type rdf:resource="http://purl.org/dc/dcmitype/StillImage" />
    <dc:date>2023-05-17T22:09:43.382329</dc:date>
    <dc:format>image/svg+xml</dc:format>
    <dc:creator>
     <ns2:Agent>
      <dc:title>Matplotlib v3.5.2, https://matplotlib.org/</dc:title>
     </ns2:Agent>
    </dc:creator>
   </ns2:Work>
  </rdf:RDF>
 </metadata>
 <defs>
  <style type="text/css">*{stroke-linejoin: round; stroke-linecap: butt}</style>
 </defs>
 <g id="figure_1">
  <g id="patch_1">
   <path d="M 0 93.862797  L 73.084 93.862797  L 73.084 0  L 0 0  L 0 93.862797  z " style="fill: none" />
  </g>
  <g id="axes_1">
   <g id="patch_2">
    <path d="M 73.084 36.542  C 73.084 31.743349 72.13877 26.991358 70.302406 22.557982  C 68.466041 18.124606 65.774255 14.096063 62.381096 10.702904  C 58.987937 7.309745 54.959394 4.617959 50.526018 2.781594  C 46.092642 0.94523 41.340651 0 36.542 0  C 31.743349 0 26.991358 0.94523 22.557982 2.781594  C 18.124606 4.617959 14.096063 7.309745 10.702904 10.702904  C 7.309745 14.096063 4.617959 18.124606 2.781594 22.557982  C 0.94523 26.991358 0 31.743349 0 36.542  C 0 41.340651 0.94523 46.092642 2.781594 50.526018  C 4.617959 54.959394 7.309745 58.987937 10.702904 62.381096  C 14.096063 65.774255 18.124606 68.466041 22.557982 70.302406  C 26.991358 72.13877 31.743349 73.084 36.542 73.084  C 41.340651 73.084 46.092642 72.13877 50.526018 70.302406  C 54.959394 68.466041 58.987937 65.774255 62.381096 62.381096  C 65.774255 58.987937 68.466041 54.959394 70.302406 50.526018  C 72.13877 46.092642 73.084 41.340651 73.084 36.542  M 36.542 36.542  M 73.084 36.542  z " style="fill: #fefebb; stroke: #444443; stroke-width: 0.5; stroke-linejoin: miter" />
   </g>
   <g id="text_1">
    
    <g style="fill: #444443" transform="translate(26.406453 82.449391)scale(0.09 -0.09)">
     <defs>
      <path id="ArialMT-6e" d="M 422 0  L 422 3319  L 928 3319  L 928 2847  Q 1294 3394 1984 3394  Q 2284 3394 2536 3286  Q 2788 3178 2913 3003  Q 3038 2828 3088 2588  Q 3119 2431 3119 2041  L 3119 0  L 2556 0  L 2556 2019  Q 2556 2363 2490 2533  Q 2425 2703 2258 2804  Q 2091 2906 1866 2906  Q 1506 2906 1245 2678  Q 984 2450 984 1813  L 984 0  L 422 0  z " transform="scale(0.015625)" />
      <path id="ArialMT-3d" d="M 3381 2694  L 356 2694  L 356 3219  L 3381 3219  L 3381 2694  z M 3381 1303  L 356 1303  L 356 1828  L 3381 1828  L 3381 1303  z " transform="scale(0.015625)" />
      <path id="ArialMT-35" d="M 266 1200  L 856 1250  Q 922 819 1161 601  Q 1400 384 1738 384  Q 2144 384 2425 690  Q 2706 997 2706 1503  Q 2706 1984 2436 2262  Q 2166 2541 1728 2541  Q 1456 2541 1237 2417  Q 1019 2294 894 2097  L 366 2166  L 809 4519  L 3088 4519  L 3088 3981  L 1259 3981  L 1013 2750  Q 1425 3038 1878 3038  Q 2478 3038 2890 2622  Q 3303 2206 3303 1553  Q 3303 931 2941 478  Q 2500 -78 1738 -78  Q 1113 -78 717 272  Q 322 622 266 1200  z " transform="scale(0.015625)" />
      <path id="ArialMT-33" d="M 269 1209  L 831 1284  Q 928 806 1161 595  Q 1394 384 1728 384  Q 2125 384 2398 659  Q 2672 934 2672 1341  Q 2672 1728 2419 1979  Q 2166 2231 1775 2231  Q 1616 2231 1378 2169  L 1441 2663  Q 1497 2656 1531 2656  Q 1891 2656 2178 2843  Q 2466 3031 2466 3422  Q 2466 3731 2256 3934  Q 2047 4138 1716 4138  Q 1388 4138 1169 3931  Q 950 3725 888 3313  L 325 3413  Q 428 3978 793 4289  Q 1159 4600 1703 4600  Q 2078 4600 2393 4439  Q 2709 4278 2876 4000  Q 3044 3722 3044 3409  Q 3044 3113 2884 2869  Q 2725 2625 2413 2481  Q 2819 2388 3044 2092  Q 3269 1797 3269 1353  Q 3269 753 2831 336  Q 2394 -81 1725 -81  Q 1122 -81 723 278  Q 325 638 269 1209  z " transform="scale(0.015625)" />
     </defs>
     <use xlink:href="#ArialMT-6e" />
     <use xlink:href="#ArialMT-3d" x="55.615234" />
     <use xlink:href="#ArialMT-35" x="114.013672" />
     <use xlink:href="#ArialMT-33" x="169.628906" />
    </g>
    
    <g style="fill: #444443" transform="translate(29.034734 91.968579)scale(0.09 -0.09)">
     <defs>
      <path id="ArialMT-65" d="M 2694 1069  L 3275 997  Q 3138 488 2766 206  Q 2394 -75 1816 -75  Q 1088 -75 661 373  Q 234 822 234 1631  Q 234 2469 665 2931  Q 1097 3394 1784 3394  Q 2450 3394 2872 2941  Q 3294 2488 3294 1666  Q 3294 1616 3291 1516  L 816 1516  Q 847 969 1125 678  Q 1403 388 1819 388  Q 2128 388 2347 550  Q 2566 713 2694 1069  z M 847 1978  L 2700 1978  Q 2663 2397 2488 2606  Q 2219 2931 1791 2931  Q 1403 2931 1139 2672  Q 875 2413 847 1978  z " transform="scale(0.015625)" />
      <path id="ArialMT-67" d="M 319 -275  L 866 -356  Q 900 -609 1056 -725  Q 1266 -881 1628 -881  Q 2019 -881 2231 -725  Q 2444 -569 2519 -288  Q 2563 -116 2559 434  Q 2191 0 1641 0  Q 956 0 581 494  Q 206 988 206 1678  Q 206 2153 378 2554  Q 550 2956 876 3175  Q 1203 3394 1644 3394  Q 2231 3394 2613 2919  L 2613 3319  L 3131 3319  L 3131 450  Q 3131 -325 2973 -648  Q 2816 -972 2473 -1159  Q 2131 -1347 1631 -1347  Q 1038 -1347 672 -1080  Q 306 -813 319 -275  z M 784 1719  Q 784 1066 1043 766  Q 1303 466 1694 466  Q 2081 466 2343 764  Q 2606 1063 2606 1700  Q 2606 2309 2336 2618  Q 2066 2928 1684 2928  Q 1309 2928 1046 2623  Q 784 2319 784 1719  z " transform="scale(0.015625)" />
     </defs>
     <use xlink:href="#ArialMT-6e" />
     <use xlink:href="#ArialMT-65" x="55.615234" />
     <use xlink:href="#ArialMT-67" x="111.230469" />
    </g>
   </g>
  </g>
 </g>
</svg></g>

<g id="edge2" class="edge">
<title>node3-&gt;leaf5</title>
<path fill="none" stroke="#444443" stroke-width="0.3" d="M92.63,-134.95C94.6,-125.31 98.81,-104.66 102.76,-85.31" />
<polygon fill="#444443" stroke="#444443" stroke-width="0.3" points="104.22,-85.15 103.65,-80.95 101.48,-84.59 104.22,-85.15" />
</g>

<g id="node16" class="node">
<title>leaf6</title>
<polygon fill="none" stroke="#444443" stroke-width="0" points="226,-183 159,-183 159,-100 226,-100 226,-183" />
<svg width="59px" height="75px" viewBox="0 0 78.52 99.516238" version="1.1" preserveAspectRatio="xMinYMin meet" x="163.5" y="-178.5">
 <metadata>
  <rdf:RDF>
   <ns2:Work>
    <dc:type rdf:resource="http://purl.org/dc/dcmitype/StillImage" />
    <dc:date>2023-05-17T22:09:43.432188</dc:date>
    <dc:format>image/svg+xml</dc:format>
    <dc:creator>
     <ns2:Agent>
      <dc:title>Matplotlib v3.5.2, https://matplotlib.org/</dc:title>
     </ns2:Agent>
    </dc:creator>
   </ns2:Work>
  </rdf:RDF>
 </metadata>
 <defs>
  <style type="text/css">*{stroke-linejoin: round; stroke-linecap: butt}</style>
 </defs>
 <g id="figure_1">
  <g id="patch_1">
   <path d="M -0 99.516238  L 78.52 99.516238  L 78.52 0  L -0 0  L -0 99.516238  z " style="fill: none" />
  </g>
  <g id="axes_1">
   <g id="patch_2">
    <path d="M 78.52 39.26  C 78.52 34.104424 77.504464 28.99898 75.53151 24.235848  C 73.558557 19.472717 70.666555 15.14453 67.021012 11.498988  C 63.37547 7.853445 59.047283 4.961443 54.284152 2.98849  C 49.52102 1.015536 44.415576 0 39.26 0  C 34.104424 0 28.99898 1.015536 24.235848 2.98849  C 19.472717 4.961443 15.14453 7.853445 11.498988 11.498988  C 7.853445 15.14453 4.961443 19.472717 2.98849 24.235848  C 1.015536 28.99898 0 34.104424 0 39.26  C 0 44.415576 1.015536 49.52102 2.98849 54.284152  C 4.961443 59.047283 7.853445 63.37547 11.498988 67.021012  C 15.14453 70.666555 19.472717 73.558557 24.235848 75.53151  C 28.99898 77.504464 34.104424 78.52 39.26 78.52  C 44.415576 78.52 49.52102 77.504464 54.284152 75.53151  C 59.047283 73.558557 63.37547 70.666555 67.021012 67.021012  C 70.666555 63.37547 73.558557 59.047283 75.53151 54.284152  C 77.504464 49.52102 78.52 44.415576 78.52 39.26  M 39.26 39.26  M 78.52 39.26  z " style="fill: #fefebb; stroke: #444443; stroke-width: 0.5; stroke-linejoin: miter" />
   </g>
   <g id="text_1">
    
    <g style="fill: #444443" transform="translate(26.622031 88.102831)scale(0.09 -0.09)">
     <defs>
      <path id="ArialMT-6e" d="M 422 0  L 422 3319  L 928 3319  L 928 2847  Q 1294 3394 1984 3394  Q 2284 3394 2536 3286  Q 2788 3178 2913 3003  Q 3038 2828 3088 2588  Q 3119 2431 3119 2041  L 3119 0  L 2556 0  L 2556 2019  Q 2556 2363 2490 2533  Q 2425 2703 2258 2804  Q 2091 2906 1866 2906  Q 1506 2906 1245 2678  Q 984 2450 984 1813  L 984 0  L 422 0  z " transform="scale(0.015625)" />
      <path id="ArialMT-3d" d="M 3381 2694  L 356 2694  L 356 3219  L 3381 3219  L 3381 2694  z M 3381 1303  L 356 1303  L 356 1828  L 3381 1828  L 3381 1303  z " transform="scale(0.015625)" />
      <path id="ArialMT-31" d="M 2384 0  L 1822 0  L 1822 3584  Q 1619 3391 1289 3197  Q 959 3003 697 2906  L 697 3450  Q 1169 3672 1522 3987  Q 1875 4303 2022 4600  L 2384 4600  L 2384 0  z " transform="scale(0.015625)" />
      <path id="ArialMT-32" d="M 3222 541  L 3222 0  L 194 0  Q 188 203 259 391  Q 375 700 629 1000  Q 884 1300 1366 1694  Q 2113 2306 2375 2664  Q 2638 3022 2638 3341  Q 2638 3675 2398 3904  Q 2159 4134 1775 4134  Q 1369 4134 1125 3890  Q 881 3647 878 3216  L 300 3275  Q 359 3922 746 4261  Q 1134 4600 1788 4600  Q 2447 4600 2831 4234  Q 3216 3869 3216 3328  Q 3216 3053 3103 2787  Q 2991 2522 2730 2228  Q 2469 1934 1863 1422  Q 1356 997 1212 845  Q 1069 694 975 541  L 3222 541  z " transform="scale(0.015625)" />
      <path id="ArialMT-33" d="M 269 1209  L 831 1284  Q 928 806 1161 595  Q 1394 384 1728 384  Q 2125 384 2398 659  Q 2672 934 2672 1341  Q 2672 1728 2419 1979  Q 2166 2231 1775 2231  Q 1616 2231 1378 2169  L 1441 2663  Q 1497 2656 1531 2656  Q 1891 2656 2178 2843  Q 2466 3031 2466 3422  Q 2466 3731 2256 3934  Q 2047 4138 1716 4138  Q 1388 4138 1169 3931  Q 950 3725 888 3313  L 325 3413  Q 428 3978 793 4289  Q 1159 4600 1703 4600  Q 2078 4600 2393 4439  Q 2709 4278 2876 4000  Q 3044 3722 3044 3409  Q 3044 3113 2884 2869  Q 2725 2625 2413 2481  Q 2819 2388 3044 2092  Q 3269 1797 3269 1353  Q 3269 753 2831 336  Q 2394 -81 1725 -81  Q 1122 -81 723 278  Q 325 638 269 1209  z " transform="scale(0.015625)" />
     </defs>
     <use xlink:href="#ArialMT-6e" />
     <use xlink:href="#ArialMT-3d" x="55.615234" />
     <use xlink:href="#ArialMT-31" x="114.013672" />
     <use xlink:href="#ArialMT-32" x="169.628906" />
     <use xlink:href="#ArialMT-33" x="225.244141" />
    </g>
    
    <g style="fill: #444443" transform="translate(31.752734 97.622019)scale(0.09 -0.09)">
     <defs>
      <path id="ArialMT-65" d="M 2694 1069  L 3275 997  Q 3138 488 2766 206  Q 2394 -75 1816 -75  Q 1088 -75 661 373  Q 234 822 234 1631  Q 234 2469 665 2931  Q 1097 3394 1784 3394  Q 2450 3394 2872 2941  Q 3294 2488 3294 1666  Q 3294 1616 3291 1516  L 816 1516  Q 847 969 1125 678  Q 1403 388 1819 388  Q 2128 388 2347 550  Q 2566 713 2694 1069  z M 847 1978  L 2700 1978  Q 2663 2397 2488 2606  Q 2219 2931 1791 2931  Q 1403 2931 1139 2672  Q 875 2413 847 1978  z " transform="scale(0.015625)" />
      <path id="ArialMT-67" d="M 319 -275  L 866 -356  Q 900 -609 1056 -725  Q 1266 -881 1628 -881  Q 2019 -881 2231 -725  Q 2444 -569 2519 -288  Q 2563 -116 2559 434  Q 2191 0 1641 0  Q 956 0 581 494  Q 206 988 206 1678  Q 206 2153 378 2554  Q 550 2956 876 3175  Q 1203 3394 1644 3394  Q 2231 3394 2613 2919  L 2613 3319  L 3131 3319  L 3131 450  Q 3131 -325 2973 -648  Q 2816 -972 2473 -1159  Q 2131 -1347 1631 -1347  Q 1038 -1347 672 -1080  Q 306 -813 319 -275  z M 784 1719  Q 784 1066 1043 766  Q 1303 466 1694 466  Q 2081 466 2343 764  Q 2606 1063 2606 1700  Q 2606 2309 2336 2618  Q 2066 2928 1684 2928  Q 1309 2928 1046 2623  Q 784 2319 784 1719  z " transform="scale(0.015625)" />
     </defs>
     <use xlink:href="#ArialMT-6e" />
     <use xlink:href="#ArialMT-65" x="55.615234" />
     <use xlink:href="#ArialMT-67" x="111.230469" />
    </g>
   </g>
  </g>
 </g>
</svg></g>


<g id="node2" class="node">
<title>node2</title>
<text text-anchor="start" x="178" y="-203.4" font-family="Helvetica,sans-Serif" font-size="12.00" fill="#444443">month@6.50</text>
</g>

<g id="edge4" class="edge">
<title>node2-&gt;node3</title>
<path fill="none" stroke="#444443" stroke-width="0.3" d="M201.76,-199.91C180.02,-188.59 130.77,-162.95 106.12,-150.11" />
<polygon fill="#444443" stroke="#444443" stroke-width="0.3" points="106.58,-148.77 102.39,-148.17 105.29,-151.26 106.58,-148.77" />
</g>

<g id="node5" class="node">
<title>node7</title>
<text text-anchor="start" x="271.5" y="-203.4" font-family="Helvetica,sans-Serif" font-size="12.00" fill="#444443">Soca@3045.39</text>
</g>


<g id="edge5" class="edge">
<title>node2-&gt;leaf6</title>
<path fill="none" stroke="#444443" stroke-width="0.3" d="M210.65,-199.69C209.61,-196.38 208.19,-191.92 206.6,-186.93" />
<polygon fill="#444443" stroke="#444443" stroke-width="0.3" points="207.91,-186.41 205.36,-183.02 205.24,-187.26 207.91,-186.41" />
</g>

<g id="node3" class="node">
<title>node8</title>
<text text-anchor="start" x="233.5" y="-138.4" font-family="Helvetica,sans-Serif" font-size="12.00" fill="#444443">Dinophysis caudata@8.88</text>
</g>

<g id="node4" class="node">
<title>node11</title>
<text text-anchor="start" x="389" y="-138.4" font-family="Helvetica,sans-Serif" font-size="12.00" fill="#444443">air temp@15.71</text>
</g>


<g id="node17" class="node">
<title>leaf9</title>
<polygon fill="none" stroke="#444443" stroke-width="0" points="289,-57.5 270,-57.5 270,-25.5 289,-25.5 289,-57.5" />
<svg width="11px" height="24px" viewBox="0 0 15.26625 32.197645" version="1.1" preserveAspectRatio="xMinYMin meet" x="274.5" y="-53.5">
 <metadata>
  <rdf:RDF>
   <ns2:Work>
    <dc:type rdf:resource="http://purl.org/dc/dcmitype/StillImage" />
    <dc:date>2023-05-17T22:09:43.478359</dc:date>
    <dc:format>image/svg+xml</dc:format>
    <dc:creator>
     <ns2:Agent>
      <dc:title>Matplotlib v3.5.2, https://matplotlib.org/</dc:title>
     </ns2:Agent>
    </dc:creator>
   </ns2:Work>
  </rdf:RDF>
 </metadata>
 <defs>
  <style type="text/css">*{stroke-linejoin: round; stroke-linecap: butt}</style>
 </defs>
 <g id="figure_1">
  <g id="patch_1">
   <path d="M 0 32.197645  L 15.26625 32.197645  L 15.26625 0  L 0 0  L 0 32.197645  z " style="fill: none" />
  </g>
  <g id="axes_1">
   <g id="patch_2">
    <path d="M 14.579125 6.945996  C 14.579125 5.950333 14.365042 4.966211 13.951429 4.060524  C 13.537815 3.154836 12.93426 2.34858 12.181788 1.69656  C 11.429315 1.044539 10.545371 0.561869 9.590039 0.281358  C 8.634707 0.000847 7.630135 -0.071001 6.644606 0.070697  L 7.633125 6.945996  L 14.579125 6.945996  z " style="fill: #fefebb; stroke: #444443; stroke-width: 0.5; stroke-linejoin: miter" />
   </g>
   <g id="patch_3">
    <path d="M 6.644606 0.070697  C 5.32672 0.26018 4.090696 0.824654 3.084462 1.69656  C 2.078228 2.568467 1.343596 3.711577 0.968487 4.989083  C 0.593377 6.266588 0.593377 7.625406 0.968487 8.902911  C 1.343597 10.180417 2.078229 11.323527 3.084463 12.195433  C 4.090697 13.06734 5.326721 13.631813 6.644607 13.821296  C 7.962493 14.010779 9.30748 13.817399 10.518599 13.2643  C 11.729717 12.7112 12.756643 11.821363 13.476473 10.701286  C 14.196302 9.581209 14.579125 8.277433 14.579125 6.945995  L 7.633125 6.945996  L 6.644606 0.070697  z " style="fill: #a1dab4; stroke: #444443; stroke-width: 0.5; stroke-linejoin: miter" />
   </g>
   <g id="text_1">
    
    <g style="fill: #444443" transform="translate(0 20.889708)scale(0.09 -0.09)">
     <defs>
      <path id="ArialMT-6e" d="M 422 0  L 422 3319  L 928 3319  L 928 2847  Q 1294 3394 1984 3394  Q 2284 3394 2536 3286  Q 2788 3178 2913 3003  Q 3038 2828 3088 2588  Q 3119 2431 3119 2041  L 3119 0  L 2556 0  L 2556 2019  Q 2556 2363 2490 2533  Q 2425 2703 2258 2804  Q 2091 2906 1866 2906  Q 1506 2906 1245 2678  Q 984 2450 984 1813  L 984 0  L 422 0  z " transform="scale(0.015625)" />
      <path id="ArialMT-3d" d="M 3381 2694  L 356 2694  L 356 3219  L 3381 3219  L 3381 2694  z M 3381 1303  L 356 1303  L 356 1828  L 3381 1828  L 3381 1303  z " transform="scale(0.015625)" />
      <path id="ArialMT-34" d="M 2069 0  L 2069 1097  L 81 1097  L 81 1613  L 2172 4581  L 2631 4581  L 2631 1613  L 3250 1613  L 3250 1097  L 2631 1097  L 2631 0  L 2069 0  z M 2069 1613  L 2069 3678  L 634 1613  L 2069 1613  z " transform="scale(0.015625)" />
     </defs>
     <use xlink:href="#ArialMT-6e" />
     <use xlink:href="#ArialMT-3d" x="55.615234" />
     <use xlink:href="#ArialMT-34" x="114.013672" />
    </g>
    
    <g style="fill: #444443" transform="translate(0.378281 30.408895)scale(0.09 -0.09)">
     <defs>
      <path id="ArialMT-70" d="M 422 -1272  L 422 3319  L 934 3319  L 934 2888  Q 1116 3141 1344 3267  Q 1572 3394 1897 3394  Q 2322 3394 2647 3175  Q 2972 2956 3137 2557  Q 3303 2159 3303 1684  Q 3303 1175 3120 767  Q 2938 359 2589 142  Q 2241 -75 1856 -75  Q 1575 -75 1351 44  Q 1128 163 984 344  L 984 -1272  L 422 -1272  z M 931 1641  Q 931 1000 1190 694  Q 1450 388 1819 388  Q 2194 388 2461 705  Q 2728 1022 2728 1688  Q 2728 2322 2467 2637  Q 2206 2953 1844 2953  Q 1484 2953 1207 2617  Q 931 2281 931 1641  z " transform="scale(0.015625)" />
      <path id="ArialMT-6f" d="M 213 1659  Q 213 2581 725 3025  Q 1153 3394 1769 3394  Q 2453 3394 2887 2945  Q 3322 2497 3322 1706  Q 3322 1066 3130 698  Q 2938 331 2570 128  Q 2203 -75 1769 -75  Q 1072 -75 642 372  Q 213 819 213 1659  z M 791 1659  Q 791 1022 1069 705  Q 1347 388 1769 388  Q 2188 388 2466 706  Q 2744 1025 2744 1678  Q 2744 2294 2464 2611  Q 2184 2928 1769 2928  Q 1347 2928 1069 2612  Q 791 2297 791 1659  z " transform="scale(0.015625)" />
      <path id="ArialMT-7a" d="M 125 0  L 125 456  L 2238 2881  Q 1878 2863 1603 2863  L 250 2863  L 250 3319  L 2963 3319  L 2963 2947  L 1166 841  L 819 456  Q 1197 484 1528 484  L 3063 484  L 3063 0  L 125 0  z " transform="scale(0.015625)" />
     </defs>
     <use xlink:href="#ArialMT-70" />
     <use xlink:href="#ArialMT-6f" x="55.615234" />
     <use xlink:href="#ArialMT-7a" x="111.230469" />
    </g>
   </g>
  </g>
 </g>
</svg></g>

<g id="edge7" class="edge">
<title>node8-&gt;leaf9</title>
<path fill="none" stroke="#444443" stroke-width="0.3" d="M303.08,-134.95C299.54,-121.08 290.18,-84.36 284.37,-61.59" />
<polygon fill="#444443" stroke="#444443" stroke-width="0.3" points="285.68,-61.04 283.33,-57.51 282.96,-61.74 285.68,-61.04" />
</g>

<g id="node18" class="node">
<title>leaf10</title>
<polygon fill="none" stroke="#444443" stroke-width="0" points="370,-83 303,-83 303,0 370,0 370,-83" />
<svg width="59px" height="75px" viewBox="0 0 78.519999 99.51623" version="1.1" preserveAspectRatio="xMinYMin meet" x="307.5" y="-78.5">
 <metadata>
  <rdf:RDF>
   <ns2:Work>
    <dc:type rdf:resource="http://purl.org/dc/dcmitype/StillImage" />
    <dc:date>2023-05-17T22:09:43.530815</dc:date>
    <dc:format>image/svg+xml</dc:format>
    <dc:creator>
     <ns2:Agent>
      <dc:title>Matplotlib v3.5.2, https://matplotlib.org/</dc:title>
     </ns2:Agent>
    </dc:creator>
   </ns2:Work>
  </rdf:RDF>
 </metadata>
 <defs>
  <style type="text/css">*{stroke-linejoin: round; stroke-linecap: butt}</style>
 </defs>
 <g id="figure_1">
  <g id="patch_1">
   <path d="M 0 99.51623  L 78.519999 99.51623  L 78.519999 -0  L 0 -0  L 0 99.51623  z " style="fill: none" />
  </g>
  <g id="axes_1">
   <g id="patch_2">
    <path d="M 78.519999 39.259992  C 78.519999 34.737848 77.738678 30.249516 76.21057 25.993382  C 74.682462 21.737249 72.430418 17.776959 69.553981 14.287562  C 66.677544 10.798164 63.219726 7.831838 59.333367 5.519697  C 55.447007 3.207556 51.190222 1.584175 46.751162 0.721309  C 42.312102 -0.141557 37.75715 -0.231005 33.287637 0.456919  C 28.818124 1.144843 24.500886 2.599851 20.526748 4.757631  C 16.552611 6.915412 12.981002 9.743697 9.969789 13.117476  C 6.958575 16.491255 4.552788 20.360076 2.858762 24.552935  C 1.164737 28.745794 0.207807 33.199991 0.030268 37.718649  C -0.147271 42.237306 0.457236 46.752853 1.817071 51.065699  C 3.176906 55.378544 5.271732 59.424195 8.008959 63.023831  C 10.746185 66.623467 14.084879 69.72326 17.877467 72.186196  C 21.670056 74.649133 25.859827 76.438383 30.261588 77.474861  C 34.663349 78.511339 39.211278 78.779545 43.704353 78.267624  C 48.197428 77.755703 52.568461 76.471311 56.624249 74.471218  C 60.680037 72.471126 64.35993 69.785242 67.501276 66.532284  L 39.259999 39.259992  L 78.519999 39.259992  z " style="fill: #fefebb; stroke: #444443; stroke-width: 0.5; stroke-linejoin: miter" />
   </g>
   <g id="patch_3">
    <path d="M 67.501276 66.532284  C 71.002565 62.906594 73.773104 58.640339 75.661236 53.967052  C 77.549367 49.293765 78.519999 44.300301 78.519999 39.259998  L 39.259999 39.259992  L 67.501276 66.532284  z " style="fill: #a1dab4; stroke: #444443; stroke-width: 0.5; stroke-linejoin: miter" />
   </g>
   <g id="text_1">
    
    <g style="fill: #444443" transform="translate(26.622031 88.102823)scale(0.09 -0.09)">
     <defs>
      <path id="ArialMT-6e" d="M 422 0  L 422 3319  L 928 3319  L 928 2847  Q 1294 3394 1984 3394  Q 2284 3394 2536 3286  Q 2788 3178 2913 3003  Q 3038 2828 3088 2588  Q 3119 2431 3119 2041  L 3119 0  L 2556 0  L 2556 2019  Q 2556 2363 2490 2533  Q 2425 2703 2258 2804  Q 2091 2906 1866 2906  Q 1506 2906 1245 2678  Q 984 2450 984 1813  L 984 0  L 422 0  z " transform="scale(0.015625)" />
      <path id="ArialMT-3d" d="M 3381 2694  L 356 2694  L 356 3219  L 3381 3219  L 3381 2694  z M 3381 1303  L 356 1303  L 356 1828  L 3381 1828  L 3381 1303  z " transform="scale(0.015625)" />
      <path id="ArialMT-31" d="M 2384 0  L 1822 0  L 1822 3584  Q 1619 3391 1289 3197  Q 959 3003 697 2906  L 697 3450  Q 1169 3672 1522 3987  Q 1875 4303 2022 4600  L 2384 4600  L 2384 0  z " transform="scale(0.015625)" />
      <path id="ArialMT-30" d="M 266 2259  Q 266 3072 433 3567  Q 600 4063 929 4331  Q 1259 4600 1759 4600  Q 2128 4600 2406 4451  Q 2684 4303 2865 4023  Q 3047 3744 3150 3342  Q 3253 2941 3253 2259  Q 3253 1453 3087 958  Q 2922 463 2592 192  Q 2263 -78 1759 -78  Q 1097 -78 719 397  Q 266 969 266 2259  z M 844 2259  Q 844 1131 1108 757  Q 1372 384 1759 384  Q 2147 384 2411 759  Q 2675 1134 2675 2259  Q 2675 3391 2411 3762  Q 2147 4134 1753 4134  Q 1366 4134 1134 3806  Q 844 3388 844 2259  z " transform="scale(0.015625)" />
      <path id="ArialMT-35" d="M 266 1200  L 856 1250  Q 922 819 1161 601  Q 1400 384 1738 384  Q 2144 384 2425 690  Q 2706 997 2706 1503  Q 2706 1984 2436 2262  Q 2166 2541 1728 2541  Q 1456 2541 1237 2417  Q 1019 2294 894 2097  L 366 2166  L 809 4519  L 3088 4519  L 3088 3981  L 1259 3981  L 1013 2750  Q 1425 3038 1878 3038  Q 2478 3038 2890 2622  Q 3303 2206 3303 1553  Q 3303 931 2941 478  Q 2500 -78 1738 -78  Q 1113 -78 717 272  Q 322 622 266 1200  z " transform="scale(0.015625)" />
     </defs>
     <use xlink:href="#ArialMT-6e" />
     <use xlink:href="#ArialMT-3d" x="55.615234" />
     <use xlink:href="#ArialMT-31" x="114.013672" />
     <use xlink:href="#ArialMT-30" x="169.628906" />
     <use xlink:href="#ArialMT-35" x="225.244141" />
    </g>
    
    <g style="fill: #444443" transform="translate(31.752734 97.622011)scale(0.09 -0.09)">
     <defs>
      <path id="ArialMT-65" d="M 2694 1069  L 3275 997  Q 3138 488 2766 206  Q 2394 -75 1816 -75  Q 1088 -75 661 373  Q 234 822 234 1631  Q 234 2469 665 2931  Q 1097 3394 1784 3394  Q 2450 3394 2872 2941  Q 3294 2488 3294 1666  Q 3294 1616 3291 1516  L 816 1516  Q 847 969 1125 678  Q 1403 388 1819 388  Q 2128 388 2347 550  Q 2566 713 2694 1069  z M 847 1978  L 2700 1978  Q 2663 2397 2488 2606  Q 2219 2931 1791 2931  Q 1403 2931 1139 2672  Q 875 2413 847 1978  z " transform="scale(0.015625)" />
      <path id="ArialMT-67" d="M 319 -275  L 866 -356  Q 900 -609 1056 -725  Q 1266 -881 1628 -881  Q 2019 -881 2231 -725  Q 2444 -569 2519 -288  Q 2563 -116 2559 434  Q 2191 0 1641 0  Q 956 0 581 494  Q 206 988 206 1678  Q 206 2153 378 2554  Q 550 2956 876 3175  Q 1203 3394 1644 3394  Q 2231 3394 2613 2919  L 2613 3319  L 3131 3319  L 3131 450  Q 3131 -325 2973 -648  Q 2816 -972 2473 -1159  Q 2131 -1347 1631 -1347  Q 1038 -1347 672 -1080  Q 306 -813 319 -275  z M 784 1719  Q 784 1066 1043 766  Q 1303 466 1694 466  Q 2081 466 2343 764  Q 2606 1063 2606 1700  Q 2606 2309 2336 2618  Q 2066 2928 1684 2928  Q 1309 2928 1046 2623  Q 784 2319 784 1719  z " transform="scale(0.015625)" />
     </defs>
     <use xlink:href="#ArialMT-6e" />
     <use xlink:href="#ArialMT-65" x="55.615234" />
     <use xlink:href="#ArialMT-67" x="111.230469" />
    </g>
   </g>
  </g>
 </g>
</svg></g>

<g id="edge8" class="edge">
<title>node8-&gt;leaf10</title>
<path fill="none" stroke="#444443" stroke-width="0.3" d="M306.31,-134.95C309.34,-125.69 315.68,-106.26 321.78,-87.59" />
<polygon fill="#444443" stroke="#444443" stroke-width="0.3" points="323.24,-87.6 323.16,-83.37 320.58,-86.73 323.24,-87.6" />
</g>

<g id="node19" class="node">
<title>leaf12</title>
<polygon fill="none" stroke="#444443" stroke-width="0" points="428,-59 407,-59 407,-24 428,-24 428,-59" />
<svg width="13px" height="27px" viewBox="0 0 17.516 36.072077" version="1.1" preserveAspectRatio="xMinYMin meet" x="411.5" y="-54.5">
 <metadata>
  <rdf:RDF>
   <ns2:Work>
    <dc:type rdf:resource="http://purl.org/dc/dcmitype/StillImage" />
    <dc:date>2023-05-17T22:09:43.578274</dc:date>
    <dc:format>image/svg+xml</dc:format>
    <dc:creator>
     <ns2:Agent>
      <dc:title>Matplotlib v3.5.2, https://matplotlib.org/</dc:title>
     </ns2:Agent>
    </dc:creator>
   </ns2:Work>
  </rdf:RDF>
 </metadata>
 <defs>
  <style type="text/css">*{stroke-linejoin: round; stroke-linecap: butt}</style>
 </defs>
 <g id="figure_1">
  <g id="patch_1">
   <path d="M 0 36.072077  L 17.516 36.072077  L 17.516 0  L 0 0  L 0 36.072077  z " style="fill: none" />
  </g>
  <g id="axes_1">
   <g id="patch_2">
    <path d="M 17.516 8.758  C 17.516 7.60791 17.289457 6.469003 16.849337 5.406458  C 16.409217 4.343914 15.764078 3.378395 14.950841 2.565159  C 14.137605 1.751922 13.172086 1.106783 12.109542 0.666663  C 11.046997 0.226543 9.90809 -0 8.758 -0  C 7.60791 -0 6.469003 0.226543 5.406458 0.666663  C 4.343914 1.106783 3.378395 1.751922 2.565159 2.565159  C 1.751922 3.378395 1.106783 4.343914 0.666663 5.406458  C 0.226543 6.469003 -0 7.60791 -0 8.758  C -0 9.90809 0.226543 11.046997 0.666663 12.109542  C 1.106783 13.172086 1.751922 14.137605 2.565159 14.950841  C 3.378395 15.764078 4.343914 16.409217 5.406458 16.849337  C 6.469003 17.289457 7.60791 17.516 8.758 17.516  C 9.90809 17.516 11.046997 17.289457 12.109542 16.849337  C 13.172086 16.409217 14.137605 15.764078 14.950841 14.950841  C 15.764078 14.137605 16.409217 13.172086 16.849337 12.109542  C 17.289457 11.046997 17.516 9.90809 17.516 8.758  M 8.758 8.758  M 17.516 8.758  z " style="fill: #fefebb; stroke: #444443; stroke-width: 0.5; stroke-linejoin: miter" />
   </g>
   <g id="text_1">
    
    <g style="fill: #444443" transform="translate(1.124875 24.658671)scale(0.09 -0.09)">
     <defs>
      <path id="ArialMT-6e" d="M 422 0  L 422 3319  L 928 3319  L 928 2847  Q 1294 3394 1984 3394  Q 2284 3394 2536 3286  Q 2788 3178 2913 3003  Q 3038 2828 3088 2588  Q 3119 2431 3119 2041  L 3119 0  L 2556 0  L 2556 2019  Q 2556 2363 2490 2533  Q 2425 2703 2258 2804  Q 2091 2906 1866 2906  Q 1506 2906 1245 2678  Q 984 2450 984 1813  L 984 0  L 422 0  z " transform="scale(0.015625)" />
      <path id="ArialMT-3d" d="M 3381 2694  L 356 2694  L 356 3219  L 3381 3219  L 3381 2694  z M 3381 1303  L 356 1303  L 356 1828  L 3381 1828  L 3381 1303  z " transform="scale(0.015625)" />
      <path id="ArialMT-37" d="M 303 3981  L 303 4522  L 3269 4522  L 3269 4084  Q 2831 3619 2401 2847  Q 1972 2075 1738 1259  Q 1569 684 1522 0  L 944 0  Q 953 541 1156 1306  Q 1359 2072 1739 2783  Q 2119 3494 2547 3981  L 303 3981  z " transform="scale(0.015625)" />
     </defs>
     <use xlink:href="#ArialMT-6e" />
     <use xlink:href="#ArialMT-3d" x="55.615234" />
     <use xlink:href="#ArialMT-37" x="114.013672" />
    </g>
    
    <g style="fill: #444443" transform="translate(1.250734 34.177859)scale(0.09 -0.09)">
     <defs>
      <path id="ArialMT-65" d="M 2694 1069  L 3275 997  Q 3138 488 2766 206  Q 2394 -75 1816 -75  Q 1088 -75 661 373  Q 234 822 234 1631  Q 234 2469 665 2931  Q 1097 3394 1784 3394  Q 2450 3394 2872 2941  Q 3294 2488 3294 1666  Q 3294 1616 3291 1516  L 816 1516  Q 847 969 1125 678  Q 1403 388 1819 388  Q 2128 388 2347 550  Q 2566 713 2694 1069  z M 847 1978  L 2700 1978  Q 2663 2397 2488 2606  Q 2219 2931 1791 2931  Q 1403 2931 1139 2672  Q 875 2413 847 1978  z " transform="scale(0.015625)" />
      <path id="ArialMT-67" d="M 319 -275  L 866 -356  Q 900 -609 1056 -725  Q 1266 -881 1628 -881  Q 2019 -881 2231 -725  Q 2444 -569 2519 -288  Q 2563 -116 2559 434  Q 2191 0 1641 0  Q 956 0 581 494  Q 206 988 206 1678  Q 206 2153 378 2554  Q 550 2956 876 3175  Q 1203 3394 1644 3394  Q 2231 3394 2613 2919  L 2613 3319  L 3131 3319  L 3131 450  Q 3131 -325 2973 -648  Q 2816 -972 2473 -1159  Q 2131 -1347 1631 -1347  Q 1038 -1347 672 -1080  Q 306 -813 319 -275  z M 784 1719  Q 784 1066 1043 766  Q 1303 466 1694 466  Q 2081 466 2343 764  Q 2606 1063 2606 1700  Q 2606 2309 2336 2618  Q 2066 2928 1684 2928  Q 1309 2928 1046 2623  Q 784 2319 784 1719  z " transform="scale(0.015625)" />
     </defs>
     <use xlink:href="#ArialMT-6e" />
     <use xlink:href="#ArialMT-65" x="55.615234" />
     <use xlink:href="#ArialMT-67" x="111.230469" />
    </g>
   </g>
  </g>
 </g>
</svg></g>

<g id="edge10" class="edge">
<title>node11-&gt;leaf12</title>
<path fill="none" stroke="#444443" stroke-width="0.3" d="M430.71,-134.95C428.77,-121.38 423.71,-85.96 420.45,-63.12" />
<polygon fill="#444443" stroke="#444443" stroke-width="0.3" points="421.81,-62.76 419.86,-59 419.04,-63.16 421.81,-62.76" />
</g>

<g id="node20" class="node">
<title>leaf13</title>
<polygon fill="none" stroke="#444443" stroke-width="0" points="479,-67.5 442,-67.5 442,-15.5 479,-15.5 479,-67.5" />
<svg width="29px" height="44px" viewBox="0 0 39.259919 58.580356" version="1.1" preserveAspectRatio="xMinYMin meet" x="446.5" y="-63.5">
 <metadata>
  <rdf:RDF>
   <ns2:Work>
    <dc:type rdf:resource="http://purl.org/dc/dcmitype/StillImage" />
    <dc:date>2023-05-17T22:09:43.623919</dc:date>
    <dc:format>image/svg+xml</dc:format>
    <dc:creator>
     <ns2:Agent>
      <dc:title>Matplotlib v3.5.2, https://matplotlib.org/</dc:title>
     </ns2:Agent>
    </dc:creator>
   </ns2:Work>
  </rdf:RDF>
 </metadata>
 <defs>
  <style type="text/css">*{stroke-linejoin: round; stroke-linecap: butt}</style>
 </defs>
 <g id="figure_1">
  <g id="patch_1">
   <path d="M 0 58.580356  L 39.259919 58.580356  L 39.259919 0  L 0 0  L 0 58.580356  z " style="fill: none" />
  </g>
  <g id="axes_1">
   <g id="patch_2">
    <path d="M 39.259919 19.629987  C 39.259919 16.783564 38.640806 13.970907 37.445624 11.387564  C 36.250442 8.804221 34.507547 6.511481 32.338111 4.668746  C 30.168676 2.826011 27.62417 1.476999 24.8815 0.715501  C 22.13883 -0.045998 19.263063 -0.201918 16.454138 0.258582  L 19.629919 19.629987  L 39.259919 19.629987  z " style="fill: #fefebb; stroke: #444443; stroke-width: 0.5; stroke-linejoin: miter" />
   </g>
   <g id="patch_3">
    <path d="M 16.454138 0.258582  C 12.757164 0.86467 9.30983 2.516611 6.521245 5.018362  C 3.732661 7.520113 1.717681 10.768632 0.715433 14.378405  C -0.286816 17.988177 -0.235053 21.810525 0.864578 25.391834  C 1.964209 28.973142 4.066417 32.165906 6.921724 34.591227  C 9.777032 37.016547 13.267835 38.574531 16.979866 39.080286  C 20.691897 39.58604 24.472265 39.018735 27.872339 37.445694  C 31.272413 35.872652 34.152151 33.358666 36.169803 30.202079  C 38.187455 27.045492 39.259918 23.376317 39.259919 19.629991  L 19.629919 19.629987  L 16.454138 0.258582  z " style="fill: #a1dab4; stroke: #444443; stroke-width: 0.5; stroke-linejoin: miter" />
   </g>
   <g id="text_1">
    
    <g style="fill: #444443" transform="translate(9.494372 47.272418)scale(0.09 -0.09)">
     <defs>
      <path id="ArialMT-6e" d="M 422 0  L 422 3319  L 928 3319  L 928 2847  Q 1294 3394 1984 3394  Q 2284 3394 2536 3286  Q 2788 3178 2913 3003  Q 3038 2828 3088 2588  Q 3119 2431 3119 2041  L 3119 0  L 2556 0  L 2556 2019  Q 2556 2363 2490 2533  Q 2425 2703 2258 2804  Q 2091 2906 1866 2906  Q 1506 2906 1245 2678  Q 984 2450 984 1813  L 984 0  L 422 0  z " transform="scale(0.015625)" />
      <path id="ArialMT-3d" d="M 3381 2694  L 356 2694  L 356 3219  L 3381 3219  L 3381 2694  z M 3381 1303  L 356 1303  L 356 1828  L 3381 1828  L 3381 1303  z " transform="scale(0.015625)" />
      <path id="ArialMT-32" d="M 3222 541  L 3222 0  L 194 0  Q 188 203 259 391  Q 375 700 629 1000  Q 884 1300 1366 1694  Q 2113 2306 2375 2664  Q 2638 3022 2638 3341  Q 2638 3675 2398 3904  Q 2159 4134 1775 4134  Q 1369 4134 1125 3890  Q 881 3647 878 3216  L 300 3275  Q 359 3922 746 4261  Q 1134 4600 1788 4600  Q 2447 4600 2831 4234  Q 3216 3869 3216 3328  Q 3216 3053 3103 2787  Q 2991 2522 2730 2228  Q 2469 1934 1863 1422  Q 1356 997 1212 845  Q 1069 694 975 541  L 3222 541  z " transform="scale(0.015625)" />
      <path id="ArialMT-35" d="M 266 1200  L 856 1250  Q 922 819 1161 601  Q 1400 384 1738 384  Q 2144 384 2425 690  Q 2706 997 2706 1503  Q 2706 1984 2436 2262  Q 2166 2541 1728 2541  Q 1456 2541 1237 2417  Q 1019 2294 894 2097  L 366 2166  L 809 4519  L 3088 4519  L 3088 3981  L 1259 3981  L 1013 2750  Q 1425 3038 1878 3038  Q 2478 3038 2890 2622  Q 3303 2206 3303 1553  Q 3303 931 2941 478  Q 2500 -78 1738 -78  Q 1113 -78 717 272  Q 322 622 266 1200  z " transform="scale(0.015625)" />
     </defs>
     <use xlink:href="#ArialMT-6e" />
     <use xlink:href="#ArialMT-3d" x="55.615234" />
     <use xlink:href="#ArialMT-32" x="114.013672" />
     <use xlink:href="#ArialMT-35" x="169.628906" />
    </g>
    
    <g style="fill: #444443" transform="translate(12.375075 56.791606)scale(0.09 -0.09)">
     <defs>
      <path id="ArialMT-70" d="M 422 -1272  L 422 3319  L 934 3319  L 934 2888  Q 1116 3141 1344 3267  Q 1572 3394 1897 3394  Q 2322 3394 2647 3175  Q 2972 2956 3137 2557  Q 3303 2159 3303 1684  Q 3303 1175 3120 767  Q 2938 359 2589 142  Q 2241 -75 1856 -75  Q 1575 -75 1351 44  Q 1128 163 984 344  L 984 -1272  L 422 -1272  z M 931 1641  Q 931 1000 1190 694  Q 1450 388 1819 388  Q 2194 388 2461 705  Q 2728 1022 2728 1688  Q 2728 2322 2467 2637  Q 2206 2953 1844 2953  Q 1484 2953 1207 2617  Q 931 2281 931 1641  z " transform="scale(0.015625)" />
      <path id="ArialMT-6f" d="M 213 1659  Q 213 2581 725 3025  Q 1153 3394 1769 3394  Q 2453 3394 2887 2945  Q 3322 2497 3322 1706  Q 3322 1066 3130 698  Q 2938 331 2570 128  Q 2203 -75 1769 -75  Q 1072 -75 642 372  Q 213 819 213 1659  z M 791 1659  Q 791 1022 1069 705  Q 1347 388 1769 388  Q 2188 388 2466 706  Q 2744 1025 2744 1678  Q 2744 2294 2464 2611  Q 2184 2928 1769 2928  Q 1347 2928 1069 2612  Q 791 2297 791 1659  z " transform="scale(0.015625)" />
      <path id="ArialMT-7a" d="M 125 0  L 125 456  L 2238 2881  Q 1878 2863 1603 2863  L 250 2863  L 250 3319  L 2963 3319  L 2963 2947  L 1166 841  L 819 456  Q 1197 484 1528 484  L 3063 484  L 3063 0  L 125 0  z " transform="scale(0.015625)" />
     </defs>
     <use xlink:href="#ArialMT-70" />
     <use xlink:href="#ArialMT-6f" x="55.615234" />
     <use xlink:href="#ArialMT-7a" x="111.230469" />
    </g>
   </g>
  </g>
 </g>
</svg></g>

<g id="edge11" class="edge">
<title>node11-&gt;leaf13</title>
<path fill="none" stroke="#444443" stroke-width="0.3" d="M433.14,-134.95C436.68,-122.98 445.26,-94.02 451.87,-71.67" />
<polygon fill="#444443" stroke="#444443" stroke-width="0.3" points="453.29,-71.81 453.08,-67.58 450.6,-71.02 453.29,-71.81" />
</g>

<g id="edge13" class="edge">
<title>node7-&gt;node8</title>
<path fill="none" stroke="#444443" stroke-width="0.3" d="M312.67,-199.69C311.12,-188.85 307.78,-165.46 305.89,-152.2" />
<polygon fill="#444443" stroke="#444443" stroke-width="0.3" points="307.25,-151.88 305.3,-148.12 304.48,-152.28 307.25,-151.88" />
</g>

<g id="edge14" class="edge">
<title>node7-&gt;node11</title>
<path fill="none" stroke="#444443" stroke-width="0.3" d="M323.97,-199.91C345.17,-188.59 393.2,-162.95 417.24,-150.11" />
<polygon fill="#444443" stroke="#444443" stroke-width="0.3" points="418.01,-151.29 420.88,-148.17 416.69,-148.82 418.01,-151.29" />
</g>

<g id="node6" class="node">
<title>node1</title>
<text text-anchor="start" x="299.5" y="-233.4" font-family="Helvetica,sans-Serif" font-size="12.00" fill="#444443">Dinophysis caudata@0.98</text>
</g>

<g id="edge16" class="edge">
<title>node1-&gt;node2</title>
<path fill="none" stroke="#444443" stroke-width="0.3" d="M339.28,-229.97C312.88,-225.29 275.08,-218.59 247.62,-213.72" />
<polygon fill="#444443" stroke="#444443" stroke-width="0.3" points="247.83,-212.34 243.65,-213.02 247.35,-215.1 247.83,-212.34" />
</g>

<g id="edge17" class="edge">
<title>node1-&gt;node7</title>
<path fill="none" stroke="#444443" stroke-width="0.3" d="M359.24,-229.97C350.42,-225.63 338.07,-219.57 328.42,-214.83" />
<polygon fill="#444443" stroke="#444443" stroke-width="0.3" points="328.95,-213.53 324.74,-213.02 327.71,-216.04 328.95,-213.53" />
</g>

<g id="node12" class="node">
<title>node14</title>
<text text-anchor="start" x="478" y="-233.4" font-family="Helvetica,sans-Serif" font-size="12.00" fill="#444443">Dinophysis fortii@9.69</text>
</g>


<g id="node7" class="node">
<title>node16</title>
<text text-anchor="start" x="481" y="-138.4" font-family="Helvetica,sans-Serif" font-size="12.00" fill="#444443">Dinophysis fortii@6.50</text>
</g>

<g id="node21" class="node">
<title>leaf17</title>
<polygon fill="none" stroke="#444443" stroke-width="0" points="528,-56.5 509,-56.5 509,-26.5 528,-26.5 528,-56.5" />
<svg width="11px" height="22px" viewBox="0 0 15.26625 29.790477" version="1.1" preserveAspectRatio="xMinYMin meet" x="513.5" y="-52.5">
 <metadata>
  <rdf:RDF>
   <ns2:Work>
    <dc:type rdf:resource="http://purl.org/dc/dcmitype/StillImage" />
    <dc:date>2023-05-17T22:09:43.669221</dc:date>
    <dc:format>image/svg+xml</dc:format>
    <dc:creator>
     <ns2:Agent>
      <dc:title>Matplotlib v3.5.2, https://matplotlib.org/</dc:title>
     </ns2:Agent>
    </dc:creator>
   </ns2:Work>
  </rdf:RDF>
 </metadata>
 <defs>
  <style type="text/css">*{stroke-linejoin: round; stroke-linecap: butt}</style>
 </defs>
 <g id="figure_1">
  <g id="patch_1">
   <path d="M 0 29.790477  L 15.26625 29.790477  L 15.26625 0  L 0 0  L 0 29.790477  z " style="fill: none" />
  </g>
  <g id="axes_1">
   <g id="patch_2">
    <path d="M 13.371125 5.738  C 13.371125 4.984493 13.222701 4.238312 12.934346 3.542162  C 12.645991 2.846013 12.223314 2.213431 11.690504 1.680621  C 11.157694 1.147811 10.525112 0.725134 9.828963 0.436779  C 9.132813 0.148424 8.386632 -0 7.633125 -0  C 6.879618 -0 6.133437 0.148424 5.437287 0.436779  C 4.741138 0.725134 4.108556 1.147811 3.575746 1.680621  C 3.042936 2.213431 2.620259 2.846013 2.331904 3.542162  C 2.043549 4.238312 1.895125 4.984493 1.895125 5.738  C 1.895125 6.491507 2.043549 7.237688 2.331904 7.933838  C 2.620259 8.629987 3.042936 9.262569 3.575746 9.795379  C 4.108556 10.328189 4.741138 10.750866 5.437287 11.039221  C 6.133437 11.327576 6.879618 11.476 7.633125 11.476  C 8.386632 11.476 9.132813 11.327576 9.828963 11.039221  C 10.525112 10.750866 11.157694 10.328189 11.690504 9.795379  C 12.223314 9.262569 12.645991 8.629987 12.934346 7.933838  C 13.222701 7.237688 13.371125 6.491507 13.371125 5.738  M 7.633125 5.738  M 13.371125 5.738  z " style="fill: #fefebb; stroke: #444443; stroke-width: 0.5; stroke-linejoin: miter" />
   </g>
   <g id="text_1">
    
    <g style="fill: #444443" transform="translate(0 18.377071)scale(0.09 -0.09)">
     <defs>
      <path id="ArialMT-6e" d="M 422 0  L 422 3319  L 928 3319  L 928 2847  Q 1294 3394 1984 3394  Q 2284 3394 2536 3286  Q 2788 3178 2913 3003  Q 3038 2828 3088 2588  Q 3119 2431 3119 2041  L 3119 0  L 2556 0  L 2556 2019  Q 2556 2363 2490 2533  Q 2425 2703 2258 2804  Q 2091 2906 1866 2906  Q 1506 2906 1245 2678  Q 984 2450 984 1813  L 984 0  L 422 0  z " transform="scale(0.015625)" />
      <path id="ArialMT-3d" d="M 3381 2694  L 356 2694  L 356 3219  L 3381 3219  L 3381 2694  z M 3381 1303  L 356 1303  L 356 1828  L 3381 1828  L 3381 1303  z " transform="scale(0.015625)" />
      <path id="ArialMT-32" d="M 3222 541  L 3222 0  L 194 0  Q 188 203 259 391  Q 375 700 629 1000  Q 884 1300 1366 1694  Q 2113 2306 2375 2664  Q 2638 3022 2638 3341  Q 2638 3675 2398 3904  Q 2159 4134 1775 4134  Q 1369 4134 1125 3890  Q 881 3647 878 3216  L 300 3275  Q 359 3922 746 4261  Q 1134 4600 1788 4600  Q 2447 4600 2831 4234  Q 3216 3869 3216 3328  Q 3216 3053 3103 2787  Q 2991 2522 2730 2228  Q 2469 1934 1863 1422  Q 1356 997 1212 845  Q 1069 694 975 541  L 3222 541  z " transform="scale(0.015625)" />
     </defs>
     <use xlink:href="#ArialMT-6e" />
     <use xlink:href="#ArialMT-3d" x="55.615234" />
     <use xlink:href="#ArialMT-32" x="114.013672" />
    </g>
    
    <g style="fill: #444443" transform="translate(0.125859 27.896259)scale(0.09 -0.09)">
     <defs>
      <path id="ArialMT-65" d="M 2694 1069  L 3275 997  Q 3138 488 2766 206  Q 2394 -75 1816 -75  Q 1088 -75 661 373  Q 234 822 234 1631  Q 234 2469 665 2931  Q 1097 3394 1784 3394  Q 2450 3394 2872 2941  Q 3294 2488 3294 1666  Q 3294 1616 3291 1516  L 816 1516  Q 847 969 1125 678  Q 1403 388 1819 388  Q 2128 388 2347 550  Q 2566 713 2694 1069  z M 847 1978  L 2700 1978  Q 2663 2397 2488 2606  Q 2219 2931 1791 2931  Q 1403 2931 1139 2672  Q 875 2413 847 1978  z " transform="scale(0.015625)" />
      <path id="ArialMT-67" d="M 319 -275  L 866 -356  Q 900 -609 1056 -725  Q 1266 -881 1628 -881  Q 2019 -881 2231 -725  Q 2444 -569 2519 -288  Q 2563 -116 2559 434  Q 2191 0 1641 0  Q 956 0 581 494  Q 206 988 206 1678  Q 206 2153 378 2554  Q 550 2956 876 3175  Q 1203 3394 1644 3394  Q 2231 3394 2613 2919  L 2613 3319  L 3131 3319  L 3131 450  Q 3131 -325 2973 -648  Q 2816 -972 2473 -1159  Q 2131 -1347 1631 -1347  Q 1038 -1347 672 -1080  Q 306 -813 319 -275  z M 784 1719  Q 784 1066 1043 766  Q 1303 466 1694 466  Q 2081 466 2343 764  Q 2606 1063 2606 1700  Q 2606 2309 2336 2618  Q 2066 2928 1684 2928  Q 1309 2928 1046 2623  Q 784 2319 784 1719  z " transform="scale(0.015625)" />
     </defs>
     <use xlink:href="#ArialMT-6e" />
     <use xlink:href="#ArialMT-65" x="55.615234" />
     <use xlink:href="#ArialMT-67" x="111.230469" />
    </g>
   </g>
  </g>
 </g>
</svg></g>

<g id="edge19" class="edge">
<title>node16-&gt;leaf17</title>
<path fill="none" stroke="#444443" stroke-width="0.3" d="M540.2,-134.95C536.91,-120.92 528.13,-83.55 522.81,-60.85" />
<polygon fill="#444443" stroke="#444443" stroke-width="0.3" points="524.13,-60.36 521.85,-56.79 521.4,-61 524.13,-60.36" />
</g>

<g id="node22" class="node">
<title>leaf18</title>
<polygon fill="none" stroke="#444443" stroke-width="0" points="561,-56.5 542,-56.5 542,-26.5 561,-26.5 561,-56.5" />
<svg width="11px" height="22px" viewBox="0 0 15.26625 29.685009" version="1.1" preserveAspectRatio="xMinYMin meet" x="546.5" y="-52.5">
 <metadata>
  <rdf:RDF>
   <ns2:Work>
    <dc:type rdf:resource="http://purl.org/dc/dcmitype/StillImage" />
    <dc:date>2023-05-17T22:09:43.714290</dc:date>
    <dc:format>image/svg+xml</dc:format>
    <dc:creator>
     <ns2:Agent>
      <dc:title>Matplotlib v3.5.2, https://matplotlib.org/</dc:title>
     </ns2:Agent>
    </dc:creator>
   </ns2:Work>
  </rdf:RDF>
 </metadata>
 <defs>
  <style type="text/css">*{stroke-linejoin: round; stroke-linecap: butt}</style>
 </defs>
 <g id="figure_1">
  <g id="patch_1">
   <path d="M 0 29.685009  L 15.26625 29.685009  L 15.26625 0  L 0 0  L 0 29.685009  z " style="fill: none" />
  </g>
  <g id="axes_1">
   <g id="patch_2">
    <path d="M 13.371125 5.738  C 13.371125 4.984493 13.222701 4.238312 12.934346 3.542162  C 12.645991 2.846013 12.223314 2.213431 11.690504 1.680621  C 11.157694 1.147811 10.525112 0.725134 9.828963 0.436779  C 9.132813 0.148424 8.386632 -0 7.633125 -0  C 6.879618 -0 6.133437 0.148424 5.437287 0.436779  C 4.741138 0.725134 4.108556 1.147811 3.575746 1.680621  C 3.042936 2.213431 2.620259 2.846013 2.331904 3.542162  C 2.043549 4.238312 1.895125 4.984493 1.895125 5.738  C 1.895125 6.491507 2.043549 7.237688 2.331904 7.933838  C 2.620259 8.629987 3.042936 9.262569 3.575746 9.795379  C 4.108556 10.328189 4.741138 10.750866 5.437287 11.039221  C 6.133437 11.327576 6.879618 11.476 7.633125 11.476  C 8.386632 11.476 9.132813 11.327576 9.828963 11.039221  C 10.525112 10.750866 11.157694 10.328189 11.690504 9.795379  C 12.223314 9.262569 12.645991 8.629987 12.934346 7.933838  C 13.222701 7.237688 13.371125 6.491507 13.371125 5.738  M 7.633125 5.738  M 13.371125 5.738  z " style="fill: #a1dab4; stroke: #444443; stroke-width: 0.5; stroke-linejoin: miter" />
   </g>
   <g id="text_1">
    
    <g style="fill: #444443" transform="translate(0 18.377071)scale(0.09 -0.09)">
     <defs>
      <path id="ArialMT-6e" d="M 422 0  L 422 3319  L 928 3319  L 928 2847  Q 1294 3394 1984 3394  Q 2284 3394 2536 3286  Q 2788 3178 2913 3003  Q 3038 2828 3088 2588  Q 3119 2431 3119 2041  L 3119 0  L 2556 0  L 2556 2019  Q 2556 2363 2490 2533  Q 2425 2703 2258 2804  Q 2091 2906 1866 2906  Q 1506 2906 1245 2678  Q 984 2450 984 1813  L 984 0  L 422 0  z " transform="scale(0.015625)" />
      <path id="ArialMT-3d" d="M 3381 2694  L 356 2694  L 356 3219  L 3381 3219  L 3381 2694  z M 3381 1303  L 356 1303  L 356 1828  L 3381 1828  L 3381 1303  z " transform="scale(0.015625)" />
      <path id="ArialMT-32" d="M 3222 541  L 3222 0  L 194 0  Q 188 203 259 391  Q 375 700 629 1000  Q 884 1300 1366 1694  Q 2113 2306 2375 2664  Q 2638 3022 2638 3341  Q 2638 3675 2398 3904  Q 2159 4134 1775 4134  Q 1369 4134 1125 3890  Q 881 3647 878 3216  L 300 3275  Q 359 3922 746 4261  Q 1134 4600 1788 4600  Q 2447 4600 2831 4234  Q 3216 3869 3216 3328  Q 3216 3053 3103 2787  Q 2991 2522 2730 2228  Q 2469 1934 1863 1422  Q 1356 997 1212 845  Q 1069 694 975 541  L 3222 541  z " transform="scale(0.015625)" />
     </defs>
     <use xlink:href="#ArialMT-6e" />
     <use xlink:href="#ArialMT-3d" x="55.615234" />
     <use xlink:href="#ArialMT-32" x="114.013672" />
    </g>
    
    <g style="fill: #444443" transform="translate(0.378281 27.896259)scale(0.09 -0.09)">
     <defs>
      <path id="ArialMT-70" d="M 422 -1272  L 422 3319  L 934 3319  L 934 2888  Q 1116 3141 1344 3267  Q 1572 3394 1897 3394  Q 2322 3394 2647 3175  Q 2972 2956 3137 2557  Q 3303 2159 3303 1684  Q 3303 1175 3120 767  Q 2938 359 2589 142  Q 2241 -75 1856 -75  Q 1575 -75 1351 44  Q 1128 163 984 344  L 984 -1272  L 422 -1272  z M 931 1641  Q 931 1000 1190 694  Q 1450 388 1819 388  Q 2194 388 2461 705  Q 2728 1022 2728 1688  Q 2728 2322 2467 2637  Q 2206 2953 1844 2953  Q 1484 2953 1207 2617  Q 931 2281 931 1641  z " transform="scale(0.015625)" />
      <path id="ArialMT-6f" d="M 213 1659  Q 213 2581 725 3025  Q 1153 3394 1769 3394  Q 2453 3394 2887 2945  Q 3322 2497 3322 1706  Q 3322 1066 3130 698  Q 2938 331 2570 128  Q 2203 -75 1769 -75  Q 1072 -75 642 372  Q 213 819 213 1659  z M 791 1659  Q 791 1022 1069 705  Q 1347 388 1769 388  Q 2188 388 2466 706  Q 2744 1025 2744 1678  Q 2744 2294 2464 2611  Q 2184 2928 1769 2928  Q 1347 2928 1069 2612  Q 791 2297 791 1659  z " transform="scale(0.015625)" />
      <path id="ArialMT-7a" d="M 125 0  L 125 456  L 2238 2881  Q 1878 2863 1603 2863  L 250 2863  L 250 3319  L 2963 3319  L 2963 2947  L 1166 841  L 819 456  Q 1197 484 1528 484  L 3063 484  L 3063 0  L 125 0  z " transform="scale(0.015625)" />
     </defs>
     <use xlink:href="#ArialMT-70" />
     <use xlink:href="#ArialMT-6f" x="55.615234" />
     <use xlink:href="#ArialMT-7a" x="111.230469" />
    </g>
   </g>
  </g>
 </g>
</svg></g>

<g id="edge20" class="edge">
<title>node16-&gt;leaf18</title>
<path fill="none" stroke="#444443" stroke-width="0.3" d="M542.07,-134.95C543.5,-120.92 547.31,-83.55 549.63,-60.85" />
<polygon fill="#444443" stroke="#444443" stroke-width="0.3" points="551.03,-60.91 550.04,-56.79 548.24,-60.63 551.03,-60.91" />
</g>

<g id="node23" class="node">
<title>leaf19</title>
<polygon fill="none" stroke="#444443" stroke-width="0" points="635.5,-158.5 615.5,-158.5 615.5,-124.5 635.5,-124.5 635.5,-158.5" />
<svg width="12px" height="26px" viewBox="0 0 16.308 34.710289" version="1.1" preserveAspectRatio="xMinYMin meet" x="619.5" y="-154.5">
 <metadata>
  <rdf:RDF>
   <ns2:Work>
    <dc:type rdf:resource="http://purl.org/dc/dcmitype/StillImage" />
    <dc:date>2023-05-17T22:09:43.757595</dc:date>
    <dc:format>image/svg+xml</dc:format>
    <dc:creator>
     <ns2:Agent>
      <dc:title>Matplotlib v3.5.2, https://matplotlib.org/</dc:title>
     </ns2:Agent>
    </dc:creator>
   </ns2:Work>
  </rdf:RDF>
 </metadata>
 <defs>
  <style type="text/css">*{stroke-linejoin: round; stroke-linecap: butt}</style>
 </defs>
 <g id="figure_1">
  <g id="patch_1">
   <path d="M -0 34.710289  L 16.308 34.710289  L 16.308 0  L -0 0  L -0 34.710289  z " style="fill: none" />
  </g>
  <g id="axes_1">
   <g id="patch_2">
    <path d="M 16.308 8.154  C 16.308 7.083227 16.097081 6.022865 15.687314 5.033599  C 15.277546 4.044334 14.6769 3.145402 13.919749 2.388251  C 13.162598 1.6311 12.263666 1.030454 11.274401 0.620686  C 10.285135 0.210919 9.224773 0 8.154 0  C 7.083227 0 6.022865 0.210919 5.033599 0.620686  C 4.044334 1.030454 3.145402 1.6311 2.388251 2.388251  C 1.6311 3.145402 1.030454 4.044334 0.620686 5.033599  C 0.210919 6.022865 0 7.083227 0 8.154  C 0 9.224773 0.210919 10.285135 0.620686 11.274401  C 1.030454 12.263666 1.6311 13.162598 2.388251 13.919749  C 3.145402 14.6769 4.044334 15.277546 5.033599 15.687314  C 6.022865 16.097081 7.083227 16.308 8.154 16.308  C 9.224773 16.308 10.285135 16.097081 11.274401 15.687314  C 12.263666 15.277546 13.162598 14.6769 13.919749 13.919749  C 14.6769 13.162598 15.277546 12.263666 15.687314 11.274401  C 16.097081 10.285135 16.308 9.224773 16.308 8.154  M 8.154 8.154  M 16.308 8.154  z " style="fill: #a1dab4; stroke: #444443; stroke-width: 0.5; stroke-linejoin: miter" />
   </g>
   <g id="text_1">
    
    <g style="fill: #444443" transform="translate(0.520875 23.402351)scale(0.09 -0.09)">
     <defs>
      <path id="ArialMT-6e" d="M 422 0  L 422 3319  L 928 3319  L 928 2847  Q 1294 3394 1984 3394  Q 2284 3394 2536 3286  Q 2788 3178 2913 3003  Q 3038 2828 3088 2588  Q 3119 2431 3119 2041  L 3119 0  L 2556 0  L 2556 2019  Q 2556 2363 2490 2533  Q 2425 2703 2258 2804  Q 2091 2906 1866 2906  Q 1506 2906 1245 2678  Q 984 2450 984 1813  L 984 0  L 422 0  z " transform="scale(0.015625)" />
      <path id="ArialMT-3d" d="M 3381 2694  L 356 2694  L 356 3219  L 3381 3219  L 3381 2694  z M 3381 1303  L 356 1303  L 356 1828  L 3381 1828  L 3381 1303  z " transform="scale(0.015625)" />
      <path id="ArialMT-36" d="M 3184 3459  L 2625 3416  Q 2550 3747 2413 3897  Q 2184 4138 1850 4138  Q 1581 4138 1378 3988  Q 1113 3794 959 3422  Q 806 3050 800 2363  Q 1003 2672 1297 2822  Q 1591 2972 1913 2972  Q 2475 2972 2870 2558  Q 3266 2144 3266 1488  Q 3266 1056 3080 686  Q 2894 316 2569 119  Q 2244 -78 1831 -78  Q 1128 -78 684 439  Q 241 956 241 2144  Q 241 3472 731 4075  Q 1159 4600 1884 4600  Q 2425 4600 2770 4297  Q 3116 3994 3184 3459  z M 888 1484  Q 888 1194 1011 928  Q 1134 663 1356 523  Q 1578 384 1822 384  Q 2178 384 2434 671  Q 2691 959 2691 1453  Q 2691 1928 2437 2201  Q 2184 2475 1800 2475  Q 1419 2475 1153 2201  Q 888 1928 888 1484  z " transform="scale(0.015625)" />
     </defs>
     <use xlink:href="#ArialMT-6e" />
     <use xlink:href="#ArialMT-3d" x="55.615234" />
     <use xlink:href="#ArialMT-36" x="114.013672" />
    </g>
    
    <g style="fill: #444443" transform="translate(0.899156 32.921539)scale(0.09 -0.09)">
     <defs>
      <path id="ArialMT-70" d="M 422 -1272  L 422 3319  L 934 3319  L 934 2888  Q 1116 3141 1344 3267  Q 1572 3394 1897 3394  Q 2322 3394 2647 3175  Q 2972 2956 3137 2557  Q 3303 2159 3303 1684  Q 3303 1175 3120 767  Q 2938 359 2589 142  Q 2241 -75 1856 -75  Q 1575 -75 1351 44  Q 1128 163 984 344  L 984 -1272  L 422 -1272  z M 931 1641  Q 931 1000 1190 694  Q 1450 388 1819 388  Q 2194 388 2461 705  Q 2728 1022 2728 1688  Q 2728 2322 2467 2637  Q 2206 2953 1844 2953  Q 1484 2953 1207 2617  Q 931 2281 931 1641  z " transform="scale(0.015625)" />
      <path id="ArialMT-6f" d="M 213 1659  Q 213 2581 725 3025  Q 1153 3394 1769 3394  Q 2453 3394 2887 2945  Q 3322 2497 3322 1706  Q 3322 1066 3130 698  Q 2938 331 2570 128  Q 2203 -75 1769 -75  Q 1072 -75 642 372  Q 213 819 213 1659  z M 791 1659  Q 791 1022 1069 705  Q 1347 388 1769 388  Q 2188 388 2466 706  Q 2744 1025 2744 1678  Q 2744 2294 2464 2611  Q 2184 2928 1769 2928  Q 1347 2928 1069 2612  Q 791 2297 791 1659  z " transform="scale(0.015625)" />
      <path id="ArialMT-7a" d="M 125 0  L 125 456  L 2238 2881  Q 1878 2863 1603 2863  L 250 2863  L 250 3319  L 2963 3319  L 2963 2947  L 1166 841  L 819 456  Q 1197 484 1528 484  L 3063 484  L 3063 0  L 125 0  z " transform="scale(0.015625)" />
     </defs>
     <use xlink:href="#ArialMT-70" />
     <use xlink:href="#ArialMT-6f" x="55.615234" />
     <use xlink:href="#ArialMT-7a" x="111.230469" />
    </g>
   </g>
  </g>
 </g>
</svg></g>


<g id="node8" class="node">
<title>node15</title>
<text text-anchor="start" x="507" y="-203.4" font-family="Helvetica,sans-Serif" font-size="12.00" fill="#444443">air temp@15.27</text>
</g>

<g id="edge22" class="edge">
<title>node15-&gt;node16</title>
<path fill="none" stroke="#444443" stroke-width="0.3" d="M548.76,-199.69C547.39,-188.85 544.42,-165.46 542.73,-152.2" />
<polygon fill="#444443" stroke="#444443" stroke-width="0.3" points="544.11,-151.91 542.21,-148.12 541.33,-152.26 544.11,-151.91" />
</g>

<g id="node11" class="node">
<title>node20</title>
<text text-anchor="start" x="615.5" y="-203.4" font-family="Helvetica,sans-Serif" font-size="12.00" fill="#444443">Dinophysis fortii@30.25</text>
</g>


<g id="edge23" class="edge">
<title>node15-&gt;leaf19</title>
<path fill="none" stroke="#444443" stroke-width="0.3" d="M556.24,-199.91C568.78,-189.52 595.87,-167.07 612.2,-153.52" />
<polygon fill="#444443" stroke="#444443" stroke-width="0.3" points="613.13,-154.57 615.32,-150.94 611.35,-152.41 613.13,-154.57" />
</g>

<g id="node9" class="node">
<title>node21</title>
<text text-anchor="start" x="642.5" y="-138.4" font-family="Helvetica,sans-Serif" font-size="12.00" fill="#444443">salinity@37.03</text>
</g>

<g id="node10" class="node">
<title>node24</title>
<text text-anchor="start" x="736" y="-138.4" font-family="Helvetica,sans-Serif" font-size="12.00" fill="#444443">sun [h]@208.10</text>
</g>


<g id="node24" class="node">
<title>leaf22</title>
<polygon fill="none" stroke="#444443" stroke-width="0" points="641,-83 574,-83 574,0 641,0 641,-83" />
<svg width="59px" height="75px" viewBox="0 0 78.519941 99.516209" version="1.1" preserveAspectRatio="xMinYMin meet" x="578.5" y="-78.5">
 <metadata>
  <rdf:RDF>
   <ns2:Work>
    <dc:type rdf:resource="http://purl.org/dc/dcmitype/StillImage" />
    <dc:date>2023-05-17T22:09:43.798708</dc:date>
    <dc:format>image/svg+xml</dc:format>
    <dc:creator>
     <ns2:Agent>
      <dc:title>Matplotlib v3.5.2, https://matplotlib.org/</dc:title>
     </ns2:Agent>
    </dc:creator>
   </ns2:Work>
  </rdf:RDF>
 </metadata>
 <defs>
  <style type="text/css">*{stroke-linejoin: round; stroke-linecap: butt}</style>
 </defs>
 <g id="figure_1">
  <g id="patch_1">
   <path d="M 0 99.516209  L 78.519941 99.516209  L 78.519941 0  L 0 0  L 0 99.516209  z " style="fill: none" />
  </g>
  <g id="axes_1">
   <g id="patch_2">
    <path d="M 78.519941 39.259971  C 78.519941 32.940189 76.993974 26.712859 74.072173 21.109045  C 71.150372 15.505231 66.918224 10.688891 61.736644 7.070758  C 56.555064 3.452626 50.575656 1.138562 44.308341 0.325908  C 38.041025 -0.486745 31.669172 0.225788 25.73617 2.402744  C 19.803168 4.5797 14.482605 8.157385 10.228217 12.830696  C 5.973829 17.504007 2.910091 23.136211 1.298277 29.246997  C -0.313537 35.357783 -0.426268 41.76836 0.969697 47.932039  C 2.365662 54.095718 5.22948 59.832159 9.316925 64.652163  L 39.259941 39.259971  L 78.519941 39.259971  z " style="fill: #fefebb; stroke: #444443; stroke-width: 0.5; stroke-linejoin: miter" />
   </g>
   <g id="patch_3">
    <path d="M 9.316925 64.652163  C 14.515902 70.782907 21.474429 75.171509 29.246969 77.221636  C 37.019508 79.271763 45.237308 78.886151 52.783716 76.117197  C 60.330125 73.348244 66.84712 68.327317 71.449158 61.736669  C 76.051196 55.146022 78.519943 47.298334 78.519941 39.259964  L 39.259941 39.259971  L 9.316925 64.652163  z " style="fill: #a1dab4; stroke: #444443; stroke-width: 0.5; stroke-linejoin: miter" />
   </g>
   <g id="text_1">
    
    <g style="fill: #444443" transform="translate(29.124395 88.102803)scale(0.09 -0.09)">
     <defs>
      <path id="ArialMT-6e" d="M 422 0  L 422 3319  L 928 3319  L 928 2847  Q 1294 3394 1984 3394  Q 2284 3394 2536 3286  Q 2788 3178 2913 3003  Q 3038 2828 3088 2588  Q 3119 2431 3119 2041  L 3119 0  L 2556 0  L 2556 2019  Q 2556 2363 2490 2533  Q 2425 2703 2258 2804  Q 2091 2906 1866 2906  Q 1506 2906 1245 2678  Q 984 2450 984 1813  L 984 0  L 422 0  z " transform="scale(0.015625)" />
      <path id="ArialMT-3d" d="M 3381 2694  L 356 2694  L 356 3219  L 3381 3219  L 3381 2694  z M 3381 1303  L 356 1303  L 356 1828  L 3381 1828  L 3381 1303  z " transform="scale(0.015625)" />
      <path id="ArialMT-36" d="M 3184 3459  L 2625 3416  Q 2550 3747 2413 3897  Q 2184 4138 1850 4138  Q 1581 4138 1378 3988  Q 1113 3794 959 3422  Q 806 3050 800 2363  Q 1003 2672 1297 2822  Q 1591 2972 1913 2972  Q 2475 2972 2870 2558  Q 3266 2144 3266 1488  Q 3266 1056 3080 686  Q 2894 316 2569 119  Q 2244 -78 1831 -78  Q 1128 -78 684 439  Q 241 956 241 2144  Q 241 3472 731 4075  Q 1159 4600 1884 4600  Q 2425 4600 2770 4297  Q 3116 3994 3184 3459  z M 888 1484  Q 888 1194 1011 928  Q 1134 663 1356 523  Q 1578 384 1822 384  Q 2178 384 2434 671  Q 2691 959 2691 1453  Q 2691 1928 2437 2201  Q 2184 2475 1800 2475  Q 1419 2475 1153 2201  Q 888 1928 888 1484  z " transform="scale(0.015625)" />
     </defs>
     <use xlink:href="#ArialMT-6e" />
     <use xlink:href="#ArialMT-3d" x="55.615234" />
     <use xlink:href="#ArialMT-36" x="114.013672" />
     <use xlink:href="#ArialMT-36" x="169.628906" />
    </g>
    
    <g style="fill: #444443" transform="translate(31.752676 97.62199)scale(0.09 -0.09)">
     <defs>
      <path id="ArialMT-65" d="M 2694 1069  L 3275 997  Q 3138 488 2766 206  Q 2394 -75 1816 -75  Q 1088 -75 661 373  Q 234 822 234 1631  Q 234 2469 665 2931  Q 1097 3394 1784 3394  Q 2450 3394 2872 2941  Q 3294 2488 3294 1666  Q 3294 1616 3291 1516  L 816 1516  Q 847 969 1125 678  Q 1403 388 1819 388  Q 2128 388 2347 550  Q 2566 713 2694 1069  z M 847 1978  L 2700 1978  Q 2663 2397 2488 2606  Q 2219 2931 1791 2931  Q 1403 2931 1139 2672  Q 875 2413 847 1978  z " transform="scale(0.015625)" />
      <path id="ArialMT-67" d="M 319 -275  L 866 -356  Q 900 -609 1056 -725  Q 1266 -881 1628 -881  Q 2019 -881 2231 -725  Q 2444 -569 2519 -288  Q 2563 -116 2559 434  Q 2191 0 1641 0  Q 956 0 581 494  Q 206 988 206 1678  Q 206 2153 378 2554  Q 550 2956 876 3175  Q 1203 3394 1644 3394  Q 2231 3394 2613 2919  L 2613 3319  L 3131 3319  L 3131 450  Q 3131 -325 2973 -648  Q 2816 -972 2473 -1159  Q 2131 -1347 1631 -1347  Q 1038 -1347 672 -1080  Q 306 -813 319 -275  z M 784 1719  Q 784 1066 1043 766  Q 1303 466 1694 466  Q 2081 466 2343 764  Q 2606 1063 2606 1700  Q 2606 2309 2336 2618  Q 2066 2928 1684 2928  Q 1309 2928 1046 2623  Q 784 2319 784 1719  z " transform="scale(0.015625)" />
     </defs>
     <use xlink:href="#ArialMT-6e" />
     <use xlink:href="#ArialMT-65" x="55.615234" />
     <use xlink:href="#ArialMT-67" x="111.230469" />
    </g>
   </g>
  </g>
 </g>
</svg></g>

<g id="edge25" class="edge">
<title>node21-&gt;leaf22</title>
<path fill="none" stroke="#444443" stroke-width="0.3" d="M678.25,-134.95C671.05,-125.53 655.79,-105.6 641.28,-86.64" />
<polygon fill="#444443" stroke="#444443" stroke-width="0.3" points="642.32,-85.69 638.78,-83.37 640.09,-87.39 642.32,-85.69" />
</g>

<g id="node25" class="node">
<title>leaf23</title>
<polygon fill="none" stroke="#444443" stroke-width="0" points="722,-83 655,-83 655,0 722,0 722,-83" />
<svg width="59px" height="75px" viewBox="0 0 78.51999 99.516235" version="1.1" preserveAspectRatio="xMinYMin meet" x="659.5" y="-78.5">
 <metadata>
  <rdf:RDF>
   <ns2:Work>
    <dc:type rdf:resource="http://purl.org/dc/dcmitype/StillImage" />
    <dc:date>2023-05-17T22:09:43.848111</dc:date>
    <dc:format>image/svg+xml</dc:format>
    <dc:creator>
     <ns2:Agent>
      <dc:title>Matplotlib v3.5.2, https://matplotlib.org/</dc:title>
     </ns2:Agent>
    </dc:creator>
   </ns2:Work>
  </rdf:RDF>
 </metadata>
 <defs>
  <style type="text/css">*{stroke-linejoin: round; stroke-linecap: butt}</style>
 </defs>
 <g id="figure_1">
  <g id="patch_1">
   <path d="M 0 99.516235  L 78.51999 99.516235  L 78.51999 0  L 0 0  L 0 99.516235  z " style="fill: none" />
  </g>
  <g id="axes_1">
   <g id="patch_2">
    <path d="M 78.51999 39.259997  C 78.51999 34.325116 77.589536 29.43419 75.777487 24.844034  C 73.965437 20.253878 71.304071 16.046262 67.933132 12.442121  C 64.562194 8.83798 60.541734 5.90152 56.08286 3.786928  C 51.623986 1.672336 46.80613 0.417283 41.882268 0.08767  C 36.958406 -0.241944 32.016255 0.359753 27.315318 1.861168  C 22.614381 3.362583 18.238402 5.736968 14.417156 8.859649  C 10.595909 11.982329 7.397469 15.797677 4.98978 20.105355  C 2.58209 24.413033 1.008043 29.136302 0.350287 34.027152  C -0.307468 38.918002 -0.037213 43.889306 1.14686 48.680029  C 2.330934 53.470752 4.407734 57.99555 7.26821 62.016835  C 10.128687 66.03812 13.721882 69.484255 17.859125 72.174289  C 21.996367 74.864323 26.603953 76.750335 31.439949 77.733294  C 36.275944 78.716253 41.254197 78.778649 46.113309 77.917204  C 50.972421 77.055759 55.62583 75.28582 59.829194 72.700324  C 64.032557 70.114827 67.710995 66.759833 70.671359 62.811504  C 73.631724 58.863175 75.821277 54.391849 77.12505 49.632308  L 39.25999 39.259997  L 78.51999 39.259997  z " style="fill: #fefebb; stroke: #444443; stroke-width: 0.5; stroke-linejoin: miter" />
   </g>
   <g id="patch_3">
    <path d="M 77.12505 49.632308  C 77.587428 47.944352 77.936421 46.227366 78.169692 44.492842  C 78.402963 42.758318 78.51999 41.010136 78.51999 39.259996  L 39.25999 39.259997  L 77.12505 49.632308  z " style="fill: #a1dab4; stroke: #444443; stroke-width: 0.5; stroke-linejoin: miter" />
   </g>
   <g id="text_1">
    
    <g style="fill: #444443" transform="translate(29.124443 88.102829)scale(0.09 -0.09)">
     <defs>
      <path id="ArialMT-6e" d="M 422 0  L 422 3319  L 928 3319  L 928 2847  Q 1294 3394 1984 3394  Q 2284 3394 2536 3286  Q 2788 3178 2913 3003  Q 3038 2828 3088 2588  Q 3119 2431 3119 2041  L 3119 0  L 2556 0  L 2556 2019  Q 2556 2363 2490 2533  Q 2425 2703 2258 2804  Q 2091 2906 1866 2906  Q 1506 2906 1245 2678  Q 984 2450 984 1813  L 984 0  L 422 0  z " transform="scale(0.015625)" />
      <path id="ArialMT-3d" d="M 3381 2694  L 356 2694  L 356 3219  L 3381 3219  L 3381 2694  z M 3381 1303  L 356 1303  L 356 1828  L 3381 1828  L 3381 1303  z " transform="scale(0.015625)" />
      <path id="ArialMT-35" d="M 266 1200  L 856 1250  Q 922 819 1161 601  Q 1400 384 1738 384  Q 2144 384 2425 690  Q 2706 997 2706 1503  Q 2706 1984 2436 2262  Q 2166 2541 1728 2541  Q 1456 2541 1237 2417  Q 1019 2294 894 2097  L 366 2166  L 809 4519  L 3088 4519  L 3088 3981  L 1259 3981  L 1013 2750  Q 1425 3038 1878 3038  Q 2478 3038 2890 2622  Q 3303 2206 3303 1553  Q 3303 931 2941 478  Q 2500 -78 1738 -78  Q 1113 -78 717 272  Q 322 622 266 1200  z " transform="scale(0.015625)" />
      <path id="ArialMT-38" d="M 1131 2484  Q 781 2613 612 2850  Q 444 3088 444 3419  Q 444 3919 803 4259  Q 1163 4600 1759 4600  Q 2359 4600 2725 4251  Q 3091 3903 3091 3403  Q 3091 3084 2923 2848  Q 2756 2613 2416 2484  Q 2838 2347 3058 2040  Q 3278 1734 3278 1309  Q 3278 722 2862 322  Q 2447 -78 1769 -78  Q 1091 -78 675 323  Q 259 725 259 1325  Q 259 1772 486 2073  Q 713 2375 1131 2484  z M 1019 3438  Q 1019 3113 1228 2906  Q 1438 2700 1772 2700  Q 2097 2700 2305 2904  Q 2513 3109 2513 3406  Q 2513 3716 2298 3927  Q 2084 4138 1766 4138  Q 1444 4138 1231 3931  Q 1019 3725 1019 3438  z M 838 1322  Q 838 1081 952 856  Q 1066 631 1291 507  Q 1516 384 1775 384  Q 2178 384 2440 643  Q 2703 903 2703 1303  Q 2703 1709 2433 1975  Q 2163 2241 1756 2241  Q 1359 2241 1098 1978  Q 838 1716 838 1322  z " transform="scale(0.015625)" />
     </defs>
     <use xlink:href="#ArialMT-6e" />
     <use xlink:href="#ArialMT-3d" x="55.615234" />
     <use xlink:href="#ArialMT-35" x="114.013672" />
     <use xlink:href="#ArialMT-38" x="169.628906" />
    </g>
    
    <g style="fill: #444443" transform="translate(31.752724 97.622016)scale(0.09 -0.09)">
     <defs>
      <path id="ArialMT-65" d="M 2694 1069  L 3275 997  Q 3138 488 2766 206  Q 2394 -75 1816 -75  Q 1088 -75 661 373  Q 234 822 234 1631  Q 234 2469 665 2931  Q 1097 3394 1784 3394  Q 2450 3394 2872 2941  Q 3294 2488 3294 1666  Q 3294 1616 3291 1516  L 816 1516  Q 847 969 1125 678  Q 1403 388 1819 388  Q 2128 388 2347 550  Q 2566 713 2694 1069  z M 847 1978  L 2700 1978  Q 2663 2397 2488 2606  Q 2219 2931 1791 2931  Q 1403 2931 1139 2672  Q 875 2413 847 1978  z " transform="scale(0.015625)" />
      <path id="ArialMT-67" d="M 319 -275  L 866 -356  Q 900 -609 1056 -725  Q 1266 -881 1628 -881  Q 2019 -881 2231 -725  Q 2444 -569 2519 -288  Q 2563 -116 2559 434  Q 2191 0 1641 0  Q 956 0 581 494  Q 206 988 206 1678  Q 206 2153 378 2554  Q 550 2956 876 3175  Q 1203 3394 1644 3394  Q 2231 3394 2613 2919  L 2613 3319  L 3131 3319  L 3131 450  Q 3131 -325 2973 -648  Q 2816 -972 2473 -1159  Q 2131 -1347 1631 -1347  Q 1038 -1347 672 -1080  Q 306 -813 319 -275  z M 784 1719  Q 784 1066 1043 766  Q 1303 466 1694 466  Q 2081 466 2343 764  Q 2606 1063 2606 1700  Q 2606 2309 2336 2618  Q 2066 2928 1684 2928  Q 1309 2928 1046 2623  Q 784 2319 784 1719  z " transform="scale(0.015625)" />
     </defs>
     <use xlink:href="#ArialMT-6e" />
     <use xlink:href="#ArialMT-65" x="55.615234" />
     <use xlink:href="#ArialMT-67" x="111.230469" />
    </g>
   </g>
  </g>
 </g>
</svg></g>

<g id="edge26" class="edge">
<title>node21-&gt;leaf23</title>
<path fill="none" stroke="#444443" stroke-width="0.3" d="M682.84,-134.95C683.41,-125.69 684.6,-106.26 685.74,-87.59" />
<polygon fill="#444443" stroke="#444443" stroke-width="0.3" points="687.15,-87.44 686,-83.37 684.36,-87.27 687.15,-87.44" />
</g>

<g id="node26" class="node">
<title>leaf25</title>
<polygon fill="none" stroke="#444443" stroke-width="0" points="798.5,-81.5 734.5,-81.5 734.5,-1.5 798.5,-1.5 798.5,-81.5" />
<svg width="56px" height="72px" viewBox="0 0 75.499994 96.269965" version="1.1" preserveAspectRatio="xMinYMin meet" x="738.5" y="-77.5">
 <metadata>
  <rdf:RDF>
   <ns2:Work>
    <dc:type rdf:resource="http://purl.org/dc/dcmitype/StillImage" />
    <dc:date>2023-05-17T22:09:43.895971</dc:date>
    <dc:format>image/svg+xml</dc:format>
    <dc:creator>
     <ns2:Agent>
      <dc:title>Matplotlib v3.5.2, https://matplotlib.org/</dc:title>
     </ns2:Agent>
    </dc:creator>
   </ns2:Work>
  </rdf:RDF>
 </metadata>
 <defs>
  <style type="text/css">*{stroke-linejoin: round; stroke-linecap: butt}</style>
 </defs>
 <g id="figure_1">
  <g id="patch_1">
   <path d="M 0 96.269965  L 75.499994 96.269965  L 75.499994 0  L 0 0  L 0 96.269965  z " style="fill: none" />
  </g>
  <g id="axes_1">
   <g id="patch_2">
    <path d="M 75.499994 37.749996  C 75.499994 31.32692 73.860687 25.00887 70.737808 19.396069  C 67.61493 13.783269 63.110607 9.059271 57.652756 5.672861  L 37.749994 37.749996  L 75.499994 37.749996  z " style="fill: #fefebb; stroke: #444443; stroke-width: 0.5; stroke-linejoin: miter" />
   </g>
   <g id="patch_3">
    <path d="M 57.652756 5.672861  C 54.124546 3.483728 50.259209 1.891627 46.212713 0.960801  C 42.166217 0.029974 37.993731 -0.226887 33.863618 0.200581  C 29.733504 0.628049 25.702072 1.734019 21.931991 3.473863  C 18.161911 5.213708 14.704582 7.563707 11.699511 10.429037  C 8.69444 13.294367 6.182596 16.635962 4.265335 20.318987  C 2.348073 24.002012 1.051533 27.976255 0.428031 32.08135  C -0.195472 36.186446 -0.137436 40.366428 0.599797 44.452631  C 1.337029 48.538834 2.743406 52.475548 4.762181 56.103925  C 6.780956 59.732301 9.384604 63.002872 12.468067 65.783667  C 15.551531 68.564462 19.07277 70.817569 22.889701 72.452074  C 26.706631 74.086578 30.767215 75.080197 34.907604 75.392835  C 39.047994 75.705474 43.21174 75.33287 47.230833 74.290059  C 51.249927 73.247248 55.069572 71.548447 58.535645 69.262204  C 62.001717 66.975961 65.066961 64.133445 67.607693 60.849354  C 70.148424 57.565264 72.130003 53.884372 73.472471 49.955206  C 74.814939 46.02604 75.499995 41.902169 75.499994 37.749993  L 37.749994 37.749996  L 57.652756 5.672861  z " style="fill: #a1dab4; stroke: #444443; stroke-width: 0.5; stroke-linejoin: miter" />
   </g>
   <g id="text_1">
    
    <g style="fill: #444443" transform="translate(27.614447 84.962028)scale(0.09 -0.09)">
     <defs>
      <path id="ArialMT-6e" d="M 422 0  L 422 3319  L 928 3319  L 928 2847  Q 1294 3394 1984 3394  Q 2284 3394 2536 3286  Q 2788 3178 2913 3003  Q 3038 2828 3088 2588  Q 3119 2431 3119 2041  L 3119 0  L 2556 0  L 2556 2019  Q 2556 2363 2490 2533  Q 2425 2703 2258 2804  Q 2091 2906 1866 2906  Q 1506 2906 1245 2678  Q 984 2450 984 1813  L 984 0  L 422 0  z " transform="scale(0.015625)" />
      <path id="ArialMT-3d" d="M 3381 2694  L 356 2694  L 356 3219  L 3381 3219  L 3381 2694  z M 3381 1303  L 356 1303  L 356 1828  L 3381 1828  L 3381 1303  z " transform="scale(0.015625)" />
      <path id="ArialMT-35" d="M 266 1200  L 856 1250  Q 922 819 1161 601  Q 1400 384 1738 384  Q 2144 384 2425 690  Q 2706 997 2706 1503  Q 2706 1984 2436 2262  Q 2166 2541 1728 2541  Q 1456 2541 1237 2417  Q 1019 2294 894 2097  L 366 2166  L 809 4519  L 3088 4519  L 3088 3981  L 1259 3981  L 1013 2750  Q 1425 3038 1878 3038  Q 2478 3038 2890 2622  Q 3303 2206 3303 1553  Q 3303 931 2941 478  Q 2500 -78 1738 -78  Q 1113 -78 717 272  Q 322 622 266 1200  z " transform="scale(0.015625)" />
     </defs>
     <use xlink:href="#ArialMT-6e" />
     <use xlink:href="#ArialMT-3d" x="55.615234" />
     <use xlink:href="#ArialMT-35" x="114.013672" />
     <use xlink:href="#ArialMT-35" x="169.628906" />
    </g>
    
    <g style="fill: #444443" transform="translate(30.49515 94.481215)scale(0.09 -0.09)">
     <defs>
      <path id="ArialMT-70" d="M 422 -1272  L 422 3319  L 934 3319  L 934 2888  Q 1116 3141 1344 3267  Q 1572 3394 1897 3394  Q 2322 3394 2647 3175  Q 2972 2956 3137 2557  Q 3303 2159 3303 1684  Q 3303 1175 3120 767  Q 2938 359 2589 142  Q 2241 -75 1856 -75  Q 1575 -75 1351 44  Q 1128 163 984 344  L 984 -1272  L 422 -1272  z M 931 1641  Q 931 1000 1190 694  Q 1450 388 1819 388  Q 2194 388 2461 705  Q 2728 1022 2728 1688  Q 2728 2322 2467 2637  Q 2206 2953 1844 2953  Q 1484 2953 1207 2617  Q 931 2281 931 1641  z " transform="scale(0.015625)" />
      <path id="ArialMT-6f" d="M 213 1659  Q 213 2581 725 3025  Q 1153 3394 1769 3394  Q 2453 3394 2887 2945  Q 3322 2497 3322 1706  Q 3322 1066 3130 698  Q 2938 331 2570 128  Q 2203 -75 1769 -75  Q 1072 -75 642 372  Q 213 819 213 1659  z M 791 1659  Q 791 1022 1069 705  Q 1347 388 1769 388  Q 2188 388 2466 706  Q 2744 1025 2744 1678  Q 2744 2294 2464 2611  Q 2184 2928 1769 2928  Q 1347 2928 1069 2612  Q 791 2297 791 1659  z " transform="scale(0.015625)" />
      <path id="ArialMT-7a" d="M 125 0  L 125 456  L 2238 2881  Q 1878 2863 1603 2863  L 250 2863  L 250 3319  L 2963 3319  L 2963 2947  L 1166 841  L 819 456  Q 1197 484 1528 484  L 3063 484  L 3063 0  L 125 0  z " transform="scale(0.015625)" />
     </defs>
     <use xlink:href="#ArialMT-70" />
     <use xlink:href="#ArialMT-6f" x="55.615234" />
     <use xlink:href="#ArialMT-7a" x="111.230469" />
    </g>
   </g>
  </g>
 </g>
</svg></g>

<g id="edge28" class="edge">
<title>node24-&gt;leaf25</title>
<path fill="none" stroke="#444443" stroke-width="0.3" d="M777.82,-134.95C776.66,-125.46 774.19,-105.3 771.85,-86.22" />
<polygon fill="#444443" stroke="#444443" stroke-width="0.3" points="773.2,-85.71 771.33,-81.91 770.42,-86.06 773.2,-85.71" />
</g>

<g id="node27" class="node">
<title>leaf26</title>
<polygon fill="none" stroke="#444443" stroke-width="0" points="838.5,-61 812.5,-61 812.5,-22 838.5,-22 838.5,-61" />
<svg width="18px" height="31px" viewBox="0 0 23.555998 42.353675" version="1.1" preserveAspectRatio="xMinYMin meet" x="816.5" y="-56.5">
 <metadata>
  <rdf:RDF>
   <ns2:Work>
    <dc:type rdf:resource="http://purl.org/dc/dcmitype/StillImage" />
    <dc:date>2023-05-17T22:09:43.943988</dc:date>
    <dc:format>image/svg+xml</dc:format>
    <dc:creator>
     <ns2:Agent>
      <dc:title>Matplotlib v3.5.2, https://matplotlib.org/</dc:title>
     </ns2:Agent>
    </dc:creator>
   </ns2:Work>
  </rdf:RDF>
 </metadata>
 <defs>
  <style type="text/css">*{stroke-linejoin: round; stroke-linecap: butt}</style>
 </defs>
 <g id="figure_1">
  <g id="patch_1">
   <path d="M 0 42.353675  L 23.555998 42.353675  L 23.555998 0  L 0 0  L 0 42.353675  z " style="fill: none" />
  </g>
  <g id="axes_1">
   <g id="patch_2">
    <path d="M 23.555998 11.777998  C 23.555998 10.360935 23.300259 8.955434 22.801098 7.629196  C 22.301938 6.302959 21.567502 5.077627 20.633168 4.012222  C 19.698833 2.946818 18.579847 2.058727 17.330109 1.390729  C 16.080371 0.72273 14.720275 0.285724 13.315336 0.10076  C 11.910396 -0.084204 10.483539 -0.014107 9.103494 0.307675  C 7.723449 0.629456 6.412736 1.197671 5.234492 1.984949  C 4.056247 2.772227 3.029697 3.765721 2.20429 4.917576  C 1.378882 6.069431 0.768087 7.36085 0.401324 8.729628  C 0.034561 10.098405 -0.082184 11.522205 0.056713 12.932444  C 0.195609 14.342683 0.587881 15.71635 1.214632 16.987275  C 1.841383 18.2582 2.692386 19.405644 3.726649 20.374337  C 4.760912 21.34303 5.961559 22.117165 7.270754 22.659451  C 8.579949 23.201737 9.97633 23.503327 11.392634 23.549691  C 12.808938 23.596056 14.222054 23.38644 15.563914 22.93094  C 16.905773 22.47544 18.154479 21.781489 19.249884 20.882514  C 20.345288 19.983538 21.269515 18.894209 21.978046 17.666996  L 11.777998 11.777998  L 23.555998 11.777998  z " style="fill: #fefebb; stroke: #444443; stroke-width: 0.5; stroke-linejoin: miter" />
   </g>
   <g id="patch_3">
    <path d="M 21.978046 17.666996  C 22.492691 16.775605 22.888274 15.820584 23.154673 14.826367  C 23.421073 13.832149 23.555999 12.807286 23.555998 11.777996  L 11.777998 11.777998  L 21.978046 17.666996  z " style="fill: #a1dab4; stroke: #444443; stroke-width: 0.5; stroke-linejoin: miter" />
   </g>
   <g id="text_1">
    
    <g style="fill: #444443" transform="translate(1.642452 30.940269)scale(0.09 -0.09)">
     <defs>
      <path id="ArialMT-6e" d="M 422 0  L 422 3319  L 928 3319  L 928 2847  Q 1294 3394 1984 3394  Q 2284 3394 2536 3286  Q 2788 3178 2913 3003  Q 3038 2828 3088 2588  Q 3119 2431 3119 2041  L 3119 0  L 2556 0  L 2556 2019  Q 2556 2363 2490 2533  Q 2425 2703 2258 2804  Q 2091 2906 1866 2906  Q 1506 2906 1245 2678  Q 984 2450 984 1813  L 984 0  L 422 0  z " transform="scale(0.015625)" />
      <path id="ArialMT-3d" d="M 3381 2694  L 356 2694  L 356 3219  L 3381 3219  L 3381 2694  z M 3381 1303  L 356 1303  L 356 1828  L 3381 1828  L 3381 1303  z " transform="scale(0.015625)" />
      <path id="ArialMT-31" d="M 2384 0  L 1822 0  L 1822 3584  Q 1619 3391 1289 3197  Q 959 3003 697 2906  L 697 3450  Q 1169 3672 1522 3987  Q 1875 4303 2022 4600  L 2384 4600  L 2384 0  z " transform="scale(0.015625)" />
      <path id="ArialMT-32" d="M 3222 541  L 3222 0  L 194 0  Q 188 203 259 391  Q 375 700 629 1000  Q 884 1300 1366 1694  Q 2113 2306 2375 2664  Q 2638 3022 2638 3341  Q 2638 3675 2398 3904  Q 2159 4134 1775 4134  Q 1369 4134 1125 3890  Q 881 3647 878 3216  L 300 3275  Q 359 3922 746 4261  Q 1134 4600 1788 4600  Q 2447 4600 2831 4234  Q 3216 3869 3216 3328  Q 3216 3053 3103 2787  Q 2991 2522 2730 2228  Q 2469 1934 1863 1422  Q 1356 997 1212 845  Q 1069 694 975 541  L 3222 541  z " transform="scale(0.015625)" />
     </defs>
     <use xlink:href="#ArialMT-6e" />
     <use xlink:href="#ArialMT-3d" x="55.615234" />
     <use xlink:href="#ArialMT-31" x="114.013672" />
     <use xlink:href="#ArialMT-32" x="169.628906" />
    </g>
    
    <g style="fill: #444443" transform="translate(4.270733 40.459456)scale(0.09 -0.09)">
     <defs>
      <path id="ArialMT-65" d="M 2694 1069  L 3275 997  Q 3138 488 2766 206  Q 2394 -75 1816 -75  Q 1088 -75 661 373  Q 234 822 234 1631  Q 234 2469 665 2931  Q 1097 3394 1784 3394  Q 2450 3394 2872 2941  Q 3294 2488 3294 1666  Q 3294 1616 3291 1516  L 816 1516  Q 847 969 1125 678  Q 1403 388 1819 388  Q 2128 388 2347 550  Q 2566 713 2694 1069  z M 847 1978  L 2700 1978  Q 2663 2397 2488 2606  Q 2219 2931 1791 2931  Q 1403 2931 1139 2672  Q 875 2413 847 1978  z " transform="scale(0.015625)" />
      <path id="ArialMT-67" d="M 319 -275  L 866 -356  Q 900 -609 1056 -725  Q 1266 -881 1628 -881  Q 2019 -881 2231 -725  Q 2444 -569 2519 -288  Q 2563 -116 2559 434  Q 2191 0 1641 0  Q 956 0 581 494  Q 206 988 206 1678  Q 206 2153 378 2554  Q 550 2956 876 3175  Q 1203 3394 1644 3394  Q 2231 3394 2613 2919  L 2613 3319  L 3131 3319  L 3131 450  Q 3131 -325 2973 -648  Q 2816 -972 2473 -1159  Q 2131 -1347 1631 -1347  Q 1038 -1347 672 -1080  Q 306 -813 319 -275  z M 784 1719  Q 784 1066 1043 766  Q 1303 466 1694 466  Q 2081 466 2343 764  Q 2606 1063 2606 1700  Q 2606 2309 2336 2618  Q 2066 2928 1684 2928  Q 1309 2928 1046 2623  Q 784 2319 784 1719  z " transform="scale(0.015625)" />
     </defs>
     <use xlink:href="#ArialMT-6e" />
     <use xlink:href="#ArialMT-65" x="55.615234" />
     <use xlink:href="#ArialMT-67" x="111.230469" />
    </g>
   </g>
  </g>
 </g>
</svg></g>

<g id="edge29" class="edge">
<title>node24-&gt;leaf26</title>
<path fill="none" stroke="#444443" stroke-width="0.3" d="M781.16,-134.95C787.48,-121.78 803.66,-88.05 814.62,-65.18" />
<polygon fill="#444443" stroke="#444443" stroke-width="0.3" points="816,-65.54 816.47,-61.33 813.48,-64.33 816,-65.54" />
</g>

<g id="edge31" class="edge">
<title>node20-&gt;node21</title>
<path fill="none" stroke="#444443" stroke-width="0.3" d="M679.78,-199.69C680.29,-188.85 681.41,-165.46 682.04,-152.2" />
<polygon fill="#444443" stroke="#444443" stroke-width="0.3" points="683.44,-152.18 682.23,-148.12 680.64,-152.05 683.44,-152.18" />
</g>

<g id="edge32" class="edge">
<title>node20-&gt;node24</title>
<path fill="none" stroke="#444443" stroke-width="0.3" d="M688.29,-199.91C705.85,-188.73 745.38,-163.58 765.78,-150.6" />
<polygon fill="#444443" stroke="#444443" stroke-width="0.3" points="766.97,-151.5 769.59,-148.17 765.47,-149.14 766.97,-151.5" />
</g>

<g id="edge34" class="edge">
<title>node14-&gt;node15</title>
<path fill="none" stroke="#444443" stroke-width="0.3" d="M540.73,-229.83C542.16,-226.19 544.05,-221.36 545.72,-217.13" />
<polygon fill="#444443" stroke="#444443" stroke-width="0.3" points="547.12,-217.39 547.28,-213.16 544.51,-216.37 547.12,-217.39" />
</g>

<g id="edge35" class="edge">
<title>node14-&gt;node20</title>
<path fill="none" stroke="#444443" stroke-width="0.3" d="M566.36,-229.97C589.72,-225.33 623.1,-218.7 647.55,-213.84" />
<polygon fill="#444443" stroke="#444443" stroke-width="0.3" points="648.05,-215.17 651.7,-213.02 647.5,-212.43 648.05,-215.17" />
</g>

<g id="node13" class="node">
<title>node0</title>
<text text-anchor="start" x="382" y="-292.9" font-family="Helvetica,sans-Serif" font-size="12.00" fill="#444443">Dinophysis fortii@0.10</text>
</g>

<g id="edge37" class="edge">
<title>node0-&gt;node1</title>
<path fill="none" stroke="#444443" stroke-width="0.3" d="M435.6,-289.49C422.9,-279.35 395.78,-257.69 380.87,-245.78" />
<polygon fill="#444443" stroke="#444443" stroke-width="0.3" points="381.7,-244.65 377.7,-243.25 379.95,-246.84 381.7,-244.65" />
<text text-anchor="start" x="404.5" y="-254.8" font-family="Times,serif" font-size="14.00">&#8804;</text>
</g>

<g id="edge38" class="edge">
<title>node0-&gt;node14</title>
<path fill="none" stroke="#444443" stroke-width="0.3" d="M451.7,-289.49C468.86,-279.21 505.78,-257.1 525.48,-245.3" />
<polygon fill="#444443" stroke="#444443" stroke-width="0.3" points="526.47,-246.34 529.18,-243.08 525.03,-243.94 526.47,-246.34" />
<text text-anchor="start" x="514.5" y="-254.8" font-family="Times,serif" font-size="14.00">&gt;</text>
</g>







<g id="node28" class="node">
<title>legend</title>
<polygon fill="none" stroke="black" stroke-width="0" points="556.5,-318 510.5,-318 510.5,-274 556.5,-274 556.5,-318" />
<svg width="42px" height="40px" viewBox="0 0 56.182812 54.36" version="1.1" preserveAspectRatio="xMinYMin meet" x="512.5" y="-316">
 <metadata>
  <rdf:RDF>
   <ns2:Work>
    <dc:type rdf:resource="http://purl.org/dc/dcmitype/StillImage" />
    <dc:date>2023-05-17T22:09:43.178667</dc:date>
    <dc:format>image/svg+xml</dc:format>
    <dc:creator>
     <ns2:Agent>
      <dc:title>Matplotlib v3.5.2, https://matplotlib.org/</dc:title>
     </ns2:Agent>
    </dc:creator>
   </ns2:Work>
  </rdf:RDF>
 </metadata>
 <defs>
  <style type="text/css">*{stroke-linejoin: round; stroke-linecap: butt}</style>
 </defs>
 <g id="figure_1">
  <g id="patch_1">
   <path d="M 0 54.36  L 56.182812 54.36  L 56.182812 0  L 0 0  L 0 54.36  z " style="fill: none" />
  </g>
  <g id="axes_1">
   <g id="legend_1">
    <g id="patch_2">
     <path d="M 2 54.262031  L 54.182812 54.262031  Q 56.182812 54.262031 56.182812 52.262031  L 56.182812 2.097969  Q 56.182812 0.097969 54.182812 0.097969  L 2 0.097969  Q 0 0.097969 0 2.097969  L 0 52.262031  Q 0 54.262031 2 54.262031  z " style="fill: #ffffff; opacity: 0.8; stroke: #444443; stroke-width: 0.5; stroke-linejoin: miter" />
    </g>
    <g id="text_1">
     
     <g style="fill: #444443" transform="translate(10.501562 15.696406)scale(0.1 -0.1)">
      <defs>
       <path id="DejaVuSans-Bold-74" d="M 1759 4494  L 1759 3500  L 2913 3500  L 2913 2700  L 1759 2700  L 1759 1216  Q 1759 972 1856 886  Q 1953 800 2241 800  L 2816 800  L 2816 0  L 1856 0  Q 1194 0 917 276  Q 641 553 641 1216  L 641 2700  L 84 2700  L 84 3500  L 641 3500  L 641 4494  L 1759 4494  z " transform="scale(0.015625)" />
       <path id="DejaVuSans-Bold-61" d="M 2106 1575  Q 1756 1575 1579 1456  Q 1403 1338 1403 1106  Q 1403 894 1545 773  Q 1688 653 1941 653  Q 2256 653 2472 879  Q 2688 1106 2688 1447  L 2688 1575  L 2106 1575  z M 3816 1997  L 3816 0  L 2688 0  L 2688 519  Q 2463 200 2181 54  Q 1900 -91 1497 -91  Q 953 -91 614 226  Q 275 544 275 1050  Q 275 1666 698 1953  Q 1122 2241 2028 2241  L 2688 2241  L 2688 2328  Q 2688 2594 2478 2717  Q 2269 2841 1825 2841  Q 1466 2841 1156 2769  Q 847 2697 581 2553  L 581 3406  Q 941 3494 1303 3539  Q 1666 3584 2028 3584  Q 2975 3584 3395 3211  Q 3816 2838 3816 1997  z " transform="scale(0.015625)" />
       <path id="DejaVuSans-Bold-72" d="M 3138 2547  Q 2991 2616 2845 2648  Q 2700 2681 2553 2681  Q 2122 2681 1889 2404  Q 1656 2128 1656 1613  L 1656 0  L 538 0  L 538 3500  L 1656 3500  L 1656 2925  Q 1872 3269 2151 3426  Q 2431 3584 2822 3584  Q 2878 3584 2943 3579  Q 3009 3575 3134 3559  L 3138 2547  z " transform="scale(0.015625)" />
       <path id="DejaVuSans-Bold-67" d="M 2919 594  Q 2688 288 2409 144  Q 2131 0 1766 0  Q 1125 0 706 504  Q 288 1009 288 1791  Q 288 2575 706 3076  Q 1125 3578 1766 3578  Q 2131 3578 2409 3434  Q 2688 3291 2919 2981  L 2919 3500  L 4044 3500  L 4044 353  Q 4044 -491 3511 -936  Q 2978 -1381 1966 -1381  Q 1638 -1381 1331 -1331  Q 1025 -1281 716 -1178  L 716 -306  Q 1009 -475 1290 -558  Q 1572 -641 1856 -641  Q 2406 -641 2662 -400  Q 2919 -159 2919 353  L 2919 594  z M 2181 2772  Q 1834 2772 1640 2515  Q 1447 2259 1447 1791  Q 1447 1309 1634 1061  Q 1822 813 2181 813  Q 2531 813 2725 1069  Q 2919 1325 2919 1791  Q 2919 2259 2725 2515  Q 2531 2772 2181 2772  z " transform="scale(0.015625)" />
       <path id="DejaVuSans-Bold-65" d="M 4031 1759  L 4031 1441  L 1416 1441  Q 1456 1047 1700 850  Q 1944 653 2381 653  Q 2734 653 3104 758  Q 3475 863 3866 1075  L 3866 213  Q 3469 63 3072 -14  Q 2675 -91 2278 -91  Q 1328 -91 801 392  Q 275 875 275 1747  Q 275 2603 792 3093  Q 1309 3584 2216 3584  Q 3041 3584 3536 3087  Q 4031 2591 4031 1759  z M 2881 2131  Q 2881 2450 2695 2645  Q 2509 2841 2209 2841  Q 1884 2841 1681 2658  Q 1478 2475 1428 2131  L 2881 2131  z " transform="scale(0.015625)" />
      </defs>
      <use xlink:href="#DejaVuSans-Bold-74" />
      <use xlink:href="#DejaVuSans-Bold-61" x="47.802734" />
      <use xlink:href="#DejaVuSans-Bold-72" x="115.283203" />
      <use xlink:href="#DejaVuSans-Bold-67" x="164.599609" />
      <use xlink:href="#DejaVuSans-Bold-65" x="236.181641" />
      <use xlink:href="#DejaVuSans-Bold-74" x="304.003906" />
     </g>
    </g>
    <g id="patch_3">
     <path d="M 8 30.012031  L 28 30.012031  L 28 23.012031  L 8 23.012031  z " style="fill: #fefebb; stroke: #444443; stroke-width: 0.4; stroke-linejoin: miter" />
    </g>
    <g id="text_2">
     
     <g style="fill: #444443" transform="translate(31.5 30.012031)scale(0.1 -0.1)">
      <defs>
       <path id="ArialMT-6e" d="M 422 0  L 422 3319  L 928 3319  L 928 2847  Q 1294 3394 1984 3394  Q 2284 3394 2536 3286  Q 2788 3178 2913 3003  Q 3038 2828 3088 2588  Q 3119 2431 3119 2041  L 3119 0  L 2556 0  L 2556 2019  Q 2556 2363 2490 2533  Q 2425 2703 2258 2804  Q 2091 2906 1866 2906  Q 1506 2906 1245 2678  Q 984 2450 984 1813  L 984 0  L 422 0  z " transform="scale(0.015625)" />
       <path id="ArialMT-65" d="M 2694 1069  L 3275 997  Q 3138 488 2766 206  Q 2394 -75 1816 -75  Q 1088 -75 661 373  Q 234 822 234 1631  Q 234 2469 665 2931  Q 1097 3394 1784 3394  Q 2450 3394 2872 2941  Q 3294 2488 3294 1666  Q 3294 1616 3291 1516  L 816 1516  Q 847 969 1125 678  Q 1403 388 1819 388  Q 2128 388 2347 550  Q 2566 713 2694 1069  z M 847 1978  L 2700 1978  Q 2663 2397 2488 2606  Q 2219 2931 1791 2931  Q 1403 2931 1139 2672  Q 875 2413 847 1978  z " transform="scale(0.015625)" />
       <path id="ArialMT-67" d="M 319 -275  L 866 -356  Q 900 -609 1056 -725  Q 1266 -881 1628 -881  Q 2019 -881 2231 -725  Q 2444 -569 2519 -288  Q 2563 -116 2559 434  Q 2191 0 1641 0  Q 956 0 581 494  Q 206 988 206 1678  Q 206 2153 378 2554  Q 550 2956 876 3175  Q 1203 3394 1644 3394  Q 2231 3394 2613 2919  L 2613 3319  L 3131 3319  L 3131 450  Q 3131 -325 2973 -648  Q 2816 -972 2473 -1159  Q 2131 -1347 1631 -1347  Q 1038 -1347 672 -1080  Q 306 -813 319 -275  z M 784 1719  Q 784 1066 1043 766  Q 1303 466 1694 466  Q 2081 466 2343 764  Q 2606 1063 2606 1700  Q 2606 2309 2336 2618  Q 2066 2928 1684 2928  Q 1309 2928 1046 2623  Q 784 2319 784 1719  z " transform="scale(0.015625)" />
      </defs>
      <use xlink:href="#ArialMT-6e" />
      <use xlink:href="#ArialMT-65" x="55.615234" />
      <use xlink:href="#ArialMT-67" x="111.230469" />
     </g>
    </g>
    <g id="patch_4">
     <path d="M 8 44.274531  L 28 44.274531  L 28 37.274531  L 8 37.274531  z " style="fill: #a1dab4; stroke: #444443; stroke-width: 0.4; stroke-linejoin: miter" />
    </g>
    <g id="text_3">
     
     <g style="fill: #444443" transform="translate(31.5 44.274531)scale(0.1 -0.1)">
      <defs>
       <path id="ArialMT-70" d="M 422 -1272  L 422 3319  L 934 3319  L 934 2888  Q 1116 3141 1344 3267  Q 1572 3394 1897 3394  Q 2322 3394 2647 3175  Q 2972 2956 3137 2557  Q 3303 2159 3303 1684  Q 3303 1175 3120 767  Q 2938 359 2589 142  Q 2241 -75 1856 -75  Q 1575 -75 1351 44  Q 1128 163 984 344  L 984 -1272  L 422 -1272  z M 931 1641  Q 931 1000 1190 694  Q 1450 388 1819 388  Q 2194 388 2461 705  Q 2728 1022 2728 1688  Q 2728 2322 2467 2637  Q 2206 2953 1844 2953  Q 1484 2953 1207 2617  Q 931 2281 931 1641  z " transform="scale(0.015625)" />
       <path id="ArialMT-6f" d="M 213 1659  Q 213 2581 725 3025  Q 1153 3394 1769 3394  Q 2453 3394 2887 2945  Q 3322 2497 3322 1706  Q 3322 1066 3130 698  Q 2938 331 2570 128  Q 2203 -75 1769 -75  Q 1072 -75 642 372  Q 213 819 213 1659  z M 791 1659  Q 791 1022 1069 705  Q 1347 388 1769 388  Q 2188 388 2466 706  Q 2744 1025 2744 1678  Q 2744 2294 2464 2611  Q 2184 2928 1769 2928  Q 1347 2928 1069 2612  Q 791 2297 791 1659  z " transform="scale(0.015625)" />
       <path id="ArialMT-7a" d="M 125 0  L 125 456  L 2238 2881  Q 1878 2863 1603 2863  L 250 2863  L 250 3319  L 2963 3319  L 2963 2947  L 1166 841  L 819 456  Q 1197 484 1528 484  L 3063 484  L 3063 0  L 125 0  z " transform="scale(0.015625)" />
      </defs>
      <use xlink:href="#ArialMT-70" />
      <use xlink:href="#ArialMT-6f" x="55.615234" />
      <use xlink:href="#ArialMT-7a" x="111.230469" />
     </g>
    </g>
   </g>
  </g>
 </g>
</svg></g>
</g>
</svg>