<svg xmlns="http://www.w3.org/2000/svg" xmlns:dc="http://purl.org/dc/elements/1.1/" xmlns:ns2="http://creativecommons.org/ns#" xmlns:rdf="http://www.w3.org/1999/02/22-rdf-syntax-ns#" xmlns:xlink="http://www.w3.org/1999/xlink" width="853.5" height="351.0" viewBox="0.0 0.0 853.5 351.0">
<g id="graph0" class="graph" transform="scale(1.5 1.5) rotate(0) translate(4 230)">
<title>G</title>
<polygon fill="white" stroke="transparent" points="-4,4 -4,-230 565,-230 565,4 -4,4" />
<g id="clust8" class="cluster">
<title>cluster_legend</title>
</g>

<g id="node1" class="node">
<title>node2</title>
<text text-anchor="start" x="31" y="-103.4" font-family="Helvetica,sans-Serif" font-size="12.00" fill="#444443">Dinophysis fortii@0.27</text>
</g>

<g id="node2" class="node">
<title>node5</title>
<text text-anchor="start" x="165.5" y="-103.4" font-family="Helvetica,sans-Serif" font-size="12.00" fill="#444443">Dinophysis sacculus@1.96</text>
</g>


<g id="node8" class="node">
<title>leaf3</title>
<polygon fill="none" stroke="#444443" stroke-width="0" points="67,-83 0,-83 0,0 67,0 67,-83" />
<svg width="59px" height="75px" viewBox="0 0 78.519999 99.516237" version="1.1" preserveAspectRatio="xMinYMin meet" x="4.5" y="-78.5">
 <metadata>
  <rdf:RDF>
   <ns2:Work>
    <dc:type rdf:resource="http://purl.org/dc/dcmitype/StillImage" />
    <dc:date>2023-05-11T00:47:42.159321</dc:date>
    <dc:format>image/svg+xml</dc:format>
    <dc:creator>
     <ns2:Agent>
      <dc:title>Matplotlib v3.5.2, https://matplotlib.org/</dc:title>
     </ns2:Agent>
    </dc:creator>
   </ns2:Work>
  </rdf:RDF>
 </metadata>
 <defs>
  <style type="text/css">*{stroke-linejoin: round; stroke-linecap: butt}</style>
 </defs>
 <g id="figure_1">
  <g id="patch_1">
   <path d="M 0 99.516237  L 78.519999 99.516237  L 78.519999 0  L 0 0  z " style="fill: #ffffff" />
  </g>
  <g id="axes_1">
   <g id="patch_2">
    <path d="M 78.519999 39.26  C 78.519999 35.20627 77.892157 31.176886 76.658829 27.315328  C 75.4255 23.453771 73.6015 19.806423 71.251779 16.503162  C 68.902057 13.199901 66.054838 10.280404 62.811506 7.84863  C 59.568174 5.416856 55.967687 3.502015 52.138254 2.172291  C 48.30882 0.842567 44.296438 0.113932 40.243982 0.012333  C 36.191525 -0.089267 32.147671 0.437389 28.256415 1.573547  C 24.365159 2.709705 20.673243 4.441717 17.312127 6.707911  C 13.951012 8.974104 10.961072 11.747257 8.448774 14.928622  C 5.936475 18.109987 3.931996 21.66135 2.506711 25.456253  C 1.081427 29.251157 0.252458 33.244016 0.049323 37.292654  C -0.153812 41.341291 0.271326 45.397074 1.3096 49.315583  C 2.347873 53.234093 3.98681 56.96826 6.168051 60.385117  C 8.349292 63.801975 11.046636 66.86048 14.164036 69.451724  C 17.281435 72.042969 20.781444 74.135827 24.539433 75.655776  C 28.297422 77.175725 32.268251 78.104508 36.310525 78.409051  C 40.352799 78.713594 44.417964 78.390241 48.361265 77.450504  L 39.259999 39.26  L 78.519999 39.26  z " style="fill: #fefebb; stroke: #444443; stroke-width: 0.5; stroke-linejoin: miter" />
   </g>
   <g id="patch_3">
    <path d="M 48.361265 77.450504  C 56.9488 75.403989 64.600062 70.519603 70.071227 63.591375  C 75.542392 56.663147 78.520001 48.088015 78.519999 39.259993  L 39.259999 39.26  L 48.361265 77.450504  z " style="fill: #a1dab4; stroke: #444443; stroke-width: 0.5; stroke-linejoin: miter" />
   </g>
   <g id="text_1">
    
    <g style="fill: #444443" transform="translate(26.622031 88.102831)scale(0.09 -0.09)">
     <defs>
      <path id="ArialMT-6e" d="M 422 0  L 422 3319  L 928 3319  L 928 2847  Q 1294 3394 1984 3394  Q 2284 3394 2536 3286  Q 2788 3178 2913 3003  Q 3038 2828 3088 2588  Q 3119 2431 3119 2041  L 3119 0  L 2556 0  L 2556 2019  Q 2556 2363 2490 2533  Q 2425 2703 2258 2804  Q 2091 2906 1866 2906  Q 1506 2906 1245 2678  Q 984 2450 984 1813  L 984 0  L 422 0  z " transform="scale(0.015625)" />
      <path id="ArialMT-3d" d="M 3381 2694  L 356 2694  L 356 3219  L 3381 3219  L 3381 2694  z M 3381 1303  L 356 1303  L 356 1828  L 3381 1828  L 3381 1303  z " transform="scale(0.015625)" />
      <path id="ArialMT-32" d="M 3222 541  L 3222 0  L 194 0  Q 188 203 259 391  Q 375 700 629 1000  Q 884 1300 1366 1694  Q 2113 2306 2375 2664  Q 2638 3022 2638 3341  Q 2638 3675 2398 3904  Q 2159 4134 1775 4134  Q 1369 4134 1125 3890  Q 881 3647 878 3216  L 300 3275  Q 359 3922 746 4261  Q 1134 4600 1788 4600  Q 2447 4600 2831 4234  Q 3216 3869 3216 3328  Q 3216 3053 3103 2787  Q 2991 2522 2730 2228  Q 2469 1934 1863 1422  Q 1356 997 1212 845  Q 1069 694 975 541  L 3222 541  z " transform="scale(0.015625)" />
      <path id="ArialMT-30" d="M 266 2259  Q 266 3072 433 3567  Q 600 4063 929 4331  Q 1259 4600 1759 4600  Q 2128 4600 2406 4451  Q 2684 4303 2865 4023  Q 3047 3744 3150 3342  Q 3253 2941 3253 2259  Q 3253 1453 3087 958  Q 2922 463 2592 192  Q 2263 -78 1759 -78  Q 1097 -78 719 397  Q 266 969 266 2259  z M 844 2259  Q 844 1131 1108 757  Q 1372 384 1759 384  Q 2147 384 2411 759  Q 2675 1134 2675 2259  Q 2675 3391 2411 3762  Q 2147 4134 1753 4134  Q 1366 4134 1134 3806  Q 844 3388 844 2259  z " transform="scale(0.015625)" />
      <path id="ArialMT-31" d="M 2384 0  L 1822 0  L 1822 3584  Q 1619 3391 1289 3197  Q 959 3003 697 2906  L 697 3450  Q 1169 3672 1522 3987  Q 1875 4303 2022 4600  L 2384 4600  L 2384 0  z " transform="scale(0.015625)" />
     </defs>
     <use xlink:href="#ArialMT-6e" />
     <use xlink:href="#ArialMT-3d" x="55.615234" />
     <use xlink:href="#ArialMT-32" x="114.013672" />
     <use xlink:href="#ArialMT-30" x="169.628906" />
     <use xlink:href="#ArialMT-31" x="225.244141" />
    </g>
    
    <g style="fill: #444443" transform="translate(31.752734 97.622019)scale(0.09 -0.09)">
     <defs>
      <path id="ArialMT-65" d="M 2694 1069  L 3275 997  Q 3138 488 2766 206  Q 2394 -75 1816 -75  Q 1088 -75 661 373  Q 234 822 234 1631  Q 234 2469 665 2931  Q 1097 3394 1784 3394  Q 2450 3394 2872 2941  Q 3294 2488 3294 1666  Q 3294 1616 3291 1516  L 816 1516  Q 847 969 1125 678  Q 1403 388 1819 388  Q 2128 388 2347 550  Q 2566 713 2694 1069  z M 847 1978  L 2700 1978  Q 2663 2397 2488 2606  Q 2219 2931 1791 2931  Q 1403 2931 1139 2672  Q 875 2413 847 1978  z " transform="scale(0.015625)" />
      <path id="ArialMT-67" d="M 319 -275  L 866 -356  Q 900 -609 1056 -725  Q 1266 -881 1628 -881  Q 2019 -881 2231 -725  Q 2444 -569 2519 -288  Q 2563 -116 2559 434  Q 2191 0 1641 0  Q 956 0 581 494  Q 206 988 206 1678  Q 206 2153 378 2554  Q 550 2956 876 3175  Q 1203 3394 1644 3394  Q 2231 3394 2613 2919  L 2613 3319  L 3131 3319  L 3131 450  Q 3131 -325 2973 -648  Q 2816 -972 2473 -1159  Q 2131 -1347 1631 -1347  Q 1038 -1347 672 -1080  Q 306 -813 319 -275  z M 784 1719  Q 784 1066 1043 766  Q 1303 466 1694 466  Q 2081 466 2343 764  Q 2606 1063 2606 1700  Q 2606 2309 2336 2618  Q 2066 2928 1684 2928  Q 1309 2928 1046 2623  Q 784 2319 784 1719  z " transform="scale(0.015625)" />
     </defs>
     <use xlink:href="#ArialMT-6e" />
     <use xlink:href="#ArialMT-65" x="55.615234" />
     <use xlink:href="#ArialMT-67" x="111.230469" />
    </g>
   </g>
  </g>
 </g>
</svg></g>

<g id="edge1" class="edge">
<title>node2-&gt;leaf3</title>
<path fill="none" stroke="#444443" stroke-width="0.3" d="M86.15,-99.69C82.12,-95.31 76.22,-88.9 69.8,-81.93" />
<polygon fill="#444443" stroke="#444443" stroke-width="0.3" points="70.77,-80.91 67.03,-78.92 68.71,-82.81 70.77,-80.91" />
</g>

<g id="node9" class="node">
<title>leaf4</title>
<polygon fill="none" stroke="#444443" stroke-width="0" points="148,-83 81,-83 81,0 148,0 148,-83" />
<svg width="59px" height="75px" viewBox="0 0 78.519978 99.516231" version="1.1" preserveAspectRatio="xMinYMin meet" x="85.5" y="-78.5">
 <metadata>
  <rdf:RDF>
   <ns2:Work>
    <dc:type rdf:resource="http://purl.org/dc/dcmitype/StillImage" />
    <dc:date>2023-05-11T00:47:42.205000</dc:date>
    <dc:format>image/svg+xml</dc:format>
    <dc:creator>
     <ns2:Agent>
      <dc:title>Matplotlib v3.5.2, https://matplotlib.org/</dc:title>
     </ns2:Agent>
    </dc:creator>
   </ns2:Work>
  </rdf:RDF>
 </metadata>
 <defs>
  <style type="text/css">*{stroke-linejoin: round; stroke-linecap: butt}</style>
 </defs>
 <g id="figure_1">
  <g id="patch_1">
   <path d="M -0 99.516231  L 78.519978 99.516231  L 78.519978 0  L -0 0  z " style="fill: #ffffff" />
  </g>
  <g id="axes_1">
   <g id="patch_2">
    <path d="M 78.519978 39.259993  C 78.519978 33.819191 77.388967 28.437326 75.198896 23.456773  C 73.008825 18.476219 69.807141 14.00488 65.797524 10.327205  C 61.787907 6.649529 57.057224 3.845195 51.906424 2.092601  C 46.755624 0.340008 41.296297 -0.322874 35.875747 0.146126  C 30.455197 0.615126 25.190858 2.205846 20.417628 4.817091  C 15.644399 7.428337 11.465689 11.003535 8.147334 15.315244  C 4.828978 19.626954 2.442869 24.581764 1.1408 29.864466  C -0.161268 35.147168 -0.351086 40.643314 0.583422 46.00326  L 39.259978 39.259993  L 78.519978 39.259993  z " style="fill: #fefebb; stroke: #444443; stroke-width: 0.5; stroke-linejoin: miter" />
   </g>
   <g id="patch_3">
    <path d="M 0.583422 46.00326  C 2.270708 55.680827 7.53029 64.381234 15.315231 70.372638  C 23.100171 76.364042 32.857222 79.220656 42.644212 78.37386  C 52.431201 77.527064 61.552602 73.037037 68.19277 65.797535  C 74.832938 58.558033 78.519979 49.08354 78.519978 39.259986  L 39.259978 39.259993  L 0.583422 46.00326  z " style="fill: #a1dab4; stroke: #444443; stroke-width: 0.5; stroke-linejoin: miter" />
   </g>
   <g id="text_1">
    
    <g style="fill: #444443" transform="translate(29.124431 88.102824)scale(0.09 -0.09)">
     <defs>
      <path id="ArialMT-6e" d="M 422 0  L 422 3319  L 928 3319  L 928 2847  Q 1294 3394 1984 3394  Q 2284 3394 2536 3286  Q 2788 3178 2913 3003  Q 3038 2828 3088 2588  Q 3119 2431 3119 2041  L 3119 0  L 2556 0  L 2556 2019  Q 2556 2363 2490 2533  Q 2425 2703 2258 2804  Q 2091 2906 1866 2906  Q 1506 2906 1245 2678  Q 984 2450 984 1813  L 984 0  L 422 0  z " transform="scale(0.015625)" />
      <path id="ArialMT-3d" d="M 3381 2694  L 356 2694  L 356 3219  L 3381 3219  L 3381 2694  z M 3381 1303  L 356 1303  L 356 1828  L 3381 1828  L 3381 1303  z " transform="scale(0.015625)" />
      <path id="ArialMT-37" d="M 303 3981  L 303 4522  L 3269 4522  L 3269 4084  Q 2831 3619 2401 2847  Q 1972 2075 1738 1259  Q 1569 684 1522 0  L 944 0  Q 953 541 1156 1306  Q 1359 2072 1739 2783  Q 2119 3494 2547 3981  L 303 3981  z " transform="scale(0.015625)" />
      <path id="ArialMT-34" d="M 2069 0  L 2069 1097  L 81 1097  L 81 1613  L 2172 4581  L 2631 4581  L 2631 1613  L 3250 1613  L 3250 1097  L 2631 1097  L 2631 0  L 2069 0  z M 2069 1613  L 2069 3678  L 634 1613  L 2069 1613  z " transform="scale(0.015625)" />
     </defs>
     <use xlink:href="#ArialMT-6e" />
     <use xlink:href="#ArialMT-3d" x="55.615234" />
     <use xlink:href="#ArialMT-37" x="114.013672" />
     <use xlink:href="#ArialMT-34" x="169.628906" />
    </g>
    
    <g style="fill: #444443" transform="translate(31.752712 97.622012)scale(0.09 -0.09)">
     <defs>
      <path id="ArialMT-65" d="M 2694 1069  L 3275 997  Q 3138 488 2766 206  Q 2394 -75 1816 -75  Q 1088 -75 661 373  Q 234 822 234 1631  Q 234 2469 665 2931  Q 1097 3394 1784 3394  Q 2450 3394 2872 2941  Q 3294 2488 3294 1666  Q 3294 1616 3291 1516  L 816 1516  Q 847 969 1125 678  Q 1403 388 1819 388  Q 2128 388 2347 550  Q 2566 713 2694 1069  z M 847 1978  L 2700 1978  Q 2663 2397 2488 2606  Q 2219 2931 1791 2931  Q 1403 2931 1139 2672  Q 875 2413 847 1978  z " transform="scale(0.015625)" />
      <path id="ArialMT-67" d="M 319 -275  L 866 -356  Q 900 -609 1056 -725  Q 1266 -881 1628 -881  Q 2019 -881 2231 -725  Q 2444 -569 2519 -288  Q 2563 -116 2559 434  Q 2191 0 1641 0  Q 956 0 581 494  Q 206 988 206 1678  Q 206 2153 378 2554  Q 550 2956 876 3175  Q 1203 3394 1644 3394  Q 2231 3394 2613 2919  L 2613 3319  L 3131 3319  L 3131 450  Q 3131 -325 2973 -648  Q 2816 -972 2473 -1159  Q 2131 -1347 1631 -1347  Q 1038 -1347 672 -1080  Q 306 -813 319 -275  z M 784 1719  Q 784 1066 1043 766  Q 1303 466 1694 466  Q 2081 466 2343 764  Q 2606 1063 2606 1700  Q 2606 2309 2336 2618  Q 2066 2928 1684 2928  Q 1309 2928 1046 2623  Q 784 2319 784 1719  z " transform="scale(0.015625)" />
     </defs>
     <use xlink:href="#ArialMT-6e" />
     <use xlink:href="#ArialMT-65" x="55.615234" />
     <use xlink:href="#ArialMT-67" x="111.230469" />
    </g>
   </g>
  </g>
 </g>
</svg></g>

<g id="edge2" class="edge">
<title>node2-&gt;leaf4</title>
<path fill="none" stroke="#444443" stroke-width="0.3" d="M93.62,-99.69C94.83,-96.38 96.46,-91.92 98.28,-86.93" />
<polygon fill="#444443" stroke="#444443" stroke-width="0.3" points="99.65,-87.26 99.71,-83.02 97.02,-86.3 99.65,-87.26" />
</g>

<g id="node10" class="node">
<title>leaf6</title>
<polygon fill="none" stroke="#444443" stroke-width="0" points="258,-83 191,-83 191,0 258,0 258,-83" />
<svg width="59px" height="75px" viewBox="0 0 78.519988 99.516234" version="1.1" preserveAspectRatio="xMinYMin meet" x="195.5" y="-78.5">
 <metadata>
  <rdf:RDF>
   <ns2:Work>
    <dc:type rdf:resource="http://purl.org/dc/dcmitype/StillImage" />
    <dc:date>2023-05-11T00:47:42.255161</dc:date>
    <dc:format>image/svg+xml</dc:format>
    <dc:creator>
     <ns2:Agent>
      <dc:title>Matplotlib v3.5.2, https://matplotlib.org/</dc:title>
     </ns2:Agent>
    </dc:creator>
   </ns2:Work>
  </rdf:RDF>
 </metadata>
 <defs>
  <style type="text/css">*{stroke-linejoin: round; stroke-linecap: butt}</style>
 </defs>
 <g id="figure_1">
  <g id="patch_1">
   <path d="M 0 99.516234  L 78.519988 99.516234  L 78.519988 0  L 0 0  z " style="fill: #ffffff" />
  </g>
  <g id="axes_1">
   <g id="patch_2">
    <path d="M 78.519988 39.259997  C 78.519988 34.351376 77.599412 29.486014 75.806092 24.916708  C 74.012771 20.347402 71.378314 16.154688 68.039605 12.556415  C 64.700895 8.958142 60.716778 6.017729 56.294264 3.887959  C 51.87175 1.758188 47.088786 0.476597 42.193892 0.109775  C 37.298997 -0.257046 32.378444 0.297367 27.6879 1.744208  C 22.997356 3.191049 18.619492 5.504818 14.781779 8.565293  C 10.944065 11.625767 7.714141 15.379007 5.259831 19.629997  C 2.805521 23.880987 1.170082 28.554803 0.43849 33.408598  C -0.293102 38.262392 -0.107952 43.210618 0.984319 47.996169  C 2.076589 52.78172 4.05673 57.32025 6.821854 61.375942  C 9.586979 65.431635 13.088351 68.933007 17.144043 71.698131  C 21.199736 74.463255 25.738266 76.443396 30.523817 77.535667  C 35.309368 78.627937 40.257593 78.813087 45.111388 78.081495  C 49.965183 77.349903 54.638999 75.714464 58.889989 73.260154  C 63.140979 70.805843 66.894218 67.575919 69.954693 63.738206  C 73.015167 59.900492 75.328936 55.522628 76.775777 50.832084  L 39.259988 39.259997  L 78.519988 39.259997  z " style="fill: #fefebb; stroke: #444443; stroke-width: 0.5; stroke-linejoin: miter" />
   </g>
   <g id="patch_3">
    <path d="M 76.775777 50.832084  C 77.353106 48.960429 77.789562 47.048192 78.081487 45.111395  C 78.373412 43.174599 78.519988 41.218669 78.519988 39.259996  L 39.259988 39.259997  L 76.775777 50.832084  z " style="fill: #a1dab4; stroke: #444443; stroke-width: 0.5; stroke-linejoin: miter" />
   </g>
   <g id="text_1">
    
    <g style="fill: #444443" transform="translate(26.62202 88.102828)scale(0.09 -0.09)">
     <defs>
      <path id="ArialMT-6e" d="M 422 0  L 422 3319  L 928 3319  L 928 2847  Q 1294 3394 1984 3394  Q 2284 3394 2536 3286  Q 2788 3178 2913 3003  Q 3038 2828 3088 2588  Q 3119 2431 3119 2041  L 3119 0  L 2556 0  L 2556 2019  Q 2556 2363 2490 2533  Q 2425 2703 2258 2804  Q 2091 2906 1866 2906  Q 1506 2906 1245 2678  Q 984 2450 984 1813  L 984 0  L 422 0  z " transform="scale(0.015625)" />
      <path id="ArialMT-3d" d="M 3381 2694  L 356 2694  L 356 3219  L 3381 3219  L 3381 2694  z M 3381 1303  L 356 1303  L 356 1828  L 3381 1828  L 3381 1303  z " transform="scale(0.015625)" />
      <path id="ArialMT-31" d="M 2384 0  L 1822 0  L 1822 3584  Q 1619 3391 1289 3197  Q 959 3003 697 2906  L 697 3450  Q 1169 3672 1522 3987  Q 1875 4303 2022 4600  L 2384 4600  L 2384 0  z " transform="scale(0.015625)" />
      <path id="ArialMT-37" d="M 303 3981  L 303 4522  L 3269 4522  L 3269 4084  Q 2831 3619 2401 2847  Q 1972 2075 1738 1259  Q 1569 684 1522 0  L 944 0  Q 953 541 1156 1306  Q 1359 2072 1739 2783  Q 2119 3494 2547 3981  L 303 3981  z " transform="scale(0.015625)" />
     </defs>
     <use xlink:href="#ArialMT-6e" />
     <use xlink:href="#ArialMT-3d" x="55.615234" />
     <use xlink:href="#ArialMT-31" x="114.013672" />
     <use xlink:href="#ArialMT-37" x="169.628906" />
     <use xlink:href="#ArialMT-31" x="225.244141" />
    </g>
    
    <g style="fill: #444443" transform="translate(31.752723 97.622015)scale(0.09 -0.09)">
     <defs>
      <path id="ArialMT-65" d="M 2694 1069  L 3275 997  Q 3138 488 2766 206  Q 2394 -75 1816 -75  Q 1088 -75 661 373  Q 234 822 234 1631  Q 234 2469 665 2931  Q 1097 3394 1784 3394  Q 2450 3394 2872 2941  Q 3294 2488 3294 1666  Q 3294 1616 3291 1516  L 816 1516  Q 847 969 1125 678  Q 1403 388 1819 388  Q 2128 388 2347 550  Q 2566 713 2694 1069  z M 847 1978  L 2700 1978  Q 2663 2397 2488 2606  Q 2219 2931 1791 2931  Q 1403 2931 1139 2672  Q 875 2413 847 1978  z " transform="scale(0.015625)" />
      <path id="ArialMT-67" d="M 319 -275  L 866 -356  Q 900 -609 1056 -725  Q 1266 -881 1628 -881  Q 2019 -881 2231 -725  Q 2444 -569 2519 -288  Q 2563 -116 2559 434  Q 2191 0 1641 0  Q 956 0 581 494  Q 206 988 206 1678  Q 206 2153 378 2554  Q 550 2956 876 3175  Q 1203 3394 1644 3394  Q 2231 3394 2613 2919  L 2613 3319  L 3131 3319  L 3131 450  Q 3131 -325 2973 -648  Q 2816 -972 2473 -1159  Q 2131 -1347 1631 -1347  Q 1038 -1347 672 -1080  Q 306 -813 319 -275  z M 784 1719  Q 784 1066 1043 766  Q 1303 466 1694 466  Q 2081 466 2343 764  Q 2606 1063 2606 1700  Q 2606 2309 2336 2618  Q 2066 2928 1684 2928  Q 1309 2928 1046 2623  Q 784 2319 784 1719  z " transform="scale(0.015625)" />
     </defs>
     <use xlink:href="#ArialMT-6e" />
     <use xlink:href="#ArialMT-65" x="55.615234" />
     <use xlink:href="#ArialMT-67" x="111.230469" />
    </g>
   </g>
  </g>
 </g>
</svg></g>

<g id="edge4" class="edge">
<title>node5-&gt;leaf6</title>
<path fill="none" stroke="#444443" stroke-width="0.3" d="M237.21,-99.69C236.47,-96.38 235.48,-91.92 234.37,-86.93" />
<polygon fill="#444443" stroke="#444443" stroke-width="0.3" points="235.74,-86.62 233.5,-83.02 233.01,-87.23 235.74,-86.62" />
</g>

<g id="node11" class="node">
<title>leaf7</title>
<polygon fill="none" stroke="#444443" stroke-width="0" points="329.5,-78.5 271.5,-78.5 271.5,-4.5 329.5,-4.5 329.5,-78.5" />
<svg width="50px" height="66px" viewBox="0 0 67.043997 87.581196" version="1.1" preserveAspectRatio="xMinYMin meet" x="275.5" y="-74.5">
 <metadata>
  <rdf:RDF>
   <ns2:Work>
    <dc:type rdf:resource="http://purl.org/dc/dcmitype/StillImage" />
    <dc:date>2023-05-11T00:47:42.303533</dc:date>
    <dc:format>image/svg+xml</dc:format>
    <dc:creator>
     <ns2:Agent>
      <dc:title>Matplotlib v3.5.2, https://matplotlib.org/</dc:title>
     </ns2:Agent>
    </dc:creator>
   </ns2:Work>
  </rdf:RDF>
 </metadata>
 <defs>
  <style type="text/css">*{stroke-linejoin: round; stroke-linecap: butt}</style>
 </defs>
 <g id="figure_1">
  <g id="patch_1">
   <path d="M 0 87.581196  L 67.043997 87.581196  L 67.043997 0  L 0 0  z " style="fill: #ffffff" />
  </g>
  <g id="axes_1">
   <g id="patch_2">
    <path d="M 67.043997 33.521998  C 67.043997 30.195237 66.54877 26.886932 65.574619 23.705993  C 64.600467 20.525055 63.1582 17.506777 61.295297 14.750523  C 59.432395 11.994269 57.169527 9.530621 54.581187 7.440683  C 51.992848 5.350745 49.107756 3.657706 46.020891 2.417302  C 42.934026 1.176898 39.679636 0.402891 36.36486 0.120762  C 33.050083 -0.161367 29.711698 0.051512 26.459605 0.752392  C 23.207512 1.453272 20.077795 2.634376 17.173485 4.256821  C 14.269176 5.879265 11.622499 7.92505 9.320583 10.326826  C 7.018668 12.728601 5.087055 15.45972 3.589335 18.430271  C 2.091615 21.400823 1.044405 24.577847 0.48218 27.856756  C -0.080045 31.135665 -0.151047 34.480078 0.271511 37.779894  C 0.69407 41.079709 1.6055 44.298316 2.975798 47.329756  C 4.346095 50.361195 6.160056 53.171833 8.357963 55.66914  C 10.555871 58.166447 13.113338 60.322716 15.946173 62.066961  C 18.779007 63.811205 21.855777 65.124073 25.075194 65.962344  C 28.29461 66.800614 31.620953 67.154986 34.944717 67.013794  L 33.521997 33.521998  L 67.043997 33.521998  z " style="fill: #fefebb; stroke: #444443; stroke-width: 0.5; stroke-linejoin: miter" />
   </g>
   <g id="patch_3">
    <path d="M 34.944717 67.013794  C 43.578234 66.647045 51.744161 62.955812 57.723414 56.717169  C 63.702667 50.478526 67.043999 42.163296 67.043997 33.521992  L 33.521997 33.521998  L 34.944717 67.013794  z " style="fill: #a1dab4; stroke: #444443; stroke-width: 0.5; stroke-linejoin: miter" />
   </g>
   <g id="text_1">
    
    <g style="fill: #444443" transform="translate(23.38645 76.16779)scale(0.09 -0.09)">
     <defs>
      <path id="ArialMT-6e" d="M 422 0  L 422 3319  L 928 3319  L 928 2847  Q 1294 3394 1984 3394  Q 2284 3394 2536 3286  Q 2788 3178 2913 3003  Q 3038 2828 3088 2588  Q 3119 2431 3119 2041  L 3119 0  L 2556 0  L 2556 2019  Q 2556 2363 2490 2533  Q 2425 2703 2258 2804  Q 2091 2906 1866 2906  Q 1506 2906 1245 2678  Q 984 2450 984 1813  L 984 0  L 422 0  z " transform="scale(0.015625)" />
      <path id="ArialMT-3d" d="M 3381 2694  L 356 2694  L 356 3219  L 3381 3219  L 3381 2694  z M 3381 1303  L 356 1303  L 356 1828  L 3381 1828  L 3381 1303  z " transform="scale(0.015625)" />
      <path id="ArialMT-34" d="M 2069 0  L 2069 1097  L 81 1097  L 81 1613  L 2172 4581  L 2631 4581  L 2631 1613  L 3250 1613  L 3250 1097  L 2631 1097  L 2631 0  L 2069 0  z M 2069 1613  L 2069 3678  L 634 1613  L 2069 1613  z " transform="scale(0.015625)" />
      <path id="ArialMT-38" d="M 1131 2484  Q 781 2613 612 2850  Q 444 3088 444 3419  Q 444 3919 803 4259  Q 1163 4600 1759 4600  Q 2359 4600 2725 4251  Q 3091 3903 3091 3403  Q 3091 3084 2923 2848  Q 2756 2613 2416 2484  Q 2838 2347 3058 2040  Q 3278 1734 3278 1309  Q 3278 722 2862 322  Q 2447 -78 1769 -78  Q 1091 -78 675 323  Q 259 725 259 1325  Q 259 1772 486 2073  Q 713 2375 1131 2484  z M 1019 3438  Q 1019 3113 1228 2906  Q 1438 2700 1772 2700  Q 2097 2700 2305 2904  Q 2513 3109 2513 3406  Q 2513 3716 2298 3927  Q 2084 4138 1766 4138  Q 1444 4138 1231 3931  Q 1019 3725 1019 3438  z M 838 1322  Q 838 1081 952 856  Q 1066 631 1291 507  Q 1516 384 1775 384  Q 2178 384 2440 643  Q 2703 903 2703 1303  Q 2703 1709 2433 1975  Q 2163 2241 1756 2241  Q 1359 2241 1098 1978  Q 838 1716 838 1322  z " transform="scale(0.015625)" />
     </defs>
     <use xlink:href="#ArialMT-6e" />
     <use xlink:href="#ArialMT-3d" x="55.615234" />
     <use xlink:href="#ArialMT-34" x="114.013672" />
     <use xlink:href="#ArialMT-38" x="169.628906" />
    </g>
    
    <g style="fill: #444443" transform="translate(26.014732 85.686977)scale(0.09 -0.09)">
     <defs>
      <path id="ArialMT-65" d="M 2694 1069  L 3275 997  Q 3138 488 2766 206  Q 2394 -75 1816 -75  Q 1088 -75 661 373  Q 234 822 234 1631  Q 234 2469 665 2931  Q 1097 3394 1784 3394  Q 2450 3394 2872 2941  Q 3294 2488 3294 1666  Q 3294 1616 3291 1516  L 816 1516  Q 847 969 1125 678  Q 1403 388 1819 388  Q 2128 388 2347 550  Q 2566 713 2694 1069  z M 847 1978  L 2700 1978  Q 2663 2397 2488 2606  Q 2219 2931 1791 2931  Q 1403 2931 1139 2672  Q 875 2413 847 1978  z " transform="scale(0.015625)" />
      <path id="ArialMT-67" d="M 319 -275  L 866 -356  Q 900 -609 1056 -725  Q 1266 -881 1628 -881  Q 2019 -881 2231 -725  Q 2444 -569 2519 -288  Q 2563 -116 2559 434  Q 2191 0 1641 0  Q 956 0 581 494  Q 206 988 206 1678  Q 206 2153 378 2554  Q 550 2956 876 3175  Q 1203 3394 1644 3394  Q 2231 3394 2613 2919  L 2613 3319  L 3131 3319  L 3131 450  Q 3131 -325 2973 -648  Q 2816 -972 2473 -1159  Q 2131 -1347 1631 -1347  Q 1038 -1347 672 -1080  Q 306 -813 319 -275  z M 784 1719  Q 784 1066 1043 766  Q 1303 466 1694 466  Q 2081 466 2343 764  Q 2606 1063 2606 1700  Q 2606 2309 2336 2618  Q 2066 2928 1684 2928  Q 1309 2928 1046 2623  Q 784 2319 784 1719  z " transform="scale(0.015625)" />
     </defs>
     <use xlink:href="#ArialMT-6e" />
     <use xlink:href="#ArialMT-65" x="55.615234" />
     <use xlink:href="#ArialMT-67" x="111.230469" />
    </g>
   </g>
  </g>
 </g>
</svg></g>

<g id="edge5" class="edge">
<title>node5-&gt;leaf7</title>
<path fill="none" stroke="#444443" stroke-width="0.3" d="M244.22,-99.69C249.93,-93.89 259.17,-84.5 268.52,-74.99" />
<polygon fill="#444443" stroke="#444443" stroke-width="0.3" points="269.62,-75.87 271.43,-72.04 267.63,-73.91 269.62,-75.87" />
</g>

<g id="node3" class="node">
<title>node1</title>
<text text-anchor="start" x="226.5" y="-133.4" font-family="Helvetica,sans-Serif" font-size="12.00" fill="#444443">salinity@37.10</text>
</g>

<g id="edge7" class="edge">
<title>node1-&gt;node2</title>
<path fill="none" stroke="#444443" stroke-width="0.3" d="M231.93,-129.97C202.56,-125.27 160.47,-118.53 130.03,-113.66" />
<polygon fill="#444443" stroke="#444443" stroke-width="0.3" points="130.17,-112.27 126,-113.02 129.73,-115.03 130.17,-112.27" />
</g>

<g id="edge8" class="edge">
<title>node1-&gt;node5</title>
<path fill="none" stroke="#444443" stroke-width="0.3" d="M260.83,-129.83C256.89,-125.89 251.55,-120.55 247.08,-116.08" />
<polygon fill="#444443" stroke="#444443" stroke-width="0.3" points="247.98,-115 244.16,-113.16 246,-116.98 247.98,-115" />
</g>

<g id="node6" class="node">
<title>node8</title>
<text text-anchor="start" x="331.5" y="-133.4" font-family="Helvetica,sans-Serif" font-size="12.00" fill="#444443">Soca@3281.31</text>
</g>


<g id="node4" class="node">
<title>node9</title>
<text text-anchor="start" x="319" y="-103.4" font-family="Helvetica,sans-Serif" font-size="12.00" fill="#444443">Dinophysis fortii@0.01</text>
</g>

<g id="node5" class="node">
<title>node12</title>
<text text-anchor="start" x="454" y="-103.4" font-family="Helvetica,sans-Serif" font-size="12.00" fill="#444443">wind strength@2.55</text>
</g>


<g id="node12" class="node">
<title>leaf10</title>
<polygon fill="none" stroke="#444443" stroke-width="0" points="387,-69.5 346,-69.5 346,-13.5 387,-13.5 387,-69.5" />
<svg width="33px" height="48px" viewBox="0 0 44.091993 63.711116" version="1.1" preserveAspectRatio="xMinYMin meet" x="350.5" y="-65.5">
 <metadata>
  <rdf:RDF>
   <ns2:Work>
    <dc:type rdf:resource="http://purl.org/dc/dcmitype/StillImage" />
    <dc:date>2023-05-11T00:47:42.352939</dc:date>
    <dc:format>image/svg+xml</dc:format>
    <dc:creator>
     <ns2:Agent>
      <dc:title>Matplotlib v3.5.2, https://matplotlib.org/</dc:title>
     </ns2:Agent>
    </dc:creator>
   </ns2:Work>
  </rdf:RDF>
 </metadata>
 <defs>
  <style type="text/css">*{stroke-linejoin: round; stroke-linecap: butt}</style>
 </defs>
 <g id="figure_1">
  <g id="patch_1">
   <path d="M 0 63.711116  L 44.091993 63.711116  L 44.091993 -0  L 0 -0  z " style="fill: #ffffff" />
  </g>
  <g id="axes_1">
   <g id="patch_2">
    <path d="M 44.091993 22.045998  C 44.091993 19.289619 43.575054 16.557531 42.568036 13.99169  C 41.561018 11.425849 40.081669 9.071479 38.206855 7.05091  C 36.332041 5.030341 34.094806 3.379186 31.611394 2.183238  C 29.127983 0.98729 26.442165 0.267628 23.693493 0.061643  C 20.944821 -0.144341 18.181742 0.166983 15.547821 0.97944  C 12.9139 1.791897 10.455561 3.091167 8.300537 4.809741  C 6.145513 6.528315 4.331787 8.635904 2.953597 11.022998  C 1.575408 13.410092 0.657046 16.03462 0.246229 18.760212  C -0.164588 21.485805 -0.060619 24.264424 0.552733 26.951695  C 1.166085 29.638966 2.27801 32.187525 3.830734 34.464952  C 5.383457 36.742379 7.349612 38.708535 9.62704 40.261258  C 11.904467 41.813982 14.453026 42.925907 17.140297 43.539259  C 19.827568 44.152611 22.606187 44.256579 25.33178 43.845762  C 28.057372 43.434945 30.6819 42.516583 33.068994 41.138394  C 35.456088 39.760204 37.563676 37.946478 39.282251 35.791454  C 41.000825 33.63643 42.300095 31.178091 43.112552 28.54417  L 22.045993 22.045998  L 44.091993 22.045998  z " style="fill: #fefebb; stroke: #444443; stroke-width: 0.5; stroke-linejoin: miter" />
   </g>
   <g id="patch_3">
    <path d="M 43.112552 28.54417  C 43.436744 27.493164 43.681831 26.419369 43.845758 25.331783  C 44.009685 24.244198 44.091993 23.145868 44.091993 22.045998  L 22.045993 22.045998  L 43.112552 28.54417  z " style="fill: #a1dab4; stroke: #444443; stroke-width: 0.5; stroke-linejoin: miter" />
   </g>
   <g id="text_1">
    
    <g style="fill: #444443" transform="translate(11.910447 52.297709)scale(0.09 -0.09)">
     <defs>
      <path id="ArialMT-6e" d="M 422 0  L 422 3319  L 928 3319  L 928 2847  Q 1294 3394 1984 3394  Q 2284 3394 2536 3286  Q 2788 3178 2913 3003  Q 3038 2828 3088 2588  Q 3119 2431 3119 2041  L 3119 0  L 2556 0  L 2556 2019  Q 2556 2363 2490 2533  Q 2425 2703 2258 2804  Q 2091 2906 1866 2906  Q 1506 2906 1245 2678  Q 984 2450 984 1813  L 984 0  L 422 0  z " transform="scale(0.015625)" />
      <path id="ArialMT-3d" d="M 3381 2694  L 356 2694  L 356 3219  L 3381 3219  L 3381 2694  z M 3381 1303  L 356 1303  L 356 1828  L 3381 1828  L 3381 1303  z " transform="scale(0.015625)" />
      <path id="ArialMT-32" d="M 3222 541  L 3222 0  L 194 0  Q 188 203 259 391  Q 375 700 629 1000  Q 884 1300 1366 1694  Q 2113 2306 2375 2664  Q 2638 3022 2638 3341  Q 2638 3675 2398 3904  Q 2159 4134 1775 4134  Q 1369 4134 1125 3890  Q 881 3647 878 3216  L 300 3275  Q 359 3922 746 4261  Q 1134 4600 1788 4600  Q 2447 4600 2831 4234  Q 3216 3869 3216 3328  Q 3216 3053 3103 2787  Q 2991 2522 2730 2228  Q 2469 1934 1863 1422  Q 1356 997 1212 845  Q 1069 694 975 541  L 3222 541  z " transform="scale(0.015625)" />
      <path id="ArialMT-39" d="M 350 1059  L 891 1109  Q 959 728 1153 556  Q 1347 384 1650 384  Q 1909 384 2104 503  Q 2300 622 2425 820  Q 2550 1019 2634 1356  Q 2719 1694 2719 2044  Q 2719 2081 2716 2156  Q 2547 1888 2255 1720  Q 1963 1553 1622 1553  Q 1053 1553 659 1965  Q 266 2378 266 3053  Q 266 3750 677 4175  Q 1088 4600 1706 4600  Q 2153 4600 2523 4359  Q 2894 4119 3086 3673  Q 3278 3228 3278 2384  Q 3278 1506 3087 986  Q 2897 466 2520 194  Q 2144 -78 1638 -78  Q 1100 -78 759 220  Q 419 519 350 1059  z M 2653 3081  Q 2653 3566 2395 3850  Q 2138 4134 1775 4134  Q 1400 4134 1122 3828  Q 844 3522 844 3034  Q 844 2597 1108 2323  Q 1372 2050 1759 2050  Q 2150 2050 2401 2323  Q 2653 2597 2653 3081  z " transform="scale(0.015625)" />
     </defs>
     <use xlink:href="#ArialMT-6e" />
     <use xlink:href="#ArialMT-3d" x="55.615234" />
     <use xlink:href="#ArialMT-32" x="114.013672" />
     <use xlink:href="#ArialMT-39" x="169.628906" />
    </g>
    
    <g style="fill: #444443" transform="translate(14.538728 61.816897)scale(0.09 -0.09)">
     <defs>
      <path id="ArialMT-65" d="M 2694 1069  L 3275 997  Q 3138 488 2766 206  Q 2394 -75 1816 -75  Q 1088 -75 661 373  Q 234 822 234 1631  Q 234 2469 665 2931  Q 1097 3394 1784 3394  Q 2450 3394 2872 2941  Q 3294 2488 3294 1666  Q 3294 1616 3291 1516  L 816 1516  Q 847 969 1125 678  Q 1403 388 1819 388  Q 2128 388 2347 550  Q 2566 713 2694 1069  z M 847 1978  L 2700 1978  Q 2663 2397 2488 2606  Q 2219 2931 1791 2931  Q 1403 2931 1139 2672  Q 875 2413 847 1978  z " transform="scale(0.015625)" />
      <path id="ArialMT-67" d="M 319 -275  L 866 -356  Q 900 -609 1056 -725  Q 1266 -881 1628 -881  Q 2019 -881 2231 -725  Q 2444 -569 2519 -288  Q 2563 -116 2559 434  Q 2191 0 1641 0  Q 956 0 581 494  Q 206 988 206 1678  Q 206 2153 378 2554  Q 550 2956 876 3175  Q 1203 3394 1644 3394  Q 2231 3394 2613 2919  L 2613 3319  L 3131 3319  L 3131 450  Q 3131 -325 2973 -648  Q 2816 -972 2473 -1159  Q 2131 -1347 1631 -1347  Q 1038 -1347 672 -1080  Q 306 -813 319 -275  z M 784 1719  Q 784 1066 1043 766  Q 1303 466 1694 466  Q 2081 466 2343 764  Q 2606 1063 2606 1700  Q 2606 2309 2336 2618  Q 2066 2928 1684 2928  Q 1309 2928 1046 2623  Q 784 2319 784 1719  z " transform="scale(0.015625)" />
     </defs>
     <use xlink:href="#ArialMT-6e" />
     <use xlink:href="#ArialMT-65" x="55.615234" />
     <use xlink:href="#ArialMT-67" x="111.230469" />
    </g>
   </g>
  </g>
 </g>
</svg></g>

<g id="edge10" class="edge">
<title>node9-&gt;leaf10</title>
<path fill="none" stroke="#444443" stroke-width="0.3" d="M378.3,-99.69C377.05,-93.61 374.98,-83.58 372.92,-73.61" />
<polygon fill="#444443" stroke="#444443" stroke-width="0.3" points="374.28,-73.29 372.1,-69.65 371.54,-73.85 374.28,-73.29" />
</g>

<g id="node13" class="node">
<title>leaf11</title>
<polygon fill="none" stroke="#444443" stroke-width="0" points="456.5,-77 400.5,-77 400.5,-6 456.5,-6 456.5,-77" />
<svg width="48px" height="63px" viewBox="0 0 64.627954 84.962889" version="1.1" preserveAspectRatio="xMinYMin meet" x="404.5" y="-72.5">
 <metadata>
  <rdf:RDF>
   <ns2:Work>
    <dc:type rdf:resource="http://purl.org/dc/dcmitype/StillImage" />
    <dc:date>2023-05-11T00:47:42.395387</dc:date>
    <dc:format>image/svg+xml</dc:format>
    <dc:creator>
     <ns2:Agent>
      <dc:title>Matplotlib v3.5.2, https://matplotlib.org/</dc:title>
     </ns2:Agent>
    </dc:creator>
   </ns2:Work>
  </rdf:RDF>
 </metadata>
 <defs>
  <style type="text/css">*{stroke-linejoin: round; stroke-linecap: butt}</style>
 </defs>
 <g id="figure_1">
  <g id="patch_1">
   <path d="M 0 84.962889  L 64.627954 84.962889  L 64.627954 0  L 0 0  z " style="fill: #ffffff" />
  </g>
  <g id="axes_1">
   <g id="patch_2">
    <path d="M 64.627954 32.3138  C 64.627954 25.666954 62.577113 19.179253 58.75659 13.74012  C 54.936066 8.300987 49.528809 4.170881 43.276119 1.916012  C 37.023429 -0.338857 30.224723 -0.610511 23.812059 1.138291  C 17.399395 2.887093 11.679851 6.572608 7.437539 11.689576  L 32.313954 32.3138  L 64.627954 32.3138  z " style="fill: #fefebb; stroke: #444443; stroke-width: 0.5; stroke-linejoin: miter" />
   </g>
   <g id="patch_3">
    <path d="M 7.437539 11.689576  C 4.127303 15.682299 1.826471 20.413904 0.730141 25.48318  C -0.36619 30.552456 -0.22613 35.811952 1.138444 40.815694  C 2.503018 45.819436 5.052414 50.42188 8.570459 54.232766  C 12.088505 58.043653 16.47287 60.952134 21.351785 62.711587  C 26.230701 64.471041 31.462255 65.03029 36.602842 64.341913  C 41.743429 63.653537 46.643525 61.737557 50.88763 58.756439  C 55.131735 55.775321 58.596402 51.815775 60.987846 47.213548  C 63.37929 42.611322 64.627953 37.500279 64.627954 32.313806  L 32.313954 32.3138  L 7.437539 11.689576  z " style="fill: #a1dab4; stroke: #444443; stroke-width: 0.5; stroke-linejoin: miter" />
   </g>
   <g id="text_1">
    
    <g style="fill: #444443" transform="translate(22.178407 73.654952)scale(0.09 -0.09)">
     <defs>
      <path id="ArialMT-6e" d="M 422 0  L 422 3319  L 928 3319  L 928 2847  Q 1294 3394 1984 3394  Q 2284 3394 2536 3286  Q 2788 3178 2913 3003  Q 3038 2828 3088 2588  Q 3119 2431 3119 2041  L 3119 0  L 2556 0  L 2556 2019  Q 2556 2363 2490 2533  Q 2425 2703 2258 2804  Q 2091 2906 1866 2906  Q 1506 2906 1245 2678  Q 984 2450 984 1813  L 984 0  L 422 0  z " transform="scale(0.015625)" />
      <path id="ArialMT-3d" d="M 3381 2694  L 356 2694  L 356 3219  L 3381 3219  L 3381 2694  z M 3381 1303  L 356 1303  L 356 1828  L 3381 1828  L 3381 1303  z " transform="scale(0.015625)" />
      <path id="ArialMT-34" d="M 2069 0  L 2069 1097  L 81 1097  L 81 1613  L 2172 4581  L 2631 4581  L 2631 1613  L 3250 1613  L 3250 1097  L 2631 1097  L 2631 0  L 2069 0  z M 2069 1613  L 2069 3678  L 634 1613  L 2069 1613  z " transform="scale(0.015625)" />
      <path id="ArialMT-36" d="M 3184 3459  L 2625 3416  Q 2550 3747 2413 3897  Q 2184 4138 1850 4138  Q 1581 4138 1378 3988  Q 1113 3794 959 3422  Q 806 3050 800 2363  Q 1003 2672 1297 2822  Q 1591 2972 1913 2972  Q 2475 2972 2870 2558  Q 3266 2144 3266 1488  Q 3266 1056 3080 686  Q 2894 316 2569 119  Q 2244 -78 1831 -78  Q 1128 -78 684 439  Q 241 956 241 2144  Q 241 3472 731 4075  Q 1159 4600 1884 4600  Q 2425 4600 2770 4297  Q 3116 3994 3184 3459  z M 888 1484  Q 888 1194 1011 928  Q 1134 663 1356 523  Q 1578 384 1822 384  Q 2178 384 2434 671  Q 2691 959 2691 1453  Q 2691 1928 2437 2201  Q 2184 2475 1800 2475  Q 1419 2475 1153 2201  Q 888 1928 888 1484  z " transform="scale(0.015625)" />
     </defs>
     <use xlink:href="#ArialMT-6e" />
     <use xlink:href="#ArialMT-3d" x="55.615234" />
     <use xlink:href="#ArialMT-34" x="114.013672" />
     <use xlink:href="#ArialMT-36" x="169.628906" />
    </g>
    
    <g style="fill: #444443" transform="translate(25.05911 83.174139)scale(0.09 -0.09)">
     <defs>
      <path id="ArialMT-70" d="M 422 -1272  L 422 3319  L 934 3319  L 934 2888  Q 1116 3141 1344 3267  Q 1572 3394 1897 3394  Q 2322 3394 2647 3175  Q 2972 2956 3137 2557  Q 3303 2159 3303 1684  Q 3303 1175 3120 767  Q 2938 359 2589 142  Q 2241 -75 1856 -75  Q 1575 -75 1351 44  Q 1128 163 984 344  L 984 -1272  L 422 -1272  z M 931 1641  Q 931 1000 1190 694  Q 1450 388 1819 388  Q 2194 388 2461 705  Q 2728 1022 2728 1688  Q 2728 2322 2467 2637  Q 2206 2953 1844 2953  Q 1484 2953 1207 2617  Q 931 2281 931 1641  z " transform="scale(0.015625)" />
      <path id="ArialMT-6f" d="M 213 1659  Q 213 2581 725 3025  Q 1153 3394 1769 3394  Q 2453 3394 2887 2945  Q 3322 2497 3322 1706  Q 3322 1066 3130 698  Q 2938 331 2570 128  Q 2203 -75 1769 -75  Q 1072 -75 642 372  Q 213 819 213 1659  z M 791 1659  Q 791 1022 1069 705  Q 1347 388 1769 388  Q 2188 388 2466 706  Q 2744 1025 2744 1678  Q 2744 2294 2464 2611  Q 2184 2928 1769 2928  Q 1347 2928 1069 2612  Q 791 2297 791 1659  z " transform="scale(0.015625)" />
      <path id="ArialMT-7a" d="M 125 0  L 125 456  L 2238 2881  Q 1878 2863 1603 2863  L 250 2863  L 250 3319  L 2963 3319  L 2963 2947  L 1166 841  L 819 456  Q 1197 484 1528 484  L 3063 484  L 3063 0  L 125 0  z " transform="scale(0.015625)" />
     </defs>
     <use xlink:href="#ArialMT-70" />
     <use xlink:href="#ArialMT-6f" x="55.615234" />
     <use xlink:href="#ArialMT-7a" x="111.230469" />
    </g>
   </g>
  </g>
 </g>
</svg></g>

<g id="edge11" class="edge">
<title>node9-&gt;leaf11</title>
<path fill="none" stroke="#444443" stroke-width="0.3" d="M384.02,-99.69C387.67,-94.99 393.15,-87.95 399.02,-80.4" />
<polygon fill="#444443" stroke="#444443" stroke-width="0.3" points="400.21,-81.15 401.56,-77.13 398,-79.43 400.21,-81.15" />
</g>

<g id="node14" class="node">
<title>leaf13</title>
<polygon fill="none" stroke="#444443" stroke-width="0" points="497.5,-59 475.5,-59 475.5,-24 497.5,-24 497.5,-59" />
<svg width="14px" height="27px" viewBox="0 0 18.724 37.328397" version="1.1" preserveAspectRatio="xMinYMin meet" x="479.5" y="-54.5">
 <metadata>
  <rdf:RDF>
   <ns2:Work>
    <dc:type rdf:resource="http://purl.org/dc/dcmitype/StillImage" />
    <dc:date>2023-05-11T00:47:42.440414</dc:date>
    <dc:format>image/svg+xml</dc:format>
    <dc:creator>
     <ns2:Agent>
      <dc:title>Matplotlib v3.5.2, https://matplotlib.org/</dc:title>
     </ns2:Agent>
    </dc:creator>
   </ns2:Work>
  </rdf:RDF>
 </metadata>
 <defs>
  <style type="text/css">*{stroke-linejoin: round; stroke-linecap: butt}</style>
 </defs>
 <g id="figure_1">
  <g id="patch_1">
   <path d="M 0 37.328397  L 18.724 37.328397  L 18.724 0  L 0 0  z " style="fill: #ffffff" />
  </g>
  <g id="axes_1">
   <g id="patch_2">
    <path d="M 18.724 9.362  C 18.724 8.132593 18.481834 6.915141 18.01136 5.779318  C 17.540887 4.643494 16.851255 3.611388 15.981934 2.742066  C 15.112612 1.872745 14.080506 1.183113 12.944682 0.71264  C 11.808859 0.242166 10.591407 0 9.362 0  C 8.132593 0 6.915141 0.242166 5.779318 0.71264  C 4.643494 1.183113 3.611388 1.872745 2.742066 2.742066  C 1.872745 3.611388 1.183113 4.643494 0.71264 5.779318  C 0.242166 6.915141 0 8.132593 0 9.362  C 0 10.591407 0.242166 11.808859 0.71264 12.944682  C 1.183113 14.080506 1.872745 15.112612 2.742066 15.981934  C 3.611388 16.851255 4.643494 17.540887 5.779318 18.01136  C 6.915141 18.481834 8.132593 18.724 9.362 18.724  C 10.591407 18.724 11.808859 18.481834 12.944682 18.01136  C 14.080506 17.540887 15.112612 16.851255 15.981934 15.981934  C 16.851255 15.112612 17.540887 14.080506 18.01136 12.944682  C 18.481834 11.808859 18.724 10.591407 18.724 9.362  M 9.362 9.362  M 18.724 9.362  z " style="fill: #fefebb; stroke: #444443; stroke-width: 0.5; stroke-linejoin: miter" />
   </g>
   <g id="text_1">
    
    <g style="fill: #444443" transform="translate(1.728875 25.914991)scale(0.09 -0.09)">
     <defs>
      <path id="ArialMT-6e" d="M 422 0  L 422 3319  L 928 3319  L 928 2847  Q 1294 3394 1984 3394  Q 2284 3394 2536 3286  Q 2788 3178 2913 3003  Q 3038 2828 3088 2588  Q 3119 2431 3119 2041  L 3119 0  L 2556 0  L 2556 2019  Q 2556 2363 2490 2533  Q 2425 2703 2258 2804  Q 2091 2906 1866 2906  Q 1506 2906 1245 2678  Q 984 2450 984 1813  L 984 0  L 422 0  z " transform="scale(0.015625)" />
      <path id="ArialMT-3d" d="M 3381 2694  L 356 2694  L 356 3219  L 3381 3219  L 3381 2694  z M 3381 1303  L 356 1303  L 356 1828  L 3381 1828  L 3381 1303  z " transform="scale(0.015625)" />
      <path id="ArialMT-38" d="M 1131 2484  Q 781 2613 612 2850  Q 444 3088 444 3419  Q 444 3919 803 4259  Q 1163 4600 1759 4600  Q 2359 4600 2725 4251  Q 3091 3903 3091 3403  Q 3091 3084 2923 2848  Q 2756 2613 2416 2484  Q 2838 2347 3058 2040  Q 3278 1734 3278 1309  Q 3278 722 2862 322  Q 2447 -78 1769 -78  Q 1091 -78 675 323  Q 259 725 259 1325  Q 259 1772 486 2073  Q 713 2375 1131 2484  z M 1019 3438  Q 1019 3113 1228 2906  Q 1438 2700 1772 2700  Q 2097 2700 2305 2904  Q 2513 3109 2513 3406  Q 2513 3716 2298 3927  Q 2084 4138 1766 4138  Q 1444 4138 1231 3931  Q 1019 3725 1019 3438  z M 838 1322  Q 838 1081 952 856  Q 1066 631 1291 507  Q 1516 384 1775 384  Q 2178 384 2440 643  Q 2703 903 2703 1303  Q 2703 1709 2433 1975  Q 2163 2241 1756 2241  Q 1359 2241 1098 1978  Q 838 1716 838 1322  z " transform="scale(0.015625)" />
     </defs>
     <use xlink:href="#ArialMT-6e" />
     <use xlink:href="#ArialMT-3d" x="55.615234" />
     <use xlink:href="#ArialMT-38" x="114.013672" />
    </g>
    
    <g style="fill: #444443" transform="translate(1.854734 35.434179)scale(0.09 -0.09)">
     <defs>
      <path id="ArialMT-65" d="M 2694 1069  L 3275 997  Q 3138 488 2766 206  Q 2394 -75 1816 -75  Q 1088 -75 661 373  Q 234 822 234 1631  Q 234 2469 665 2931  Q 1097 3394 1784 3394  Q 2450 3394 2872 2941  Q 3294 2488 3294 1666  Q 3294 1616 3291 1516  L 816 1516  Q 847 969 1125 678  Q 1403 388 1819 388  Q 2128 388 2347 550  Q 2566 713 2694 1069  z M 847 1978  L 2700 1978  Q 2663 2397 2488 2606  Q 2219 2931 1791 2931  Q 1403 2931 1139 2672  Q 875 2413 847 1978  z " transform="scale(0.015625)" />
      <path id="ArialMT-67" d="M 319 -275  L 866 -356  Q 900 -609 1056 -725  Q 1266 -881 1628 -881  Q 2019 -881 2231 -725  Q 2444 -569 2519 -288  Q 2563 -116 2559 434  Q 2191 0 1641 0  Q 956 0 581 494  Q 206 988 206 1678  Q 206 2153 378 2554  Q 550 2956 876 3175  Q 1203 3394 1644 3394  Q 2231 3394 2613 2919  L 2613 3319  L 3131 3319  L 3131 450  Q 3131 -325 2973 -648  Q 2816 -972 2473 -1159  Q 2131 -1347 1631 -1347  Q 1038 -1347 672 -1080  Q 306 -813 319 -275  z M 784 1719  Q 784 1066 1043 766  Q 1303 466 1694 466  Q 2081 466 2343 764  Q 2606 1063 2606 1700  Q 2606 2309 2336 2618  Q 2066 2928 1684 2928  Q 1309 2928 1046 2623  Q 784 2319 784 1719  z " transform="scale(0.015625)" />
     </defs>
     <use xlink:href="#ArialMT-6e" />
     <use xlink:href="#ArialMT-65" x="55.615234" />
     <use xlink:href="#ArialMT-67" x="111.230469" />
    </g>
   </g>
  </g>
 </g>
</svg></g>

<g id="edge13" class="edge">
<title>node12-&gt;leaf13</title>
<path fill="none" stroke="#444443" stroke-width="0.3" d="M505.56,-99.69C502.8,-91.4 497.6,-75.79 493.32,-62.97" />
<polygon fill="#444443" stroke="#444443" stroke-width="0.3" points="494.62,-62.45 492.03,-59.09 491.97,-63.33 494.62,-62.45" />
</g>

<g id="node15" class="node">
<title>leaf14</title>
<polygon fill="none" stroke="#444443" stroke-width="0" points="558,-72.5 511,-72.5 511,-10.5 558,-10.5 558,-72.5" />
<svg width="39px" height="54px" viewBox="0 0 52.547992 72.399887" version="1.1" preserveAspectRatio="xMinYMin meet" x="515.5" y="-68.5">
 <metadata>
  <rdf:RDF>
   <ns2:Work>
    <dc:type rdf:resource="http://purl.org/dc/dcmitype/StillImage" />
    <dc:date>2023-05-11T00:47:42.489774</dc:date>
    <dc:format>image/svg+xml</dc:format>
    <dc:creator>
     <ns2:Agent>
      <dc:title>Matplotlib v3.5.2, https://matplotlib.org/</dc:title>
     </ns2:Agent>
    </dc:creator>
   </ns2:Work>
  </rdf:RDF>
 </metadata>
 <defs>
  <style type="text/css">*{stroke-linejoin: round; stroke-linecap: butt}</style>
 </defs>
 <g id="figure_1">
  <g id="patch_1">
   <path d="M 0 72.399887  L 52.547992 72.399887  L 52.547992 0  L 0 0  z " style="fill: #ffffff" />
  </g>
  <g id="axes_1">
   <g id="patch_2">
    <path d="M 52.547992 26.273999  C 52.547992 24.485823 52.365441 22.70231 52.003179 20.951214  C 51.640917 19.200118 51.100833 17.49057 50.391333 15.849174  L 26.273992 26.273999  L 52.547992 26.273999  z " style="fill: #fefebb; stroke: #444443; stroke-width: 0.5; stroke-linejoin: miter" />
   </g>
   <g id="patch_3">
    <path d="M 50.391333 15.849174  C 49.111764 12.888951 47.298043 10.189454 45.041047 7.885939  C 42.78405 5.582423 40.122112 3.714015 37.188607 2.374328  C 34.255101 1.034641 31.099854 0.246429 27.880954 0.049187  C 24.662055 -0.148056 21.434178 0.249021 18.359051 1.22052  C 15.283924 2.19202 12.413779 3.721443 9.892422 5.732158  C 7.371065 7.742873 5.241321 10.200728 3.609898 12.982576  C 1.978476 15.764424 0.873085 18.823014 0.349109 22.005099  C -0.174866 25.187184 -0.108526 28.438717 0.544806 31.596782  C 1.198137 34.754847 2.427364 37.765804 4.170896 40.478794  C 5.914428 43.191783 8.142652 45.560724 10.743925 47.466924  C 13.345198 49.373123 16.275337 50.784204 19.38753 51.629466  C 22.499724 52.474727 25.741112 52.739813 28.949287 52.411441  C 32.157462 52.083068 35.277934 51.166815 38.154354 49.70859  C 41.030775 48.250365 43.614288 46.274935 45.77545 43.881277  C 47.936611 41.487619 49.638714 38.71639 50.796475 35.706439  C 51.954236 32.696488 52.547992 29.498939 52.547992 26.274002  L 26.273992 26.273999  L 50.391333 15.849174  z " style="fill: #a1dab4; stroke: #444443; stroke-width: 0.5; stroke-linejoin: miter" />
   </g>
   <g id="text_1">
    
    <g style="fill: #444443" transform="translate(16.138446 61.09195)scale(0.09 -0.09)">
     <defs>
      <path id="ArialMT-6e" d="M 422 0  L 422 3319  L 928 3319  L 928 2847  Q 1294 3394 1984 3394  Q 2284 3394 2536 3286  Q 2788 3178 2913 3003  Q 3038 2828 3088 2588  Q 3119 2431 3119 2041  L 3119 0  L 2556 0  L 2556 2019  Q 2556 2363 2490 2533  Q 2425 2703 2258 2804  Q 2091 2906 1866 2906  Q 1506 2906 1245 2678  Q 984 2450 984 1813  L 984 0  L 422 0  z " transform="scale(0.015625)" />
      <path id="ArialMT-3d" d="M 3381 2694  L 356 2694  L 356 3219  L 3381 3219  L 3381 2694  z M 3381 1303  L 356 1303  L 356 1828  L 3381 1828  L 3381 1303  z " transform="scale(0.015625)" />
      <path id="ArialMT-33" d="M 269 1209  L 831 1284  Q 928 806 1161 595  Q 1394 384 1728 384  Q 2125 384 2398 659  Q 2672 934 2672 1341  Q 2672 1728 2419 1979  Q 2166 2231 1775 2231  Q 1616 2231 1378 2169  L 1441 2663  Q 1497 2656 1531 2656  Q 1891 2656 2178 2843  Q 2466 3031 2466 3422  Q 2466 3731 2256 3934  Q 2047 4138 1716 4138  Q 1388 4138 1169 3931  Q 950 3725 888 3313  L 325 3413  Q 428 3978 793 4289  Q 1159 4600 1703 4600  Q 2078 4600 2393 4439  Q 2709 4278 2876 4000  Q 3044 3722 3044 3409  Q 3044 3113 2884 2869  Q 2725 2625 2413 2481  Q 2819 2388 3044 2092  Q 3269 1797 3269 1353  Q 3269 753 2831 336  Q 2394 -81 1725 -81  Q 1122 -81 723 278  Q 325 638 269 1209  z " transform="scale(0.015625)" />
      <path id="ArialMT-36" d="M 3184 3459  L 2625 3416  Q 2550 3747 2413 3897  Q 2184 4138 1850 4138  Q 1581 4138 1378 3988  Q 1113 3794 959 3422  Q 806 3050 800 2363  Q 1003 2672 1297 2822  Q 1591 2972 1913 2972  Q 2475 2972 2870 2558  Q 3266 2144 3266 1488  Q 3266 1056 3080 686  Q 2894 316 2569 119  Q 2244 -78 1831 -78  Q 1128 -78 684 439  Q 241 956 241 2144  Q 241 3472 731 4075  Q 1159 4600 1884 4600  Q 2425 4600 2770 4297  Q 3116 3994 3184 3459  z M 888 1484  Q 888 1194 1011 928  Q 1134 663 1356 523  Q 1578 384 1822 384  Q 2178 384 2434 671  Q 2691 959 2691 1453  Q 2691 1928 2437 2201  Q 2184 2475 1800 2475  Q 1419 2475 1153 2201  Q 888 1928 888 1484  z " transform="scale(0.015625)" />
     </defs>
     <use xlink:href="#ArialMT-6e" />
     <use xlink:href="#ArialMT-3d" x="55.615234" />
     <use xlink:href="#ArialMT-33" x="114.013672" />
     <use xlink:href="#ArialMT-36" x="169.628906" />
    </g>
    
    <g style="fill: #444443" transform="translate(19.019149 70.611137)scale(0.09 -0.09)">
     <defs>
      <path id="ArialMT-70" d="M 422 -1272  L 422 3319  L 934 3319  L 934 2888  Q 1116 3141 1344 3267  Q 1572 3394 1897 3394  Q 2322 3394 2647 3175  Q 2972 2956 3137 2557  Q 3303 2159 3303 1684  Q 3303 1175 3120 767  Q 2938 359 2589 142  Q 2241 -75 1856 -75  Q 1575 -75 1351 44  Q 1128 163 984 344  L 984 -1272  L 422 -1272  z M 931 1641  Q 931 1000 1190 694  Q 1450 388 1819 388  Q 2194 388 2461 705  Q 2728 1022 2728 1688  Q 2728 2322 2467 2637  Q 2206 2953 1844 2953  Q 1484 2953 1207 2617  Q 931 2281 931 1641  z " transform="scale(0.015625)" />
      <path id="ArialMT-6f" d="M 213 1659  Q 213 2581 725 3025  Q 1153 3394 1769 3394  Q 2453 3394 2887 2945  Q 3322 2497 3322 1706  Q 3322 1066 3130 698  Q 2938 331 2570 128  Q 2203 -75 1769 -75  Q 1072 -75 642 372  Q 213 819 213 1659  z M 791 1659  Q 791 1022 1069 705  Q 1347 388 1769 388  Q 2188 388 2466 706  Q 2744 1025 2744 1678  Q 2744 2294 2464 2611  Q 2184 2928 1769 2928  Q 1347 2928 1069 2612  Q 791 2297 791 1659  z " transform="scale(0.015625)" />
      <path id="ArialMT-7a" d="M 125 0  L 125 456  L 2238 2881  Q 1878 2863 1603 2863  L 250 2863  L 250 3319  L 2963 3319  L 2963 2947  L 1166 841  L 819 456  Q 1197 484 1528 484  L 3063 484  L 3063 0  L 125 0  z " transform="scale(0.015625)" />
     </defs>
     <use xlink:href="#ArialMT-70" />
     <use xlink:href="#ArialMT-6f" x="55.615234" />
     <use xlink:href="#ArialMT-7a" x="111.230469" />
    </g>
   </g>
  </g>
 </g>
</svg></g>

<g id="edge14" class="edge">
<title>node12-&gt;leaf14</title>
<path fill="none" stroke="#444443" stroke-width="0.3" d="M509.99,-99.69C512.34,-94.2 516.08,-85.48 519.93,-76.5" />
<polygon fill="#444443" stroke="#444443" stroke-width="0.3" points="521.29,-76.87 521.58,-72.64 518.72,-75.76 521.29,-76.87" />
</g>

<g id="edge16" class="edge">
<title>node8-&gt;node9</title>
<path fill="none" stroke="#444443" stroke-width="0.3" d="M374.71,-129.83C375.49,-126.19 376.53,-121.36 377.44,-117.13" />
<polygon fill="#444443" stroke="#444443" stroke-width="0.3" points="378.82,-117.36 378.29,-113.16 376.08,-116.78 378.82,-117.36" />
</g>

<g id="edge17" class="edge">
<title>node8-&gt;node12</title>
<path fill="none" stroke="#444443" stroke-width="0.3" d="M399.97,-129.97C422.18,-125.33 453.9,-118.7 477.14,-113.84" />
<polygon fill="#444443" stroke="#444443" stroke-width="0.3" points="477.45,-115.21 481.08,-113.02 476.88,-112.47 477.45,-115.21" />
</g>

<g id="node7" class="node">
<title>node0</title>
<text text-anchor="start" x="277" y="-192.9" font-family="Helvetica,sans-Serif" font-size="12.00" fill="#444443">DSP@101.30</text>
</g>

<g id="edge19" class="edge">
<title>node0-&gt;node1</title>
<path fill="none" stroke="#444443" stroke-width="0.3" d="M309.72,-189.28C301.31,-179.2 283.81,-158.24 273.85,-146.31" />
<polygon fill="#444443" stroke="#444443" stroke-width="0.3" points="274.9,-145.37 271.26,-143.2 272.75,-147.17 274.9,-145.37" />
<text text-anchor="start" x="289.5" y="-154.8" font-family="Times,serif" font-size="14.00">&#8804;</text>
</g>

<g id="edge20" class="edge">
<title>node0-&gt;node8</title>
<path fill="none" stroke="#444443" stroke-width="0.3" d="M320.37,-189.28C330.8,-179.12 352.59,-157.88 364.77,-146.01" />
<polygon fill="#444443" stroke="#444443" stroke-width="0.3" points="365.76,-146.99 367.65,-143.2 363.81,-144.99 365.76,-146.99" />
<text text-anchor="start" x="358.5" y="-154.8" font-family="Times,serif" font-size="14.00">&gt;</text>
</g>





<g id="node16" class="node">
<title>legend</title>
<polygon fill="none" stroke="black" stroke-width="0" points="405.5,-218 359.5,-218 359.5,-174 405.5,-174 405.5,-218" />
<svg width="42px" height="40px" viewBox="0 0 56.182812 54.36" version="1.1" preserveAspectRatio="xMinYMin meet" x="361.5" y="-216">
 <metadata>
  <rdf:RDF>
   <ns2:Work>
    <dc:type rdf:resource="http://purl.org/dc/dcmitype/StillImage" />
    <dc:date>2023-05-11T00:47:42.001513</dc:date>
    <dc:format>image/svg+xml</dc:format>
    <dc:creator>
     <ns2:Agent>
      <dc:title>Matplotlib v3.5.2, https://matplotlib.org/</dc:title>
     </ns2:Agent>
    </dc:creator>
   </ns2:Work>
  </rdf:RDF>
 </metadata>
 <defs>
  <style type="text/css">*{stroke-linejoin: round; stroke-linecap: butt}</style>
 </defs>
 <g id="figure_1">
  <g id="patch_1">
   <path d="M 0 54.36  L 56.182812 54.36  L 56.182812 0  L 0 0  z " style="fill: #ffffff" />
  </g>
  <g id="axes_1">
   <g id="legend_1">
    <g id="patch_2">
     <path d="M 2 54.015156  L 54.182812 54.015156  Q 56.182812 54.015156 56.182812 52.015156  L 56.182812 2.344844  Q 56.182812 0.344844 54.182812 0.344844  L 2 0.344844  Q 0 0.344844 0 2.344844  L 0 52.015156  Q 0 54.015156 2 54.015156  z " style="fill: #ffffff; opacity: 0.8; stroke: #444443; stroke-width: 0.5; stroke-linejoin: miter" />
    </g>
    <g id="text_1">
     
     <g style="fill: #444443" transform="translate(14.200781 15.502656)scale(0.1 -0.1)">
      <defs>
       <path id="Arial-BoldMT-74" d="M 1981 3319  L 1981 2619  L 1381 2619  L 1381 1281  Q 1381 875 1398 808  Q 1416 741 1477 697  Q 1538 653 1625 653  Q 1747 653 1978 738  L 2053 56  Q 1747 -75 1359 -75  Q 1122 -75 931 4  Q 741 84 652 211  Q 563 338 528 553  Q 500 706 500 1172  L 500 2619  L 97 2619  L 97 3319  L 500 3319  L 500 3978  L 1381 4491  L 1381 3319  L 1981 3319  z " transform="scale(0.015625)" />
       <path id="Arial-BoldMT-61" d="M 1116 2306  L 319 2450  Q 453 2931 781 3162  Q 1109 3394 1756 3394  Q 2344 3394 2631 3255  Q 2919 3116 3036 2902  Q 3153 2688 3153 2116  L 3144 1091  Q 3144 653 3186 445  Q 3228 238 3344 0  L 2475 0  Q 2441 88 2391 259  Q 2369 338 2359 363  Q 2134 144 1878 34  Q 1622 -75 1331 -75  Q 819 -75 523 203  Q 228 481 228 906  Q 228 1188 362 1408  Q 497 1628 739 1745  Q 981 1863 1438 1950  Q 2053 2066 2291 2166  L 2291 2253  Q 2291 2506 2166 2614  Q 2041 2722 1694 2722  Q 1459 2722 1328 2630  Q 1197 2538 1116 2306  z M 2291 1594  Q 2122 1538 1756 1459  Q 1391 1381 1278 1306  Q 1106 1184 1106 997  Q 1106 813 1243 678  Q 1381 544 1594 544  Q 1831 544 2047 700  Q 2206 819 2256 991  Q 2291 1103 2291 1419  L 2291 1594  z " transform="scale(0.015625)" />
       <path id="Arial-BoldMT-72" d="M 1300 0  L 422 0  L 422 3319  L 1238 3319  L 1238 2847  Q 1447 3181 1614 3287  Q 1781 3394 1994 3394  Q 2294 3394 2572 3228  L 2300 2463  Q 2078 2606 1888 2606  Q 1703 2606 1575 2504  Q 1447 2403 1373 2137  Q 1300 1872 1300 1025  L 1300 0  z " transform="scale(0.015625)" />
       <path id="Arial-BoldMT-67" d="M 378 -219  L 1381 -341  Q 1406 -516 1497 -581  Q 1622 -675 1891 -675  Q 2234 -675 2406 -572  Q 2522 -503 2581 -350  Q 2622 -241 2622 53  L 2622 538  Q 2228 0 1628 0  Q 959 0 569 566  Q 263 1013 263 1678  Q 263 2513 664 2953  Q 1066 3394 1663 3394  Q 2278 3394 2678 2853  L 2678 3319  L 3500 3319  L 3500 341  Q 3500 -247 3403 -537  Q 3306 -828 3131 -993  Q 2956 -1159 2664 -1253  Q 2372 -1347 1925 -1347  Q 1081 -1347 728 -1058  Q 375 -769 375 -325  Q 375 -281 378 -219  z M 1163 1728  Q 1163 1200 1367 954  Q 1572 709 1872 709  Q 2194 709 2416 961  Q 2638 1213 2638 1706  Q 2638 2222 2425 2472  Q 2213 2722 1888 2722  Q 1572 2722 1367 2476  Q 1163 2231 1163 1728  z " transform="scale(0.015625)" />
       <path id="Arial-BoldMT-65" d="M 2381 1056  L 3256 909  Q 3088 428 2723 176  Q 2359 -75 1813 -75  Q 947 -75 531 491  Q 203 944 203 1634  Q 203 2459 634 2926  Q 1066 3394 1725 3394  Q 2466 3394 2894 2905  Q 3322 2416 3303 1406  L 1103 1406  Q 1113 1016 1316 798  Q 1519 581 1822 581  Q 2028 581 2168 693  Q 2309 806 2381 1056  z M 2431 1944  Q 2422 2325 2234 2523  Q 2047 2722 1778 2722  Q 1491 2722 1303 2513  Q 1116 2303 1119 1944  L 2431 1944  z " transform="scale(0.015625)" />
      </defs>
      <use xlink:href="#Arial-BoldMT-74" />
      <use xlink:href="#Arial-BoldMT-61" x="33.300781" />
      <use xlink:href="#Arial-BoldMT-72" x="88.916016" />
      <use xlink:href="#Arial-BoldMT-67" x="127.832031" />
      <use xlink:href="#Arial-BoldMT-65" x="188.916016" />
      <use xlink:href="#Arial-BoldMT-74" x="244.53125" />
     </g>
    </g>
    <g id="patch_3">
     <path d="M 8 29.765156  L 28 29.765156  L 28 22.765156  L 8 22.765156  z " style="fill: #fefebb; stroke: #444443; stroke-width: 0.4; stroke-linejoin: miter" />
    </g>
    <g id="text_2">
     
     <g style="fill: #444443" transform="translate(31.5 29.765156)scale(0.1 -0.1)">
      <defs>
       <path id="ArialMT-6e" d="M 422 0  L 422 3319  L 928 3319  L 928 2847  Q 1294 3394 1984 3394  Q 2284 3394 2536 3286  Q 2788 3178 2913 3003  Q 3038 2828 3088 2588  Q 3119 2431 3119 2041  L 3119 0  L 2556 0  L 2556 2019  Q 2556 2363 2490 2533  Q 2425 2703 2258 2804  Q 2091 2906 1866 2906  Q 1506 2906 1245 2678  Q 984 2450 984 1813  L 984 0  L 422 0  z " transform="scale(0.015625)" />
       <path id="ArialMT-65" d="M 2694 1069  L 3275 997  Q 3138 488 2766 206  Q 2394 -75 1816 -75  Q 1088 -75 661 373  Q 234 822 234 1631  Q 234 2469 665 2931  Q 1097 3394 1784 3394  Q 2450 3394 2872 2941  Q 3294 2488 3294 1666  Q 3294 1616 3291 1516  L 816 1516  Q 847 969 1125 678  Q 1403 388 1819 388  Q 2128 388 2347 550  Q 2566 713 2694 1069  z M 847 1978  L 2700 1978  Q 2663 2397 2488 2606  Q 2219 2931 1791 2931  Q 1403 2931 1139 2672  Q 875 2413 847 1978  z " transform="scale(0.015625)" />
       <path id="ArialMT-67" d="M 319 -275  L 866 -356  Q 900 -609 1056 -725  Q 1266 -881 1628 -881  Q 2019 -881 2231 -725  Q 2444 -569 2519 -288  Q 2563 -116 2559 434  Q 2191 0 1641 0  Q 956 0 581 494  Q 206 988 206 1678  Q 206 2153 378 2554  Q 550 2956 876 3175  Q 1203 3394 1644 3394  Q 2231 3394 2613 2919  L 2613 3319  L 3131 3319  L 3131 450  Q 3131 -325 2973 -648  Q 2816 -972 2473 -1159  Q 2131 -1347 1631 -1347  Q 1038 -1347 672 -1080  Q 306 -813 319 -275  z M 784 1719  Q 784 1066 1043 766  Q 1303 466 1694 466  Q 2081 466 2343 764  Q 2606 1063 2606 1700  Q 2606 2309 2336 2618  Q 2066 2928 1684 2928  Q 1309 2928 1046 2623  Q 784 2319 784 1719  z " transform="scale(0.015625)" />
      </defs>
      <use xlink:href="#ArialMT-6e" />
      <use xlink:href="#ArialMT-65" x="55.615234" />
      <use xlink:href="#ArialMT-67" x="111.230469" />
     </g>
    </g>
    <g id="patch_4">
     <path d="M 8 44.027656  L 28 44.027656  L 28 37.027656  L 8 37.027656  z " style="fill: #a1dab4; stroke: #444443; stroke-width: 0.4; stroke-linejoin: miter" />
    </g>
    <g id="text_3">
     
     <g style="fill: #444443" transform="translate(31.5 44.027656)scale(0.1 -0.1)">
      <defs>
       <path id="ArialMT-70" d="M 422 -1272  L 422 3319  L 934 3319  L 934 2888  Q 1116 3141 1344 3267  Q 1572 3394 1897 3394  Q 2322 3394 2647 3175  Q 2972 2956 3137 2557  Q 3303 2159 3303 1684  Q 3303 1175 3120 767  Q 2938 359 2589 142  Q 2241 -75 1856 -75  Q 1575 -75 1351 44  Q 1128 163 984 344  L 984 -1272  L 422 -1272  z M 931 1641  Q 931 1000 1190 694  Q 1450 388 1819 388  Q 2194 388 2461 705  Q 2728 1022 2728 1688  Q 2728 2322 2467 2637  Q 2206 2953 1844 2953  Q 1484 2953 1207 2617  Q 931 2281 931 1641  z " transform="scale(0.015625)" />
       <path id="ArialMT-6f" d="M 213 1659  Q 213 2581 725 3025  Q 1153 3394 1769 3394  Q 2453 3394 2887 2945  Q 3322 2497 3322 1706  Q 3322 1066 3130 698  Q 2938 331 2570 128  Q 2203 -75 1769 -75  Q 1072 -75 642 372  Q 213 819 213 1659  z M 791 1659  Q 791 1022 1069 705  Q 1347 388 1769 388  Q 2188 388 2466 706  Q 2744 1025 2744 1678  Q 2744 2294 2464 2611  Q 2184 2928 1769 2928  Q 1347 2928 1069 2612  Q 791 2297 791 1659  z " transform="scale(0.015625)" />
       <path id="ArialMT-7a" d="M 125 0  L 125 456  L 2238 2881  Q 1878 2863 1603 2863  L 250 2863  L 250 3319  L 2963 3319  L 2963 2947  L 1166 841  L 819 456  Q 1197 484 1528 484  L 3063 484  L 3063 0  L 125 0  z " transform="scale(0.015625)" />
      </defs>
      <use xlink:href="#ArialMT-70" />
      <use xlink:href="#ArialMT-6f" x="55.615234" />
      <use xlink:href="#ArialMT-7a" x="111.230469" />
     </g>
    </g>
   </g>
  </g>
 </g>
</svg></g>
</g>
</svg>