<svg xmlns="http://www.w3.org/2000/svg" xmlns:dc="http://purl.org/dc/elements/1.1/" xmlns:ns2="http://creativecommons.org/ns#" xmlns:rdf="http://www.w3.org/1999/02/22-rdf-syntax-ns#" xmlns:xlink="http://www.w3.org/1999/xlink" width="1113.0" height="429.0" viewBox="0.0 0.0 1112.25 429.0">
<g id="graph0" class="graph" transform="scale(1.5 1.5) rotate(0) translate(4 282)">
<title>G</title>
<polygon fill="white" stroke="transparent" points="-4,4 -4,-282 737.5,-282 737.5,4 -4,4" />
<g id="clust13" class="cluster">
<title>cluster_legend</title>
</g>

<g id="node1" class="node">
<title>node3</title>
<text text-anchor="start" x="18" y="-103.4" font-family="Helvetica,sans-Serif" font-size="12.00" fill="#444443">salinity@36.76</text>
</g>

<g id="node2" class="node">
<title>node6</title>
<text text-anchor="start" x="111.5" y="-103.4" font-family="Helvetica,sans-Serif" font-size="12.00" fill="#444443">Dinophysis fortii@1.00</text>
</g>


<g id="node13" class="node">
<title>leaf4</title>
<polygon fill="none" stroke="#444443" stroke-width="0" points="26,-62 0,-62 0,-21 26,-21 26,-62" />
<svg width="18px" height="33px" viewBox="0 0 24.763998 43.504529" version="1.1" preserveAspectRatio="xMinYMin meet" x="4" y="-57.5">
 <metadata>
  <rdf:RDF>
   <ns2:Work>
    <dc:type rdf:resource="http://purl.org/dc/dcmitype/StillImage" />
    <dc:date>2023-05-17T01:16:51.017019</dc:date>
    <dc:format>image/svg+xml</dc:format>
    <dc:creator>
     <ns2:Agent>
      <dc:title>Matplotlib v3.5.2, https://matplotlib.org/</dc:title>
     </ns2:Agent>
    </dc:creator>
   </ns2:Work>
  </rdf:RDF>
 </metadata>
 <defs>
  <style type="text/css">*{stroke-linejoin: round; stroke-linecap: butt}</style>
 </defs>
 <g id="figure_1">
  <g id="patch_1">
   <path d="M 0 43.504529  L 24.763998 43.504529  L 24.763998 0  L 0 0  z " style="fill: #ffffff" />
  </g>
  <g id="axes_1">
   <g id="patch_2">
    <path d="M 24.763998 12.382  C 24.763998 11.383373 24.643186 10.388402 24.404199 9.418793  C 24.165212 8.449184 23.809799 7.512038 23.345714 6.627797  L 12.381998 12.382  L 24.763998 12.382  z " style="fill: #fefebb; stroke: #444443; stroke-width: 0.5; stroke-linejoin: miter" />
   </g>
   <g id="patch_3">
    <path d="M 23.345714 6.627797  C 22.648533 5.29943 21.715703 4.108761 20.592782 3.11394  C 19.469861 2.119119 18.175433 1.336609 16.772715 0.804629  C 15.369997 0.272648 13.882204 -0 12.381997 -0  C 10.881791 0 9.393997 0.272648 7.99128 0.804629  C 6.588562 1.33661 5.294133 2.119119 4.171213 3.11394  C 3.048292 4.108761 2.115462 5.299431 1.418281 6.627798  C 0.7211 7.956165 0.271106 9.400247 0.090276 10.889515  C -0.090554 12.378784 0.000773 13.888593 0.359796 15.345207  C 0.718819 16.80182 1.339597 18.181132 2.191812 19.415778  C 3.044026 20.650424 4.113574 21.719972 5.34822 22.572186  C 6.582866 23.424401 7.962178 24.045179 9.418791 24.404202  C 10.875405 24.763225 12.385215 24.854551 13.874483 24.673721  C 15.363752 24.492891 16.807833 24.042897 18.1362 23.345716  C 19.464567 22.648535 20.655237 21.715705 21.650058 20.592784  C 22.644879 19.469863 23.427388 18.175435 23.959369 16.772717  C 24.491349 15.369999 24.763998 13.882206 24.763998 12.381999  L 12.381998 12.382  L 23.345714 6.627797  z " style="fill: #a1dab4; stroke: #444443; stroke-width: 0.5; stroke-linejoin: miter" />
   </g>
   <g id="text_1">
    
    <g style="fill: #444443" transform="translate(2.246451 32.196591)scale(0.09 -0.09)">
     <defs>
      <path id="ArialMT-6e" d="M 422 0  L 422 3319  L 928 3319  L 928 2847  Q 1294 3394 1984 3394  Q 2284 3394 2536 3286  Q 2788 3178 2913 3003  Q 3038 2828 3088 2588  Q 3119 2431 3119 2041  L 3119 0  L 2556 0  L 2556 2019  Q 2556 2363 2490 2533  Q 2425 2703 2258 2804  Q 2091 2906 1866 2906  Q 1506 2906 1245 2678  Q 984 2450 984 1813  L 984 0  L 422 0  z " transform="scale(0.015625)" />
      <path id="ArialMT-3d" d="M 3381 2694  L 356 2694  L 356 3219  L 3381 3219  L 3381 2694  z M 3381 1303  L 356 1303  L 356 1828  L 3381 1828  L 3381 1303  z " transform="scale(0.015625)" />
      <path id="ArialMT-31" d="M 2384 0  L 1822 0  L 1822 3584  Q 1619 3391 1289 3197  Q 959 3003 697 2906  L 697 3450  Q 1169 3672 1522 3987  Q 1875 4303 2022 4600  L 2384 4600  L 2384 0  z " transform="scale(0.015625)" />
      <path id="ArialMT-33" d="M 269 1209  L 831 1284  Q 928 806 1161 595  Q 1394 384 1728 384  Q 2125 384 2398 659  Q 2672 934 2672 1341  Q 2672 1728 2419 1979  Q 2166 2231 1775 2231  Q 1616 2231 1378 2169  L 1441 2663  Q 1497 2656 1531 2656  Q 1891 2656 2178 2843  Q 2466 3031 2466 3422  Q 2466 3731 2256 3934  Q 2047 4138 1716 4138  Q 1388 4138 1169 3931  Q 950 3725 888 3313  L 325 3413  Q 428 3978 793 4289  Q 1159 4600 1703 4600  Q 2078 4600 2393 4439  Q 2709 4278 2876 4000  Q 3044 3722 3044 3409  Q 3044 3113 2884 2869  Q 2725 2625 2413 2481  Q 2819 2388 3044 2092  Q 3269 1797 3269 1353  Q 3269 753 2831 336  Q 2394 -81 1725 -81  Q 1122 -81 723 278  Q 325 638 269 1209  z " transform="scale(0.015625)" />
     </defs>
     <use xlink:href="#ArialMT-6e" />
     <use xlink:href="#ArialMT-3d" x="55.615234" />
     <use xlink:href="#ArialMT-31" x="114.013672" />
     <use xlink:href="#ArialMT-33" x="169.628906" />
    </g>
    
    <g style="fill: #444443" transform="translate(5.127154 41.715779)scale(0.09 -0.09)">
     <defs>
      <path id="ArialMT-70" d="M 422 -1272  L 422 3319  L 934 3319  L 934 2888  Q 1116 3141 1344 3267  Q 1572 3394 1897 3394  Q 2322 3394 2647 3175  Q 2972 2956 3137 2557  Q 3303 2159 3303 1684  Q 3303 1175 3120 767  Q 2938 359 2589 142  Q 2241 -75 1856 -75  Q 1575 -75 1351 44  Q 1128 163 984 344  L 984 -1272  L 422 -1272  z M 931 1641  Q 931 1000 1190 694  Q 1450 388 1819 388  Q 2194 388 2461 705  Q 2728 1022 2728 1688  Q 2728 2322 2467 2637  Q 2206 2953 1844 2953  Q 1484 2953 1207 2617  Q 931 2281 931 1641  z " transform="scale(0.015625)" />
      <path id="ArialMT-6f" d="M 213 1659  Q 213 2581 725 3025  Q 1153 3394 1769 3394  Q 2453 3394 2887 2945  Q 3322 2497 3322 1706  Q 3322 1066 3130 698  Q 2938 331 2570 128  Q 2203 -75 1769 -75  Q 1072 -75 642 372  Q 213 819 213 1659  z M 791 1659  Q 791 1022 1069 705  Q 1347 388 1769 388  Q 2188 388 2466 706  Q 2744 1025 2744 1678  Q 2744 2294 2464 2611  Q 2184 2928 1769 2928  Q 1347 2928 1069 2612  Q 791 2297 791 1659  z " transform="scale(0.015625)" />
      <path id="ArialMT-7a" d="M 125 0  L 125 456  L 2238 2881  Q 1878 2863 1603 2863  L 250 2863  L 250 3319  L 2963 3319  L 2963 2947  L 1166 841  L 819 456  Q 1197 484 1528 484  L 3063 484  L 3063 0  L 125 0  z " transform="scale(0.015625)" />
     </defs>
     <use xlink:href="#ArialMT-70" />
     <use xlink:href="#ArialMT-6f" x="55.615234" />
     <use xlink:href="#ArialMT-7a" x="111.230469" />
    </g>
   </g>
  </g>
 </g>
</svg></g>

<g id="edge1" class="edge">
<title>node3-&gt;leaf4</title>
<path fill="none" stroke="#444443" stroke-width="0.3" d="M53.85,-99.69C48.12,-91.67 37.48,-76.78 28.5,-64.2" />
<polygon fill="#444443" stroke="#444443" stroke-width="0.3" points="29.48,-63.16 26.02,-60.72 27.2,-64.79 29.48,-63.16" />
</g>

<g id="node14" class="node">
<title>leaf5</title>
<polygon fill="none" stroke="#444443" stroke-width="0" points="84,-71 40,-71 40,-12 84,-12 84,-71" />
<svg width="36px" height="51px" viewBox="0 0 48.924 68.736392" version="1.1" preserveAspectRatio="xMinYMin meet" x="44" y="-66.5">
 <metadata>
  <rdf:RDF>
   <ns2:Work>
    <dc:type rdf:resource="http://purl.org/dc/dcmitype/StillImage" />
    <dc:date>2023-05-17T01:16:51.063061</dc:date>
    <dc:format>image/svg+xml</dc:format>
    <dc:creator>
     <ns2:Agent>
      <dc:title>Matplotlib v3.5.2, https://matplotlib.org/</dc:title>
     </ns2:Agent>
    </dc:creator>
   </ns2:Work>
  </rdf:RDF>
 </metadata>
 <defs>
  <style type="text/css">*{stroke-linejoin: round; stroke-linecap: butt}</style>
 </defs>
 <g id="figure_1">
  <g id="patch_1">
   <path d="M 0 68.736392  L 48.924 68.736392  L 48.924 0  L 0 0  z " style="fill: #ffffff" />
  </g>
  <g id="axes_1">
   <g id="patch_2">
    <path d="M 48.924 24.461994  C 48.924 21.572654 48.412086 18.706033 47.412036 15.995279  C 46.411986 13.284525 44.939527 10.772268 43.063051 8.575197  C 41.186574 6.378125 38.935591 4.53079 36.414653 3.118997  C 33.893715 1.707204 31.142468 0.753155 28.2887 0.301162  C 25.434933 -0.15083 22.523524 -0.093658 19.689701 0.470025  C 16.855879 1.033707 14.144208 2.095034 11.680641 3.60471  C 9.217073 5.114386 7.040351 7.048669 5.251578 9.317717  C 3.462805 11.586765 2.090111 14.154893 1.197256 16.902819  C 0.3044 19.650745 -0.094576 22.535253 0.018859 25.422366  C 0.132294 28.309479 0.756355 31.153792 1.862058 33.823194  C 2.96776 36.492597 4.537715 38.945109 6.499001 41.066816  C 8.460287 43.188524 10.782061 44.946061 13.356482 46.257795  C 15.930902 47.569528 18.717484 48.414829 21.586797 48.754435  C 24.456109 49.09404 27.363029 48.922611 30.172537 48.248108  C 32.982045 47.573605 35.649957 46.406637 38.052356 44.801406  C 40.454755 43.196175 42.553859 41.177925 44.252171 38.8404  L 24.462 24.461994  L 48.924 24.461994  z " style="fill: #fefebb; stroke: #444443; stroke-width: 0.5; stroke-linejoin: miter" />
   </g>
   <g id="patch_3">
    <path d="M 44.252171 38.8404  C 45.760964 36.763726 46.933524 34.462448 47.726743 32.021171  C 48.519962 29.579895 48.923999 27.028908 48.924 24.461998  L 24.462 24.461994  L 44.252171 38.8404  z " style="fill: #a1dab4; stroke: #444443; stroke-width: 0.5; stroke-linejoin: miter" />
   </g>
   <g id="text_1">
    
    <g style="fill: #444443" transform="translate(14.326453 57.322986)scale(0.09 -0.09)">
     <defs>
      <path id="ArialMT-6e" d="M 422 0  L 422 3319  L 928 3319  L 928 2847  Q 1294 3394 1984 3394  Q 2284 3394 2536 3286  Q 2788 3178 2913 3003  Q 3038 2828 3088 2588  Q 3119 2431 3119 2041  L 3119 0  L 2556 0  L 2556 2019  Q 2556 2363 2490 2533  Q 2425 2703 2258 2804  Q 2091 2906 1866 2906  Q 1506 2906 1245 2678  Q 984 2450 984 1813  L 984 0  L 422 0  z " transform="scale(0.015625)" />
      <path id="ArialMT-3d" d="M 3381 2694  L 356 2694  L 356 3219  L 3381 3219  L 3381 2694  z M 3381 1303  L 356 1303  L 356 1828  L 3381 1828  L 3381 1303  z " transform="scale(0.015625)" />
      <path id="ArialMT-33" d="M 269 1209  L 831 1284  Q 928 806 1161 595  Q 1394 384 1728 384  Q 2125 384 2398 659  Q 2672 934 2672 1341  Q 2672 1728 2419 1979  Q 2166 2231 1775 2231  Q 1616 2231 1378 2169  L 1441 2663  Q 1497 2656 1531 2656  Q 1891 2656 2178 2843  Q 2466 3031 2466 3422  Q 2466 3731 2256 3934  Q 2047 4138 1716 4138  Q 1388 4138 1169 3931  Q 950 3725 888 3313  L 325 3413  Q 428 3978 793 4289  Q 1159 4600 1703 4600  Q 2078 4600 2393 4439  Q 2709 4278 2876 4000  Q 3044 3722 3044 3409  Q 3044 3113 2884 2869  Q 2725 2625 2413 2481  Q 2819 2388 3044 2092  Q 3269 1797 3269 1353  Q 3269 753 2831 336  Q 2394 -81 1725 -81  Q 1122 -81 723 278  Q 325 638 269 1209  z " transform="scale(0.015625)" />
     </defs>
     <use xlink:href="#ArialMT-6e" />
     <use xlink:href="#ArialMT-3d" x="55.615234" />
     <use xlink:href="#ArialMT-33" x="114.013672" />
     <use xlink:href="#ArialMT-33" x="169.628906" />
    </g>
    
    <g style="fill: #444443" transform="translate(16.954734 66.842173)scale(0.09 -0.09)">
     <defs>
      <path id="ArialMT-65" d="M 2694 1069  L 3275 997  Q 3138 488 2766 206  Q 2394 -75 1816 -75  Q 1088 -75 661 373  Q 234 822 234 1631  Q 234 2469 665 2931  Q 1097 3394 1784 3394  Q 2450 3394 2872 2941  Q 3294 2488 3294 1666  Q 3294 1616 3291 1516  L 816 1516  Q 847 969 1125 678  Q 1403 388 1819 388  Q 2128 388 2347 550  Q 2566 713 2694 1069  z M 847 1978  L 2700 1978  Q 2663 2397 2488 2606  Q 2219 2931 1791 2931  Q 1403 2931 1139 2672  Q 875 2413 847 1978  z " transform="scale(0.015625)" />
      <path id="ArialMT-67" d="M 319 -275  L 866 -356  Q 900 -609 1056 -725  Q 1266 -881 1628 -881  Q 2019 -881 2231 -725  Q 2444 -569 2519 -288  Q 2563 -116 2559 434  Q 2191 0 1641 0  Q 956 0 581 494  Q 206 988 206 1678  Q 206 2153 378 2554  Q 550 2956 876 3175  Q 1203 3394 1644 3394  Q 2231 3394 2613 2919  L 2613 3319  L 3131 3319  L 3131 450  Q 3131 -325 2973 -648  Q 2816 -972 2473 -1159  Q 2131 -1347 1631 -1347  Q 1038 -1347 672 -1080  Q 306 -813 319 -275  z M 784 1719  Q 784 1066 1043 766  Q 1303 466 1694 466  Q 2081 466 2343 764  Q 2606 1063 2606 1700  Q 2606 2309 2336 2618  Q 2066 2928 1684 2928  Q 1309 2928 1046 2623  Q 784 2319 784 1719  z " transform="scale(0.015625)" />
     </defs>
     <use xlink:href="#ArialMT-6e" />
     <use xlink:href="#ArialMT-65" x="55.615234" />
     <use xlink:href="#ArialMT-67" x="111.230469" />
    </g>
   </g>
  </g>
 </g>
</svg></g>

<g id="edge2" class="edge">
<title>node3-&gt;leaf5</title>
<path fill="none" stroke="#444443" stroke-width="0.3" d="M58.37,-99.69C58.73,-93.93 59.33,-84.63 59.92,-75.19" />
<polygon fill="#444443" stroke="#444443" stroke-width="0.3" points="61.33,-75.22 60.18,-71.14 58.53,-75.05 61.33,-75.22" />
</g>

<g id="node15" class="node">
<title>leaf7</title>
<polygon fill="none" stroke="#444443" stroke-width="0" points="169.5,-83 102.5,-83 102.5,0 169.5,0 169.5,-83" />
<svg width="59px" height="75px" viewBox="0 0 78.519999 99.51623" version="1.1" preserveAspectRatio="xMinYMin meet" x="107" y="-78.5">
 <metadata>
  <rdf:RDF>
   <ns2:Work>
    <dc:type rdf:resource="http://purl.org/dc/dcmitype/StillImage" />
    <dc:date>2023-05-17T01:16:51.104003</dc:date>
    <dc:format>image/svg+xml</dc:format>
    <dc:creator>
     <ns2:Agent>
      <dc:title>Matplotlib v3.5.2, https://matplotlib.org/</dc:title>
     </ns2:Agent>
    </dc:creator>
   </ns2:Work>
  </rdf:RDF>
 </metadata>
 <defs>
  <style type="text/css">*{stroke-linejoin: round; stroke-linecap: butt}</style>
 </defs>
 <g id="figure_1">
  <g id="patch_1">
   <path d="M 0 99.51623  L 78.519999 99.51623  L 78.519999 0  L 0 0  z " style="fill: #ffffff" />
  </g>
  <g id="axes_1">
   <g id="patch_2">
    <path d="M 78.519999 39.259992  C 78.519999 34.749133 77.742572 30.271832 76.221912 26.025016  C 74.701251 21.778199 72.459984 17.825057 69.596687 14.339459  C 66.73339 10.853862 63.290668 7.887673 59.419941 5.571354  C 55.549215 3.255036 51.308077 1.623052 46.883068 0.747184  C 42.458058 -0.128685 37.915016 -0.235406 33.45376 0.431714  C 28.992504 1.098834 24.679413 2.529869 20.70419 4.661878  C 16.728967 6.793886 13.150761 9.595146 10.126952 12.942448  C 7.103142 16.289751 4.678722 20.133291 2.960324 24.304018  C 1.241926 28.474745 0.255119 32.910602 0.043305 37.416486  C -0.168508 41.92237 0.397823 46.431238 1.717391 50.744774  C 3.036959 55.058311 5.09013 59.112334 7.786597 62.728537  C 10.483065 66.344739 13.782708 69.469314 17.540399 71.964833  C 21.29809 74.460352 25.457917 76.289683 29.836918 77.372368  C 34.21592 78.455052 38.748939 78.77498 43.236599 78.318081  C 47.72426 77.861181 52.09979 76.634251 56.170739 74.691257  C 60.241688 72.748262 63.947485 70.118112 67.125136 66.916489  L 39.259999 39.259992  L 78.519999 39.259992  z " style="fill: #fefebb; stroke: #444443; stroke-width: 0.5; stroke-linejoin: miter" />
   </g>
   <g id="patch_3">
    <path d="M 67.125136 66.916489  C 70.739466 63.274891 73.605129 58.959846 75.559674 54.215969  C 77.514218 49.472091 78.519999 44.390748 78.519999 39.259996  L 39.259999 39.259992  L 67.125136 66.916489  z " style="fill: #a1dab4; stroke: #444443; stroke-width: 0.5; stroke-linejoin: miter" />
   </g>
   <g id="text_1">
    
    <g style="fill: #444443" transform="translate(26.62203 88.102824)scale(0.09 -0.09)">
     <defs>
      <path id="ArialMT-6e" d="M 422 0  L 422 3319  L 928 3319  L 928 2847  Q 1294 3394 1984 3394  Q 2284 3394 2536 3286  Q 2788 3178 2913 3003  Q 3038 2828 3088 2588  Q 3119 2431 3119 2041  L 3119 0  L 2556 0  L 2556 2019  Q 2556 2363 2490 2533  Q 2425 2703 2258 2804  Q 2091 2906 1866 2906  Q 1506 2906 1245 2678  Q 984 2450 984 1813  L 984 0  L 422 0  z " transform="scale(0.015625)" />
      <path id="ArialMT-3d" d="M 3381 2694  L 356 2694  L 356 3219  L 3381 3219  L 3381 2694  z M 3381 1303  L 356 1303  L 356 1828  L 3381 1828  L 3381 1303  z " transform="scale(0.015625)" />
      <path id="ArialMT-34" d="M 2069 0  L 2069 1097  L 81 1097  L 81 1613  L 2172 4581  L 2631 4581  L 2631 1613  L 3250 1613  L 3250 1097  L 2631 1097  L 2631 0  L 2069 0  z M 2069 1613  L 2069 3678  L 634 1613  L 2069 1613  z " transform="scale(0.015625)" />
      <path id="ArialMT-37" d="M 303 3981  L 303 4522  L 3269 4522  L 3269 4084  Q 2831 3619 2401 2847  Q 1972 2075 1738 1259  Q 1569 684 1522 0  L 944 0  Q 953 541 1156 1306  Q 1359 2072 1739 2783  Q 2119 3494 2547 3981  L 303 3981  z " transform="scale(0.015625)" />
      <path id="ArialMT-36" d="M 3184 3459  L 2625 3416  Q 2550 3747 2413 3897  Q 2184 4138 1850 4138  Q 1581 4138 1378 3988  Q 1113 3794 959 3422  Q 806 3050 800 2363  Q 1003 2672 1297 2822  Q 1591 2972 1913 2972  Q 2475 2972 2870 2558  Q 3266 2144 3266 1488  Q 3266 1056 3080 686  Q 2894 316 2569 119  Q 2244 -78 1831 -78  Q 1128 -78 684 439  Q 241 956 241 2144  Q 241 3472 731 4075  Q 1159 4600 1884 4600  Q 2425 4600 2770 4297  Q 3116 3994 3184 3459  z M 888 1484  Q 888 1194 1011 928  Q 1134 663 1356 523  Q 1578 384 1822 384  Q 2178 384 2434 671  Q 2691 959 2691 1453  Q 2691 1928 2437 2201  Q 2184 2475 1800 2475  Q 1419 2475 1153 2201  Q 888 1928 888 1484  z " transform="scale(0.015625)" />
     </defs>
     <use xlink:href="#ArialMT-6e" />
     <use xlink:href="#ArialMT-3d" x="55.615234" />
     <use xlink:href="#ArialMT-34" x="114.013672" />
     <use xlink:href="#ArialMT-37" x="169.628906" />
     <use xlink:href="#ArialMT-36" x="225.244141" />
    </g>
    
    <g style="fill: #444443" transform="translate(31.752734 97.622011)scale(0.09 -0.09)">
     <defs>
      <path id="ArialMT-65" d="M 2694 1069  L 3275 997  Q 3138 488 2766 206  Q 2394 -75 1816 -75  Q 1088 -75 661 373  Q 234 822 234 1631  Q 234 2469 665 2931  Q 1097 3394 1784 3394  Q 2450 3394 2872 2941  Q 3294 2488 3294 1666  Q 3294 1616 3291 1516  L 816 1516  Q 847 969 1125 678  Q 1403 388 1819 388  Q 2128 388 2347 550  Q 2566 713 2694 1069  z M 847 1978  L 2700 1978  Q 2663 2397 2488 2606  Q 2219 2931 1791 2931  Q 1403 2931 1139 2672  Q 875 2413 847 1978  z " transform="scale(0.015625)" />
      <path id="ArialMT-67" d="M 319 -275  L 866 -356  Q 900 -609 1056 -725  Q 1266 -881 1628 -881  Q 2019 -881 2231 -725  Q 2444 -569 2519 -288  Q 2563 -116 2559 434  Q 2191 0 1641 0  Q 956 0 581 494  Q 206 988 206 1678  Q 206 2153 378 2554  Q 550 2956 876 3175  Q 1203 3394 1644 3394  Q 2231 3394 2613 2919  L 2613 3319  L 3131 3319  L 3131 450  Q 3131 -325 2973 -648  Q 2816 -972 2473 -1159  Q 2131 -1347 1631 -1347  Q 1038 -1347 672 -1080  Q 306 -813 319 -275  z M 784 1719  Q 784 1066 1043 766  Q 1303 466 1694 466  Q 2081 466 2343 764  Q 2606 1063 2606 1700  Q 2606 2309 2336 2618  Q 2066 2928 1684 2928  Q 1309 2928 1046 2623  Q 784 2319 784 1719  z " transform="scale(0.015625)" />
     </defs>
     <use xlink:href="#ArialMT-6e" />
     <use xlink:href="#ArialMT-65" x="55.615234" />
     <use xlink:href="#ArialMT-67" x="111.230469" />
    </g>
   </g>
  </g>
 </g>
</svg></g>

<g id="edge4" class="edge">
<title>node6-&gt;leaf7</title>
<path fill="none" stroke="#444443" stroke-width="0.3" d="M168.68,-99.69C166.75,-96.32 164.14,-91.74 161.22,-86.64" />
<polygon fill="#444443" stroke="#444443" stroke-width="0.3" points="162.36,-85.8 159.16,-83.02 159.92,-87.19 162.36,-85.8" />
</g>

<g id="node16" class="node">
<title>leaf8</title>
<polygon fill="none" stroke="#444443" stroke-width="0" points="250.5,-83 183.5,-83 183.5,0 250.5,0 250.5,-83" />
<svg width="59px" height="75px" viewBox="0 0 78.519917 99.516219" version="1.1" preserveAspectRatio="xMinYMin meet" x="188" y="-78.5">
 <metadata>
  <rdf:RDF>
   <ns2:Work>
    <dc:type rdf:resource="http://purl.org/dc/dcmitype/StillImage" />
    <dc:date>2023-05-17T01:16:51.138940</dc:date>
    <dc:format>image/svg+xml</dc:format>
    <dc:creator>
     <ns2:Agent>
      <dc:title>Matplotlib v3.5.2, https://matplotlib.org/</dc:title>
     </ns2:Agent>
    </dc:creator>
   </ns2:Work>
  </rdf:RDF>
 </metadata>
 <defs>
  <style type="text/css">*{stroke-linejoin: round; stroke-linecap: butt}</style>
 </defs>
 <g id="figure_1">
  <g id="patch_1">
   <path d="M 0 99.516219  L 78.519917 99.516219  L 78.519917 -0  L 0 -0  z " style="fill: #ffffff" />
  </g>
  <g id="axes_1">
   <g id="patch_2">
    <path d="M 78.519917 39.259981  C 78.519917 31.995286 76.503521 24.871188 72.696152 18.684126  C 68.888782 12.497064 63.437812 7.486521 56.952631 4.21265  C 50.46745 0.938778 43.199083 -0.471698 35.960093 0.138903  C 28.721104 0.749505 21.791694 3.35755 15.946536 7.671473  C 10.101378 11.985396 5.566722 17.838216 2.849518 24.57562  C 0.132315 31.313023 -0.662261 38.674223 0.554621 45.836276  C 1.771503 52.998329 4.95274 59.684011 9.742687 65.145898  C 14.532633 70.607786 20.745884 74.634463 27.68783 76.77577  L 39.259917 39.259981  L 78.519917 39.259981  z " style="fill: #fefebb; stroke: #444443; stroke-width: 0.5; stroke-linejoin: miter" />
   </g>
   <g id="patch_3">
    <path d="M 27.68783 76.77577  C 33.560515 78.587253 39.777323 78.994724 45.836212 77.965277  C 51.895101 76.935831 57.628464 74.497944 62.573298 70.84849  C 67.518132 67.199036 71.537649 62.438971 74.307249 56.952696  C 77.076849 51.46642 78.519917 45.405703 78.519917 39.259981  L 39.259917 39.259981  L 27.68783 76.77577  z " style="fill: #a1dab4; stroke: #444443; stroke-width: 0.5; stroke-linejoin: miter" />
   </g>
   <g id="text_1">
    
    <g style="fill: #444443" transform="translate(26.621948 88.102813)scale(0.09 -0.09)">
     <defs>
      <path id="ArialMT-6e" d="M 422 0  L 422 3319  L 928 3319  L 928 2847  Q 1294 3394 1984 3394  Q 2284 3394 2536 3286  Q 2788 3178 2913 3003  Q 3038 2828 3088 2588  Q 3119 2431 3119 2041  L 3119 0  L 2556 0  L 2556 2019  Q 2556 2363 2490 2533  Q 2425 2703 2258 2804  Q 2091 2906 1866 2906  Q 1506 2906 1245 2678  Q 984 2450 984 1813  L 984 0  L 422 0  z " transform="scale(0.015625)" />
      <path id="ArialMT-3d" d="M 3381 2694  L 356 2694  L 356 3219  L 3381 3219  L 3381 2694  z M 3381 1303  L 356 1303  L 356 1828  L 3381 1828  L 3381 1303  z " transform="scale(0.015625)" />
      <path id="ArialMT-31" d="M 2384 0  L 1822 0  L 1822 3584  Q 1619 3391 1289 3197  Q 959 3003 697 2906  L 697 3450  Q 1169 3672 1522 3987  Q 1875 4303 2022 4600  L 2384 4600  L 2384 0  z " transform="scale(0.015625)" />
      <path id="ArialMT-35" d="M 266 1200  L 856 1250  Q 922 819 1161 601  Q 1400 384 1738 384  Q 2144 384 2425 690  Q 2706 997 2706 1503  Q 2706 1984 2436 2262  Q 2166 2541 1728 2541  Q 1456 2541 1237 2417  Q 1019 2294 894 2097  L 366 2166  L 809 4519  L 3088 4519  L 3088 3981  L 1259 3981  L 1013 2750  Q 1425 3038 1878 3038  Q 2478 3038 2890 2622  Q 3303 2206 3303 1553  Q 3303 931 2941 478  Q 2500 -78 1738 -78  Q 1113 -78 717 272  Q 322 622 266 1200  z " transform="scale(0.015625)" />
     </defs>
     <use xlink:href="#ArialMT-6e" />
     <use xlink:href="#ArialMT-3d" x="55.615234" />
     <use xlink:href="#ArialMT-31" x="114.013672" />
     <use xlink:href="#ArialMT-35" x="169.628906" />
     <use xlink:href="#ArialMT-31" x="225.244141" />
    </g>
    
    <g style="fill: #444443" transform="translate(31.752651 97.622)scale(0.09 -0.09)">
     <defs>
      <path id="ArialMT-65" d="M 2694 1069  L 3275 997  Q 3138 488 2766 206  Q 2394 -75 1816 -75  Q 1088 -75 661 373  Q 234 822 234 1631  Q 234 2469 665 2931  Q 1097 3394 1784 3394  Q 2450 3394 2872 2941  Q 3294 2488 3294 1666  Q 3294 1616 3291 1516  L 816 1516  Q 847 969 1125 678  Q 1403 388 1819 388  Q 2128 388 2347 550  Q 2566 713 2694 1069  z M 847 1978  L 2700 1978  Q 2663 2397 2488 2606  Q 2219 2931 1791 2931  Q 1403 2931 1139 2672  Q 875 2413 847 1978  z " transform="scale(0.015625)" />
      <path id="ArialMT-67" d="M 319 -275  L 866 -356  Q 900 -609 1056 -725  Q 1266 -881 1628 -881  Q 2019 -881 2231 -725  Q 2444 -569 2519 -288  Q 2563 -116 2559 434  Q 2191 0 1641 0  Q 956 0 581 494  Q 206 988 206 1678  Q 206 2153 378 2554  Q 550 2956 876 3175  Q 1203 3394 1644 3394  Q 2231 3394 2613 2919  L 2613 3319  L 3131 3319  L 3131 450  Q 3131 -325 2973 -648  Q 2816 -972 2473 -1159  Q 2131 -1347 1631 -1347  Q 1038 -1347 672 -1080  Q 306 -813 319 -275  z M 784 1719  Q 784 1066 1043 766  Q 1303 466 1694 466  Q 2081 466 2343 764  Q 2606 1063 2606 1700  Q 2606 2309 2336 2618  Q 2066 2928 1684 2928  Q 1309 2928 1046 2623  Q 784 2319 784 1719  z " transform="scale(0.015625)" />
     </defs>
     <use xlink:href="#ArialMT-6e" />
     <use xlink:href="#ArialMT-65" x="55.615234" />
     <use xlink:href="#ArialMT-67" x="111.230469" />
    </g>
   </g>
  </g>
 </g>
</svg></g>

<g id="edge5" class="edge">
<title>node6-&gt;leaf8</title>
<path fill="none" stroke="#444443" stroke-width="0.3" d="M176.15,-99.69C178.6,-96.26 181.95,-91.57 185.69,-86.34" />
<polygon fill="#444443" stroke="#444443" stroke-width="0.3" points="186.87,-87.09 188.06,-83.02 184.59,-85.46 186.87,-87.09" />
</g>

<g id="node3" class="node">
<title>node2</title>
<text text-anchor="start" x="154.5" y="-144.4" font-family="Helvetica,sans-Serif" font-size="12.00" fill="#444443">air temp@6.92</text>
</g>

<g id="edge7" class="edge">
<title>node2-&gt;node3</title>
<path fill="none" stroke="#444443" stroke-width="0.3" d="M174.8,-140.99C150.34,-133.98 108.06,-121.86 81.64,-114.28" />
<polygon fill="#444443" stroke="#444443" stroke-width="0.3" points="81.77,-112.86 77.54,-113.1 81,-115.55 81.77,-112.86" />
</g>

<g id="edge8" class="edge">
<title>node2-&gt;node6</title>
<path fill="none" stroke="#444443" stroke-width="0.3" d="M190.75,-140.75C187.2,-134.45 181.46,-124.27 177.27,-116.83" />
<polygon fill="#444443" stroke="#444443" stroke-width="0.3" points="178.3,-115.82 175.12,-113.03 175.86,-117.2 178.3,-115.82" />
</g>

<g id="node6" class="node">
<title>node9</title>
<text text-anchor="start" x="258" y="-144.4" font-family="Helvetica,sans-Serif" font-size="12.00" fill="#444443">Soca@2109.90</text>
</g>


<g id="node4" class="node">
<title>node10</title>
<text text-anchor="start" x="239.5" y="-103.4" font-family="Helvetica,sans-Serif" font-size="12.00" fill="#444443">precipitation@103.45</text>
</g>

<g id="node5" class="node">
<title>node13</title>
<text text-anchor="start" x="368.5" y="-103.4" font-family="Helvetica,sans-Serif" font-size="12.00" fill="#444443">sun [h]@259.25</text>
</g>


<g id="node17" class="node">
<title>leaf11</title>
<polygon fill="none" stroke="#444443" stroke-width="0" points="327.5,-81.5 262.5,-81.5 262.5,-1.5 327.5,-1.5 327.5,-81.5" />
<svg width="57px" height="72px" viewBox="0 0 75.5 96.375429" version="1.1" preserveAspectRatio="xMinYMin meet" x="267" y="-77.5">
 <metadata>
  <rdf:RDF>
   <ns2:Work>
    <dc:type rdf:resource="http://purl.org/dc/dcmitype/StillImage" />
    <dc:date>2023-05-17T01:16:51.178926</dc:date>
    <dc:format>image/svg+xml</dc:format>
    <dc:creator>
     <ns2:Agent>
      <dc:title>Matplotlib v3.5.2, https://matplotlib.org/</dc:title>
     </ns2:Agent>
    </dc:creator>
   </ns2:Work>
  </rdf:RDF>
 </metadata>
 <defs>
  <style type="text/css">*{stroke-linejoin: round; stroke-linecap: butt}</style>
 </defs>
 <g id="figure_1">
  <g id="patch_1">
   <path d="M 0 96.375429  L 75.5 96.375429  L 75.5 0  L 0 0  z " style="fill: #ffffff" />
  </g>
  <g id="axes_1">
   <g id="patch_2">
    <path d="M 75.5 37.749992  C 75.5 33.34646 74.729493 28.976698 73.223396 24.838731  C 71.7173 20.700765 69.498713 16.85806 66.668178 13.484759  C 63.837642 10.111458 60.43857 7.259298 56.625 5.057532  C 52.811429 2.855767 48.641851 1.338164 44.305218 0.573499  C 39.968586 -0.191166 35.531413 -0.191166 31.194781 0.573499  C 26.858149 1.338164 22.68857 2.855767 18.874999 5.057533  C 15.061429 7.259299 11.662357 10.111459 8.831822 13.48476  C 6.001286 16.858061 3.7827 20.700766 2.276603 24.838732  C 0.770507 28.976698 -0 33.346461 0 37.749993  C 0 42.153524 0.770507 46.523287 2.276604 50.661253  C 3.782701 54.799219 6.001287 58.641924 8.831823 62.015225  C 11.662359 65.388526 15.061431 68.240685 18.875001 70.442451  C 22.688572 72.644217 26.85815 74.161819 31.194783 74.926485  C 35.531415 75.69115 39.968588 75.69115 44.30522 74.926484  C 48.641852 74.161819 52.811431 72.644216 56.625001 70.44245  C 60.438572 68.240684 63.837643 65.388524 66.668179 62.015223  L 37.75 37.749992  L 75.5 37.749992  z " style="fill: #fefebb; stroke: #444443; stroke-width: 0.5; stroke-linejoin: miter" />
   </g>
   <g id="patch_3">
    <path d="M 66.668179 62.015223  C 69.498714 58.641921 71.717301 54.799217 73.223397 50.66125  C 74.729493 46.523284 75.5 42.153522 75.5 37.74999  L 37.75 37.749992  L 66.668179 62.015223  z " style="fill: #a1dab4; stroke: #444443; stroke-width: 0.5; stroke-linejoin: miter" />
   </g>
   <g id="text_1">
    
    <g style="fill: #444443" transform="translate(27.614453 84.962023)scale(0.09 -0.09)">
     <defs>
      <path id="ArialMT-6e" d="M 422 0  L 422 3319  L 928 3319  L 928 2847  Q 1294 3394 1984 3394  Q 2284 3394 2536 3286  Q 2788 3178 2913 3003  Q 3038 2828 3088 2588  Q 3119 2431 3119 2041  L 3119 0  L 2556 0  L 2556 2019  Q 2556 2363 2490 2533  Q 2425 2703 2258 2804  Q 2091 2906 1866 2906  Q 1506 2906 1245 2678  Q 984 2450 984 1813  L 984 0  L 422 0  z " transform="scale(0.015625)" />
      <path id="ArialMT-3d" d="M 3381 2694  L 356 2694  L 356 3219  L 3381 3219  L 3381 2694  z M 3381 1303  L 356 1303  L 356 1828  L 3381 1828  L 3381 1303  z " transform="scale(0.015625)" />
      <path id="ArialMT-35" d="M 266 1200  L 856 1250  Q 922 819 1161 601  Q 1400 384 1738 384  Q 2144 384 2425 690  Q 2706 997 2706 1503  Q 2706 1984 2436 2262  Q 2166 2541 1728 2541  Q 1456 2541 1237 2417  Q 1019 2294 894 2097  L 366 2166  L 809 4519  L 3088 4519  L 3088 3981  L 1259 3981  L 1013 2750  Q 1425 3038 1878 3038  Q 2478 3038 2890 2622  Q 3303 2206 3303 1553  Q 3303 931 2941 478  Q 2500 -78 1738 -78  Q 1113 -78 717 272  Q 322 622 266 1200  z " transform="scale(0.015625)" />
     </defs>
     <use xlink:href="#ArialMT-6e" />
     <use xlink:href="#ArialMT-3d" x="55.615234" />
     <use xlink:href="#ArialMT-35" x="114.013672" />
     <use xlink:href="#ArialMT-35" x="169.628906" />
    </g>
    
    <g style="fill: #444443" transform="translate(30.242734 94.48121)scale(0.09 -0.09)">
     <defs>
      <path id="ArialMT-65" d="M 2694 1069  L 3275 997  Q 3138 488 2766 206  Q 2394 -75 1816 -75  Q 1088 -75 661 373  Q 234 822 234 1631  Q 234 2469 665 2931  Q 1097 3394 1784 3394  Q 2450 3394 2872 2941  Q 3294 2488 3294 1666  Q 3294 1616 3291 1516  L 816 1516  Q 847 969 1125 678  Q 1403 388 1819 388  Q 2128 388 2347 550  Q 2566 713 2694 1069  z M 847 1978  L 2700 1978  Q 2663 2397 2488 2606  Q 2219 2931 1791 2931  Q 1403 2931 1139 2672  Q 875 2413 847 1978  z " transform="scale(0.015625)" />
      <path id="ArialMT-67" d="M 319 -275  L 866 -356  Q 900 -609 1056 -725  Q 1266 -881 1628 -881  Q 2019 -881 2231 -725  Q 2444 -569 2519 -288  Q 2563 -116 2559 434  Q 2191 0 1641 0  Q 956 0 581 494  Q 206 988 206 1678  Q 206 2153 378 2554  Q 550 2956 876 3175  Q 1203 3394 1644 3394  Q 2231 3394 2613 2919  L 2613 3319  L 3131 3319  L 3131 450  Q 3131 -325 2973 -648  Q 2816 -972 2473 -1159  Q 2131 -1347 1631 -1347  Q 1038 -1347 672 -1080  Q 306 -813 319 -275  z M 784 1719  Q 784 1066 1043 766  Q 1303 466 1694 466  Q 2081 466 2343 764  Q 2606 1063 2606 1700  Q 2606 2309 2336 2618  Q 2066 2928 1684 2928  Q 1309 2928 1046 2623  Q 784 2319 784 1719  z " transform="scale(0.015625)" />
     </defs>
     <use xlink:href="#ArialMT-6e" />
     <use xlink:href="#ArialMT-65" x="55.615234" />
     <use xlink:href="#ArialMT-67" x="111.230469" />
    </g>
   </g>
  </g>
 </g>
</svg></g>

<g id="edge10" class="edge">
<title>node10-&gt;leaf11</title>
<path fill="none" stroke="#444443" stroke-width="0.3" d="M296.82,-99.69C296.7,-96.14 296.55,-91.26 296.38,-85.82" />
<polygon fill="#444443" stroke="#444443" stroke-width="0.3" points="297.77,-85.52 296.24,-81.57 294.97,-85.61 297.77,-85.52" />
</g>

<g id="node18" class="node">
<title>leaf12</title>
<polygon fill="none" stroke="#444443" stroke-width="0" points="363,-59 341,-59 341,-24 363,-24 363,-59" />
<svg width="14px" height="27px" viewBox="0 0 18.724 37.222929" version="1.1" preserveAspectRatio="xMinYMin meet" x="345" y="-54.5">
 <metadata>
  <rdf:RDF>
   <ns2:Work>
    <dc:type rdf:resource="http://purl.org/dc/dcmitype/StillImage" />
    <dc:date>2023-05-17T01:16:51.214655</dc:date>
    <dc:format>image/svg+xml</dc:format>
    <dc:creator>
     <ns2:Agent>
      <dc:title>Matplotlib v3.5.2, https://matplotlib.org/</dc:title>
     </ns2:Agent>
    </dc:creator>
   </ns2:Work>
  </rdf:RDF>
 </metadata>
 <defs>
  <style type="text/css">*{stroke-linejoin: round; stroke-linecap: butt}</style>
 </defs>
 <g id="figure_1">
  <g id="patch_1">
   <path d="M 0 37.222929  L 18.724 37.222929  L 18.724 0  L 0 0  z " style="fill: #ffffff" />
  </g>
  <g id="axes_1">
   <g id="patch_2">
    <path d="M 18.724 9.362  C 18.724 7.718748 18.291356 6.104098 17.46973 4.681  C 16.648104 3.257902 15.466098 2.075896 14.043 1.25427  C 12.619902 0.432644 11.005252 -0 9.362 0  C 7.718748 0 6.104097 0.432644 4.680999 1.25427  L 9.362 9.362  L 18.724 9.362  z " style="fill: #fefebb; stroke: #444443; stroke-width: 0.5; stroke-linejoin: miter" />
   </g>
   <g id="patch_3">
    <path d="M 4.680999 1.25427  C 3.257902 2.075897 2.075896 3.257903 1.25427 4.681001  C 0.432644 6.104099 -0 7.718749 0 9.362001  C 0 11.005253 0.432645 12.619903 1.254271 14.043001  C 2.075897 15.466099 3.257903 16.648105 4.681001 17.46973  C 6.104099 18.291356 7.718749 18.724 9.362001 18.724  C 11.005253 18.724 12.619903 18.291355 14.043001 17.469729  C 15.466099 16.648103 16.648105 15.466097 17.469731 14.042999  C 18.291356 12.619901 18.724 11.00525 18.724 9.361998  L 9.362 9.362  L 4.680999 1.25427  z " style="fill: #a1dab4; stroke: #444443; stroke-width: 0.5; stroke-linejoin: miter" />
   </g>
   <g id="text_1">
    
    <g style="fill: #444443" transform="translate(1.728875 25.914991)scale(0.09 -0.09)">
     <defs>
      <path id="ArialMT-6e" d="M 422 0  L 422 3319  L 928 3319  L 928 2847  Q 1294 3394 1984 3394  Q 2284 3394 2536 3286  Q 2788 3178 2913 3003  Q 3038 2828 3088 2588  Q 3119 2431 3119 2041  L 3119 0  L 2556 0  L 2556 2019  Q 2556 2363 2490 2533  Q 2425 2703 2258 2804  Q 2091 2906 1866 2906  Q 1506 2906 1245 2678  Q 984 2450 984 1813  L 984 0  L 422 0  z " transform="scale(0.015625)" />
      <path id="ArialMT-3d" d="M 3381 2694  L 356 2694  L 356 3219  L 3381 3219  L 3381 2694  z M 3381 1303  L 356 1303  L 356 1828  L 3381 1828  L 3381 1303  z " transform="scale(0.015625)" />
      <path id="ArialMT-38" d="M 1131 2484  Q 781 2613 612 2850  Q 444 3088 444 3419  Q 444 3919 803 4259  Q 1163 4600 1759 4600  Q 2359 4600 2725 4251  Q 3091 3903 3091 3403  Q 3091 3084 2923 2848  Q 2756 2613 2416 2484  Q 2838 2347 3058 2040  Q 3278 1734 3278 1309  Q 3278 722 2862 322  Q 2447 -78 1769 -78  Q 1091 -78 675 323  Q 259 725 259 1325  Q 259 1772 486 2073  Q 713 2375 1131 2484  z M 1019 3438  Q 1019 3113 1228 2906  Q 1438 2700 1772 2700  Q 2097 2700 2305 2904  Q 2513 3109 2513 3406  Q 2513 3716 2298 3927  Q 2084 4138 1766 4138  Q 1444 4138 1231 3931  Q 1019 3725 1019 3438  z M 838 1322  Q 838 1081 952 856  Q 1066 631 1291 507  Q 1516 384 1775 384  Q 2178 384 2440 643  Q 2703 903 2703 1303  Q 2703 1709 2433 1975  Q 2163 2241 1756 2241  Q 1359 2241 1098 1978  Q 838 1716 838 1322  z " transform="scale(0.015625)" />
     </defs>
     <use xlink:href="#ArialMT-6e" />
     <use xlink:href="#ArialMT-3d" x="55.615234" />
     <use xlink:href="#ArialMT-38" x="114.013672" />
    </g>
    
    <g style="fill: #444443" transform="translate(2.107156 35.434179)scale(0.09 -0.09)">
     <defs>
      <path id="ArialMT-70" d="M 422 -1272  L 422 3319  L 934 3319  L 934 2888  Q 1116 3141 1344 3267  Q 1572 3394 1897 3394  Q 2322 3394 2647 3175  Q 2972 2956 3137 2557  Q 3303 2159 3303 1684  Q 3303 1175 3120 767  Q 2938 359 2589 142  Q 2241 -75 1856 -75  Q 1575 -75 1351 44  Q 1128 163 984 344  L 984 -1272  L 422 -1272  z M 931 1641  Q 931 1000 1190 694  Q 1450 388 1819 388  Q 2194 388 2461 705  Q 2728 1022 2728 1688  Q 2728 2322 2467 2637  Q 2206 2953 1844 2953  Q 1484 2953 1207 2617  Q 931 2281 931 1641  z " transform="scale(0.015625)" />
      <path id="ArialMT-6f" d="M 213 1659  Q 213 2581 725 3025  Q 1153 3394 1769 3394  Q 2453 3394 2887 2945  Q 3322 2497 3322 1706  Q 3322 1066 3130 698  Q 2938 331 2570 128  Q 2203 -75 1769 -75  Q 1072 -75 642 372  Q 213 819 213 1659  z M 791 1659  Q 791 1022 1069 705  Q 1347 388 1769 388  Q 2188 388 2466 706  Q 2744 1025 2744 1678  Q 2744 2294 2464 2611  Q 2184 2928 1769 2928  Q 1347 2928 1069 2612  Q 791 2297 791 1659  z " transform="scale(0.015625)" />
      <path id="ArialMT-7a" d="M 125 0  L 125 456  L 2238 2881  Q 1878 2863 1603 2863  L 250 2863  L 250 3319  L 2963 3319  L 2963 2947  L 1166 841  L 819 456  Q 1197 484 1528 484  L 3063 484  L 3063 0  L 125 0  z " transform="scale(0.015625)" />
     </defs>
     <use xlink:href="#ArialMT-70" />
     <use xlink:href="#ArialMT-6f" x="55.615234" />
     <use xlink:href="#ArialMT-7a" x="111.230469" />
    </g>
   </g>
  </g>
 </g>
</svg></g>

<g id="edge11" class="edge">
<title>node10-&gt;leaf12</title>
<path fill="none" stroke="#444443" stroke-width="0.3" d="M302.08,-99.69C310.12,-90.48 326.07,-72.2 337.79,-58.78" />
<polygon fill="#444443" stroke="#444443" stroke-width="0.3" points="339.09,-59.41 340.67,-55.48 336.99,-57.57 339.09,-59.41" />
</g>

<g id="node19" class="node">
<title>leaf14</title>
<polygon fill="none" stroke="#444443" stroke-width="0" points="426,-75 374,-75 374,-8 426,-8 426,-75" />
<svg width="44px" height="59px" viewBox="0 0 58.587997 78.681488" version="1.1" preserveAspectRatio="xMinYMin meet" x="378" y="-70.5">
 <metadata>
  <rdf:RDF>
   <ns2:Work>
    <dc:type rdf:resource="http://purl.org/dc/dcmitype/StillImage" />
    <dc:date>2023-05-17T01:16:51.254314</dc:date>
    <dc:format>image/svg+xml</dc:format>
    <dc:creator>
     <ns2:Agent>
      <dc:title>Matplotlib v3.5.2, https://matplotlib.org/</dc:title>
     </ns2:Agent>
    </dc:creator>
   </ns2:Work>
  </rdf:RDF>
 </metadata>
 <defs>
  <style type="text/css">*{stroke-linejoin: round; stroke-linecap: butt}</style>
 </defs>
 <g id="figure_1">
  <g id="patch_1">
   <path d="M 0 78.681488  L 58.587997 78.681488  L 58.587997 0  L 0 0  z " style="fill: #ffffff" />
  </g>
  <g id="axes_1">
   <g id="patch_2">
    <path d="M 58.587997 29.293999  C 58.587997 26.622328 58.222504 23.963171 57.501696 21.390572  C 56.780888 18.817974 55.711517 16.356035 54.323359 14.073307  L 29.293997 29.293999  L 58.587997 29.293999  z " style="fill: #fefebb; stroke: #444443; stroke-width: 0.5; stroke-linejoin: miter" />
   </g>
   <g id="patch_3">
    <path d="M 54.323359 14.073307  C 52.499367 11.07388 50.15098 8.426603 47.39043 6.257993  C 44.62988 4.089384 41.501858 2.434549 38.155858 1.372576  C 34.809857 0.310603 31.300047 -0.141315 27.794166 0.038419  C 24.288285 0.218154 20.843091 1.026631 17.623234 2.425212  C 14.403378 3.823793 11.460986 5.789837 8.93668 8.229382  C 6.412374 10.668928 4.34702 13.542483 2.839325 16.712713  C 1.33163 19.882943 0.406002 23.298527 0.106678 26.796227  C -0.192645 30.293928 0.139181 33.817122 1.086299 37.197428  C 2.033416 40.577734 3.580493 43.760431 5.65359 46.59341  C 7.726688 49.426389 10.292246 51.863788 13.22765 53.78912  C 16.163055 55.714451 19.420787 57.096547 22.845151 57.869353  C 26.269516 58.642158 29.805078 58.793164 33.282866 58.315153  C 36.760654 57.837141 40.124367 56.737851 43.213246 55.06982  C 46.302125 53.401789 49.066166 51.192019 51.373269 48.546121  C 53.680372 45.900223 55.493189 42.861029 56.725081 39.573789  C 57.956973 36.28655 58.587998 32.80448 58.587997 29.293995  L 29.293997 29.293999  L 54.323359 14.073307  z " style="fill: #a1dab4; stroke: #444443; stroke-width: 0.5; stroke-linejoin: miter" />
   </g>
   <g id="text_1">
    
    <g style="fill: #444443" transform="translate(19.15845 67.37355)scale(0.09 -0.09)">
     <defs>
      <path id="ArialMT-6e" d="M 422 0  L 422 3319  L 928 3319  L 928 2847  Q 1294 3394 1984 3394  Q 2284 3394 2536 3286  Q 2788 3178 2913 3003  Q 3038 2828 3088 2588  Q 3119 2431 3119 2041  L 3119 0  L 2556 0  L 2556 2019  Q 2556 2363 2490 2533  Q 2425 2703 2258 2804  Q 2091 2906 1866 2906  Q 1506 2906 1245 2678  Q 984 2450 984 1813  L 984 0  L 422 0  z " transform="scale(0.015625)" />
      <path id="ArialMT-3d" d="M 3381 2694  L 356 2694  L 356 3219  L 3381 3219  L 3381 2694  z M 3381 1303  L 356 1303  L 356 1828  L 3381 1828  L 3381 1303  z " transform="scale(0.015625)" />
      <path id="ArialMT-34" d="M 2069 0  L 2069 1097  L 81 1097  L 81 1613  L 2172 4581  L 2631 4581  L 2631 1613  L 3250 1613  L 3250 1097  L 2631 1097  L 2631 0  L 2069 0  z M 2069 1613  L 2069 3678  L 634 1613  L 2069 1613  z " transform="scale(0.015625)" />
      <path id="ArialMT-31" d="M 2384 0  L 1822 0  L 1822 3584  Q 1619 3391 1289 3197  Q 959 3003 697 2906  L 697 3450  Q 1169 3672 1522 3987  Q 1875 4303 2022 4600  L 2384 4600  L 2384 0  z " transform="scale(0.015625)" />
     </defs>
     <use xlink:href="#ArialMT-6e" />
     <use xlink:href="#ArialMT-3d" x="55.615234" />
     <use xlink:href="#ArialMT-34" x="114.013672" />
     <use xlink:href="#ArialMT-31" x="169.628906" />
    </g>
    
    <g style="fill: #444443" transform="translate(22.039153 76.892738)scale(0.09 -0.09)">
     <defs>
      <path id="ArialMT-70" d="M 422 -1272  L 422 3319  L 934 3319  L 934 2888  Q 1116 3141 1344 3267  Q 1572 3394 1897 3394  Q 2322 3394 2647 3175  Q 2972 2956 3137 2557  Q 3303 2159 3303 1684  Q 3303 1175 3120 767  Q 2938 359 2589 142  Q 2241 -75 1856 -75  Q 1575 -75 1351 44  Q 1128 163 984 344  L 984 -1272  L 422 -1272  z M 931 1641  Q 931 1000 1190 694  Q 1450 388 1819 388  Q 2194 388 2461 705  Q 2728 1022 2728 1688  Q 2728 2322 2467 2637  Q 2206 2953 1844 2953  Q 1484 2953 1207 2617  Q 931 2281 931 1641  z " transform="scale(0.015625)" />
      <path id="ArialMT-6f" d="M 213 1659  Q 213 2581 725 3025  Q 1153 3394 1769 3394  Q 2453 3394 2887 2945  Q 3322 2497 3322 1706  Q 3322 1066 3130 698  Q 2938 331 2570 128  Q 2203 -75 1769 -75  Q 1072 -75 642 372  Q 213 819 213 1659  z M 791 1659  Q 791 1022 1069 705  Q 1347 388 1769 388  Q 2188 388 2466 706  Q 2744 1025 2744 1678  Q 2744 2294 2464 2611  Q 2184 2928 1769 2928  Q 1347 2928 1069 2612  Q 791 2297 791 1659  z " transform="scale(0.015625)" />
      <path id="ArialMT-7a" d="M 125 0  L 125 456  L 2238 2881  Q 1878 2863 1603 2863  L 250 2863  L 250 3319  L 2963 3319  L 2963 2947  L 1166 841  L 819 456  Q 1197 484 1528 484  L 3063 484  L 3063 0  L 125 0  z " transform="scale(0.015625)" />
     </defs>
     <use xlink:href="#ArialMT-70" />
     <use xlink:href="#ArialMT-6f" x="55.615234" />
     <use xlink:href="#ArialMT-7a" x="111.230469" />
    </g>
   </g>
  </g>
 </g>
</svg></g>

<g id="edge13" class="edge">
<title>node13-&gt;leaf14</title>
<path fill="none" stroke="#444443" stroke-width="0.3" d="M409.98,-99.69C409.12,-94.71 407.79,-87.09 406.38,-79.03" />
<polygon fill="#444443" stroke="#444443" stroke-width="0.3" points="407.75,-78.74 405.68,-75.04 404.99,-79.22 407.75,-78.74" />
</g>

<g id="node20" class="node">
<title>leaf15</title>
<polygon fill="none" stroke="#444443" stroke-width="0" points="458.5,-56 439.5,-56 439.5,-27 458.5,-27 458.5,-56" />
<svg width="11px" height="21px" viewBox="0 0 15.26625 28.534157" version="1.1" preserveAspectRatio="xMinYMin meet" x="444" y="-51.5">
 <metadata>
  <rdf:RDF>
   <ns2:Work>
    <dc:type rdf:resource="http://purl.org/dc/dcmitype/StillImage" />
    <dc:date>2023-05-17T01:16:51.290388</dc:date>
    <dc:format>image/svg+xml</dc:format>
    <dc:creator>
     <ns2:Agent>
      <dc:title>Matplotlib v3.5.2, https://matplotlib.org/</dc:title>
     </ns2:Agent>
    </dc:creator>
   </ns2:Work>
  </rdf:RDF>
 </metadata>
 <defs>
  <style type="text/css">*{stroke-linejoin: round; stroke-linecap: butt}</style>
 </defs>
 <g id="figure_1">
  <g id="patch_1">
   <path d="M 0 28.534157  L 15.26625 28.534157  L 15.26625 0  L 0 0  z " style="fill: #ffffff" />
  </g>
  <g id="axes_1">
   <g id="patch_2">
    <path d="M 12.767125 5.134  C 12.767125 4.459809 12.634324 3.792174 12.376323 3.169303  C 12.118321 2.546432 11.740136 1.980439 11.263411 1.503714  C 10.786686 1.026989 10.220693 0.648804 9.597822 0.390802  C 8.974951 0.132801 8.307316 0 7.633125 0  C 6.958934 0 6.291299 0.132801 5.668428 0.390802  C 5.045557 0.648804 4.479564 1.026989 4.002839 1.503714  C 3.526114 1.980439 3.147929 2.546432 2.889927 3.169303  C 2.631926 3.792174 2.499125 4.459809 2.499125 5.134  C 2.499125 5.808191 2.631926 6.475826 2.889927 7.098697  C 3.147929 7.721568 3.526114 8.287561 4.002839 8.764286  C 4.479564 9.241011 5.045557 9.619196 5.668428 9.877198  C 6.291299 10.135199 6.958934 10.268 7.633125 10.268  C 8.307316 10.268 8.974951 10.135199 9.597822 9.877198  C 10.220693 9.619196 10.786686 9.241011 11.263411 8.764286  C 11.740136 8.287561 12.118321 7.721568 12.376323 7.098697  C 12.634324 6.475826 12.767125 5.808191 12.767125 5.134  M 7.633125 5.134  M 12.767125 5.134  z " style="fill: #fefebb; stroke: #444443; stroke-width: 0.5; stroke-linejoin: miter" />
   </g>
   <g id="text_1">
    
    <g style="fill: #444443" transform="translate(0 17.120751)scale(0.09 -0.09)">
     <defs>
      <path id="ArialMT-6e" d="M 422 0  L 422 3319  L 928 3319  L 928 2847  Q 1294 3394 1984 3394  Q 2284 3394 2536 3286  Q 2788 3178 2913 3003  Q 3038 2828 3088 2588  Q 3119 2431 3119 2041  L 3119 0  L 2556 0  L 2556 2019  Q 2556 2363 2490 2533  Q 2425 2703 2258 2804  Q 2091 2906 1866 2906  Q 1506 2906 1245 2678  Q 984 2450 984 1813  L 984 0  L 422 0  z " transform="scale(0.015625)" />
      <path id="ArialMT-3d" d="M 3381 2694  L 356 2694  L 356 3219  L 3381 3219  L 3381 2694  z M 3381 1303  L 356 1303  L 356 1828  L 3381 1828  L 3381 1303  z " transform="scale(0.015625)" />
      <path id="ArialMT-31" d="M 2384 0  L 1822 0  L 1822 3584  Q 1619 3391 1289 3197  Q 959 3003 697 2906  L 697 3450  Q 1169 3672 1522 3987  Q 1875 4303 2022 4600  L 2384 4600  L 2384 0  z " transform="scale(0.015625)" />
     </defs>
     <use xlink:href="#ArialMT-6e" />
     <use xlink:href="#ArialMT-3d" x="55.615234" />
     <use xlink:href="#ArialMT-31" x="114.013672" />
    </g>
    
    <g style="fill: #444443" transform="translate(0.125859 26.639939)scale(0.09 -0.09)">
     <defs>
      <path id="ArialMT-65" d="M 2694 1069  L 3275 997  Q 3138 488 2766 206  Q 2394 -75 1816 -75  Q 1088 -75 661 373  Q 234 822 234 1631  Q 234 2469 665 2931  Q 1097 3394 1784 3394  Q 2450 3394 2872 2941  Q 3294 2488 3294 1666  Q 3294 1616 3291 1516  L 816 1516  Q 847 969 1125 678  Q 1403 388 1819 388  Q 2128 388 2347 550  Q 2566 713 2694 1069  z M 847 1978  L 2700 1978  Q 2663 2397 2488 2606  Q 2219 2931 1791 2931  Q 1403 2931 1139 2672  Q 875 2413 847 1978  z " transform="scale(0.015625)" />
      <path id="ArialMT-67" d="M 319 -275  L 866 -356  Q 900 -609 1056 -725  Q 1266 -881 1628 -881  Q 2019 -881 2231 -725  Q 2444 -569 2519 -288  Q 2563 -116 2559 434  Q 2191 0 1641 0  Q 956 0 581 494  Q 206 988 206 1678  Q 206 2153 378 2554  Q 550 2956 876 3175  Q 1203 3394 1644 3394  Q 2231 3394 2613 2919  L 2613 3319  L 3131 3319  L 3131 450  Q 3131 -325 2973 -648  Q 2816 -972 2473 -1159  Q 2131 -1347 1631 -1347  Q 1038 -1347 672 -1080  Q 306 -813 319 -275  z M 784 1719  Q 784 1066 1043 766  Q 1303 466 1694 466  Q 2081 466 2343 764  Q 2606 1063 2606 1700  Q 2606 2309 2336 2618  Q 2066 2928 1684 2928  Q 1309 2928 1046 2623  Q 784 2319 784 1719  z " transform="scale(0.015625)" />
     </defs>
     <use xlink:href="#ArialMT-6e" />
     <use xlink:href="#ArialMT-65" x="55.615234" />
     <use xlink:href="#ArialMT-67" x="111.230469" />
    </g>
   </g>
  </g>
 </g>
</svg></g>

<g id="edge14" class="edge">
<title>node13-&gt;leaf15</title>
<path fill="none" stroke="#444443" stroke-width="0.3" d="M414.51,-99.69C419.88,-90.78 430.37,-73.38 438.38,-60.11" />
<polygon fill="#444443" stroke="#444443" stroke-width="0.3" points="439.7,-60.63 440.57,-56.48 437.3,-59.18 439.7,-60.63" />
</g>

<g id="edge16" class="edge">
<title>node9-&gt;node10</title>
<path fill="none" stroke="#444443" stroke-width="0.3" d="M299.56,-140.75C299.08,-134.57 298.32,-124.65 297.75,-117.25" />
<polygon fill="#444443" stroke="#444443" stroke-width="0.3" points="299.13,-116.91 297.43,-113.03 296.34,-117.12 299.13,-116.91" />
</g>

<g id="edge17" class="edge">
<title>node9-&gt;node13</title>
<path fill="none" stroke="#444443" stroke-width="0.3" d="M315.9,-140.91C335.77,-133.93 369.75,-121.99 391.26,-114.44" />
<polygon fill="#444443" stroke="#444443" stroke-width="0.3" points="391.82,-115.72 395.13,-113.08 390.89,-113.08 391.82,-115.72" />
</g>

<g id="node7" class="node">
<title>node1</title>
<text text-anchor="start" x="242" y="-185.4" font-family="Helvetica,sans-Serif" font-size="12.00" fill="#444443">Dinophysis caudata@25.50</text>
</g>

<g id="edge19" class="edge">
<title>node1-&gt;node2</title>
<path fill="none" stroke="#444443" stroke-width="0.3" d="M298.78,-181.99C276.92,-175.01 239.22,-162.96 215.5,-155.37" />
<polygon fill="#444443" stroke="#444443" stroke-width="0.3" points="215.76,-153.99 211.53,-154.1 214.91,-156.65 215.76,-153.99" />
</g>

<g id="edge20" class="edge">
<title>node1-&gt;node9</title>
<path fill="none" stroke="#444443" stroke-width="0.3" d="M313.64,-181.75C311.06,-175.45 306.88,-165.27 303.83,-157.83" />
<polygon fill="#444443" stroke="#444443" stroke-width="0.3" points="305.08,-157.19 302.27,-154.03 302.49,-158.26 305.08,-157.19" />
</g>

<g id="node11" class="node">
<title>node16</title>
<text text-anchor="start" x="410.5" y="-185.4" font-family="Helvetica,sans-Serif" font-size="12.00" fill="#444443">Dinophysis sacculus@25.00</text>
</g>


<g id="node8" class="node">
<title>node18</title>
<text text-anchor="start" x="461" y="-103.4" font-family="Helvetica,sans-Serif" font-size="12.00" fill="#444443">wind strength@3.11</text>
</g>

<g id="node9" class="node">
<title>node21</title>
<text text-anchor="start" x="580.5" y="-103.4" font-family="Helvetica,sans-Serif" font-size="12.00" fill="#444443">Dinophysis sacculus@10.50</text>
</g>


<g id="node21" class="node">
<title>leaf19</title>
<polygon fill="none" stroke="#444443" stroke-width="0" points="517,-73 469,-73 469,-10 517,-10 517,-73" />
<svg width="40px" height="55px" viewBox="0 0 53.756 73.656209" version="1.1" preserveAspectRatio="xMinYMin meet" x="473" y="-68.5">
 <metadata>
  <rdf:RDF>
   <ns2:Work>
    <dc:type rdf:resource="http://purl.org/dc/dcmitype/StillImage" />
    <dc:date>2023-05-17T01:16:51.330847</dc:date>
    <dc:format>image/svg+xml</dc:format>
    <dc:creator>
     <ns2:Agent>
      <dc:title>Matplotlib v3.5.2, https://matplotlib.org/</dc:title>
     </ns2:Agent>
    </dc:creator>
   </ns2:Work>
  </rdf:RDF>
 </metadata>
 <defs>
  <style type="text/css">*{stroke-linejoin: round; stroke-linecap: butt}</style>
 </defs>
 <g id="figure_1">
  <g id="patch_1">
   <path d="M 0 73.656209  L 53.756 73.656209  L 53.756 0  L 0 0  z " style="fill: #ffffff" />
  </g>
  <g id="axes_1">
   <g id="patch_2">
    <path d="M 53.756 26.878  C 53.756 21.202806 51.958554 15.670836 48.622759 11.079508  C 45.286963 6.488179 40.581189 3.069234 35.183758 1.315503  L 26.878 26.878  L 53.756 26.878  z " style="fill: #fefebb; stroke: #444443; stroke-width: 0.5; stroke-linejoin: miter" />
   </g>
   <g id="patch_3">
    <path d="M 35.183758 1.315503  C 32.501368 0.443941 29.698432 -0 26.877999 0  C 24.057567 0 21.254631 0.443942 18.572241 1.315503  C 15.88985 2.187065 13.361285 3.475433 11.079507 5.133242  C 8.79773 6.79105 6.791049 8.797731 5.133241 11.079509  C 3.475432 13.361287 2.187064 15.889852 1.315503 18.572242  C 0.443941 21.254633 -0 24.057569 0 26.878001  C 0 29.698434 0.443942 32.50137 1.315503 35.18376  C 2.187065 37.866151 3.475433 40.394716 5.133242 42.676493  C 6.791051 44.958271 8.797731 46.964951 11.079509 48.62276  C 13.361287 50.280568 15.889852 51.568936 18.572243 52.440498  C 21.254634 53.312059 24.05757 53.756 26.878002 53.756  C 29.698434 53.756 32.50137 53.312058 35.183761 52.440496  C 37.866151 51.568935 40.394716 50.280566 42.676494 48.622758  C 44.958271 46.964949 46.964952 44.958268 48.62276 42.67649  C 50.280568 40.394712 51.568936 37.866147 52.440498 35.183757  C 53.312059 32.501366 53.756 29.69843 53.756 26.877997  L 26.878 26.878  L 35.183758 1.315503  z " style="fill: #a1dab4; stroke: #444443; stroke-width: 0.5; stroke-linejoin: miter" />
   </g>
   <g id="text_1">
    
    <g style="fill: #444443" transform="translate(16.742453 62.348271)scale(0.09 -0.09)">
     <defs>
      <path id="ArialMT-6e" d="M 422 0  L 422 3319  L 928 3319  L 928 2847  Q 1294 3394 1984 3394  Q 2284 3394 2536 3286  Q 2788 3178 2913 3003  Q 3038 2828 3088 2588  Q 3119 2431 3119 2041  L 3119 0  L 2556 0  L 2556 2019  Q 2556 2363 2490 2533  Q 2425 2703 2258 2804  Q 2091 2906 1866 2906  Q 1506 2906 1245 2678  Q 984 2450 984 1813  L 984 0  L 422 0  z " transform="scale(0.015625)" />
      <path id="ArialMT-3d" d="M 3381 2694  L 356 2694  L 356 3219  L 3381 3219  L 3381 2694  z M 3381 1303  L 356 1303  L 356 1828  L 3381 1828  L 3381 1303  z " transform="scale(0.015625)" />
      <path id="ArialMT-33" d="M 269 1209  L 831 1284  Q 928 806 1161 595  Q 1394 384 1728 384  Q 2125 384 2398 659  Q 2672 934 2672 1341  Q 2672 1728 2419 1979  Q 2166 2231 1775 2231  Q 1616 2231 1378 2169  L 1441 2663  Q 1497 2656 1531 2656  Q 1891 2656 2178 2843  Q 2466 3031 2466 3422  Q 2466 3731 2256 3934  Q 2047 4138 1716 4138  Q 1388 4138 1169 3931  Q 950 3725 888 3313  L 325 3413  Q 428 3978 793 4289  Q 1159 4600 1703 4600  Q 2078 4600 2393 4439  Q 2709 4278 2876 4000  Q 3044 3722 3044 3409  Q 3044 3113 2884 2869  Q 2725 2625 2413 2481  Q 2819 2388 3044 2092  Q 3269 1797 3269 1353  Q 3269 753 2831 336  Q 2394 -81 1725 -81  Q 1122 -81 723 278  Q 325 638 269 1209  z " transform="scale(0.015625)" />
      <path id="ArialMT-37" d="M 303 3981  L 303 4522  L 3269 4522  L 3269 4084  Q 2831 3619 2401 2847  Q 1972 2075 1738 1259  Q 1569 684 1522 0  L 944 0  Q 953 541 1156 1306  Q 1359 2072 1739 2783  Q 2119 3494 2547 3981  L 303 3981  z " transform="scale(0.015625)" />
     </defs>
     <use xlink:href="#ArialMT-6e" />
     <use xlink:href="#ArialMT-3d" x="55.615234" />
     <use xlink:href="#ArialMT-33" x="114.013672" />
     <use xlink:href="#ArialMT-37" x="169.628906" />
    </g>
    
    <g style="fill: #444443" transform="translate(19.623156 71.867459)scale(0.09 -0.09)">
     <defs>
      <path id="ArialMT-70" d="M 422 -1272  L 422 3319  L 934 3319  L 934 2888  Q 1116 3141 1344 3267  Q 1572 3394 1897 3394  Q 2322 3394 2647 3175  Q 2972 2956 3137 2557  Q 3303 2159 3303 1684  Q 3303 1175 3120 767  Q 2938 359 2589 142  Q 2241 -75 1856 -75  Q 1575 -75 1351 44  Q 1128 163 984 344  L 984 -1272  L 422 -1272  z M 931 1641  Q 931 1000 1190 694  Q 1450 388 1819 388  Q 2194 388 2461 705  Q 2728 1022 2728 1688  Q 2728 2322 2467 2637  Q 2206 2953 1844 2953  Q 1484 2953 1207 2617  Q 931 2281 931 1641  z " transform="scale(0.015625)" />
      <path id="ArialMT-6f" d="M 213 1659  Q 213 2581 725 3025  Q 1153 3394 1769 3394  Q 2453 3394 2887 2945  Q 3322 2497 3322 1706  Q 3322 1066 3130 698  Q 2938 331 2570 128  Q 2203 -75 1769 -75  Q 1072 -75 642 372  Q 213 819 213 1659  z M 791 1659  Q 791 1022 1069 705  Q 1347 388 1769 388  Q 2188 388 2466 706  Q 2744 1025 2744 1678  Q 2744 2294 2464 2611  Q 2184 2928 1769 2928  Q 1347 2928 1069 2612  Q 791 2297 791 1659  z " transform="scale(0.015625)" />
      <path id="ArialMT-7a" d="M 125 0  L 125 456  L 2238 2881  Q 1878 2863 1603 2863  L 250 2863  L 250 3319  L 2963 3319  L 2963 2947  L 1166 841  L 819 456  Q 1197 484 1528 484  L 3063 484  L 3063 0  L 125 0  z " transform="scale(0.015625)" />
     </defs>
     <use xlink:href="#ArialMT-70" />
     <use xlink:href="#ArialMT-6f" x="55.615234" />
     <use xlink:href="#ArialMT-7a" x="111.230469" />
    </g>
   </g>
  </g>
 </g>
</svg></g>

<g id="edge22" class="edge">
<title>node18-&gt;leaf19</title>
<path fill="none" stroke="#444443" stroke-width="0.3" d="M512.06,-99.69C510.3,-94.4 507.54,-86.12 504.66,-77.49" />
<polygon fill="#444443" stroke="#444443" stroke-width="0.3" points="505.84,-76.59 503.25,-73.24 503.18,-77.48 505.84,-76.59" />
</g>

<g id="node22" class="node">
<title>leaf20</title>
<polygon fill="none" stroke="#444443" stroke-width="0" points="553.5,-60 530.5,-60 530.5,-23 553.5,-23 553.5,-60" />
<svg width="15px" height="29px" viewBox="0 0 19.932 38.584716" version="1.1" preserveAspectRatio="xMinYMin meet" x="535" y="-55.5">
 <metadata>
  <rdf:RDF>
   <ns2:Work>
    <dc:type rdf:resource="http://purl.org/dc/dcmitype/StillImage" />
    <dc:date>2023-05-17T01:16:51.370861</dc:date>
    <dc:format>image/svg+xml</dc:format>
    <dc:creator>
     <ns2:Agent>
      <dc:title>Matplotlib v3.5.2, https://matplotlib.org/</dc:title>
     </ns2:Agent>
    </dc:creator>
   </ns2:Work>
  </rdf:RDF>
 </metadata>
 <defs>
  <style type="text/css">*{stroke-linejoin: round; stroke-linecap: butt}</style>
 </defs>
 <g id="figure_1">
  <g id="patch_1">
   <path d="M 0 38.584716  L 19.932 38.584716  L 19.932 0  L 0 0  z " style="fill: #ffffff" />
  </g>
  <g id="axes_1">
   <g id="patch_2">
    <path d="M 19.932 9.965998  C 19.932 8.82172 19.734924 7.685942 19.349428 6.608554  C 18.963932 5.531165 18.395745 4.528174 17.669822 3.643635  C 16.943899 2.759095 16.071028 2.006151 15.089548 1.417875  C 14.108067 0.829598 13.032561 0.41473 11.91027 0.191492  C 10.787978 -0.031746 9.635577 -0.060036 8.503684 0.107865  C 7.37179 0.275766 6.277223 0.637362 5.26806 1.176771  C 4.258896 1.71618 3.350131 2.425387 2.581681 3.273242  C 1.81323 4.121096 1.196513 5.095 0.758616 6.152175  C 0.32072 7.20935 0.068151 8.33409 0.012004 9.47699  C -0.044143 10.61989 0.096966 11.763969 0.429132 12.858975  C 0.761299 13.953981 1.279588 14.983644 1.961234 15.902737  C 2.642879 16.82183 3.477754 17.616697 4.429187 18.252424  C 5.38062 18.888151 6.434473 19.355293 7.544459 19.63333  C 8.654445 19.911367 9.80407 19.996168 10.942839 19.884009  C 12.081607 19.77185 13.192598 19.464397 14.227014 18.975155  C 15.261429 18.485913 16.203899 17.822151 17.013026 17.013024  L 9.966 9.965998  L 19.932 9.965998  z " style="fill: #fefebb; stroke: #444443; stroke-width: 0.5; stroke-linejoin: miter" />
   </g>
   <g id="patch_3">
    <path d="M 17.013026 17.013024  C 17.938433 16.087617 18.672557 14.988924 19.173383 13.779821  C 19.67421 12.570719 19.932 11.274721 19.932 9.965998  L 9.966 9.965998  L 17.013026 17.013024  z " style="fill: #a1dab4; stroke: #444443; stroke-width: 0.5; stroke-linejoin: miter" />
   </g>
   <g id="text_1">
    
    <g style="fill: #444443" transform="translate(2.332875 27.171309)scale(0.09 -0.09)">
     <defs>
      <path id="ArialMT-6e" d="M 422 0  L 422 3319  L 928 3319  L 928 2847  Q 1294 3394 1984 3394  Q 2284 3394 2536 3286  Q 2788 3178 2913 3003  Q 3038 2828 3088 2588  Q 3119 2431 3119 2041  L 3119 0  L 2556 0  L 2556 2019  Q 2556 2363 2490 2533  Q 2425 2703 2258 2804  Q 2091 2906 1866 2906  Q 1506 2906 1245 2678  Q 984 2450 984 1813  L 984 0  L 422 0  z " transform="scale(0.015625)" />
      <path id="ArialMT-3d" d="M 3381 2694  L 356 2694  L 356 3219  L 3381 3219  L 3381 2694  z M 3381 1303  L 356 1303  L 356 1828  L 3381 1828  L 3381 1303  z " transform="scale(0.015625)" />
      <path id="ArialMT-39" d="M 350 1059  L 891 1109  Q 959 728 1153 556  Q 1347 384 1650 384  Q 1909 384 2104 503  Q 2300 622 2425 820  Q 2550 1019 2634 1356  Q 2719 1694 2719 2044  Q 2719 2081 2716 2156  Q 2547 1888 2255 1720  Q 1963 1553 1622 1553  Q 1053 1553 659 1965  Q 266 2378 266 3053  Q 266 3750 677 4175  Q 1088 4600 1706 4600  Q 2153 4600 2523 4359  Q 2894 4119 3086 3673  Q 3278 3228 3278 2384  Q 3278 1506 3087 986  Q 2897 466 2520 194  Q 2144 -78 1638 -78  Q 1100 -78 759 220  Q 419 519 350 1059  z M 2653 3081  Q 2653 3566 2395 3850  Q 2138 4134 1775 4134  Q 1400 4134 1122 3828  Q 844 3522 844 3034  Q 844 2597 1108 2323  Q 1372 2050 1759 2050  Q 2150 2050 2401 2323  Q 2653 2597 2653 3081  z " transform="scale(0.015625)" />
     </defs>
     <use xlink:href="#ArialMT-6e" />
     <use xlink:href="#ArialMT-3d" x="55.615234" />
     <use xlink:href="#ArialMT-39" x="114.013672" />
    </g>
    
    <g style="fill: #444443" transform="translate(2.458734 36.690497)scale(0.09 -0.09)">
     <defs>
      <path id="ArialMT-65" d="M 2694 1069  L 3275 997  Q 3138 488 2766 206  Q 2394 -75 1816 -75  Q 1088 -75 661 373  Q 234 822 234 1631  Q 234 2469 665 2931  Q 1097 3394 1784 3394  Q 2450 3394 2872 2941  Q 3294 2488 3294 1666  Q 3294 1616 3291 1516  L 816 1516  Q 847 969 1125 678  Q 1403 388 1819 388  Q 2128 388 2347 550  Q 2566 713 2694 1069  z M 847 1978  L 2700 1978  Q 2663 2397 2488 2606  Q 2219 2931 1791 2931  Q 1403 2931 1139 2672  Q 875 2413 847 1978  z " transform="scale(0.015625)" />
      <path id="ArialMT-67" d="M 319 -275  L 866 -356  Q 900 -609 1056 -725  Q 1266 -881 1628 -881  Q 2019 -881 2231 -725  Q 2444 -569 2519 -288  Q 2563 -116 2559 434  Q 2191 0 1641 0  Q 956 0 581 494  Q 206 988 206 1678  Q 206 2153 378 2554  Q 550 2956 876 3175  Q 1203 3394 1644 3394  Q 2231 3394 2613 2919  L 2613 3319  L 3131 3319  L 3131 450  Q 3131 -325 2973 -648  Q 2816 -972 2473 -1159  Q 2131 -1347 1631 -1347  Q 1038 -1347 672 -1080  Q 306 -813 319 -275  z M 784 1719  Q 784 1066 1043 766  Q 1303 466 1694 466  Q 2081 466 2343 764  Q 2606 1063 2606 1700  Q 2606 2309 2336 2618  Q 2066 2928 1684 2928  Q 1309 2928 1046 2623  Q 784 2319 784 1719  z " transform="scale(0.015625)" />
     </defs>
     <use xlink:href="#ArialMT-6e" />
     <use xlink:href="#ArialMT-65" x="55.615234" />
     <use xlink:href="#ArialMT-67" x="111.230469" />
    </g>
   </g>
  </g>
 </g>
</svg></g>

<g id="edge23" class="edge">
<title>node18-&gt;leaf20</title>
<path fill="none" stroke="#444443" stroke-width="0.3" d="M516.58,-99.69C520.17,-91.63 526.84,-76.62 532.44,-64" />
<polygon fill="#444443" stroke="#444443" stroke-width="0.3" points="533.8,-64.4 534.14,-60.17 531.24,-63.26 533.8,-64.4" />
</g>

<g id="node23" class="node">
<title>leaf22</title>
<polygon fill="none" stroke="#444443" stroke-width="0" points="659.5,-77 604.5,-77 604.5,-6 659.5,-6 659.5,-77" />
<svg width="47px" height="63px" viewBox="0 0 63.419997 83.706761" version="1.1" preserveAspectRatio="xMinYMin meet" x="609" y="-72.5">
 <metadata>
  <rdf:RDF>
   <ns2:Work>
    <dc:type rdf:resource="http://purl.org/dc/dcmitype/StillImage" />
    <dc:date>2023-05-17T01:16:51.412986</dc:date>
    <dc:format>image/svg+xml</dc:format>
    <dc:creator>
     <ns2:Agent>
      <dc:title>Matplotlib v3.5.2, https://matplotlib.org/</dc:title>
     </ns2:Agent>
    </dc:creator>
   </ns2:Work>
  </rdf:RDF>
 </metadata>
 <defs>
  <style type="text/css">*{stroke-linejoin: round; stroke-linecap: butt}</style>
 </defs>
 <g id="figure_1">
  <g id="patch_1">
   <path d="M 0 83.706761  L 63.419997 83.706761  L 63.419997 -0  L 0 -0  z " style="fill: #ffffff" />
  </g>
  <g id="axes_1">
   <g id="patch_2">
    <path d="M 63.419997 31.709993  C 63.419997 30.899976 63.38896 30.090256 63.326953 29.282616  C 63.264947 28.474976 63.172018 27.670008 63.048369 26.869484  L 31.709997 31.709993  L 63.419997 31.709993  z " style="fill: #fefebb; stroke: #444443; stroke-width: 0.5; stroke-linejoin: miter" />
   </g>
   <g id="patch_3">
    <path d="M 63.048369 26.869484  C 62.428318 22.855156 61.042672 18.997104 58.966949 15.50559  C 56.891226 12.014077 54.16383 8.953702 50.933404 6.491256  C 47.702978 4.028809 44.029292 2.209851 40.11256 1.133514  C 36.195827 0.057177 32.108517 -0.256624 28.073384 0.209213  C 24.038252 0.675049 20.129958 1.911904 16.5615 3.85237  C 12.993043 5.792836 9.830448 8.401009 7.246074 11.534746  C 4.6617 14.668483 2.703365 18.269802 1.477797 22.142434  C 0.252228 26.015066 -0.217898 30.087358 0.09304 34.137372  C 0.403979 38.187386 1.490228 42.140187 3.292588 45.780351  C 5.094948 49.420515 7.580072 52.680689 10.612521 55.383197  C 13.64497 58.085705 17.168637 60.180543 20.991484 61.553545  C 24.814332 62.926546 28.865628 63.552307 32.92458 63.396723  C 36.983532 63.24114 40.975039 62.307091 44.681567 60.645481  C 48.388095 58.983871 51.741063 56.625445 54.557739 53.698735  C 57.374415 50.772024 59.602682 47.331181 61.121101 43.563728  C 62.63952 39.796276 63.419997 35.771921 63.419997 31.709988  L 31.709997 31.709993  L 63.048369 26.869484  z " style="fill: #a1dab4; stroke: #444443; stroke-width: 0.5; stroke-linejoin: miter" />
   </g>
   <g id="text_1">
    
    <g style="fill: #444443" transform="translate(21.57445 72.398824)scale(0.09 -0.09)">
     <defs>
      <path id="ArialMT-6e" d="M 422 0  L 422 3319  L 928 3319  L 928 2847  Q 1294 3394 1984 3394  Q 2284 3394 2536 3286  Q 2788 3178 2913 3003  Q 3038 2828 3088 2588  Q 3119 2431 3119 2041  L 3119 0  L 2556 0  L 2556 2019  Q 2556 2363 2490 2533  Q 2425 2703 2258 2804  Q 2091 2906 1866 2906  Q 1506 2906 1245 2678  Q 984 2450 984 1813  L 984 0  L 422 0  z " transform="scale(0.015625)" />
      <path id="ArialMT-3d" d="M 3381 2694  L 356 2694  L 356 3219  L 3381 3219  L 3381 2694  z M 3381 1303  L 356 1303  L 356 1828  L 3381 1828  L 3381 1303  z " transform="scale(0.015625)" />
      <path id="ArialMT-34" d="M 2069 0  L 2069 1097  L 81 1097  L 81 1613  L 2172 4581  L 2631 4581  L 2631 1613  L 3250 1613  L 3250 1097  L 2631 1097  L 2631 0  L 2069 0  z M 2069 1613  L 2069 3678  L 634 1613  L 2069 1613  z " transform="scale(0.015625)" />
      <path id="ArialMT-35" d="M 266 1200  L 856 1250  Q 922 819 1161 601  Q 1400 384 1738 384  Q 2144 384 2425 690  Q 2706 997 2706 1503  Q 2706 1984 2436 2262  Q 2166 2541 1728 2541  Q 1456 2541 1237 2417  Q 1019 2294 894 2097  L 366 2166  L 809 4519  L 3088 4519  L 3088 3981  L 1259 3981  L 1013 2750  Q 1425 3038 1878 3038  Q 2478 3038 2890 2622  Q 3303 2206 3303 1553  Q 3303 931 2941 478  Q 2500 -78 1738 -78  Q 1113 -78 717 272  Q 322 622 266 1200  z " transform="scale(0.015625)" />
     </defs>
     <use xlink:href="#ArialMT-6e" />
     <use xlink:href="#ArialMT-3d" x="55.615234" />
     <use xlink:href="#ArialMT-34" x="114.013672" />
     <use xlink:href="#ArialMT-35" x="169.628906" />
    </g>
    
    <g style="fill: #444443" transform="translate(24.455153 81.918011)scale(0.09 -0.09)">
     <defs>
      <path id="ArialMT-70" d="M 422 -1272  L 422 3319  L 934 3319  L 934 2888  Q 1116 3141 1344 3267  Q 1572 3394 1897 3394  Q 2322 3394 2647 3175  Q 2972 2956 3137 2557  Q 3303 2159 3303 1684  Q 3303 1175 3120 767  Q 2938 359 2589 142  Q 2241 -75 1856 -75  Q 1575 -75 1351 44  Q 1128 163 984 344  L 984 -1272  L 422 -1272  z M 931 1641  Q 931 1000 1190 694  Q 1450 388 1819 388  Q 2194 388 2461 705  Q 2728 1022 2728 1688  Q 2728 2322 2467 2637  Q 2206 2953 1844 2953  Q 1484 2953 1207 2617  Q 931 2281 931 1641  z " transform="scale(0.015625)" />
      <path id="ArialMT-6f" d="M 213 1659  Q 213 2581 725 3025  Q 1153 3394 1769 3394  Q 2453 3394 2887 2945  Q 3322 2497 3322 1706  Q 3322 1066 3130 698  Q 2938 331 2570 128  Q 2203 -75 1769 -75  Q 1072 -75 642 372  Q 213 819 213 1659  z M 791 1659  Q 791 1022 1069 705  Q 1347 388 1769 388  Q 2188 388 2466 706  Q 2744 1025 2744 1678  Q 2744 2294 2464 2611  Q 2184 2928 1769 2928  Q 1347 2928 1069 2612  Q 791 2297 791 1659  z " transform="scale(0.015625)" />
      <path id="ArialMT-7a" d="M 125 0  L 125 456  L 2238 2881  Q 1878 2863 1603 2863  L 250 2863  L 250 3319  L 2963 3319  L 2963 2947  L 1166 841  L 819 456  Q 1197 484 1528 484  L 3063 484  L 3063 0  L 125 0  z " transform="scale(0.015625)" />
     </defs>
     <use xlink:href="#ArialMT-70" />
     <use xlink:href="#ArialMT-6f" x="55.615234" />
     <use xlink:href="#ArialMT-7a" x="111.230469" />
    </g>
   </g>
  </g>
 </g>
</svg></g>

<g id="edge25" class="edge">
<title>node21-&gt;leaf22</title>
<path fill="none" stroke="#444443" stroke-width="0.3" d="M654.69,-99.69C652.9,-95.16 650.24,-88.45 647.36,-81.2" />
<polygon fill="#444443" stroke="#444443" stroke-width="0.3" points="648.52,-80.33 645.74,-77.13 645.92,-81.37 648.52,-80.33" />
</g>

<g id="node24" class="node">
<title>leaf23</title>
<polygon fill="none" stroke="#444443" stroke-width="0" points="692.5,-56 673.5,-56 673.5,-27 692.5,-27 692.5,-56" />
<svg width="11px" height="21px" viewBox="0 0 15.26625 28.534157" version="1.1" preserveAspectRatio="xMinYMin meet" x="678" y="-51.5">
 <metadata>
  <rdf:RDF>
   <ns2:Work>
    <dc:type rdf:resource="http://purl.org/dc/dcmitype/StillImage" />
    <dc:date>2023-05-17T01:16:51.451219</dc:date>
    <dc:format>image/svg+xml</dc:format>
    <dc:creator>
     <ns2:Agent>
      <dc:title>Matplotlib v3.5.2, https://matplotlib.org/</dc:title>
     </ns2:Agent>
    </dc:creator>
   </ns2:Work>
  </rdf:RDF>
 </metadata>
 <defs>
  <style type="text/css">*{stroke-linejoin: round; stroke-linecap: butt}</style>
 </defs>
 <g id="figure_1">
  <g id="patch_1">
   <path d="M 0 28.534157  L 15.26625 28.534157  L 15.26625 0  L 0 0  z " style="fill: #ffffff" />
  </g>
  <g id="axes_1">
   <g id="patch_2">
    <path d="M 12.767125 5.134  C 12.767125 4.459809 12.634324 3.792174 12.376323 3.169303  C 12.118321 2.546432 11.740136 1.980439 11.263411 1.503714  C 10.786686 1.026989 10.220693 0.648804 9.597822 0.390802  C 8.974951 0.132801 8.307316 0 7.633125 0  C 6.958934 0 6.291299 0.132801 5.668428 0.390802  C 5.045557 0.648804 4.479564 1.026989 4.002839 1.503714  C 3.526114 1.980439 3.147929 2.546432 2.889927 3.169303  C 2.631926 3.792174 2.499125 4.459809 2.499125 5.134  C 2.499125 5.808191 2.631926 6.475826 2.889927 7.098697  C 3.147929 7.721568 3.526114 8.287561 4.002839 8.764286  C 4.479564 9.241011 5.045557 9.619196 5.668428 9.877198  C 6.291299 10.135199 6.958934 10.268 7.633125 10.268  C 8.307316 10.268 8.974951 10.135199 9.597822 9.877198  C 10.220693 9.619196 10.786686 9.241011 11.263411 8.764286  C 11.740136 8.287561 12.118321 7.721568 12.376323 7.098697  C 12.634324 6.475826 12.767125 5.808191 12.767125 5.134  M 7.633125 5.134  M 12.767125 5.134  z " style="fill: #fefebb; stroke: #444443; stroke-width: 0.5; stroke-linejoin: miter" />
   </g>
   <g id="text_1">
    
    <g style="fill: #444443" transform="translate(0 17.120751)scale(0.09 -0.09)">
     <defs>
      <path id="ArialMT-6e" d="M 422 0  L 422 3319  L 928 3319  L 928 2847  Q 1294 3394 1984 3394  Q 2284 3394 2536 3286  Q 2788 3178 2913 3003  Q 3038 2828 3088 2588  Q 3119 2431 3119 2041  L 3119 0  L 2556 0  L 2556 2019  Q 2556 2363 2490 2533  Q 2425 2703 2258 2804  Q 2091 2906 1866 2906  Q 1506 2906 1245 2678  Q 984 2450 984 1813  L 984 0  L 422 0  z " transform="scale(0.015625)" />
      <path id="ArialMT-3d" d="M 3381 2694  L 356 2694  L 356 3219  L 3381 3219  L 3381 2694  z M 3381 1303  L 356 1303  L 356 1828  L 3381 1828  L 3381 1303  z " transform="scale(0.015625)" />
      <path id="ArialMT-31" d="M 2384 0  L 1822 0  L 1822 3584  Q 1619 3391 1289 3197  Q 959 3003 697 2906  L 697 3450  Q 1169 3672 1522 3987  Q 1875 4303 2022 4600  L 2384 4600  L 2384 0  z " transform="scale(0.015625)" />
     </defs>
     <use xlink:href="#ArialMT-6e" />
     <use xlink:href="#ArialMT-3d" x="55.615234" />
     <use xlink:href="#ArialMT-31" x="114.013672" />
    </g>
    
    <g style="fill: #444443" transform="translate(0.125859 26.639939)scale(0.09 -0.09)">
     <defs>
      <path id="ArialMT-65" d="M 2694 1069  L 3275 997  Q 3138 488 2766 206  Q 2394 -75 1816 -75  Q 1088 -75 661 373  Q 234 822 234 1631  Q 234 2469 665 2931  Q 1097 3394 1784 3394  Q 2450 3394 2872 2941  Q 3294 2488 3294 1666  Q 3294 1616 3291 1516  L 816 1516  Q 847 969 1125 678  Q 1403 388 1819 388  Q 2128 388 2347 550  Q 2566 713 2694 1069  z M 847 1978  L 2700 1978  Q 2663 2397 2488 2606  Q 2219 2931 1791 2931  Q 1403 2931 1139 2672  Q 875 2413 847 1978  z " transform="scale(0.015625)" />
      <path id="ArialMT-67" d="M 319 -275  L 866 -356  Q 900 -609 1056 -725  Q 1266 -881 1628 -881  Q 2019 -881 2231 -725  Q 2444 -569 2519 -288  Q 2563 -116 2559 434  Q 2191 0 1641 0  Q 956 0 581 494  Q 206 988 206 1678  Q 206 2153 378 2554  Q 550 2956 876 3175  Q 1203 3394 1644 3394  Q 2231 3394 2613 2919  L 2613 3319  L 3131 3319  L 3131 450  Q 3131 -325 2973 -648  Q 2816 -972 2473 -1159  Q 2131 -1347 1631 -1347  Q 1038 -1347 672 -1080  Q 306 -813 319 -275  z M 784 1719  Q 784 1066 1043 766  Q 1303 466 1694 466  Q 2081 466 2343 764  Q 2606 1063 2606 1700  Q 2606 2309 2336 2618  Q 2066 2928 1684 2928  Q 1309 2928 1046 2623  Q 784 2319 784 1719  z " transform="scale(0.015625)" />
     </defs>
     <use xlink:href="#ArialMT-6e" />
     <use xlink:href="#ArialMT-65" x="55.615234" />
     <use xlink:href="#ArialMT-67" x="111.230469" />
    </g>
   </g>
  </g>
 </g>
</svg></g>

<g id="edge26" class="edge">
<title>node21-&gt;leaf23</title>
<path fill="none" stroke="#444443" stroke-width="0.3" d="M659.4,-99.69C663.05,-90.85 670.13,-73.68 675.59,-60.45" />
<polygon fill="#444443" stroke="#444443" stroke-width="0.3" points="677,-60.71 677.23,-56.48 674.41,-59.65 677,-60.71" />
</g>

<g id="node10" class="node">
<title>node17</title>
<text text-anchor="start" x="471" y="-144.4" font-family="Helvetica,sans-Serif" font-size="12.00" fill="#444443">Soca@2973.10</text>
</g>

<g id="edge28" class="edge">
<title>node17-&gt;node18</title>
<path fill="none" stroke="#444443" stroke-width="0.3" d="M513.15,-140.75C513.31,-134.57 513.56,-124.65 513.75,-117.25" />
<polygon fill="#444443" stroke="#444443" stroke-width="0.3" points="515.16,-117.06 513.86,-113.03 512.36,-116.99 515.16,-117.06" />
</g>

<g id="edge29" class="edge">
<title>node17-&gt;node21</title>
<path fill="none" stroke="#444443" stroke-width="0.3" d="M533.33,-140.99C559.34,-133.95 604.36,-121.76 632.31,-114.19" />
<polygon fill="#444443" stroke="#444443" stroke-width="0.3" points="632.82,-115.5 636.31,-113.1 632.08,-112.8 632.82,-115.5" />
</g>

<g id="node25" class="node">
<title>leaf24</title>
<polygon fill="none" stroke="#444443" stroke-width="0" points="589.5,-165 568.5,-165 568.5,-130 589.5,-130 589.5,-165" />
<svg width="13px" height="27px" viewBox="0 0 17.516 36.072077" version="1.1" preserveAspectRatio="xMinYMin meet" x="573" y="-160.5">
 <metadata>
  <rdf:RDF>
   <ns2:Work>
    <dc:type rdf:resource="http://purl.org/dc/dcmitype/StillImage" />
    <dc:date>2023-05-17T01:16:51.487317</dc:date>
    <dc:format>image/svg+xml</dc:format>
    <dc:creator>
     <ns2:Agent>
      <dc:title>Matplotlib v3.5.2, https://matplotlib.org/</dc:title>
     </ns2:Agent>
    </dc:creator>
   </ns2:Work>
  </rdf:RDF>
 </metadata>
 <defs>
  <style type="text/css">*{stroke-linejoin: round; stroke-linecap: butt}</style>
 </defs>
 <g id="figure_1">
  <g id="patch_1">
   <path d="M 0 36.072077  L 17.516 36.072077  L 17.516 0  L 0 0  z " style="fill: #ffffff" />
  </g>
  <g id="axes_1">
   <g id="patch_2">
    <path d="M 17.516 8.758  C 17.516 7.60791 17.289457 6.469003 16.849337 5.406458  C 16.409217 4.343914 15.764078 3.378395 14.950841 2.565159  C 14.137605 1.751922 13.172086 1.106783 12.109542 0.666663  C 11.046997 0.226543 9.90809 -0 8.758 -0  C 7.60791 -0 6.469003 0.226543 5.406458 0.666663  C 4.343914 1.106783 3.378395 1.751922 2.565159 2.565159  C 1.751922 3.378395 1.106783 4.343914 0.666663 5.406458  C 0.226543 6.469003 -0 7.60791 -0 8.758  C -0 9.90809 0.226543 11.046997 0.666663 12.109542  C 1.106783 13.172086 1.751922 14.137605 2.565159 14.950841  C 3.378395 15.764078 4.343914 16.409217 5.406458 16.849337  C 6.469003 17.289457 7.60791 17.516 8.758 17.516  C 9.90809 17.516 11.046997 17.289457 12.109542 16.849337  C 13.172086 16.409217 14.137605 15.764078 14.950841 14.950841  C 15.764078 14.137605 16.409217 13.172086 16.849337 12.109542  C 17.289457 11.046997 17.516 9.90809 17.516 8.758  M 8.758 8.758  M 17.516 8.758  z " style="fill: #fefebb; stroke: #444443; stroke-width: 0.5; stroke-linejoin: miter" />
   </g>
   <g id="text_1">
    
    <g style="fill: #444443" transform="translate(1.124875 24.658671)scale(0.09 -0.09)">
     <defs>
      <path id="ArialMT-6e" d="M 422 0  L 422 3319  L 928 3319  L 928 2847  Q 1294 3394 1984 3394  Q 2284 3394 2536 3286  Q 2788 3178 2913 3003  Q 3038 2828 3088 2588  Q 3119 2431 3119 2041  L 3119 0  L 2556 0  L 2556 2019  Q 2556 2363 2490 2533  Q 2425 2703 2258 2804  Q 2091 2906 1866 2906  Q 1506 2906 1245 2678  Q 984 2450 984 1813  L 984 0  L 422 0  z " transform="scale(0.015625)" />
      <path id="ArialMT-3d" d="M 3381 2694  L 356 2694  L 356 3219  L 3381 3219  L 3381 2694  z M 3381 1303  L 356 1303  L 356 1828  L 3381 1828  L 3381 1303  z " transform="scale(0.015625)" />
      <path id="ArialMT-37" d="M 303 3981  L 303 4522  L 3269 4522  L 3269 4084  Q 2831 3619 2401 2847  Q 1972 2075 1738 1259  Q 1569 684 1522 0  L 944 0  Q 953 541 1156 1306  Q 1359 2072 1739 2783  Q 2119 3494 2547 3981  L 303 3981  z " transform="scale(0.015625)" />
     </defs>
     <use xlink:href="#ArialMT-6e" />
     <use xlink:href="#ArialMT-3d" x="55.615234" />
     <use xlink:href="#ArialMT-37" x="114.013672" />
    </g>
    
    <g style="fill: #444443" transform="translate(1.250734 34.177859)scale(0.09 -0.09)">
     <defs>
      <path id="ArialMT-65" d="M 2694 1069  L 3275 997  Q 3138 488 2766 206  Q 2394 -75 1816 -75  Q 1088 -75 661 373  Q 234 822 234 1631  Q 234 2469 665 2931  Q 1097 3394 1784 3394  Q 2450 3394 2872 2941  Q 3294 2488 3294 1666  Q 3294 1616 3291 1516  L 816 1516  Q 847 969 1125 678  Q 1403 388 1819 388  Q 2128 388 2347 550  Q 2566 713 2694 1069  z M 847 1978  L 2700 1978  Q 2663 2397 2488 2606  Q 2219 2931 1791 2931  Q 1403 2931 1139 2672  Q 875 2413 847 1978  z " transform="scale(0.015625)" />
      <path id="ArialMT-67" d="M 319 -275  L 866 -356  Q 900 -609 1056 -725  Q 1266 -881 1628 -881  Q 2019 -881 2231 -725  Q 2444 -569 2519 -288  Q 2563 -116 2559 434  Q 2191 0 1641 0  Q 956 0 581 494  Q 206 988 206 1678  Q 206 2153 378 2554  Q 550 2956 876 3175  Q 1203 3394 1644 3394  Q 2231 3394 2613 2919  L 2613 3319  L 3131 3319  L 3131 450  Q 3131 -325 2973 -648  Q 2816 -972 2473 -1159  Q 2131 -1347 1631 -1347  Q 1038 -1347 672 -1080  Q 306 -813 319 -275  z M 784 1719  Q 784 1066 1043 766  Q 1303 466 1694 466  Q 2081 466 2343 764  Q 2606 1063 2606 1700  Q 2606 2309 2336 2618  Q 2066 2928 1684 2928  Q 1309 2928 1046 2623  Q 784 2319 784 1719  z " transform="scale(0.015625)" />
     </defs>
     <use xlink:href="#ArialMT-6e" />
     <use xlink:href="#ArialMT-65" x="55.615234" />
     <use xlink:href="#ArialMT-67" x="111.230469" />
    </g>
   </g>
  </g>
 </g>
</svg></g>


<g id="edge31" class="edge">
<title>node16-&gt;node17</title>
<path fill="none" stroke="#444443" stroke-width="0.3" d="M490.84,-181.75C495.11,-175.34 502.07,-164.9 507.05,-157.42" />
<polygon fill="#444443" stroke="#444443" stroke-width="0.3" points="508.26,-158.13 509.32,-154.03 505.93,-156.58 508.26,-158.13" />
</g>

<g id="edge32" class="edge">
<title>node16-&gt;leaf24</title>
<path fill="none" stroke="#444443" stroke-width="0.3" d="M500.18,-181.91C517.27,-174.67 546.98,-162.08 564.63,-154.59" />
<polygon fill="#444443" stroke="#444443" stroke-width="0.3" points="565.28,-155.84 568.42,-152.99 564.19,-153.26 565.28,-155.84" />
</g>

<g id="node12" class="node">
<title>node0</title>
<text text-anchor="start" x="334" y="-244.9" font-family="Helvetica,sans-Serif" font-size="12.00" fill="#444443">Dinophysis fortii@35.14</text>
</g>

<g id="edge34" class="edge">
<title>node0-&gt;node1</title>
<path fill="none" stroke="#444443" stroke-width="0.3" d="M390.14,-241.49C375.68,-231.35 344.79,-209.69 327.81,-197.78" />
<polygon fill="#444443" stroke="#444443" stroke-width="0.3" points="328.28,-196.4 324.2,-195.25 326.67,-198.69 328.28,-196.4" />
<text text-anchor="start" x="355" y="-206.8" font-family="Times,serif" font-size="14.00">&#8804;</text>
</g>

<g id="edge35" class="edge">
<title>node0-&gt;node16</title>
<path fill="none" stroke="#444443" stroke-width="0.3" d="M406.53,-241.49C422.44,-231.21 456.66,-209.1 474.93,-197.3" />
<polygon fill="#444443" stroke="#444443" stroke-width="0.3" points="475.76,-198.43 478.36,-195.08 474.24,-196.08 475.76,-198.43" />
<text text-anchor="start" x="465" y="-206.8" font-family="Times,serif" font-size="14.00">&gt;</text>
</g>







<g id="node26" class="node">
<title>legend</title>
<polygon fill="none" stroke="black" stroke-width="0" points="515,-270 469,-270 469,-226 515,-226 515,-270" />
<svg width="42px" height="40px" viewBox="0 0 56.182812 54.36" version="1.1" preserveAspectRatio="xMinYMin meet" x="471" y="-268">
 <metadata>
  <rdf:RDF>
   <ns2:Work>
    <dc:type rdf:resource="http://purl.org/dc/dcmitype/StillImage" />
    <dc:date>2023-05-17T01:16:50.865791</dc:date>
    <dc:format>image/svg+xml</dc:format>
    <dc:creator>
     <ns2:Agent>
      <dc:title>Matplotlib v3.5.2, https://matplotlib.org/</dc:title>
     </ns2:Agent>
    </dc:creator>
   </ns2:Work>
  </rdf:RDF>
 </metadata>
 <defs>
  <style type="text/css">*{stroke-linejoin: round; stroke-linecap: butt}</style>
 </defs>
 <g id="figure_1">
  <g id="patch_1">
   <path d="M 0 54.36  L 56.182812 54.36  L 56.182812 0  L 0 0  z " style="fill: #ffffff" />
  </g>
  <g id="axes_1">
   <g id="legend_1">
    <g id="patch_2">
     <path d="M 2 54.015156  L 54.182812 54.015156  Q 56.182812 54.015156 56.182812 52.015156  L 56.182812 2.344844  Q 56.182812 0.344844 54.182812 0.344844  L 2 0.344844  Q 0 0.344844 0 2.344844  L 0 52.015156  Q 0 54.015156 2 54.015156  z " style="fill: #ffffff; opacity: 0.8; stroke: #444443; stroke-width: 0.5; stroke-linejoin: miter" />
    </g>
    <g id="text_1">
     
     <g style="fill: #444443" transform="translate(14.200781 15.502656)scale(0.1 -0.1)">
      <defs>
       <path id="Arial-BoldMT-74" d="M 1981 3319  L 1981 2619  L 1381 2619  L 1381 1281  Q 1381 875 1398 808  Q 1416 741 1477 697  Q 1538 653 1625 653  Q 1747 653 1978 738  L 2053 56  Q 1747 -75 1359 -75  Q 1122 -75 931 4  Q 741 84 652 211  Q 563 338 528 553  Q 500 706 500 1172  L 500 2619  L 97 2619  L 97 3319  L 500 3319  L 500 3978  L 1381 4491  L 1381 3319  L 1981 3319  z " transform="scale(0.015625)" />
       <path id="Arial-BoldMT-61" d="M 1116 2306  L 319 2450  Q 453 2931 781 3162  Q 1109 3394 1756 3394  Q 2344 3394 2631 3255  Q 2919 3116 3036 2902  Q 3153 2688 3153 2116  L 3144 1091  Q 3144 653 3186 445  Q 3228 238 3344 0  L 2475 0  Q 2441 88 2391 259  Q 2369 338 2359 363  Q 2134 144 1878 34  Q 1622 -75 1331 -75  Q 819 -75 523 203  Q 228 481 228 906  Q 228 1188 362 1408  Q 497 1628 739 1745  Q 981 1863 1438 1950  Q 2053 2066 2291 2166  L 2291 2253  Q 2291 2506 2166 2614  Q 2041 2722 1694 2722  Q 1459 2722 1328 2630  Q 1197 2538 1116 2306  z M 2291 1594  Q 2122 1538 1756 1459  Q 1391 1381 1278 1306  Q 1106 1184 1106 997  Q 1106 813 1243 678  Q 1381 544 1594 544  Q 1831 544 2047 700  Q 2206 819 2256 991  Q 2291 1103 2291 1419  L 2291 1594  z " transform="scale(0.015625)" />
       <path id="Arial-BoldMT-72" d="M 1300 0  L 422 0  L 422 3319  L 1238 3319  L 1238 2847  Q 1447 3181 1614 3287  Q 1781 3394 1994 3394  Q 2294 3394 2572 3228  L 2300 2463  Q 2078 2606 1888 2606  Q 1703 2606 1575 2504  Q 1447 2403 1373 2137  Q 1300 1872 1300 1025  L 1300 0  z " transform="scale(0.015625)" />
       <path id="Arial-BoldMT-67" d="M 378 -219  L 1381 -341  Q 1406 -516 1497 -581  Q 1622 -675 1891 -675  Q 2234 -675 2406 -572  Q 2522 -503 2581 -350  Q 2622 -241 2622 53  L 2622 538  Q 2228 0 1628 0  Q 959 0 569 566  Q 263 1013 263 1678  Q 263 2513 664 2953  Q 1066 3394 1663 3394  Q 2278 3394 2678 2853  L 2678 3319  L 3500 3319  L 3500 341  Q 3500 -247 3403 -537  Q 3306 -828 3131 -993  Q 2956 -1159 2664 -1253  Q 2372 -1347 1925 -1347  Q 1081 -1347 728 -1058  Q 375 -769 375 -325  Q 375 -281 378 -219  z M 1163 1728  Q 1163 1200 1367 954  Q 1572 709 1872 709  Q 2194 709 2416 961  Q 2638 1213 2638 1706  Q 2638 2222 2425 2472  Q 2213 2722 1888 2722  Q 1572 2722 1367 2476  Q 1163 2231 1163 1728  z " transform="scale(0.015625)" />
       <path id="Arial-BoldMT-65" d="M 2381 1056  L 3256 909  Q 3088 428 2723 176  Q 2359 -75 1813 -75  Q 947 -75 531 491  Q 203 944 203 1634  Q 203 2459 634 2926  Q 1066 3394 1725 3394  Q 2466 3394 2894 2905  Q 3322 2416 3303 1406  L 1103 1406  Q 1113 1016 1316 798  Q 1519 581 1822 581  Q 2028 581 2168 693  Q 2309 806 2381 1056  z M 2431 1944  Q 2422 2325 2234 2523  Q 2047 2722 1778 2722  Q 1491 2722 1303 2513  Q 1116 2303 1119 1944  L 2431 1944  z " transform="scale(0.015625)" />
      </defs>
      <use xlink:href="#Arial-BoldMT-74" />
      <use xlink:href="#Arial-BoldMT-61" x="33.300781" />
      <use xlink:href="#Arial-BoldMT-72" x="88.916016" />
      <use xlink:href="#Arial-BoldMT-67" x="127.832031" />
      <use xlink:href="#Arial-BoldMT-65" x="188.916016" />
      <use xlink:href="#Arial-BoldMT-74" x="244.53125" />
     </g>
    </g>
    <g id="patch_3">
     <path d="M 8 29.765156  L 28 29.765156  L 28 22.765156  L 8 22.765156  z " style="fill: #fefebb; stroke: #444443; stroke-width: 0.4; stroke-linejoin: miter" />
    </g>
    <g id="text_2">
     
     <g style="fill: #444443" transform="translate(31.5 29.765156)scale(0.1 -0.1)">
      <defs>
       <path id="ArialMT-6e" d="M 422 0  L 422 3319  L 928 3319  L 928 2847  Q 1294 3394 1984 3394  Q 2284 3394 2536 3286  Q 2788 3178 2913 3003  Q 3038 2828 3088 2588  Q 3119 2431 3119 2041  L 3119 0  L 2556 0  L 2556 2019  Q 2556 2363 2490 2533  Q 2425 2703 2258 2804  Q 2091 2906 1866 2906  Q 1506 2906 1245 2678  Q 984 2450 984 1813  L 984 0  L 422 0  z " transform="scale(0.015625)" />
       <path id="ArialMT-65" d="M 2694 1069  L 3275 997  Q 3138 488 2766 206  Q 2394 -75 1816 -75  Q 1088 -75 661 373  Q 234 822 234 1631  Q 234 2469 665 2931  Q 1097 3394 1784 3394  Q 2450 3394 2872 2941  Q 3294 2488 3294 1666  Q 3294 1616 3291 1516  L 816 1516  Q 847 969 1125 678  Q 1403 388 1819 388  Q 2128 388 2347 550  Q 2566 713 2694 1069  z M 847 1978  L 2700 1978  Q 2663 2397 2488 2606  Q 2219 2931 1791 2931  Q 1403 2931 1139 2672  Q 875 2413 847 1978  z " transform="scale(0.015625)" />
       <path id="ArialMT-67" d="M 319 -275  L 866 -356  Q 900 -609 1056 -725  Q 1266 -881 1628 -881  Q 2019 -881 2231 -725  Q 2444 -569 2519 -288  Q 2563 -116 2559 434  Q 2191 0 1641 0  Q 956 0 581 494  Q 206 988 206 1678  Q 206 2153 378 2554  Q 550 2956 876 3175  Q 1203 3394 1644 3394  Q 2231 3394 2613 2919  L 2613 3319  L 3131 3319  L 3131 450  Q 3131 -325 2973 -648  Q 2816 -972 2473 -1159  Q 2131 -1347 1631 -1347  Q 1038 -1347 672 -1080  Q 306 -813 319 -275  z M 784 1719  Q 784 1066 1043 766  Q 1303 466 1694 466  Q 2081 466 2343 764  Q 2606 1063 2606 1700  Q 2606 2309 2336 2618  Q 2066 2928 1684 2928  Q 1309 2928 1046 2623  Q 784 2319 784 1719  z " transform="scale(0.015625)" />
      </defs>
      <use xlink:href="#ArialMT-6e" />
      <use xlink:href="#ArialMT-65" x="55.615234" />
      <use xlink:href="#ArialMT-67" x="111.230469" />
     </g>
    </g>
    <g id="patch_4">
     <path d="M 8 44.027656  L 28 44.027656  L 28 37.027656  L 8 37.027656  z " style="fill: #a1dab4; stroke: #444443; stroke-width: 0.4; stroke-linejoin: miter" />
    </g>
    <g id="text_3">
     
     <g style="fill: #444443" transform="translate(31.5 44.027656)scale(0.1 -0.1)">
      <defs>
       <path id="ArialMT-70" d="M 422 -1272  L 422 3319  L 934 3319  L 934 2888  Q 1116 3141 1344 3267  Q 1572 3394 1897 3394  Q 2322 3394 2647 3175  Q 2972 2956 3137 2557  Q 3303 2159 3303 1684  Q 3303 1175 3120 767  Q 2938 359 2589 142  Q 2241 -75 1856 -75  Q 1575 -75 1351 44  Q 1128 163 984 344  L 984 -1272  L 422 -1272  z M 931 1641  Q 931 1000 1190 694  Q 1450 388 1819 388  Q 2194 388 2461 705  Q 2728 1022 2728 1688  Q 2728 2322 2467 2637  Q 2206 2953 1844 2953  Q 1484 2953 1207 2617  Q 931 2281 931 1641  z " transform="scale(0.015625)" />
       <path id="ArialMT-6f" d="M 213 1659  Q 213 2581 725 3025  Q 1153 3394 1769 3394  Q 2453 3394 2887 2945  Q 3322 2497 3322 1706  Q 3322 1066 3130 698  Q 2938 331 2570 128  Q 2203 -75 1769 -75  Q 1072 -75 642 372  Q 213 819 213 1659  z M 791 1659  Q 791 1022 1069 705  Q 1347 388 1769 388  Q 2188 388 2466 706  Q 2744 1025 2744 1678  Q 2744 2294 2464 2611  Q 2184 2928 1769 2928  Q 1347 2928 1069 2612  Q 791 2297 791 1659  z " transform="scale(0.015625)" />
       <path id="ArialMT-7a" d="M 125 0  L 125 456  L 2238 2881  Q 1878 2863 1603 2863  L 250 2863  L 250 3319  L 2963 3319  L 2963 2947  L 1166 841  L 819 456  Q 1197 484 1528 484  L 3063 484  L 3063 0  L 125 0  z " transform="scale(0.015625)" />
      </defs>
      <use xlink:href="#ArialMT-70" />
      <use xlink:href="#ArialMT-6f" x="55.615234" />
      <use xlink:href="#ArialMT-7a" x="111.230469" />
     </g>
    </g>
   </g>
  </g>
 </g>
</svg></g>
</g>
</svg>