<svg xmlns="http://www.w3.org/2000/svg" xmlns:dc="http://purl.org/dc/elements/1.1/" xmlns:ns2="http://creativecommons.org/ns#" xmlns:rdf="http://www.w3.org/1999/02/22-rdf-syntax-ns#" xmlns:xlink="http://www.w3.org/1999/xlink" width="1141.5" height="478.5" viewBox="0.0 0.0 1141.5 478.5">
<g id="graph0" class="graph" transform="scale(1.5 1.5) rotate(0) translate(4 315)">
<title>G</title>
<polygon fill="white" stroke="transparent" points="-4,4 -4,-315 757,-315 757,4 -4,4" />
<g id="clust14" class="cluster">
<title>cluster_legend</title>
</g>

<g id="node1" class="node">
<title>node4</title>
<text text-anchor="start" x="35.5" y="-130.9" font-family="Helvetica,sans-Serif" font-size="12.00" fill="#444443">wind strength@2.30</text>
</g>

<g id="node14" class="node">
<title>leaf5</title>
<polygon fill="none" stroke="#444443" stroke-width="0" points="57.5,-60.5 34.5,-60.5 34.5,-22.5 57.5,-22.5 57.5,-60.5" />
<svg width="15px" height="30px" viewBox="0 0 21.14 39.841037" version="1.1" preserveAspectRatio="xMinYMin meet" x="39" y="-56.5">
 <metadata>
  <rdf:RDF>
   <ns2:Work>
    <dc:type rdf:resource="http://purl.org/dc/dcmitype/StillImage" />
    <dc:date>2023-05-19T16:12:51.780227</dc:date>
    <dc:format>image/svg+xml</dc:format>
    <dc:creator>
     <ns2:Agent>
      <dc:title>Matplotlib v3.5.2, https://matplotlib.org/</dc:title>
     </ns2:Agent>
    </dc:creator>
   </ns2:Work>
  </rdf:RDF>
 </metadata>
 <defs>
  <style type="text/css">*{stroke-linejoin: round; stroke-linecap: butt}</style>
 </defs>
 <g id="figure_1">
  <g id="patch_1">
   <path d="M 0 39.841037  L 21.14 39.841037  L 21.14 0  L 0 0  L 0 39.841037  z " style="fill: none" />
  </g>
  <g id="axes_1">
   <g id="patch_2">
    <path d="M 21.14 10.57  C 21.14 9.18196 20.866586 7.807418 20.335407 6.525036  C 19.804227 5.242655 19.025611 4.077374 18.044119 3.095881  C 17.062626 2.114389 15.897345 1.335773 14.614964 0.804593  C 13.332582 0.273414 11.95804 0 10.57 0  C 9.18196 0 7.807418 0.273414 6.525036 0.804593  C 5.242655 1.335773 4.077374 2.114389 3.095881 3.095881  C 2.114389 4.077374 1.335773 5.242655 0.804593 6.525036  C 0.273414 7.807418 0 9.18196 0 10.57  C 0 11.95804 0.273414 13.332582 0.804593 14.614964  C 1.335773 15.897345 2.114389 17.062626 3.095881 18.044119  C 4.077374 19.025611 5.242655 19.804227 6.525036 20.335407  C 7.807418 20.866586 9.18196 21.14 10.57 21.14  C 11.95804 21.14 13.332582 20.866586 14.614964 20.335407  C 15.897345 19.804227 17.062626 19.025611 18.044119 18.044119  C 19.025611 17.062626 19.804227 15.897345 20.335407 14.614964  C 20.866586 13.332582 21.14 11.95804 21.14 10.57  M 10.57 10.57  M 21.14 10.57  z " style="fill: #fefebb; stroke: #444443; stroke-width: 0.5; stroke-linejoin: miter" />
   </g>
   <g id="text_1">
    
    <g style="fill: #444443" transform="translate(0.434453 28.427631)scale(0.09 -0.09)">
     <defs>
      <path id="ArialMT-6e" d="M 422 0  L 422 3319  L 928 3319  L 928 2847  Q 1294 3394 1984 3394  Q 2284 3394 2536 3286  Q 2788 3178 2913 3003  Q 3038 2828 3088 2588  Q 3119 2431 3119 2041  L 3119 0  L 2556 0  L 2556 2019  Q 2556 2363 2490 2533  Q 2425 2703 2258 2804  Q 2091 2906 1866 2906  Q 1506 2906 1245 2678  Q 984 2450 984 1813  L 984 0  L 422 0  z " transform="scale(0.015625)" />
      <path id="ArialMT-3d" d="M 3381 2694  L 356 2694  L 356 3219  L 3381 3219  L 3381 2694  z M 3381 1303  L 356 1303  L 356 1828  L 3381 1828  L 3381 1303  z " transform="scale(0.015625)" />
      <path id="ArialMT-31" d="M 2384 0  L 1822 0  L 1822 3584  Q 1619 3391 1289 3197  Q 959 3003 697 2906  L 697 3450  Q 1169 3672 1522 3987  Q 1875 4303 2022 4600  L 2384 4600  L 2384 0  z " transform="scale(0.015625)" />
      <path id="ArialMT-30" d="M 266 2259  Q 266 3072 433 3567  Q 600 4063 929 4331  Q 1259 4600 1759 4600  Q 2128 4600 2406 4451  Q 2684 4303 2865 4023  Q 3047 3744 3150 3342  Q 3253 2941 3253 2259  Q 3253 1453 3087 958  Q 2922 463 2592 192  Q 2263 -78 1759 -78  Q 1097 -78 719 397  Q 266 969 266 2259  z M 844 2259  Q 844 1131 1108 757  Q 1372 384 1759 384  Q 2147 384 2411 759  Q 2675 1134 2675 2259  Q 2675 3391 2411 3762  Q 2147 4134 1753 4134  Q 1366 4134 1134 3806  Q 844 3388 844 2259  z " transform="scale(0.015625)" />
     </defs>
     <use xlink:href="#ArialMT-6e" />
     <use xlink:href="#ArialMT-3d" x="55.615234" />
     <use xlink:href="#ArialMT-31" x="114.013672" />
     <use xlink:href="#ArialMT-30" x="169.628906" />
    </g>
    
    <g style="fill: #444443" transform="translate(3.062734 37.946819)scale(0.09 -0.09)">
     <defs>
      <path id="ArialMT-65" d="M 2694 1069  L 3275 997  Q 3138 488 2766 206  Q 2394 -75 1816 -75  Q 1088 -75 661 373  Q 234 822 234 1631  Q 234 2469 665 2931  Q 1097 3394 1784 3394  Q 2450 3394 2872 2941  Q 3294 2488 3294 1666  Q 3294 1616 3291 1516  L 816 1516  Q 847 969 1125 678  Q 1403 388 1819 388  Q 2128 388 2347 550  Q 2566 713 2694 1069  z M 847 1978  L 2700 1978  Q 2663 2397 2488 2606  Q 2219 2931 1791 2931  Q 1403 2931 1139 2672  Q 875 2413 847 1978  z " transform="scale(0.015625)" />
      <path id="ArialMT-67" d="M 319 -275  L 866 -356  Q 900 -609 1056 -725  Q 1266 -881 1628 -881  Q 2019 -881 2231 -725  Q 2444 -569 2519 -288  Q 2563 -116 2559 434  Q 2191 0 1641 0  Q 956 0 581 494  Q 206 988 206 1678  Q 206 2153 378 2554  Q 550 2956 876 3175  Q 1203 3394 1644 3394  Q 2231 3394 2613 2919  L 2613 3319  L 3131 3319  L 3131 450  Q 3131 -325 2973 -648  Q 2816 -972 2473 -1159  Q 2131 -1347 1631 -1347  Q 1038 -1347 672 -1080  Q 306 -813 319 -275  z M 784 1719  Q 784 1066 1043 766  Q 1303 466 1694 466  Q 2081 466 2343 764  Q 2606 1063 2606 1700  Q 2606 2309 2336 2618  Q 2066 2928 1684 2928  Q 1309 2928 1046 2623  Q 784 2319 784 1719  z " transform="scale(0.015625)" />
     </defs>
     <use xlink:href="#ArialMT-6e" />
     <use xlink:href="#ArialMT-65" x="55.615234" />
     <use xlink:href="#ArialMT-67" x="111.230469" />
    </g>
   </g>
  </g>
 </g>
</svg></g>

<g id="edge1" class="edge">
<title>node4-&gt;leaf5</title>
<path fill="none" stroke="#444443" stroke-width="0.3" d="M86.31,-127.34C80.46,-115.03 66.31,-85.25 56.44,-64.47" />
<polygon fill="#444443" stroke="#444443" stroke-width="0.3" points="57.63,-63.72 54.65,-60.7 55.1,-64.92 57.63,-63.72" />
</g>

<g id="node15" class="node">
<title>leaf6</title>
<polygon fill="none" stroke="#444443" stroke-width="0" points="90.5,-57 71.5,-57 71.5,-26 90.5,-26 90.5,-57" />
<svg width="11px" height="23px" viewBox="0 0 15.26625 30.941329" version="1.1" preserveAspectRatio="xMinYMin meet" x="76" y="-52.5">
 <metadata>
  <rdf:RDF>
   <ns2:Work>
    <dc:type rdf:resource="http://purl.org/dc/dcmitype/StillImage" />
    <dc:date>2023-05-19T16:12:51.820702</dc:date>
    <dc:format>image/svg+xml</dc:format>
    <dc:creator>
     <ns2:Agent>
      <dc:title>Matplotlib v3.5.2, https://matplotlib.org/</dc:title>
     </ns2:Agent>
    </dc:creator>
   </ns2:Work>
  </rdf:RDF>
 </metadata>
 <defs>
  <style type="text/css">*{stroke-linejoin: round; stroke-linecap: butt}</style>
 </defs>
 <g id="figure_1">
  <g id="patch_1">
   <path d="M 0 30.941329  L 15.26625 30.941329  L 15.26625 -0  L 0 -0  L 0 30.941329  z " style="fill: none" />
  </g>
  <g id="axes_1">
   <g id="patch_2">
    <path d="M 13.975125 6.342  C 13.975125 5.509176 13.811077 4.684451 13.492369 3.915022  C 13.173661 3.145593 12.706492 2.446424 12.117596 1.857529  C 11.528701 1.268633 10.829532 0.801464 10.060103 0.482756  C 9.290674 0.164048 8.465949 0 7.633125 0  C 6.800301 0 5.975576 0.164048 5.206147 0.482756  C 4.436718 0.801464 3.737549 1.268633 3.148654 1.857529  C 2.559758 2.446424 2.092589 3.145593 1.773881 3.915022  C 1.455173 4.684451 1.291125 5.509176 1.291125 6.342  C 1.291125 7.174824 1.455173 7.999549 1.773881 8.768978  C 2.092589 9.538407 2.559758 10.237576 3.148654 10.826471  C 3.737549 11.415367 4.436718 11.882536 5.206147 12.201244  C 5.975576 12.519952 6.800301 12.684 7.633125 12.684  C 8.465949 12.684 9.290674 12.519952 10.060103 12.201244  C 10.829532 11.882536 11.528701 11.415367 12.117596 10.826471  C 12.706492 10.237576 13.173661 9.538407 13.492369 8.768978  C 13.811077 7.999549 13.975125 7.174824 13.975125 6.342  M 7.633125 6.342  M 13.975125 6.342  z " style="fill: #a1dab4; stroke: #444443; stroke-width: 0.5; stroke-linejoin: miter" />
   </g>
   <g id="text_1">
    
    <g style="fill: #444443" transform="translate(0 19.633391)scale(0.09 -0.09)">
     <defs>
      <path id="ArialMT-6e" d="M 422 0  L 422 3319  L 928 3319  L 928 2847  Q 1294 3394 1984 3394  Q 2284 3394 2536 3286  Q 2788 3178 2913 3003  Q 3038 2828 3088 2588  Q 3119 2431 3119 2041  L 3119 0  L 2556 0  L 2556 2019  Q 2556 2363 2490 2533  Q 2425 2703 2258 2804  Q 2091 2906 1866 2906  Q 1506 2906 1245 2678  Q 984 2450 984 1813  L 984 0  L 422 0  z " transform="scale(0.015625)" />
      <path id="ArialMT-3d" d="M 3381 2694  L 356 2694  L 356 3219  L 3381 3219  L 3381 2694  z M 3381 1303  L 356 1303  L 356 1828  L 3381 1828  L 3381 1303  z " transform="scale(0.015625)" />
      <path id="ArialMT-33" d="M 269 1209  L 831 1284  Q 928 806 1161 595  Q 1394 384 1728 384  Q 2125 384 2398 659  Q 2672 934 2672 1341  Q 2672 1728 2419 1979  Q 2166 2231 1775 2231  Q 1616 2231 1378 2169  L 1441 2663  Q 1497 2656 1531 2656  Q 1891 2656 2178 2843  Q 2466 3031 2466 3422  Q 2466 3731 2256 3934  Q 2047 4138 1716 4138  Q 1388 4138 1169 3931  Q 950 3725 888 3313  L 325 3413  Q 428 3978 793 4289  Q 1159 4600 1703 4600  Q 2078 4600 2393 4439  Q 2709 4278 2876 4000  Q 3044 3722 3044 3409  Q 3044 3113 2884 2869  Q 2725 2625 2413 2481  Q 2819 2388 3044 2092  Q 3269 1797 3269 1353  Q 3269 753 2831 336  Q 2394 -81 1725 -81  Q 1122 -81 723 278  Q 325 638 269 1209  z " transform="scale(0.015625)" />
     </defs>
     <use xlink:href="#ArialMT-6e" />
     <use xlink:href="#ArialMT-3d" x="55.615234" />
     <use xlink:href="#ArialMT-33" x="114.013672" />
    </g>
    
    <g style="fill: #444443" transform="translate(0.378281 29.152579)scale(0.09 -0.09)">
     <defs>
      <path id="ArialMT-70" d="M 422 -1272  L 422 3319  L 934 3319  L 934 2888  Q 1116 3141 1344 3267  Q 1572 3394 1897 3394  Q 2322 3394 2647 3175  Q 2972 2956 3137 2557  Q 3303 2159 3303 1684  Q 3303 1175 3120 767  Q 2938 359 2589 142  Q 2241 -75 1856 -75  Q 1575 -75 1351 44  Q 1128 163 984 344  L 984 -1272  L 422 -1272  z M 931 1641  Q 931 1000 1190 694  Q 1450 388 1819 388  Q 2194 388 2461 705  Q 2728 1022 2728 1688  Q 2728 2322 2467 2637  Q 2206 2953 1844 2953  Q 1484 2953 1207 2617  Q 931 2281 931 1641  z " transform="scale(0.015625)" />
      <path id="ArialMT-6f" d="M 213 1659  Q 213 2581 725 3025  Q 1153 3394 1769 3394  Q 2453 3394 2887 2945  Q 3322 2497 3322 1706  Q 3322 1066 3130 698  Q 2938 331 2570 128  Q 2203 -75 1769 -75  Q 1072 -75 642 372  Q 213 819 213 1659  z M 791 1659  Q 791 1022 1069 705  Q 1347 388 1769 388  Q 2188 388 2466 706  Q 2744 1025 2744 1678  Q 2744 2294 2464 2611  Q 2184 2928 1769 2928  Q 1347 2928 1069 2612  Q 791 2297 791 1659  z " transform="scale(0.015625)" />
      <path id="ArialMT-7a" d="M 125 0  L 125 456  L 2238 2881  Q 1878 2863 1603 2863  L 250 2863  L 250 3319  L 2963 3319  L 2963 2947  L 1166 841  L 819 456  Q 1197 484 1528 484  L 3063 484  L 3063 0  L 125 0  z " transform="scale(0.015625)" />
     </defs>
     <use xlink:href="#ArialMT-70" />
     <use xlink:href="#ArialMT-6f" x="55.615234" />
     <use xlink:href="#ArialMT-7a" x="111.230469" />
    </g>
   </g>
  </g>
 </g>
</svg></g>

<g id="edge2" class="edge">
<title>node4-&gt;leaf6</title>
<path fill="none" stroke="#444443" stroke-width="0.3" d="M88.5,-127.34C87.35,-114.35 84.49,-81.94 82.65,-61.14" />
<polygon fill="#444443" stroke="#444443" stroke-width="0.3" points="84.04,-61.01 82.29,-57.15 81.25,-61.26 84.04,-61.01" />
</g>

<g id="node2" class="node">
<title>node2</title>
<text text-anchor="start" x="67" y="-188.4" font-family="Helvetica,sans-Serif" font-size="12.00" fill="#444443">sun [h]@57.25</text>
</g>

<g id="edge5" class="edge">
<title>node2-&gt;node4</title>
<path fill="none" stroke="#444443" stroke-width="0.3" d="M104.31,-184.98C101.41,-175.5 95.45,-156.05 91.88,-144.41" />
<polygon fill="#444443" stroke="#444443" stroke-width="0.3" points="93.2,-143.92 90.69,-140.5 90.52,-144.74 93.2,-143.92" />
</g>

<g id="node5" class="node">
<title>node7</title>
<text text-anchor="start" x="171.5" y="-188.4" font-family="Helvetica,sans-Serif" font-size="12.00" fill="#444443">DSP@145.00</text>
</g>


<g id="node16" class="node">
<title>leaf3</title>
<polygon fill="none" stroke="#444443" stroke-width="0" points="22,-151.5 0,-151.5 0,-116.5 22,-116.5 22,-151.5" />
<svg width="14px" height="27px" viewBox="0 0 18.724 37.222929" version="1.1" preserveAspectRatio="xMinYMin meet" x="4" y="-147">
 <metadata>
  <rdf:RDF>
   <ns2:Work>
    <dc:type rdf:resource="http://purl.org/dc/dcmitype/StillImage" />
    <dc:date>2023-05-19T16:12:51.746840</dc:date>
    <dc:format>image/svg+xml</dc:format>
    <dc:creator>
     <ns2:Agent>
      <dc:title>Matplotlib v3.5.2, https://matplotlib.org/</dc:title>
     </ns2:Agent>
    </dc:creator>
   </ns2:Work>
  </rdf:RDF>
 </metadata>
 <defs>
  <style type="text/css">*{stroke-linejoin: round; stroke-linecap: butt}</style>
 </defs>
 <g id="figure_1">
  <g id="patch_1">
   <path d="M 0 37.222929  L 18.724 37.222929  L 18.724 0  L 0 0  L 0 37.222929  z " style="fill: none" />
  </g>
  <g id="axes_1">
   <g id="patch_2">
    <path d="M 18.724 9.362  C 18.724 8.132593 18.481834 6.915141 18.01136 5.779318  C 17.540887 4.643494 16.851255 3.611388 15.981934 2.742066  C 15.112612 1.872745 14.080506 1.183113 12.944682 0.71264  C 11.808859 0.242166 10.591407 0 9.362 0  C 8.132593 0 6.915141 0.242166 5.779318 0.71264  C 4.643494 1.183113 3.611388 1.872745 2.742066 2.742066  C 1.872745 3.611388 1.183113 4.643494 0.71264 5.779318  C 0.242166 6.915141 0 8.132593 0 9.362  C 0 10.591407 0.242166 11.808859 0.71264 12.944682  C 1.183113 14.080506 1.872745 15.112612 2.742066 15.981934  C 3.611388 16.851255 4.643494 17.540887 5.779318 18.01136  C 6.915141 18.481834 8.132593 18.724 9.362 18.724  C 10.591407 18.724 11.808859 18.481834 12.944682 18.01136  C 14.080506 17.540887 15.112612 16.851255 15.981934 15.981934  C 16.851255 15.112612 17.540887 14.080506 18.01136 12.944682  C 18.481834 11.808859 18.724 10.591407 18.724 9.362  M 9.362 9.362  M 18.724 9.362  z " style="fill: #a1dab4; stroke: #444443; stroke-width: 0.5; stroke-linejoin: miter" />
   </g>
   <g id="text_1">
    
    <g style="fill: #444443" transform="translate(1.728875 25.914991)scale(0.09 -0.09)">
     <defs>
      <path id="ArialMT-6e" d="M 422 0  L 422 3319  L 928 3319  L 928 2847  Q 1294 3394 1984 3394  Q 2284 3394 2536 3286  Q 2788 3178 2913 3003  Q 3038 2828 3088 2588  Q 3119 2431 3119 2041  L 3119 0  L 2556 0  L 2556 2019  Q 2556 2363 2490 2533  Q 2425 2703 2258 2804  Q 2091 2906 1866 2906  Q 1506 2906 1245 2678  Q 984 2450 984 1813  L 984 0  L 422 0  z " transform="scale(0.015625)" />
      <path id="ArialMT-3d" d="M 3381 2694  L 356 2694  L 356 3219  L 3381 3219  L 3381 2694  z M 3381 1303  L 356 1303  L 356 1828  L 3381 1828  L 3381 1303  z " transform="scale(0.015625)" />
      <path id="ArialMT-38" d="M 1131 2484  Q 781 2613 612 2850  Q 444 3088 444 3419  Q 444 3919 803 4259  Q 1163 4600 1759 4600  Q 2359 4600 2725 4251  Q 3091 3903 3091 3403  Q 3091 3084 2923 2848  Q 2756 2613 2416 2484  Q 2838 2347 3058 2040  Q 3278 1734 3278 1309  Q 3278 722 2862 322  Q 2447 -78 1769 -78  Q 1091 -78 675 323  Q 259 725 259 1325  Q 259 1772 486 2073  Q 713 2375 1131 2484  z M 1019 3438  Q 1019 3113 1228 2906  Q 1438 2700 1772 2700  Q 2097 2700 2305 2904  Q 2513 3109 2513 3406  Q 2513 3716 2298 3927  Q 2084 4138 1766 4138  Q 1444 4138 1231 3931  Q 1019 3725 1019 3438  z M 838 1322  Q 838 1081 952 856  Q 1066 631 1291 507  Q 1516 384 1775 384  Q 2178 384 2440 643  Q 2703 903 2703 1303  Q 2703 1709 2433 1975  Q 2163 2241 1756 2241  Q 1359 2241 1098 1978  Q 838 1716 838 1322  z " transform="scale(0.015625)" />
     </defs>
     <use xlink:href="#ArialMT-6e" />
     <use xlink:href="#ArialMT-3d" x="55.615234" />
     <use xlink:href="#ArialMT-38" x="114.013672" />
    </g>
    
    <g style="fill: #444443" transform="translate(2.107156 35.434179)scale(0.09 -0.09)">
     <defs>
      <path id="ArialMT-70" d="M 422 -1272  L 422 3319  L 934 3319  L 934 2888  Q 1116 3141 1344 3267  Q 1572 3394 1897 3394  Q 2322 3394 2647 3175  Q 2972 2956 3137 2557  Q 3303 2159 3303 1684  Q 3303 1175 3120 767  Q 2938 359 2589 142  Q 2241 -75 1856 -75  Q 1575 -75 1351 44  Q 1128 163 984 344  L 984 -1272  L 422 -1272  z M 931 1641  Q 931 1000 1190 694  Q 1450 388 1819 388  Q 2194 388 2461 705  Q 2728 1022 2728 1688  Q 2728 2322 2467 2637  Q 2206 2953 1844 2953  Q 1484 2953 1207 2617  Q 931 2281 931 1641  z " transform="scale(0.015625)" />
      <path id="ArialMT-6f" d="M 213 1659  Q 213 2581 725 3025  Q 1153 3394 1769 3394  Q 2453 3394 2887 2945  Q 3322 2497 3322 1706  Q 3322 1066 3130 698  Q 2938 331 2570 128  Q 2203 -75 1769 -75  Q 1072 -75 642 372  Q 213 819 213 1659  z M 791 1659  Q 791 1022 1069 705  Q 1347 388 1769 388  Q 2188 388 2466 706  Q 2744 1025 2744 1678  Q 2744 2294 2464 2611  Q 2184 2928 1769 2928  Q 1347 2928 1069 2612  Q 791 2297 791 1659  z " transform="scale(0.015625)" />
      <path id="ArialMT-7a" d="M 125 0  L 125 456  L 2238 2881  Q 1878 2863 1603 2863  L 250 2863  L 250 3319  L 2963 3319  L 2963 2947  L 1166 841  L 819 456  Q 1197 484 1528 484  L 3063 484  L 3063 0  L 125 0  z " transform="scale(0.015625)" />
     </defs>
     <use xlink:href="#ArialMT-70" />
     <use xlink:href="#ArialMT-6f" x="55.615234" />
     <use xlink:href="#ArialMT-7a" x="111.230469" />
    </g>
   </g>
  </g>
 </g>
</svg></g>

<g id="edge4" class="edge">
<title>node2-&gt;leaf3</title>
<path fill="none" stroke="#444443" stroke-width="0.3" d="M96.54,-184.98C80,-175.31 45.69,-155.27 25.92,-143.71" />
<polygon fill="#444443" stroke="#444443" stroke-width="0.3" points="26.33,-142.33 22.17,-141.52 24.91,-144.75 26.33,-142.33" />
</g>

<g id="node3" class="node">
<title>node8</title>
<text text-anchor="start" x="160" y="-130.9" font-family="Helvetica,sans-Serif" font-size="12.00" fill="#444443">T@24.88</text>
</g>

<g id="node4" class="node">
<title>node11</title>
<text text-anchor="start" x="224" y="-130.9" font-family="Helvetica,sans-Serif" font-size="12.00" fill="#444443">Soca@3259.19</text>
</g>


<g id="node17" class="node">
<title>leaf9</title>
<polygon fill="none" stroke="#444443" stroke-width="0" points="164.5,-83 97.5,-83 97.5,0 164.5,0 164.5,-83" />
<svg width="59px" height="75px" viewBox="0 0 78.52 99.516237" version="1.1" preserveAspectRatio="xMinYMin meet" x="102" y="-78.5">
 <metadata>
  <rdf:RDF>
   <ns2:Work>
    <dc:type rdf:resource="http://purl.org/dc/dcmitype/StillImage" />
    <dc:date>2023-05-19T16:12:51.859874</dc:date>
    <dc:format>image/svg+xml</dc:format>
    <dc:creator>
     <ns2:Agent>
      <dc:title>Matplotlib v3.5.2, https://matplotlib.org/</dc:title>
     </ns2:Agent>
    </dc:creator>
   </ns2:Work>
  </rdf:RDF>
 </metadata>
 <defs>
  <style type="text/css">*{stroke-linejoin: round; stroke-linecap: butt}</style>
 </defs>
 <g id="figure_1">
  <g id="patch_1">
   <path d="M 0 99.516237  L 78.52 99.516237  L 78.52 0  L 0 0  L 0 99.516237  z " style="fill: none" />
  </g>
  <g id="axes_1">
   <g id="patch_2">
    <path d="M 78.52 39.26  C 78.52 35.144783 77.872967 31.055039 76.602638 27.1408  C 75.332308 23.22656 73.454408 19.536282 71.037829 16.205343  C 68.62125 12.874405 65.695907 9.944041 62.369117 7.521753  C 59.042328 5.099465 55.355276 3.21524 51.44322 1.9382  C 47.531165 0.66116 43.442536 0.007115 39.327326 0.000058  C 35.212115 -0.006999 31.121267 0.633019 27.204855 1.896635  C 23.288443 3.16025 19.59495 5.031818 16.259872 7.442682  C 12.924794 9.853546 9.989419 12.773859 7.561429 16.09649  C 5.13344 19.419121 3.242894 23.102936 1.959148 27.012796  C 0.675401 30.922655 0.014345 35.010156 0.000231 39.125349  C -0.013883 43.240541 0.619119 47.332481 1.876016 51.251054  C 3.132914 55.169627 4.998146 58.866324 7.403287 62.205532  C 9.808428 65.544739 12.723703 68.485118 16.042165 70.918802  C 19.360627 73.352486 23.041195 75.249345 26.948848 76.539795  C 30.8565 77.830245 34.942862 78.498309 39.058024 78.51948  C 43.173186 78.540652 47.266205 77.914667 51.186928 76.664492  L 39.26 39.26  L 78.52 39.26  z " style="fill: #fefebb; stroke: #444443; stroke-width: 0.5; stroke-linejoin: miter" />
   </g>
   <g id="patch_3">
    <path d="M 51.186928 76.664492  C 59.119798 74.134989 66.045975 69.14625 70.95857 62.423512  C 75.871165 55.700773 78.519999 47.586396 78.52 39.260004  L 39.26 39.26  L 51.186928 76.664492  z " style="fill: #a1dab4; stroke: #444443; stroke-width: 0.5; stroke-linejoin: miter" />
   </g>
   <g id="text_1">
    
    <g style="fill: #444443" transform="translate(26.622031 88.102831)scale(0.09 -0.09)">
     <defs>
      <path id="ArialMT-6e" d="M 422 0  L 422 3319  L 928 3319  L 928 2847  Q 1294 3394 1984 3394  Q 2284 3394 2536 3286  Q 2788 3178 2913 3003  Q 3038 2828 3088 2588  Q 3119 2431 3119 2041  L 3119 0  L 2556 0  L 2556 2019  Q 2556 2363 2490 2533  Q 2425 2703 2258 2804  Q 2091 2906 1866 2906  Q 1506 2906 1245 2678  Q 984 2450 984 1813  L 984 0  L 422 0  z " transform="scale(0.015625)" />
      <path id="ArialMT-3d" d="M 3381 2694  L 356 2694  L 356 3219  L 3381 3219  L 3381 2694  z M 3381 1303  L 356 1303  L 356 1828  L 3381 1828  L 3381 1303  z " transform="scale(0.015625)" />
      <path id="ArialMT-34" d="M 2069 0  L 2069 1097  L 81 1097  L 81 1613  L 2172 4581  L 2631 4581  L 2631 1613  L 3250 1613  L 3250 1097  L 2631 1097  L 2631 0  L 2069 0  z M 2069 1613  L 2069 3678  L 634 1613  L 2069 1613  z " transform="scale(0.015625)" />
      <path id="ArialMT-33" d="M 269 1209  L 831 1284  Q 928 806 1161 595  Q 1394 384 1728 384  Q 2125 384 2398 659  Q 2672 934 2672 1341  Q 2672 1728 2419 1979  Q 2166 2231 1775 2231  Q 1616 2231 1378 2169  L 1441 2663  Q 1497 2656 1531 2656  Q 1891 2656 2178 2843  Q 2466 3031 2466 3422  Q 2466 3731 2256 3934  Q 2047 4138 1716 4138  Q 1388 4138 1169 3931  Q 950 3725 888 3313  L 325 3413  Q 428 3978 793 4289  Q 1159 4600 1703 4600  Q 2078 4600 2393 4439  Q 2709 4278 2876 4000  Q 3044 3722 3044 3409  Q 3044 3113 2884 2869  Q 2725 2625 2413 2481  Q 2819 2388 3044 2092  Q 3269 1797 3269 1353  Q 3269 753 2831 336  Q 2394 -81 1725 -81  Q 1122 -81 723 278  Q 325 638 269 1209  z " transform="scale(0.015625)" />
     </defs>
     <use xlink:href="#ArialMT-6e" />
     <use xlink:href="#ArialMT-3d" x="55.615234" />
     <use xlink:href="#ArialMT-34" x="114.013672" />
     <use xlink:href="#ArialMT-34" x="169.628906" />
     <use xlink:href="#ArialMT-33" x="225.244141" />
    </g>
    
    <g style="fill: #444443" transform="translate(31.752734 97.622019)scale(0.09 -0.09)">
     <defs>
      <path id="ArialMT-65" d="M 2694 1069  L 3275 997  Q 3138 488 2766 206  Q 2394 -75 1816 -75  Q 1088 -75 661 373  Q 234 822 234 1631  Q 234 2469 665 2931  Q 1097 3394 1784 3394  Q 2450 3394 2872 2941  Q 3294 2488 3294 1666  Q 3294 1616 3291 1516  L 816 1516  Q 847 969 1125 678  Q 1403 388 1819 388  Q 2128 388 2347 550  Q 2566 713 2694 1069  z M 847 1978  L 2700 1978  Q 2663 2397 2488 2606  Q 2219 2931 1791 2931  Q 1403 2931 1139 2672  Q 875 2413 847 1978  z " transform="scale(0.015625)" />
      <path id="ArialMT-67" d="M 319 -275  L 866 -356  Q 900 -609 1056 -725  Q 1266 -881 1628 -881  Q 2019 -881 2231 -725  Q 2444 -569 2519 -288  Q 2563 -116 2559 434  Q 2191 0 1641 0  Q 956 0 581 494  Q 206 988 206 1678  Q 206 2153 378 2554  Q 550 2956 876 3175  Q 1203 3394 1644 3394  Q 2231 3394 2613 2919  L 2613 3319  L 3131 3319  L 3131 450  Q 3131 -325 2973 -648  Q 2816 -972 2473 -1159  Q 2131 -1347 1631 -1347  Q 1038 -1347 672 -1080  Q 306 -813 319 -275  z M 784 1719  Q 784 1066 1043 766  Q 1303 466 1694 466  Q 2081 466 2343 764  Q 2606 1063 2606 1700  Q 2606 2309 2336 2618  Q 2066 2928 1684 2928  Q 1309 2928 1046 2623  Q 784 2319 784 1719  z " transform="scale(0.015625)" />
     </defs>
     <use xlink:href="#ArialMT-6e" />
     <use xlink:href="#ArialMT-65" x="55.615234" />
     <use xlink:href="#ArialMT-67" x="111.230469" />
    </g>
   </g>
  </g>
 </g>
</svg></g>

<g id="edge7" class="edge">
<title>node8-&gt;leaf9</title>
<path fill="none" stroke="#444443" stroke-width="0.3" d="M181.62,-127.34C176.68,-119.06 167.04,-102.9 157.49,-86.89" />
<polygon fill="#444443" stroke="#444443" stroke-width="0.3" points="158.57,-85.98 155.32,-83.26 156.17,-87.41 158.57,-85.98" />
</g>

<g id="node18" class="node">
<title>leaf10</title>
<polygon fill="none" stroke="#444443" stroke-width="0" points="245.5,-83 178.5,-83 178.5,0 245.5,0 245.5,-83" />
<svg width="59px" height="75px" viewBox="0 0 78.52 99.516238" version="1.1" preserveAspectRatio="xMinYMin meet" x="183" y="-78.5">
 <metadata>
  <rdf:RDF>
   <ns2:Work>
    <dc:type rdf:resource="http://purl.org/dc/dcmitype/StillImage" />
    <dc:date>2023-05-19T16:12:51.894950</dc:date>
    <dc:format>image/svg+xml</dc:format>
    <dc:creator>
     <ns2:Agent>
      <dc:title>Matplotlib v3.5.2, https://matplotlib.org/</dc:title>
     </ns2:Agent>
    </dc:creator>
   </ns2:Work>
  </rdf:RDF>
 </metadata>
 <defs>
  <style type="text/css">*{stroke-linejoin: round; stroke-linecap: butt}</style>
 </defs>
 <g id="figure_1">
  <g id="patch_1">
   <path d="M -0 99.516238  L 78.52 99.516238  L 78.52 0  L -0 0  L -0 99.516238  z " style="fill: none" />
  </g>
  <g id="axes_1">
   <g id="patch_2">
    <path d="M 78.52 39.26  C 78.52 34.104424 77.504464 28.99898 75.53151 24.235848  C 73.558557 19.472717 70.666555 15.14453 67.021012 11.498988  C 63.37547 7.853445 59.047283 4.961443 54.284152 2.98849  C 49.52102 1.015536 44.415576 0 39.26 0  C 34.104424 0 28.99898 1.015536 24.235848 2.98849  C 19.472717 4.961443 15.14453 7.853445 11.498988 11.498988  C 7.853445 15.14453 4.961443 19.472717 2.98849 24.235848  C 1.015536 28.99898 0 34.104424 0 39.26  C 0 44.415576 1.015536 49.52102 2.98849 54.284152  C 4.961443 59.047283 7.853445 63.37547 11.498988 67.021012  C 15.14453 70.666555 19.472717 73.558557 24.235848 75.53151  C 28.99898 77.504464 34.104424 78.52 39.26 78.52  C 44.415576 78.52 49.52102 77.504464 54.284152 75.53151  C 59.047283 73.558557 63.37547 70.666555 67.021012 67.021012  C 70.666555 63.37547 73.558557 59.047283 75.53151 54.284152  C 77.504464 49.52102 78.52 44.415576 78.52 39.26  M 39.26 39.26  M 78.52 39.26  z " style="fill: #fefebb; stroke: #444443; stroke-width: 0.5; stroke-linejoin: miter" />
   </g>
   <g id="text_1">
    
    <g style="fill: #444443" transform="translate(29.124453 88.102831)scale(0.09 -0.09)">
     <defs>
      <path id="ArialMT-6e" d="M 422 0  L 422 3319  L 928 3319  L 928 2847  Q 1294 3394 1984 3394  Q 2284 3394 2536 3286  Q 2788 3178 2913 3003  Q 3038 2828 3088 2588  Q 3119 2431 3119 2041  L 3119 0  L 2556 0  L 2556 2019  Q 2556 2363 2490 2533  Q 2425 2703 2258 2804  Q 2091 2906 1866 2906  Q 1506 2906 1245 2678  Q 984 2450 984 1813  L 984 0  L 422 0  z " transform="scale(0.015625)" />
      <path id="ArialMT-3d" d="M 3381 2694  L 356 2694  L 356 3219  L 3381 3219  L 3381 2694  z M 3381 1303  L 356 1303  L 356 1828  L 3381 1828  L 3381 1303  z " transform="scale(0.015625)" />
      <path id="ArialMT-39" d="M 350 1059  L 891 1109  Q 959 728 1153 556  Q 1347 384 1650 384  Q 1909 384 2104 503  Q 2300 622 2425 820  Q 2550 1019 2634 1356  Q 2719 1694 2719 2044  Q 2719 2081 2716 2156  Q 2547 1888 2255 1720  Q 1963 1553 1622 1553  Q 1053 1553 659 1965  Q 266 2378 266 3053  Q 266 3750 677 4175  Q 1088 4600 1706 4600  Q 2153 4600 2523 4359  Q 2894 4119 3086 3673  Q 3278 3228 3278 2384  Q 3278 1506 3087 986  Q 2897 466 2520 194  Q 2144 -78 1638 -78  Q 1100 -78 759 220  Q 419 519 350 1059  z M 2653 3081  Q 2653 3566 2395 3850  Q 2138 4134 1775 4134  Q 1400 4134 1122 3828  Q 844 3522 844 3034  Q 844 2597 1108 2323  Q 1372 2050 1759 2050  Q 2150 2050 2401 2323  Q 2653 2597 2653 3081  z " transform="scale(0.015625)" />
      <path id="ArialMT-31" d="M 2384 0  L 1822 0  L 1822 3584  Q 1619 3391 1289 3197  Q 959 3003 697 2906  L 697 3450  Q 1169 3672 1522 3987  Q 1875 4303 2022 4600  L 2384 4600  L 2384 0  z " transform="scale(0.015625)" />
     </defs>
     <use xlink:href="#ArialMT-6e" />
     <use xlink:href="#ArialMT-3d" x="55.615234" />
     <use xlink:href="#ArialMT-39" x="114.013672" />
     <use xlink:href="#ArialMT-31" x="169.628906" />
    </g>
    
    <g style="fill: #444443" transform="translate(31.752734 97.622019)scale(0.09 -0.09)">
     <defs>
      <path id="ArialMT-65" d="M 2694 1069  L 3275 997  Q 3138 488 2766 206  Q 2394 -75 1816 -75  Q 1088 -75 661 373  Q 234 822 234 1631  Q 234 2469 665 2931  Q 1097 3394 1784 3394  Q 2450 3394 2872 2941  Q 3294 2488 3294 1666  Q 3294 1616 3291 1516  L 816 1516  Q 847 969 1125 678  Q 1403 388 1819 388  Q 2128 388 2347 550  Q 2566 713 2694 1069  z M 847 1978  L 2700 1978  Q 2663 2397 2488 2606  Q 2219 2931 1791 2931  Q 1403 2931 1139 2672  Q 875 2413 847 1978  z " transform="scale(0.015625)" />
      <path id="ArialMT-67" d="M 319 -275  L 866 -356  Q 900 -609 1056 -725  Q 1266 -881 1628 -881  Q 2019 -881 2231 -725  Q 2444 -569 2519 -288  Q 2563 -116 2559 434  Q 2191 0 1641 0  Q 956 0 581 494  Q 206 988 206 1678  Q 206 2153 378 2554  Q 550 2956 876 3175  Q 1203 3394 1644 3394  Q 2231 3394 2613 2919  L 2613 3319  L 3131 3319  L 3131 450  Q 3131 -325 2973 -648  Q 2816 -972 2473 -1159  Q 2131 -1347 1631 -1347  Q 1038 -1347 672 -1080  Q 306 -813 319 -275  z M 784 1719  Q 784 1066 1043 766  Q 1303 466 1694 466  Q 2081 466 2343 764  Q 2606 1063 2606 1700  Q 2606 2309 2336 2618  Q 2066 2928 1684 2928  Q 1309 2928 1046 2623  Q 784 2319 784 1719  z " transform="scale(0.015625)" />
     </defs>
     <use xlink:href="#ArialMT-6e" />
     <use xlink:href="#ArialMT-65" x="55.615234" />
     <use xlink:href="#ArialMT-67" x="111.230469" />
    </g>
   </g>
  </g>
 </g>
</svg></g>

<g id="edge8" class="edge">
<title>node8-&gt;leaf10</title>
<path fill="none" stroke="#444443" stroke-width="0.3" d="M186.69,-127.34C189.14,-119.13 193.9,-103.18 198.64,-87.29" />
<polygon fill="#444443" stroke="#444443" stroke-width="0.3" points="200.04,-87.49 199.84,-83.26 197.35,-86.69 200.04,-87.49" />
</g>

<g id="node19" class="node">
<title>leaf12</title>
<polygon fill="none" stroke="#444443" stroke-width="0" points="289,-66.5 253,-66.5 253,-16.5 289,-16.5 289,-66.5" />
<svg width="28px" height="42px" viewBox="0 0 38.052 57.429513" version="1.1" preserveAspectRatio="xMinYMin meet" x="257" y="-62.5">
 <metadata>
  <rdf:RDF>
   <ns2:Work>
    <dc:type rdf:resource="http://purl.org/dc/dcmitype/StillImage" />
    <dc:date>2023-05-19T16:12:51.933590</dc:date>
    <dc:format>image/svg+xml</dc:format>
    <dc:creator>
     <ns2:Agent>
      <dc:title>Matplotlib v3.5.2, https://matplotlib.org/</dc:title>
     </ns2:Agent>
    </dc:creator>
   </ns2:Work>
  </rdf:RDF>
 </metadata>
 <defs>
  <style type="text/css">*{stroke-linejoin: round; stroke-linecap: butt}</style>
 </defs>
 <g id="figure_1">
  <g id="patch_1">
   <path d="M 0 57.429513  L 38.052 57.429513  L 38.052 0  L 0 0  L 0 57.429513  z " style="fill: none" />
  </g>
  <g id="axes_1">
   <g id="patch_2">
    <path d="M 38.052 19.025996  C 38.052 16.806616 37.663664 14.604256 36.904592 12.51872  C 36.145519 10.433185 35.027352 8.496462 33.600762 6.796319  C 32.174172 5.096175 30.461039 3.658686 28.539 2.548996  C 26.61696 1.439306 24.515493 0.674435 22.32983 0.289043  C 20.144167 -0.096348 17.907832 -0.096348 15.72217 0.289044  C 13.536507 0.674435 11.435039 1.439307 9.513 2.548997  C 7.59096 3.658687 5.877828 5.096175 4.451238 6.796319  C 3.024648 8.496463 1.906481 10.433186 1.147408 12.518721  C 0.388335 14.604256 -0 16.806616 0 19.025996  C 0 21.245376 0.388336 23.447736 1.147408 25.533271  C 1.906481 27.618807 3.024649 29.55553 4.451239 31.255673  C 5.877829 32.955817 7.590961 34.393305 9.513001 35.502995  C 11.43504 36.612685 13.536508 37.377557 15.72217 37.762948  C 17.907833 38.148339 20.144168 38.148339 22.329831 37.762948  C 24.515494 37.377557 26.616961 36.612685 28.539001 35.502995  C 30.46104 34.393305 32.174172 32.955816 33.600762 31.255672  L 19.026 19.025996  L 38.052 19.025996  z " style="fill: #fefebb; stroke: #444443; stroke-width: 0.5; stroke-linejoin: miter" />
   </g>
   <g id="patch_3">
    <path d="M 33.600762 31.255672  C 35.027352 29.555528 36.14552 27.618805 36.904592 25.53327  C 37.663665 23.447735 38.052 21.245375 38.052 19.025995  L 19.026 19.025996  L 33.600762 31.255672  z " style="fill: #a1dab4; stroke: #444443; stroke-width: 0.5; stroke-linejoin: miter" />
   </g>
   <g id="text_1">
    
    <g style="fill: #444443" transform="translate(8.890453 46.016107)scale(0.09 -0.09)">
     <defs>
      <path id="ArialMT-6e" d="M 422 0  L 422 3319  L 928 3319  L 928 2847  Q 1294 3394 1984 3394  Q 2284 3394 2536 3286  Q 2788 3178 2913 3003  Q 3038 2828 3088 2588  Q 3119 2431 3119 2041  L 3119 0  L 2556 0  L 2556 2019  Q 2556 2363 2490 2533  Q 2425 2703 2258 2804  Q 2091 2906 1866 2906  Q 1506 2906 1245 2678  Q 984 2450 984 1813  L 984 0  L 422 0  z " transform="scale(0.015625)" />
      <path id="ArialMT-3d" d="M 3381 2694  L 356 2694  L 356 3219  L 3381 3219  L 3381 2694  z M 3381 1303  L 356 1303  L 356 1828  L 3381 1828  L 3381 1303  z " transform="scale(0.015625)" />
      <path id="ArialMT-32" d="M 3222 541  L 3222 0  L 194 0  Q 188 203 259 391  Q 375 700 629 1000  Q 884 1300 1366 1694  Q 2113 2306 2375 2664  Q 2638 3022 2638 3341  Q 2638 3675 2398 3904  Q 2159 4134 1775 4134  Q 1369 4134 1125 3890  Q 881 3647 878 3216  L 300 3275  Q 359 3922 746 4261  Q 1134 4600 1788 4600  Q 2447 4600 2831 4234  Q 3216 3869 3216 3328  Q 3216 3053 3103 2787  Q 2991 2522 2730 2228  Q 2469 1934 1863 1422  Q 1356 997 1212 845  Q 1069 694 975 541  L 3222 541  z " transform="scale(0.015625)" />
      <path id="ArialMT-34" d="M 2069 0  L 2069 1097  L 81 1097  L 81 1613  L 2172 4581  L 2631 4581  L 2631 1613  L 3250 1613  L 3250 1097  L 2631 1097  L 2631 0  L 2069 0  z M 2069 1613  L 2069 3678  L 634 1613  L 2069 1613  z " transform="scale(0.015625)" />
     </defs>
     <use xlink:href="#ArialMT-6e" />
     <use xlink:href="#ArialMT-3d" x="55.615234" />
     <use xlink:href="#ArialMT-32" x="114.013672" />
     <use xlink:href="#ArialMT-34" x="169.628906" />
    </g>
    
    <g style="fill: #444443" transform="translate(11.518734 55.535295)scale(0.09 -0.09)">
     <defs>
      <path id="ArialMT-65" d="M 2694 1069  L 3275 997  Q 3138 488 2766 206  Q 2394 -75 1816 -75  Q 1088 -75 661 373  Q 234 822 234 1631  Q 234 2469 665 2931  Q 1097 3394 1784 3394  Q 2450 3394 2872 2941  Q 3294 2488 3294 1666  Q 3294 1616 3291 1516  L 816 1516  Q 847 969 1125 678  Q 1403 388 1819 388  Q 2128 388 2347 550  Q 2566 713 2694 1069  z M 847 1978  L 2700 1978  Q 2663 2397 2488 2606  Q 2219 2931 1791 2931  Q 1403 2931 1139 2672  Q 875 2413 847 1978  z " transform="scale(0.015625)" />
      <path id="ArialMT-67" d="M 319 -275  L 866 -356  Q 900 -609 1056 -725  Q 1266 -881 1628 -881  Q 2019 -881 2231 -725  Q 2444 -569 2519 -288  Q 2563 -116 2559 434  Q 2191 0 1641 0  Q 956 0 581 494  Q 206 988 206 1678  Q 206 2153 378 2554  Q 550 2956 876 3175  Q 1203 3394 1644 3394  Q 2231 3394 2613 2919  L 2613 3319  L 3131 3319  L 3131 450  Q 3131 -325 2973 -648  Q 2816 -972 2473 -1159  Q 2131 -1347 1631 -1347  Q 1038 -1347 672 -1080  Q 306 -813 319 -275  z M 784 1719  Q 784 1066 1043 766  Q 1303 466 1694 466  Q 2081 466 2343 764  Q 2606 1063 2606 1700  Q 2606 2309 2336 2618  Q 2066 2928 1684 2928  Q 1309 2928 1046 2623  Q 784 2319 784 1719  z " transform="scale(0.015625)" />
     </defs>
     <use xlink:href="#ArialMT-6e" />
     <use xlink:href="#ArialMT-65" x="55.615234" />
     <use xlink:href="#ArialMT-67" x="111.230469" />
    </g>
   </g>
  </g>
 </g>
</svg></g>

<g id="edge10" class="edge">
<title>node11-&gt;leaf12</title>
<path fill="none" stroke="#444443" stroke-width="0.3" d="M266.31,-127.34C266.92,-116.28 268.31,-91.15 269.42,-71.1" />
<polygon fill="#444443" stroke="#444443" stroke-width="0.3" points="270.83,-70.97 269.65,-66.9 268.03,-70.82 270.83,-70.97" />
</g>

<g id="node20" class="node">
<title>leaf13</title>
<polygon fill="none" stroke="#444443" stroke-width="0" points="327,-60.5 303,-60.5 303,-22.5 327,-22.5 327,-60.5" />
<svg width="16px" height="30px" viewBox="0 0 22.347997 40.991887" version="1.1" preserveAspectRatio="xMinYMin meet" x="307" y="-56.5">
 <metadata>
  <rdf:RDF>
   <ns2:Work>
    <dc:type rdf:resource="http://purl.org/dc/dcmitype/StillImage" />
    <dc:date>2023-05-19T16:12:51.971027</dc:date>
    <dc:format>image/svg+xml</dc:format>
    <dc:creator>
     <ns2:Agent>
      <dc:title>Matplotlib v3.5.2, https://matplotlib.org/</dc:title>
     </ns2:Agent>
    </dc:creator>
   </ns2:Work>
  </rdf:RDF>
 </metadata>
 <defs>
  <style type="text/css">*{stroke-linejoin: round; stroke-linecap: butt}</style>
 </defs>
 <g id="figure_1">
  <g id="patch_1">
   <path d="M 0 40.991887  L 22.347997 40.991887  L 22.347997 -0  L 0 -0  L 0 40.991887  z " style="fill: none" />
  </g>
  <g id="axes_1">
   <g id="patch_2">
    <path d="M 22.347997 11.173999  C 22.347997 10.485192 22.284306 9.797859 22.157738 9.120781  C 22.03117 8.443703 21.842267 7.779777 21.593441 7.137484  L 11.173997 11.173999  L 22.347997 11.173999  z " style="fill: #fefebb; stroke: #444443; stroke-width: 0.5; stroke-linejoin: miter" />
   </g>
   <g id="patch_3">
    <path d="M 21.593441 7.137484  C 21.094733 5.850169 20.361746 4.666354 19.431682 3.646123  C 18.501619 2.625892 17.390485 1.786803 16.154677 1.171444  C 14.918869 0.556085 13.579653 0.175045 12.205003 0.047665  C 10.830353 -0.079715 9.443924 0.048756 8.116086 0.426559  C 6.788248 0.804361 5.541851 1.424993 4.440157 2.256954  C 3.338463 3.088915 2.400431 4.117887 1.67367 5.291646  C 0.94691 6.465404 0.443929 7.763748 0.190255 9.120782  C -0.063418 10.477815 -0.063418 11.870183 0.190255 13.227216  C 0.443929 14.584249 0.94691 15.882593 1.67367 17.056352  C 2.400431 18.23011 3.338463 19.259082 4.440157 20.091043  C 5.541851 20.923004 6.788248 21.543636 8.116086 21.921438  C 9.443925 22.299241 10.830353 22.427712 12.205003 22.300332  C 13.579654 22.172952 14.918869 21.791912 16.154677 21.176553  C 17.390485 20.561194 18.501619 19.722104 19.431682 18.701873  C 20.361746 17.681643 21.094733 16.497827 21.593441 15.210513  C 22.09215 13.923198 22.347997 12.554538 22.347997 11.173998  L 11.173997 11.173999  L 21.593441 7.137484  z " style="fill: #a1dab4; stroke: #444443; stroke-width: 0.5; stroke-linejoin: miter" />
   </g>
   <g id="text_1">
    
    <g style="fill: #444443" transform="translate(1.370325 29.68395)scale(0.09 -0.09)">
     <defs>
      <path id="ArialMT-6e" d="M 422 0  L 422 3319  L 928 3319  L 928 2847  Q 1294 3394 1984 3394  Q 2284 3394 2536 3286  Q 2788 3178 2913 3003  Q 3038 2828 3088 2588  Q 3119 2431 3119 2041  L 3119 0  L 2556 0  L 2556 2019  Q 2556 2363 2490 2533  Q 2425 2703 2258 2804  Q 2091 2906 1866 2906  Q 1506 2906 1245 2678  Q 984 2450 984 1813  L 984 0  L 422 0  z " transform="scale(0.015625)" />
      <path id="ArialMT-3d" d="M 3381 2694  L 356 2694  L 356 3219  L 3381 3219  L 3381 2694  z M 3381 1303  L 356 1303  L 356 1828  L 3381 1828  L 3381 1303  z " transform="scale(0.015625)" />
      <path id="ArialMT-31" d="M 2384 0  L 1822 0  L 1822 3584  Q 1619 3391 1289 3197  Q 959 3003 697 2906  L 697 3450  Q 1169 3672 1522 3987  Q 1875 4303 2022 4600  L 2384 4600  L 2384 0  z " transform="scale(0.015625)" />
     </defs>
     <use xlink:href="#ArialMT-6e" />
     <use xlink:href="#ArialMT-3d" x="55.615234" />
     <use xlink:href="#ArialMT-31" x="114.013672" />
     <use xlink:href="#ArialMT-31" x="162.253906" />
    </g>
    
    <g style="fill: #444443" transform="translate(3.919153 39.203137)scale(0.09 -0.09)">
     <defs>
      <path id="ArialMT-70" d="M 422 -1272  L 422 3319  L 934 3319  L 934 2888  Q 1116 3141 1344 3267  Q 1572 3394 1897 3394  Q 2322 3394 2647 3175  Q 2972 2956 3137 2557  Q 3303 2159 3303 1684  Q 3303 1175 3120 767  Q 2938 359 2589 142  Q 2241 -75 1856 -75  Q 1575 -75 1351 44  Q 1128 163 984 344  L 984 -1272  L 422 -1272  z M 931 1641  Q 931 1000 1190 694  Q 1450 388 1819 388  Q 2194 388 2461 705  Q 2728 1022 2728 1688  Q 2728 2322 2467 2637  Q 2206 2953 1844 2953  Q 1484 2953 1207 2617  Q 931 2281 931 1641  z " transform="scale(0.015625)" />
      <path id="ArialMT-6f" d="M 213 1659  Q 213 2581 725 3025  Q 1153 3394 1769 3394  Q 2453 3394 2887 2945  Q 3322 2497 3322 1706  Q 3322 1066 3130 698  Q 2938 331 2570 128  Q 2203 -75 1769 -75  Q 1072 -75 642 372  Q 213 819 213 1659  z M 791 1659  Q 791 1022 1069 705  Q 1347 388 1769 388  Q 2188 388 2466 706  Q 2744 1025 2744 1678  Q 2744 2294 2464 2611  Q 2184 2928 1769 2928  Q 1347 2928 1069 2612  Q 791 2297 791 1659  z " transform="scale(0.015625)" />
      <path id="ArialMT-7a" d="M 125 0  L 125 456  L 2238 2881  Q 1878 2863 1603 2863  L 250 2863  L 250 3319  L 2963 3319  L 2963 2947  L 1166 841  L 819 456  Q 1197 484 1528 484  L 3063 484  L 3063 0  L 125 0  z " transform="scale(0.015625)" />
     </defs>
     <use xlink:href="#ArialMT-70" />
     <use xlink:href="#ArialMT-6f" x="55.615234" />
     <use xlink:href="#ArialMT-7a" x="111.230469" />
    </g>
   </g>
  </g>
 </g>
</svg></g>

<g id="edge11" class="edge">
<title>node11-&gt;leaf13</title>
<path fill="none" stroke="#444443" stroke-width="0.3" d="M269.07,-127.34C275.73,-115.03 291.85,-85.25 303.1,-64.47" />
<polygon fill="#444443" stroke="#444443" stroke-width="0.3" points="304.47,-64.89 305.14,-60.7 302.01,-63.55 304.47,-64.89" />
</g>

<g id="edge13" class="edge">
<title>node7-&gt;node8</title>
<path fill="none" stroke="#444443" stroke-width="0.3" d="M206.61,-184.98C202.51,-175.5 194.1,-156.05 189.07,-144.41" />
<polygon fill="#444443" stroke="#444443" stroke-width="0.3" points="190.25,-143.62 187.38,-140.5 187.68,-144.73 190.25,-143.62" />
</g>

<g id="edge14" class="edge">
<title>node7-&gt;node11</title>
<path fill="none" stroke="#444443" stroke-width="0.3" d="M214.67,-184.98C224.66,-175.25 245.44,-155.02 257.27,-143.5" />
<polygon fill="#444443" stroke="#444443" stroke-width="0.3" points="258.46,-144.3 260.35,-140.5 256.51,-142.29 258.46,-144.3" />
</g>

<g id="node6" class="node">
<title>node1</title>
<text text-anchor="start" x="163.5" y="-218.4" font-family="Helvetica,sans-Serif" font-size="12.00" fill="#444443">wind strength@2.34</text>
</g>

<g id="edge16" class="edge">
<title>node1-&gt;node2</title>
<path fill="none" stroke="#444443" stroke-width="0.3" d="M195.07,-214.97C176.98,-210.4 151.26,-203.92 132.11,-199.09" />
<polygon fill="#444443" stroke="#444443" stroke-width="0.3" points="132.11,-197.64 127.88,-198.02 131.42,-200.36 132.11,-197.64" />
</g>

<g id="edge17" class="edge">
<title>node1-&gt;node7</title>
<path fill="none" stroke="#444443" stroke-width="0.3" d="M215.38,-214.83C214.34,-211.19 212.96,-206.36 211.75,-202.13" />
<polygon fill="#444443" stroke="#444443" stroke-width="0.3" points="213.06,-201.62 210.62,-198.16 210.37,-202.39 213.06,-201.62" />
</g>

<g id="node12" class="node">
<title>node14</title>
<text text-anchor="start" x="287" y="-218.4" font-family="Helvetica,sans-Serif" font-size="12.00" fill="#444443">precipitation@24.15</text>
</g>


<g id="node7" class="node">
<title>node17</title>
<text text-anchor="start" x="382.5" y="-130.9" font-family="Helvetica,sans-Serif" font-size="12.00" fill="#444443">wind strength@3.20</text>
</g>

<g id="node21" class="node">
<title>leaf18</title>
<polygon fill="none" stroke="#444443" stroke-width="0" points="429,-65 397,-65 397,-18 429,-18 429,-65" />
<svg width="24px" height="39px" viewBox="0 0 33.22 52.298768" version="1.1" preserveAspectRatio="xMinYMin meet" x="401" y="-60.5">
 <metadata>
  <rdf:RDF>
   <ns2:Work>
    <dc:type rdf:resource="http://purl.org/dc/dcmitype/StillImage" />
    <dc:date>2023-05-19T16:12:52.043852</dc:date>
    <dc:format>image/svg+xml</dc:format>
    <dc:creator>
     <ns2:Agent>
      <dc:title>Matplotlib v3.5.2, https://matplotlib.org/</dc:title>
     </ns2:Agent>
    </dc:creator>
   </ns2:Work>
  </rdf:RDF>
 </metadata>
 <defs>
  <style type="text/css">*{stroke-linejoin: round; stroke-linecap: butt}</style>
 </defs>
 <g id="figure_1">
  <g id="patch_1">
   <path d="M 0 52.298768  L 33.22 52.298768  L 33.22 0  L 0 0  L 0 52.298768  z " style="fill: none" />
  </g>
  <g id="axes_1">
   <g id="patch_2">
    <path d="M 33.22 16.61  C 33.22 12.915081 31.98709 9.323736 29.717624 6.407926  C 27.448158 3.492116 24.269369 1.41531 20.687514 0.508261  L 16.61 16.61  L 33.22 16.61  z " style="fill: #fefebb; stroke: #444443; stroke-width: 0.5; stroke-linejoin: miter" />
   </g>
   <g id="patch_3">
    <path d="M 20.687514 0.508261  C 19.020205 0.086041 17.297387 -0.074658 15.580754 0.031919  C 13.864121 0.138496 12.174411 0.51106 10.572132 1.136272  C 8.969853 1.761483 7.474361 2.631788 6.139211 3.716021  C 4.804061 4.800254 3.645381 6.085317 2.704664 7.525191  C 1.763947 8.965066 1.052557 10.542358 0.59597 12.200584  C 0.139382 13.858811 -0.056888 15.57794 0.014189 17.296409  C 0.085265 19.014878 0.42283 20.711927 1.014793 22.326785  C 1.606757 23.941643 2.445969 25.454801 3.502377 26.812074  C 4.558785 28.169347 5.819627 29.354337 7.239753 30.324611  C 8.659878 31.294885 10.222131 32.03872 11.870567 32.529481  C 13.519003 33.020241 15.233708 33.251998 16.953279 33.216452  C 18.67285 33.180906 20.376513 32.878486 22.00326 32.320023  C 23.630007 31.76156 25.160186 30.953799 26.539002 29.925668  C 27.917818 28.897536 29.128613 27.661453 30.128029 26.261683  C 31.127445 24.861913 31.903408 23.315367 32.428132 21.677425  C 32.952855 20.039484 33.22 18.329935 33.22 16.609996  L 16.61 16.61  L 20.687514 0.508261  z " style="fill: #a1dab4; stroke: #444443; stroke-width: 0.5; stroke-linejoin: miter" />
   </g>
   <g id="text_1">
    
    <g style="fill: #444443" transform="translate(6.474453 40.990831)scale(0.09 -0.09)">
     <defs>
      <path id="ArialMT-6e" d="M 422 0  L 422 3319  L 928 3319  L 928 2847  Q 1294 3394 1984 3394  Q 2284 3394 2536 3286  Q 2788 3178 2913 3003  Q 3038 2828 3088 2588  Q 3119 2431 3119 2041  L 3119 0  L 2556 0  L 2556 2019  Q 2556 2363 2490 2533  Q 2425 2703 2258 2804  Q 2091 2906 1866 2906  Q 1506 2906 1245 2678  Q 984 2450 984 1813  L 984 0  L 422 0  z " transform="scale(0.015625)" />
      <path id="ArialMT-3d" d="M 3381 2694  L 356 2694  L 356 3219  L 3381 3219  L 3381 2694  z M 3381 1303  L 356 1303  L 356 1828  L 3381 1828  L 3381 1303  z " transform="scale(0.015625)" />
      <path id="ArialMT-32" d="M 3222 541  L 3222 0  L 194 0  Q 188 203 259 391  Q 375 700 629 1000  Q 884 1300 1366 1694  Q 2113 2306 2375 2664  Q 2638 3022 2638 3341  Q 2638 3675 2398 3904  Q 2159 4134 1775 4134  Q 1369 4134 1125 3890  Q 881 3647 878 3216  L 300 3275  Q 359 3922 746 4261  Q 1134 4600 1788 4600  Q 2447 4600 2831 4234  Q 3216 3869 3216 3328  Q 3216 3053 3103 2787  Q 2991 2522 2730 2228  Q 2469 1934 1863 1422  Q 1356 997 1212 845  Q 1069 694 975 541  L 3222 541  z " transform="scale(0.015625)" />
      <path id="ArialMT-30" d="M 266 2259  Q 266 3072 433 3567  Q 600 4063 929 4331  Q 1259 4600 1759 4600  Q 2128 4600 2406 4451  Q 2684 4303 2865 4023  Q 3047 3744 3150 3342  Q 3253 2941 3253 2259  Q 3253 1453 3087 958  Q 2922 463 2592 192  Q 2263 -78 1759 -78  Q 1097 -78 719 397  Q 266 969 266 2259  z M 844 2259  Q 844 1131 1108 757  Q 1372 384 1759 384  Q 2147 384 2411 759  Q 2675 1134 2675 2259  Q 2675 3391 2411 3762  Q 2147 4134 1753 4134  Q 1366 4134 1134 3806  Q 844 3388 844 2259  z " transform="scale(0.015625)" />
     </defs>
     <use xlink:href="#ArialMT-6e" />
     <use xlink:href="#ArialMT-3d" x="55.615234" />
     <use xlink:href="#ArialMT-32" x="114.013672" />
     <use xlink:href="#ArialMT-30" x="169.628906" />
    </g>
    
    <g style="fill: #444443" transform="translate(9.355156 50.510018)scale(0.09 -0.09)">
     <defs>
      <path id="ArialMT-70" d="M 422 -1272  L 422 3319  L 934 3319  L 934 2888  Q 1116 3141 1344 3267  Q 1572 3394 1897 3394  Q 2322 3394 2647 3175  Q 2972 2956 3137 2557  Q 3303 2159 3303 1684  Q 3303 1175 3120 767  Q 2938 359 2589 142  Q 2241 -75 1856 -75  Q 1575 -75 1351 44  Q 1128 163 984 344  L 984 -1272  L 422 -1272  z M 931 1641  Q 931 1000 1190 694  Q 1450 388 1819 388  Q 2194 388 2461 705  Q 2728 1022 2728 1688  Q 2728 2322 2467 2637  Q 2206 2953 1844 2953  Q 1484 2953 1207 2617  Q 931 2281 931 1641  z " transform="scale(0.015625)" />
      <path id="ArialMT-6f" d="M 213 1659  Q 213 2581 725 3025  Q 1153 3394 1769 3394  Q 2453 3394 2887 2945  Q 3322 2497 3322 1706  Q 3322 1066 3130 698  Q 2938 331 2570 128  Q 2203 -75 1769 -75  Q 1072 -75 642 372  Q 213 819 213 1659  z M 791 1659  Q 791 1022 1069 705  Q 1347 388 1769 388  Q 2188 388 2466 706  Q 2744 1025 2744 1678  Q 2744 2294 2464 2611  Q 2184 2928 1769 2928  Q 1347 2928 1069 2612  Q 791 2297 791 1659  z " transform="scale(0.015625)" />
      <path id="ArialMT-7a" d="M 125 0  L 125 456  L 2238 2881  Q 1878 2863 1603 2863  L 250 2863  L 250 3319  L 2963 3319  L 2963 2947  L 1166 841  L 819 456  Q 1197 484 1528 484  L 3063 484  L 3063 0  L 125 0  z " transform="scale(0.015625)" />
     </defs>
     <use xlink:href="#ArialMT-70" />
     <use xlink:href="#ArialMT-6f" x="55.615234" />
     <use xlink:href="#ArialMT-7a" x="111.230469" />
    </g>
   </g>
  </g>
 </g>
</svg></g>

<g id="edge19" class="edge">
<title>node17-&gt;leaf18</title>
<path fill="none" stroke="#444443" stroke-width="0.3" d="M434.56,-127.34C431.67,-115.95 424.97,-89.61 419.81,-69.28" />
<polygon fill="#444443" stroke="#444443" stroke-width="0.3" points="421.14,-68.83 418.79,-65.3 418.42,-69.52 421.14,-68.83" />
</g>

<g id="node22" class="node">
<title>leaf19</title>
<polygon fill="none" stroke="#444443" stroke-width="0" points="473,-63.5 443,-63.5 443,-19.5 473,-19.5 473,-63.5" />
<svg width="22px" height="36px" viewBox="0 0 29.596 48.635277" version="1.1" preserveAspectRatio="xMinYMin meet" x="447" y="-59.5">
 <metadata>
  <rdf:RDF>
   <ns2:Work>
    <dc:type rdf:resource="http://purl.org/dc/dcmitype/StillImage" />
    <dc:date>2023-05-19T16:12:52.079239</dc:date>
    <dc:format>image/svg+xml</dc:format>
    <dc:creator>
     <ns2:Agent>
      <dc:title>Matplotlib v3.5.2, https://matplotlib.org/</dc:title>
     </ns2:Agent>
    </dc:creator>
   </ns2:Work>
  </rdf:RDF>
 </metadata>
 <defs>
  <style type="text/css">*{stroke-linejoin: round; stroke-linecap: butt}</style>
 </defs>
 <g id="figure_1">
  <g id="patch_1">
   <path d="M 0 48.635277  L 29.596 48.635277  L 29.596 0  L 0 0  L 0 48.635277  z " style="fill: none" />
  </g>
  <g id="axes_1">
   <g id="patch_2">
    <path d="M 29.596 14.798  C 29.596 12.854744 29.213221 10.930385 28.469569 9.135051  C 27.725918 7.339717 26.635855 5.708323 25.261766 4.334234  C 23.887677 2.960145 22.256283 1.870082 20.460949 1.126431  C 18.665615 0.382779 16.741256 -0 14.798 -0  C 12.854744 -0 10.930385 0.382779 9.135051 1.126431  C 7.339717 1.870082 5.708323 2.960145 4.334234 4.334234  C 2.960145 5.708323 1.870082 7.339717 1.126431 9.135051  C 0.382779 10.930385 0 12.854744 0 14.798  C 0 16.741256 0.382779 18.665615 1.126431 20.460949  C 1.870082 22.256283 2.960145 23.887677 4.334234 25.261766  C 5.708323 26.635855 7.339717 27.725918 9.135051 28.469569  C 10.930385 29.213221 12.854744 29.596 14.798 29.596  C 16.741256 29.596 18.665615 29.213221 20.460949 28.469569  C 22.256283 27.725918 23.887677 26.635855 25.261766 25.261766  C 26.635855 23.887677 27.725918 22.256283 28.469569 20.460949  C 29.213221 18.665615 29.596 16.741256 29.596 14.798  M 14.798 14.798  M 29.596 14.798  z " style="fill: #fefebb; stroke: #444443; stroke-width: 0.5; stroke-linejoin: miter" />
   </g>
   <g id="text_1">
    
    <g style="fill: #444443" transform="translate(4.662453 37.221871)scale(0.09 -0.09)">
     <defs>
      <path id="ArialMT-6e" d="M 422 0  L 422 3319  L 928 3319  L 928 2847  Q 1294 3394 1984 3394  Q 2284 3394 2536 3286  Q 2788 3178 2913 3003  Q 3038 2828 3088 2588  Q 3119 2431 3119 2041  L 3119 0  L 2556 0  L 2556 2019  Q 2556 2363 2490 2533  Q 2425 2703 2258 2804  Q 2091 2906 1866 2906  Q 1506 2906 1245 2678  Q 984 2450 984 1813  L 984 0  L 422 0  z " transform="scale(0.015625)" />
      <path id="ArialMT-3d" d="M 3381 2694  L 356 2694  L 356 3219  L 3381 3219  L 3381 2694  z M 3381 1303  L 356 1303  L 356 1828  L 3381 1828  L 3381 1303  z " transform="scale(0.015625)" />
      <path id="ArialMT-31" d="M 2384 0  L 1822 0  L 1822 3584  Q 1619 3391 1289 3197  Q 959 3003 697 2906  L 697 3450  Q 1169 3672 1522 3987  Q 1875 4303 2022 4600  L 2384 4600  L 2384 0  z " transform="scale(0.015625)" />
      <path id="ArialMT-37" d="M 303 3981  L 303 4522  L 3269 4522  L 3269 4084  Q 2831 3619 2401 2847  Q 1972 2075 1738 1259  Q 1569 684 1522 0  L 944 0  Q 953 541 1156 1306  Q 1359 2072 1739 2783  Q 2119 3494 2547 3981  L 303 3981  z " transform="scale(0.015625)" />
     </defs>
     <use xlink:href="#ArialMT-6e" />
     <use xlink:href="#ArialMT-3d" x="55.615234" />
     <use xlink:href="#ArialMT-31" x="114.013672" />
     <use xlink:href="#ArialMT-37" x="169.628906" />
    </g>
    
    <g style="fill: #444443" transform="translate(7.290734 46.741059)scale(0.09 -0.09)">
     <defs>
      <path id="ArialMT-65" d="M 2694 1069  L 3275 997  Q 3138 488 2766 206  Q 2394 -75 1816 -75  Q 1088 -75 661 373  Q 234 822 234 1631  Q 234 2469 665 2931  Q 1097 3394 1784 3394  Q 2450 3394 2872 2941  Q 3294 2488 3294 1666  Q 3294 1616 3291 1516  L 816 1516  Q 847 969 1125 678  Q 1403 388 1819 388  Q 2128 388 2347 550  Q 2566 713 2694 1069  z M 847 1978  L 2700 1978  Q 2663 2397 2488 2606  Q 2219 2931 1791 2931  Q 1403 2931 1139 2672  Q 875 2413 847 1978  z " transform="scale(0.015625)" />
      <path id="ArialMT-67" d="M 319 -275  L 866 -356  Q 900 -609 1056 -725  Q 1266 -881 1628 -881  Q 2019 -881 2231 -725  Q 2444 -569 2519 -288  Q 2563 -116 2559 434  Q 2191 0 1641 0  Q 956 0 581 494  Q 206 988 206 1678  Q 206 2153 378 2554  Q 550 2956 876 3175  Q 1203 3394 1644 3394  Q 2231 3394 2613 2919  L 2613 3319  L 3131 3319  L 3131 450  Q 3131 -325 2973 -648  Q 2816 -972 2473 -1159  Q 2131 -1347 1631 -1347  Q 1038 -1347 672 -1080  Q 306 -813 319 -275  z M 784 1719  Q 784 1066 1043 766  Q 1303 466 1694 466  Q 2081 466 2343 764  Q 2606 1063 2606 1700  Q 2606 2309 2336 2618  Q 2066 2928 1684 2928  Q 1309 2928 1046 2623  Q 784 2319 784 1719  z " transform="scale(0.015625)" />
     </defs>
     <use xlink:href="#ArialMT-6e" />
     <use xlink:href="#ArialMT-65" x="55.615234" />
     <use xlink:href="#ArialMT-67" x="111.230469" />
    </g>
   </g>
  </g>
 </g>
</svg></g>

<g id="edge20" class="edge">
<title>node17-&gt;leaf19</title>
<path fill="none" stroke="#444443" stroke-width="0.3" d="M437.38,-127.34C440.22,-115.66 446.88,-88.26 451.87,-67.74" />
<polygon fill="#444443" stroke="#444443" stroke-width="0.3" points="453.25,-67.95 452.84,-63.73 450.53,-67.29 453.25,-67.95" />
</g>

<g id="node8" class="node">
<title>node15</title>
<text text-anchor="start" x="339.5" y="-188.4" font-family="Helvetica,sans-Serif" font-size="12.00" fill="#444443">sun [h]@183.00</text>
</g>

<g id="edge23" class="edge">
<title>node15-&gt;node17</title>
<path fill="none" stroke="#444443" stroke-width="0.3" d="M387.38,-184.98C396.84,-175.25 416.52,-155.02 427.73,-143.5" />
<polygon fill="#444443" stroke="#444443" stroke-width="0.3" points="428.86,-144.35 430.65,-140.5 426.85,-142.39 428.86,-144.35" />
</g>

<g id="node11" class="node">
<title>node20</title>
<text text-anchor="start" x="492" y="-188.4" font-family="Helvetica,sans-Serif" font-size="12.00" fill="#444443">Dinophysis fortii@50.44</text>
</g>


<g id="node23" class="node">
<title>leaf16</title>
<polygon fill="none" stroke="#444443" stroke-width="0" points="368.5,-168 315.5,-168 315.5,-100 368.5,-100 368.5,-168" />
<svg width="45px" height="60px" viewBox="0 0 61.004 81.299598" version="1.1" preserveAspectRatio="xMinYMin meet" x="320" y="-164">
 <metadata>
  <rdf:RDF>
   <ns2:Work>
    <dc:type rdf:resource="http://purl.org/dc/dcmitype/StillImage" />
    <dc:date>2023-05-19T16:12:52.005549</dc:date>
    <dc:format>image/svg+xml</dc:format>
    <dc:creator>
     <ns2:Agent>
      <dc:title>Matplotlib v3.5.2, https://matplotlib.org/</dc:title>
     </ns2:Agent>
    </dc:creator>
   </ns2:Work>
  </rdf:RDF>
 </metadata>
 <defs>
  <style type="text/css">*{stroke-linejoin: round; stroke-linecap: butt}</style>
 </defs>
 <g id="figure_1">
  <g id="patch_1">
   <path d="M 0 81.299598  L 61.004 81.299598  L 61.004 0  L 0 0  L 0 81.299598  z " style="fill: none" />
  </g>
  <g id="axes_1">
   <g id="patch_2">
    <path d="M 61.004 30.502  C 61.004 26.496514 60.215007 22.529976 58.682174 18.82939  C 57.14934 15.128803 54.902477 11.766135 52.070171 8.933829  C 49.237865 6.101523 45.875197 3.85466 42.17461 2.321826  C 38.474024 0.788993 34.507486 0 30.502 0  C 26.496514 0 22.529976 0.788993 18.82939 2.321826  C 15.128803 3.85466 11.766135 6.101523 8.933829 8.933829  C 6.101523 11.766135 3.85466 15.128803 2.321826 18.82939  C 0.788993 22.529976 0 26.496514 0 30.502  C 0 34.507486 0.788993 38.474024 2.321826 42.17461  C 3.85466 45.875197 6.101523 49.237865 8.933829 52.070171  C 11.766135 54.902477 15.128803 57.14934 18.82939 58.682174  C 22.529976 60.215007 26.496514 61.004 30.502 61.004  C 34.507486 61.004 38.474024 60.215007 42.17461 58.682174  C 45.875197 57.14934 49.237865 54.902477 52.070171 52.070171  C 54.902477 49.237865 57.14934 45.875197 58.682174 42.17461  C 60.215007 38.474024 61.004 34.507486 61.004 30.502  M 30.502 30.502  M 61.004 30.502  z " style="fill: #fefebb; stroke: #444443; stroke-width: 0.5; stroke-linejoin: miter" />
   </g>
   <g id="text_1">
    
    <g style="fill: #444443" transform="translate(20.366453 69.886191)scale(0.09 -0.09)">
     <defs>
      <path id="ArialMT-6e" d="M 422 0  L 422 3319  L 928 3319  L 928 2847  Q 1294 3394 1984 3394  Q 2284 3394 2536 3286  Q 2788 3178 2913 3003  Q 3038 2828 3088 2588  Q 3119 2431 3119 2041  L 3119 0  L 2556 0  L 2556 2019  Q 2556 2363 2490 2533  Q 2425 2703 2258 2804  Q 2091 2906 1866 2906  Q 1506 2906 1245 2678  Q 984 2450 984 1813  L 984 0  L 422 0  z " transform="scale(0.015625)" />
      <path id="ArialMT-3d" d="M 3381 2694  L 356 2694  L 356 3219  L 3381 3219  L 3381 2694  z M 3381 1303  L 356 1303  L 356 1828  L 3381 1828  L 3381 1303  z " transform="scale(0.015625)" />
      <path id="ArialMT-34" d="M 2069 0  L 2069 1097  L 81 1097  L 81 1613  L 2172 4581  L 2631 4581  L 2631 1613  L 3250 1613  L 3250 1097  L 2631 1097  L 2631 0  L 2069 0  z M 2069 1613  L 2069 3678  L 634 1613  L 2069 1613  z " transform="scale(0.015625)" />
      <path id="ArialMT-33" d="M 269 1209  L 831 1284  Q 928 806 1161 595  Q 1394 384 1728 384  Q 2125 384 2398 659  Q 2672 934 2672 1341  Q 2672 1728 2419 1979  Q 2166 2231 1775 2231  Q 1616 2231 1378 2169  L 1441 2663  Q 1497 2656 1531 2656  Q 1891 2656 2178 2843  Q 2466 3031 2466 3422  Q 2466 3731 2256 3934  Q 2047 4138 1716 4138  Q 1388 4138 1169 3931  Q 950 3725 888 3313  L 325 3413  Q 428 3978 793 4289  Q 1159 4600 1703 4600  Q 2078 4600 2393 4439  Q 2709 4278 2876 4000  Q 3044 3722 3044 3409  Q 3044 3113 2884 2869  Q 2725 2625 2413 2481  Q 2819 2388 3044 2092  Q 3269 1797 3269 1353  Q 3269 753 2831 336  Q 2394 -81 1725 -81  Q 1122 -81 723 278  Q 325 638 269 1209  z " transform="scale(0.015625)" />
     </defs>
     <use xlink:href="#ArialMT-6e" />
     <use xlink:href="#ArialMT-3d" x="55.615234" />
     <use xlink:href="#ArialMT-34" x="114.013672" />
     <use xlink:href="#ArialMT-33" x="169.628906" />
    </g>
    
    <g style="fill: #444443" transform="translate(22.994734 79.405379)scale(0.09 -0.09)">
     <defs>
      <path id="ArialMT-65" d="M 2694 1069  L 3275 997  Q 3138 488 2766 206  Q 2394 -75 1816 -75  Q 1088 -75 661 373  Q 234 822 234 1631  Q 234 2469 665 2931  Q 1097 3394 1784 3394  Q 2450 3394 2872 2941  Q 3294 2488 3294 1666  Q 3294 1616 3291 1516  L 816 1516  Q 847 969 1125 678  Q 1403 388 1819 388  Q 2128 388 2347 550  Q 2566 713 2694 1069  z M 847 1978  L 2700 1978  Q 2663 2397 2488 2606  Q 2219 2931 1791 2931  Q 1403 2931 1139 2672  Q 875 2413 847 1978  z " transform="scale(0.015625)" />
      <path id="ArialMT-67" d="M 319 -275  L 866 -356  Q 900 -609 1056 -725  Q 1266 -881 1628 -881  Q 2019 -881 2231 -725  Q 2444 -569 2519 -288  Q 2563 -116 2559 434  Q 2191 0 1641 0  Q 956 0 581 494  Q 206 988 206 1678  Q 206 2153 378 2554  Q 550 2956 876 3175  Q 1203 3394 1644 3394  Q 2231 3394 2613 2919  L 2613 3319  L 3131 3319  L 3131 450  Q 3131 -325 2973 -648  Q 2816 -972 2473 -1159  Q 2131 -1347 1631 -1347  Q 1038 -1347 672 -1080  Q 306 -813 319 -275  z M 784 1719  Q 784 1066 1043 766  Q 1303 466 1694 466  Q 2081 466 2343 764  Q 2606 1063 2606 1700  Q 2606 2309 2336 2618  Q 2066 2928 1684 2928  Q 1309 2928 1046 2623  Q 784 2319 784 1719  z " transform="scale(0.015625)" />
     </defs>
     <use xlink:href="#ArialMT-6e" />
     <use xlink:href="#ArialMT-65" x="55.615234" />
     <use xlink:href="#ArialMT-67" x="111.230469" />
    </g>
   </g>
  </g>
 </g>
</svg></g>

<g id="edge22" class="edge">
<title>node15-&gt;leaf16</title>
<path fill="none" stroke="#444443" stroke-width="0.3" d="M378.02,-184.98C375.53,-181.52 372.09,-176.75 368.31,-171.51" />
<polygon fill="#444443" stroke="#444443" stroke-width="0.3" points="369.4,-170.62 365.92,-168.2 367.13,-172.26 369.4,-170.62" />
</g>

<g id="node9" class="node">
<title>node21</title>
<text text-anchor="start" x="497" y="-130.9" font-family="Helvetica,sans-Serif" font-size="12.00" fill="#444443">Dinophysis caudata@10.05</text>
</g>

<g id="node10" class="node">
<title>node24</title>
<text text-anchor="start" x="659" y="-130.9" font-family="Helvetica,sans-Serif" font-size="12.00" fill="#444443">sun [h]@42.90</text>
</g>


<g id="node24" class="node">
<title>leaf22</title>
<polygon fill="none" stroke="#444443" stroke-width="0" points="575.5,-83 508.5,-83 508.5,0 575.5,0 575.5,-83" />
<svg width="59px" height="75px" viewBox="0 0 78.519983 99.516233" version="1.1" preserveAspectRatio="xMinYMin meet" x="513" y="-78.5">
 <metadata>
  <rdf:RDF>
   <ns2:Work>
    <dc:type rdf:resource="http://purl.org/dc/dcmitype/StillImage" />
    <dc:date>2023-05-19T16:12:52.111770</dc:date>
    <dc:format>image/svg+xml</dc:format>
    <dc:creator>
     <ns2:Agent>
      <dc:title>Matplotlib v3.5.2, https://matplotlib.org/</dc:title>
     </ns2:Agent>
    </dc:creator>
   </ns2:Work>
  </rdf:RDF>
 </metadata>
 <defs>
  <style type="text/css">*{stroke-linejoin: round; stroke-linecap: butt}</style>
 </defs>
 <g id="figure_1">
  <g id="patch_1">
   <path d="M 0 99.516233  L 78.519983 99.516233  L 78.519983 0  L 0 0  L 0 99.516233  z " style="fill: none" />
  </g>
  <g id="axes_1">
   <g id="patch_2">
    <path d="M 78.519983 39.259996  C 78.519983 33.872005 77.410822 28.54125 75.261723 23.600419  C 73.112623 18.659588 69.969243 14.21365 66.027759 10.540076  C 62.086275 6.866502 57.430426 4.043337 52.35078 2.246773  C 47.271135 0.45021 41.875611 -0.281584 36.500942 0.097063  C 31.126273 0.47571 25.886645 1.956754 21.10906 4.447762  C 16.331475 6.938771 12.117435 10.386823 8.729936 14.576726  C 5.342437 18.766629 2.853447 23.609369 1.418303 28.802711  C -0.016841 33.996053 -0.367649 39.429664 0.387773 44.764435  L 39.259983 39.259996  L 78.519983 39.259996  z " style="fill: #fefebb; stroke: #444443; stroke-width: 0.5; stroke-linejoin: miter" />
   </g>
   <g id="patch_3">
    <path d="M 0.387773 44.764435  C 1.780234 54.597965 6.853505 63.545898 14.576712 69.790042  C 22.299919 76.034186 32.111946 79.120884 42.01902 78.422929  C 51.926095 77.724973 61.208435 73.293073 67.979899 66.027776  C 74.751363 58.762479 78.519981 49.191633 78.519983 39.260003  L 39.259983 39.259996  L 0.387773 44.764435  z " style="fill: #a1dab4; stroke: #444443; stroke-width: 0.5; stroke-linejoin: miter" />
   </g>
   <g id="text_1">
    
    <g style="fill: #444443" transform="translate(26.953889 88.102827)scale(0.09 -0.09)">
     <defs>
      <path id="ArialMT-6e" d="M 422 0  L 422 3319  L 928 3319  L 928 2847  Q 1294 3394 1984 3394  Q 2284 3394 2536 3286  Q 2788 3178 2913 3003  Q 3038 2828 3088 2588  Q 3119 2431 3119 2041  L 3119 0  L 2556 0  L 2556 2019  Q 2556 2363 2490 2533  Q 2425 2703 2258 2804  Q 2091 2906 1866 2906  Q 1506 2906 1245 2678  Q 984 2450 984 1813  L 984 0  L 422 0  z " transform="scale(0.015625)" />
      <path id="ArialMT-3d" d="M 3381 2694  L 356 2694  L 356 3219  L 3381 3219  L 3381 2694  z M 3381 1303  L 356 1303  L 356 1828  L 3381 1828  L 3381 1303  z " transform="scale(0.015625)" />
      <path id="ArialMT-31" d="M 2384 0  L 1822 0  L 1822 3584  Q 1619 3391 1289 3197  Q 959 3003 697 2906  L 697 3450  Q 1169 3672 1522 3987  Q 1875 4303 2022 4600  L 2384 4600  L 2384 0  z " transform="scale(0.015625)" />
      <path id="ArialMT-39" d="M 350 1059  L 891 1109  Q 959 728 1153 556  Q 1347 384 1650 384  Q 1909 384 2104 503  Q 2300 622 2425 820  Q 2550 1019 2634 1356  Q 2719 1694 2719 2044  Q 2719 2081 2716 2156  Q 2547 1888 2255 1720  Q 1963 1553 1622 1553  Q 1053 1553 659 1965  Q 266 2378 266 3053  Q 266 3750 677 4175  Q 1088 4600 1706 4600  Q 2153 4600 2523 4359  Q 2894 4119 3086 3673  Q 3278 3228 3278 2384  Q 3278 1506 3087 986  Q 2897 466 2520 194  Q 2144 -78 1638 -78  Q 1100 -78 759 220  Q 419 519 350 1059  z M 2653 3081  Q 2653 3566 2395 3850  Q 2138 4134 1775 4134  Q 1400 4134 1122 3828  Q 844 3522 844 3034  Q 844 2597 1108 2323  Q 1372 2050 1759 2050  Q 2150 2050 2401 2323  Q 2653 2597 2653 3081  z " transform="scale(0.015625)" />
     </defs>
     <use xlink:href="#ArialMT-6e" />
     <use xlink:href="#ArialMT-3d" x="55.615234" />
     <use xlink:href="#ArialMT-31" x="114.013672" />
     <use xlink:href="#ArialMT-31" x="162.253906" />
     <use xlink:href="#ArialMT-39" x="217.869141" />
    </g>
    
    <g style="fill: #444443" transform="translate(31.752718 97.622015)scale(0.09 -0.09)">
     <defs>
      <path id="ArialMT-65" d="M 2694 1069  L 3275 997  Q 3138 488 2766 206  Q 2394 -75 1816 -75  Q 1088 -75 661 373  Q 234 822 234 1631  Q 234 2469 665 2931  Q 1097 3394 1784 3394  Q 2450 3394 2872 2941  Q 3294 2488 3294 1666  Q 3294 1616 3291 1516  L 816 1516  Q 847 969 1125 678  Q 1403 388 1819 388  Q 2128 388 2347 550  Q 2566 713 2694 1069  z M 847 1978  L 2700 1978  Q 2663 2397 2488 2606  Q 2219 2931 1791 2931  Q 1403 2931 1139 2672  Q 875 2413 847 1978  z " transform="scale(0.015625)" />
      <path id="ArialMT-67" d="M 319 -275  L 866 -356  Q 900 -609 1056 -725  Q 1266 -881 1628 -881  Q 2019 -881 2231 -725  Q 2444 -569 2519 -288  Q 2563 -116 2559 434  Q 2191 0 1641 0  Q 956 0 581 494  Q 206 988 206 1678  Q 206 2153 378 2554  Q 550 2956 876 3175  Q 1203 3394 1644 3394  Q 2231 3394 2613 2919  L 2613 3319  L 3131 3319  L 3131 450  Q 3131 -325 2973 -648  Q 2816 -972 2473 -1159  Q 2131 -1347 1631 -1347  Q 1038 -1347 672 -1080  Q 306 -813 319 -275  z M 784 1719  Q 784 1066 1043 766  Q 1303 466 1694 466  Q 2081 466 2343 764  Q 2606 1063 2606 1700  Q 2606 2309 2336 2618  Q 2066 2928 1684 2928  Q 1309 2928 1046 2623  Q 784 2319 784 1719  z " transform="scale(0.015625)" />
     </defs>
     <use xlink:href="#ArialMT-6e" />
     <use xlink:href="#ArialMT-65" x="55.615234" />
     <use xlink:href="#ArialMT-67" x="111.230469" />
    </g>
   </g>
  </g>
 </g>
</svg></g>

<g id="edge25" class="edge">
<title>node21-&gt;leaf22</title>
<path fill="none" stroke="#444443" stroke-width="0.3" d="M569.19,-127.34C566.56,-119.13 561.44,-103.18 556.35,-87.29" />
<polygon fill="#444443" stroke="#444443" stroke-width="0.3" points="557.62,-86.64 555.06,-83.26 554.95,-87.5 557.62,-86.64" />
</g>

<g id="node25" class="node">
<title>leaf23</title>
<polygon fill="none" stroke="#444443" stroke-width="0" points="632.5,-70 589.5,-70 589.5,-13 632.5,-13 632.5,-70" />
<svg width="35px" height="49px" viewBox="0 0 46.507997 66.118288" version="1.1" preserveAspectRatio="xMinYMin meet" x="594" y="-65.5">
 <metadata>
  <rdf:RDF>
   <ns2:Work>
    <dc:type rdf:resource="http://purl.org/dc/dcmitype/StillImage" />
    <dc:date>2023-05-19T16:12:52.150254</dc:date>
    <dc:format>image/svg+xml</dc:format>
    <dc:creator>
     <ns2:Agent>
      <dc:title>Matplotlib v3.5.2, https://matplotlib.org/</dc:title>
     </ns2:Agent>
    </dc:creator>
   </ns2:Work>
  </rdf:RDF>
 </metadata>
 <defs>
  <style type="text/css">*{stroke-linejoin: round; stroke-linecap: butt}</style>
 </defs>
 <g id="figure_1">
  <g id="patch_1">
   <path d="M 0 66.118288  L 46.507997 66.118288  L 46.507997 0  L 0 0  L 0 66.118288  z " style="fill: none" />
  </g>
  <g id="axes_1">
   <g id="patch_2">
    <path d="M 46.507997 23.253999  C 46.507997 21.163577 46.226119 19.082668 45.66999 17.067579  C 45.11386 15.052489 44.288542 13.12156 43.216366 11.327039  L 23.253997 23.253999  L 46.507997 23.253999  z " style="fill: #fefebb; stroke: #444443; stroke-width: 0.5; stroke-linejoin: miter" />
   </g>
   <g id="patch_3">
    <path d="M 43.216366 11.327039  C 41.785128 8.931551 39.934318 6.813129 37.752629 5.07329  C 35.57094 3.333451 33.093787 2.000438 30.439878 1.138131  C 27.785969 0.275824 24.998385 -0.10178 22.21071 0.023415  C 19.423035 0.148609 16.680521 0.77457 14.114593 1.871301  C 11.548664 2.968031 9.200974 4.517728 7.184026 6.446128  C 5.167078 8.374528 3.513613 10.650327 2.302867 13.164468  C 1.092121 15.678608 0.343748 18.390276 0.093611 21.169528  C -0.156526 23.948779 0.095633 26.750497 0.838005 29.440421  C 1.580377 32.130345 2.800911 34.664809 4.441117 36.922358  C 6.081323 39.179908 8.114576 41.123897 10.44344 42.661166  C 12.772304 44.198436 15.358975 45.304032 18.079496 45.924973  C 20.800018 46.545915 23.610228 46.672121 26.375459 46.297545  C 29.140689 45.922969 31.816052 45.053691 34.27334 43.731368  C 36.730629 42.409044 38.929954 40.655141 40.765922 38.553706  C 42.60189 36.452271 44.044697 34.037418 45.025203 31.424869  C 46.00571 28.812319 46.507998 26.044483 46.507997 23.253998  L 23.253997 23.253999  L 43.216366 11.327039  z " style="fill: #a1dab4; stroke: #444443; stroke-width: 0.5; stroke-linejoin: miter" />
   </g>
   <g id="text_1">
    
    <g style="fill: #444443" transform="translate(13.118451 54.810351)scale(0.09 -0.09)">
     <defs>
      <path id="ArialMT-6e" d="M 422 0  L 422 3319  L 928 3319  L 928 2847  Q 1294 3394 1984 3394  Q 2284 3394 2536 3286  Q 2788 3178 2913 3003  Q 3038 2828 3088 2588  Q 3119 2431 3119 2041  L 3119 0  L 2556 0  L 2556 2019  Q 2556 2363 2490 2533  Q 2425 2703 2258 2804  Q 2091 2906 1866 2906  Q 1506 2906 1245 2678  Q 984 2450 984 1813  L 984 0  L 422 0  z " transform="scale(0.015625)" />
      <path id="ArialMT-3d" d="M 3381 2694  L 356 2694  L 356 3219  L 3381 3219  L 3381 2694  z M 3381 1303  L 356 1303  L 356 1828  L 3381 1828  L 3381 1303  z " transform="scale(0.015625)" />
      <path id="ArialMT-33" d="M 269 1209  L 831 1284  Q 928 806 1161 595  Q 1394 384 1728 384  Q 2125 384 2398 659  Q 2672 934 2672 1341  Q 2672 1728 2419 1979  Q 2166 2231 1775 2231  Q 1616 2231 1378 2169  L 1441 2663  Q 1497 2656 1531 2656  Q 1891 2656 2178 2843  Q 2466 3031 2466 3422  Q 2466 3731 2256 3934  Q 2047 4138 1716 4138  Q 1388 4138 1169 3931  Q 950 3725 888 3313  L 325 3413  Q 428 3978 793 4289  Q 1159 4600 1703 4600  Q 2078 4600 2393 4439  Q 2709 4278 2876 4000  Q 3044 3722 3044 3409  Q 3044 3113 2884 2869  Q 2725 2625 2413 2481  Q 2819 2388 3044 2092  Q 3269 1797 3269 1353  Q 3269 753 2831 336  Q 2394 -81 1725 -81  Q 1122 -81 723 278  Q 325 638 269 1209  z " transform="scale(0.015625)" />
      <path id="ArialMT-31" d="M 2384 0  L 1822 0  L 1822 3584  Q 1619 3391 1289 3197  Q 959 3003 697 2906  L 697 3450  Q 1169 3672 1522 3987  Q 1875 4303 2022 4600  L 2384 4600  L 2384 0  z " transform="scale(0.015625)" />
     </defs>
     <use xlink:href="#ArialMT-6e" />
     <use xlink:href="#ArialMT-3d" x="55.615234" />
     <use xlink:href="#ArialMT-33" x="114.013672" />
     <use xlink:href="#ArialMT-31" x="169.628906" />
    </g>
    
    <g style="fill: #444443" transform="translate(15.999154 64.329538)scale(0.09 -0.09)">
     <defs>
      <path id="ArialMT-70" d="M 422 -1272  L 422 3319  L 934 3319  L 934 2888  Q 1116 3141 1344 3267  Q 1572 3394 1897 3394  Q 2322 3394 2647 3175  Q 2972 2956 3137 2557  Q 3303 2159 3303 1684  Q 3303 1175 3120 767  Q 2938 359 2589 142  Q 2241 -75 1856 -75  Q 1575 -75 1351 44  Q 1128 163 984 344  L 984 -1272  L 422 -1272  z M 931 1641  Q 931 1000 1190 694  Q 1450 388 1819 388  Q 2194 388 2461 705  Q 2728 1022 2728 1688  Q 2728 2322 2467 2637  Q 2206 2953 1844 2953  Q 1484 2953 1207 2617  Q 931 2281 931 1641  z " transform="scale(0.015625)" />
      <path id="ArialMT-6f" d="M 213 1659  Q 213 2581 725 3025  Q 1153 3394 1769 3394  Q 2453 3394 2887 2945  Q 3322 2497 3322 1706  Q 3322 1066 3130 698  Q 2938 331 2570 128  Q 2203 -75 1769 -75  Q 1072 -75 642 372  Q 213 819 213 1659  z M 791 1659  Q 791 1022 1069 705  Q 1347 388 1769 388  Q 2188 388 2466 706  Q 2744 1025 2744 1678  Q 2744 2294 2464 2611  Q 2184 2928 1769 2928  Q 1347 2928 1069 2612  Q 791 2297 791 1659  z " transform="scale(0.015625)" />
      <path id="ArialMT-7a" d="M 125 0  L 125 456  L 2238 2881  Q 1878 2863 1603 2863  L 250 2863  L 250 3319  L 2963 3319  L 2963 2947  L 1166 841  L 819 456  Q 1197 484 1528 484  L 3063 484  L 3063 0  L 125 0  z " transform="scale(0.015625)" />
     </defs>
     <use xlink:href="#ArialMT-70" />
     <use xlink:href="#ArialMT-6f" x="55.615234" />
     <use xlink:href="#ArialMT-7a" x="111.230469" />
    </g>
   </g>
  </g>
 </g>
</svg></g>

<g id="edge26" class="edge">
<title>node21-&gt;leaf23</title>
<path fill="none" stroke="#444443" stroke-width="0.3" d="M573.5,-127.34C578.15,-116.82 588.44,-93.55 597.06,-74.04" />
<polygon fill="#444443" stroke="#444443" stroke-width="0.3" points="598.43,-74.41 598.76,-70.19 595.86,-73.28 598.43,-74.41" />
</g>

<g id="node26" class="node">
<title>leaf25</title>
<polygon fill="none" stroke="#444443" stroke-width="0" points="677.5,-57.5 658.5,-57.5 658.5,-25.5 677.5,-25.5 677.5,-57.5" />
<svg width="11px" height="24px" viewBox="0 0 15.26625 32.303117" version="1.1" preserveAspectRatio="xMinYMin meet" x="663" y="-53.5">
 <metadata>
  <rdf:RDF>
   <ns2:Work>
    <dc:type rdf:resource="http://purl.org/dc/dcmitype/StillImage" />
    <dc:date>2023-05-19T16:12:52.184926</dc:date>
    <dc:format>image/svg+xml</dc:format>
    <dc:creator>
     <ns2:Agent>
      <dc:title>Matplotlib v3.5.2, https://matplotlib.org/</dc:title>
     </ns2:Agent>
    </dc:creator>
   </ns2:Work>
  </rdf:RDF>
 </metadata>
 <defs>
  <style type="text/css">*{stroke-linejoin: round; stroke-linecap: butt}</style>
 </defs>
 <g id="figure_1">
  <g id="patch_1">
   <path d="M 0 32.303117  L 15.26625 32.303117  L 15.26625 0  L 0 0  L 0 32.303117  z " style="fill: none" />
  </g>
  <g id="axes_1">
   <g id="patch_2">
    <path d="M 14.579125 6.946  C 14.579125 6.03386 14.399453 5.130589 14.050392 4.287881  C 13.701331 3.445173 13.189669 2.679417 12.544689 2.034436  C 11.899708 1.389456 11.133952 0.877794 10.291244 0.528733  C 9.448536 0.179672 8.545265 0 7.633125 0  C 6.720985 0 5.817714 0.179672 4.975006 0.528733  C 4.132298 0.877794 3.366542 1.389456 2.721561 2.034436  C 2.076581 2.679417 1.564919 3.445173 1.215858 4.287881  C 0.866797 5.130589 0.687125 6.03386 0.687125 6.946  C 0.687125 7.85814 0.866797 8.761411 1.215858 9.604119  C 1.564919 10.446827 2.076581 11.212583 2.721561 11.857564  C 3.366542 12.502544 4.132298 13.014206 4.975006 13.363267  C 5.817714 13.712328 6.720985 13.892 7.633125 13.892  C 8.545265 13.892 9.448536 13.712328 10.291244 13.363267  C 11.133952 13.014206 11.899708 12.502544 12.544689 11.857564  C 13.189669 11.212583 13.701331 10.446827 14.050392 9.604119  C 14.399453 8.761411 14.579125 7.85814 14.579125 6.946  M 7.633125 6.946  M 14.579125 6.946  z " style="fill: #fefebb; stroke: #444443; stroke-width: 0.5; stroke-linejoin: miter" />
   </g>
   <g id="text_1">
    
    <g style="fill: #444443" transform="translate(0 20.889711)scale(0.09 -0.09)">
     <defs>
      <path id="ArialMT-6e" d="M 422 0  L 422 3319  L 928 3319  L 928 2847  Q 1294 3394 1984 3394  Q 2284 3394 2536 3286  Q 2788 3178 2913 3003  Q 3038 2828 3088 2588  Q 3119 2431 3119 2041  L 3119 0  L 2556 0  L 2556 2019  Q 2556 2363 2490 2533  Q 2425 2703 2258 2804  Q 2091 2906 1866 2906  Q 1506 2906 1245 2678  Q 984 2450 984 1813  L 984 0  L 422 0  z " transform="scale(0.015625)" />
      <path id="ArialMT-3d" d="M 3381 2694  L 356 2694  L 356 3219  L 3381 3219  L 3381 2694  z M 3381 1303  L 356 1303  L 356 1828  L 3381 1828  L 3381 1303  z " transform="scale(0.015625)" />
      <path id="ArialMT-34" d="M 2069 0  L 2069 1097  L 81 1097  L 81 1613  L 2172 4581  L 2631 4581  L 2631 1613  L 3250 1613  L 3250 1097  L 2631 1097  L 2631 0  L 2069 0  z M 2069 1613  L 2069 3678  L 634 1613  L 2069 1613  z " transform="scale(0.015625)" />
     </defs>
     <use xlink:href="#ArialMT-6e" />
     <use xlink:href="#ArialMT-3d" x="55.615234" />
     <use xlink:href="#ArialMT-34" x="114.013672" />
    </g>
    
    <g style="fill: #444443" transform="translate(0.125859 30.408899)scale(0.09 -0.09)">
     <defs>
      <path id="ArialMT-65" d="M 2694 1069  L 3275 997  Q 3138 488 2766 206  Q 2394 -75 1816 -75  Q 1088 -75 661 373  Q 234 822 234 1631  Q 234 2469 665 2931  Q 1097 3394 1784 3394  Q 2450 3394 2872 2941  Q 3294 2488 3294 1666  Q 3294 1616 3291 1516  L 816 1516  Q 847 969 1125 678  Q 1403 388 1819 388  Q 2128 388 2347 550  Q 2566 713 2694 1069  z M 847 1978  L 2700 1978  Q 2663 2397 2488 2606  Q 2219 2931 1791 2931  Q 1403 2931 1139 2672  Q 875 2413 847 1978  z " transform="scale(0.015625)" />
      <path id="ArialMT-67" d="M 319 -275  L 866 -356  Q 900 -609 1056 -725  Q 1266 -881 1628 -881  Q 2019 -881 2231 -725  Q 2444 -569 2519 -288  Q 2563 -116 2559 434  Q 2191 0 1641 0  Q 956 0 581 494  Q 206 988 206 1678  Q 206 2153 378 2554  Q 550 2956 876 3175  Q 1203 3394 1644 3394  Q 2231 3394 2613 2919  L 2613 3319  L 3131 3319  L 3131 450  Q 3131 -325 2973 -648  Q 2816 -972 2473 -1159  Q 2131 -1347 1631 -1347  Q 1038 -1347 672 -1080  Q 306 -813 319 -275  z M 784 1719  Q 784 1066 1043 766  Q 1303 466 1694 466  Q 2081 466 2343 764  Q 2606 1063 2606 1700  Q 2606 2309 2336 2618  Q 2066 2928 1684 2928  Q 1309 2928 1046 2623  Q 784 2319 784 1719  z " transform="scale(0.015625)" />
     </defs>
     <use xlink:href="#ArialMT-6e" />
     <use xlink:href="#ArialMT-65" x="55.615234" />
     <use xlink:href="#ArialMT-67" x="111.230469" />
    </g>
   </g>
  </g>
 </g>
</svg></g>

<g id="edge28" class="edge">
<title>node24-&gt;leaf25</title>
<path fill="none" stroke="#444443" stroke-width="0.3" d="M696.12,-127.34C691.87,-114.5 681.31,-82.66 674.41,-61.84" />
<polygon fill="#444443" stroke="#444443" stroke-width="0.3" points="675.67,-61.19 673.08,-57.84 673.01,-62.08 675.67,-61.19" />
</g>

<g id="node27" class="node">
<title>leaf26</title>
<polygon fill="none" stroke="#444443" stroke-width="0" points="753,-80.5 691,-80.5 691,-2.5 753,-2.5 753,-80.5" />
<svg width="54px" height="70px" viewBox="0 0 73.08399 93.757328" version="1.1" preserveAspectRatio="xMinYMin meet" x="695" y="-76.5">
 <metadata>
  <rdf:RDF>
   <ns2:Work>
    <dc:type rdf:resource="http://purl.org/dc/dcmitype/StillImage" />
    <dc:date>2023-05-19T16:12:52.222235</dc:date>
    <dc:format>image/svg+xml</dc:format>
    <dc:creator>
     <ns2:Agent>
      <dc:title>Matplotlib v3.5.2, https://matplotlib.org/</dc:title>
     </ns2:Agent>
    </dc:creator>
   </ns2:Work>
  </rdf:RDF>
 </metadata>
 <defs>
  <style type="text/css">*{stroke-linejoin: round; stroke-linecap: butt}</style>
 </defs>
 <g id="figure_1">
  <g id="patch_1">
   <path d="M 0 93.757328  L 73.08399 93.757328  L 73.08399 0  L 0 0  L 0 93.757328  z " style="fill: none" />
  </g>
  <g id="axes_1">
   <g id="patch_2">
    <path d="M 73.08399 36.541999  C 73.08399 33.918467 72.801456 31.302547 72.241277 28.739518  C 71.681098 26.176489 70.846525 23.681223 69.752004 21.296911  L 36.54199 36.541999  L 73.08399 36.541999  z " style="fill: #fefebb; stroke: #444443; stroke-width: 0.5; stroke-linejoin: miter" />
   </g>
   <g id="patch_3">
    <path d="M 69.752004 21.296911  C 67.887944 17.236227 65.294825 13.551651 62.101596 10.426404  C 58.908367 7.301158 55.16885 4.787917 51.068999 3.011658  C 46.969148 1.235399 42.578066 0.22606 38.114108 0.033833  C 33.650149 -0.158394 29.188555 0.46973 24.951185 1.886971  C 20.713815 3.304212 16.772091 5.486682 13.322022 8.325854  C 9.871953 11.165026 6.97169 14.613046 4.765454 18.498455  C 2.559218 22.383863 1.084195 26.641171 0.413733 31.058677  C -0.256728 35.476183 -0.111328 39.979429 0.842704 44.344483  C 1.796736 48.709537 3.54332 52.862827 5.995603 56.597821  C 8.447886 60.332815 11.564535 63.586562 15.190569 66.197261  C 18.816603 68.807961 22.890905 70.73161 27.210874 71.872553  C 31.530842 73.013495 36.023663 73.3525 40.465923 72.87271  C 44.908183 72.392919 49.225009 71.10242 53.201736 69.065385  C 57.178464 67.02835 60.748067 64.279113 63.733039 60.954386  C 66.718012 57.629658 69.068043 53.785478 70.666272 49.613004  C 72.264501 45.44053 73.083991 41.010089 73.08399 36.541994  L 36.54199 36.541999  L 69.752004 21.296911  z " style="fill: #a1dab4; stroke: #444443; stroke-width: 0.5; stroke-linejoin: miter" />
   </g>
   <g id="text_1">
    
    <g style="fill: #444443" transform="translate(26.406443 82.44939)scale(0.09 -0.09)">
     <defs>
      <path id="ArialMT-6e" d="M 422 0  L 422 3319  L 928 3319  L 928 2847  Q 1294 3394 1984 3394  Q 2284 3394 2536 3286  Q 2788 3178 2913 3003  Q 3038 2828 3088 2588  Q 3119 2431 3119 2041  L 3119 0  L 2556 0  L 2556 2019  Q 2556 2363 2490 2533  Q 2425 2703 2258 2804  Q 2091 2906 1866 2906  Q 1506 2906 1245 2678  Q 984 2450 984 1813  L 984 0  L 422 0  z " transform="scale(0.015625)" />
      <path id="ArialMT-3d" d="M 3381 2694  L 356 2694  L 356 3219  L 3381 3219  L 3381 2694  z M 3381 1303  L 356 1303  L 356 1828  L 3381 1828  L 3381 1303  z " transform="scale(0.015625)" />
      <path id="ArialMT-35" d="M 266 1200  L 856 1250  Q 922 819 1161 601  Q 1400 384 1738 384  Q 2144 384 2425 690  Q 2706 997 2706 1503  Q 2706 1984 2436 2262  Q 2166 2541 1728 2541  Q 1456 2541 1237 2417  Q 1019 2294 894 2097  L 366 2166  L 809 4519  L 3088 4519  L 3088 3981  L 1259 3981  L 1013 2750  Q 1425 3038 1878 3038  Q 2478 3038 2890 2622  Q 3303 2206 3303 1553  Q 3303 931 2941 478  Q 2500 -78 1738 -78  Q 1113 -78 717 272  Q 322 622 266 1200  z " transform="scale(0.015625)" />
      <path id="ArialMT-33" d="M 269 1209  L 831 1284  Q 928 806 1161 595  Q 1394 384 1728 384  Q 2125 384 2398 659  Q 2672 934 2672 1341  Q 2672 1728 2419 1979  Q 2166 2231 1775 2231  Q 1616 2231 1378 2169  L 1441 2663  Q 1497 2656 1531 2656  Q 1891 2656 2178 2843  Q 2466 3031 2466 3422  Q 2466 3731 2256 3934  Q 2047 4138 1716 4138  Q 1388 4138 1169 3931  Q 950 3725 888 3313  L 325 3413  Q 428 3978 793 4289  Q 1159 4600 1703 4600  Q 2078 4600 2393 4439  Q 2709 4278 2876 4000  Q 3044 3722 3044 3409  Q 3044 3113 2884 2869  Q 2725 2625 2413 2481  Q 2819 2388 3044 2092  Q 3269 1797 3269 1353  Q 3269 753 2831 336  Q 2394 -81 1725 -81  Q 1122 -81 723 278  Q 325 638 269 1209  z " transform="scale(0.015625)" />
     </defs>
     <use xlink:href="#ArialMT-6e" />
     <use xlink:href="#ArialMT-3d" x="55.615234" />
     <use xlink:href="#ArialMT-35" x="114.013672" />
     <use xlink:href="#ArialMT-33" x="169.628906" />
    </g>
    
    <g style="fill: #444443" transform="translate(29.287146 91.968578)scale(0.09 -0.09)">
     <defs>
      <path id="ArialMT-70" d="M 422 -1272  L 422 3319  L 934 3319  L 934 2888  Q 1116 3141 1344 3267  Q 1572 3394 1897 3394  Q 2322 3394 2647 3175  Q 2972 2956 3137 2557  Q 3303 2159 3303 1684  Q 3303 1175 3120 767  Q 2938 359 2589 142  Q 2241 -75 1856 -75  Q 1575 -75 1351 44  Q 1128 163 984 344  L 984 -1272  L 422 -1272  z M 931 1641  Q 931 1000 1190 694  Q 1450 388 1819 388  Q 2194 388 2461 705  Q 2728 1022 2728 1688  Q 2728 2322 2467 2637  Q 2206 2953 1844 2953  Q 1484 2953 1207 2617  Q 931 2281 931 1641  z " transform="scale(0.015625)" />
      <path id="ArialMT-6f" d="M 213 1659  Q 213 2581 725 3025  Q 1153 3394 1769 3394  Q 2453 3394 2887 2945  Q 3322 2497 3322 1706  Q 3322 1066 3130 698  Q 2938 331 2570 128  Q 2203 -75 1769 -75  Q 1072 -75 642 372  Q 213 819 213 1659  z M 791 1659  Q 791 1022 1069 705  Q 1347 388 1769 388  Q 2188 388 2466 706  Q 2744 1025 2744 1678  Q 2744 2294 2464 2611  Q 2184 2928 1769 2928  Q 1347 2928 1069 2612  Q 791 2297 791 1659  z " transform="scale(0.015625)" />
      <path id="ArialMT-7a" d="M 125 0  L 125 456  L 2238 2881  Q 1878 2863 1603 2863  L 250 2863  L 250 3319  L 2963 3319  L 2963 2947  L 1166 841  L 819 456  Q 1197 484 1528 484  L 3063 484  L 3063 0  L 125 0  z " transform="scale(0.015625)" />
     </defs>
     <use xlink:href="#ArialMT-70" />
     <use xlink:href="#ArialMT-6f" x="55.615234" />
     <use xlink:href="#ArialMT-7a" x="111.230469" />
    </g>
   </g>
  </g>
 </g>
</svg></g>

<g id="edge29" class="edge">
<title>node24-&gt;leaf26</title>
<path fill="none" stroke="#444443" stroke-width="0.3" d="M699.5,-127.34C701.79,-118.71 706.36,-101.49 710.78,-84.81" />
<polygon fill="#444443" stroke="#444443" stroke-width="0.3" points="712.23,-84.81 711.9,-80.58 709.52,-84.09 712.23,-84.81" />
</g>

<g id="edge31" class="edge">
<title>node20-&gt;node21</title>
<path fill="none" stroke="#444443" stroke-width="0.3" d="M557.49,-184.98C560.05,-175.5 565.31,-156.05 568.46,-144.41" />
<polygon fill="#444443" stroke="#444443" stroke-width="0.3" points="569.82,-144.73 569.51,-140.5 567.12,-144 569.82,-144.73" />
</g>

<g id="edge32" class="edge">
<title>node20-&gt;node24</title>
<path fill="none" stroke="#444443" stroke-width="0.3" d="M570.13,-184.98C596.08,-174.84 651.25,-153.27 679.9,-142.08" />
<polygon fill="#444443" stroke="#444443" stroke-width="0.3" points="680.71,-143.26 683.92,-140.5 679.69,-140.65 680.71,-143.26" />
</g>

<g id="edge34" class="edge">
<title>node14-&gt;node15</title>
<path fill="none" stroke="#444443" stroke-width="0.3" d="M349.3,-214.83C355.3,-210.73 363.49,-205.14 370.18,-200.57" />
<polygon fill="#444443" stroke="#444443" stroke-width="0.3" points="371.2,-201.57 373.72,-198.16 369.62,-199.26 371.2,-201.57" />
</g>

<g id="edge35" class="edge">
<title>node14-&gt;node20</title>
<path fill="none" stroke="#444443" stroke-width="0.3" d="M383.48,-214.97C419.84,-210.23 472.12,-203.42 509.58,-198.55" />
<polygon fill="#444443" stroke="#444443" stroke-width="0.3" points="509.83,-199.93 513.61,-198.02 509.46,-197.15 509.83,-199.93" />
</g>

<g id="node13" class="node">
<title>node0</title>
<text text-anchor="start" x="216.5" y="-277.9" font-family="Helvetica,sans-Serif" font-size="12.00" fill="#444443">Dinophysis fortii@0.83</text>
</g>

<g id="edge37" class="edge">
<title>node0-&gt;node1</title>
<path fill="none" stroke="#444443" stroke-width="0.3" d="M271.03,-274.28C260.43,-264.12 238.27,-242.88 225.88,-231.01" />
<polygon fill="#444443" stroke="#444443" stroke-width="0.3" points="226.8,-229.96 222.95,-228.2 224.87,-231.98 226.8,-229.96" />
<text text-anchor="start" x="246" y="-239.8" font-family="Times,serif" font-size="14.00">&#8804;</text>
</g>

<g id="edge38" class="edge">
<title>node0-&gt;node14</title>
<path fill="none" stroke="#444443" stroke-width="0.3" d="M283.37,-274.28C294.68,-264.12 318.31,-242.88 331.53,-231.01" />
<polygon fill="#444443" stroke="#444443" stroke-width="0.3" points="332.62,-231.92 334.66,-228.2 330.74,-229.83 332.62,-231.92" />
<text text-anchor="start" x="326" y="-239.8" font-family="Times,serif" font-size="14.00">&gt;</text>
</g>









<g id="node28" class="node">
<title>legend</title>
<polygon fill="none" stroke="black" stroke-width="0" points="391,-303 345,-303 345,-259 391,-259 391,-303" />
<svg width="42px" height="40px" viewBox="0 0 56.182812 54.36" version="1.1" preserveAspectRatio="xMinYMin meet" x="347" y="-301">
 <metadata>
  <rdf:RDF>
   <ns2:Work>
    <dc:type rdf:resource="http://purl.org/dc/dcmitype/StillImage" />
    <dc:date>2023-05-19T16:12:51.612827</dc:date>
    <dc:format>image/svg+xml</dc:format>
    <dc:creator>
     <ns2:Agent>
      <dc:title>Matplotlib v3.5.2, https://matplotlib.org/</dc:title>
     </ns2:Agent>
    </dc:creator>
   </ns2:Work>
  </rdf:RDF>
 </metadata>
 <defs>
  <style type="text/css">*{stroke-linejoin: round; stroke-linecap: butt}</style>
 </defs>
 <g id="figure_1">
  <g id="patch_1">
   <path d="M 0 54.36  L 56.182812 54.36  L 56.182812 0  L 0 0  L 0 54.36  z " style="fill: none" />
  </g>
  <g id="axes_1">
   <g id="legend_1">
    <g id="patch_2">
     <path d="M 2 54.262031  L 54.182812 54.262031  Q 56.182812 54.262031 56.182812 52.262031  L 56.182812 2.097969  Q 56.182812 0.097969 54.182812 0.097969  L 2 0.097969  Q 0 0.097969 0 2.097969  L 0 52.262031  Q 0 54.262031 2 54.262031  z " style="fill: #ffffff; opacity: 0.8; stroke: #444443; stroke-width: 0.5; stroke-linejoin: miter" />
    </g>
    <g id="text_1">
     
     <g style="fill: #444443" transform="translate(10.501562 15.696406)scale(0.1 -0.1)">
      <defs>
       <path id="DejaVuSans-Bold-74" d="M 1759 4494  L 1759 3500  L 2913 3500  L 2913 2700  L 1759 2700  L 1759 1216  Q 1759 972 1856 886  Q 1953 800 2241 800  L 2816 800  L 2816 0  L 1856 0  Q 1194 0 917 276  Q 641 553 641 1216  L 641 2700  L 84 2700  L 84 3500  L 641 3500  L 641 4494  L 1759 4494  z " transform="scale(0.015625)" />
       <path id="DejaVuSans-Bold-61" d="M 2106 1575  Q 1756 1575 1579 1456  Q 1403 1338 1403 1106  Q 1403 894 1545 773  Q 1688 653 1941 653  Q 2256 653 2472 879  Q 2688 1106 2688 1447  L 2688 1575  L 2106 1575  z M 3816 1997  L 3816 0  L 2688 0  L 2688 519  Q 2463 200 2181 54  Q 1900 -91 1497 -91  Q 953 -91 614 226  Q 275 544 275 1050  Q 275 1666 698 1953  Q 1122 2241 2028 2241  L 2688 2241  L 2688 2328  Q 2688 2594 2478 2717  Q 2269 2841 1825 2841  Q 1466 2841 1156 2769  Q 847 2697 581 2553  L 581 3406  Q 941 3494 1303 3539  Q 1666 3584 2028 3584  Q 2975 3584 3395 3211  Q 3816 2838 3816 1997  z " transform="scale(0.015625)" />
       <path id="DejaVuSans-Bold-72" d="M 3138 2547  Q 2991 2616 2845 2648  Q 2700 2681 2553 2681  Q 2122 2681 1889 2404  Q 1656 2128 1656 1613  L 1656 0  L 538 0  L 538 3500  L 1656 3500  L 1656 2925  Q 1872 3269 2151 3426  Q 2431 3584 2822 3584  Q 2878 3584 2943 3579  Q 3009 3575 3134 3559  L 3138 2547  z " transform="scale(0.015625)" />
       <path id="DejaVuSans-Bold-67" d="M 2919 594  Q 2688 288 2409 144  Q 2131 0 1766 0  Q 1125 0 706 504  Q 288 1009 288 1791  Q 288 2575 706 3076  Q 1125 3578 1766 3578  Q 2131 3578 2409 3434  Q 2688 3291 2919 2981  L 2919 3500  L 4044 3500  L 4044 353  Q 4044 -491 3511 -936  Q 2978 -1381 1966 -1381  Q 1638 -1381 1331 -1331  Q 1025 -1281 716 -1178  L 716 -306  Q 1009 -475 1290 -558  Q 1572 -641 1856 -641  Q 2406 -641 2662 -400  Q 2919 -159 2919 353  L 2919 594  z M 2181 2772  Q 1834 2772 1640 2515  Q 1447 2259 1447 1791  Q 1447 1309 1634 1061  Q 1822 813 2181 813  Q 2531 813 2725 1069  Q 2919 1325 2919 1791  Q 2919 2259 2725 2515  Q 2531 2772 2181 2772  z " transform="scale(0.015625)" />
       <path id="DejaVuSans-Bold-65" d="M 4031 1759  L 4031 1441  L 1416 1441  Q 1456 1047 1700 850  Q 1944 653 2381 653  Q 2734 653 3104 758  Q 3475 863 3866 1075  L 3866 213  Q 3469 63 3072 -14  Q 2675 -91 2278 -91  Q 1328 -91 801 392  Q 275 875 275 1747  Q 275 2603 792 3093  Q 1309 3584 2216 3584  Q 3041 3584 3536 3087  Q 4031 2591 4031 1759  z M 2881 2131  Q 2881 2450 2695 2645  Q 2509 2841 2209 2841  Q 1884 2841 1681 2658  Q 1478 2475 1428 2131  L 2881 2131  z " transform="scale(0.015625)" />
      </defs>
      <use xlink:href="#DejaVuSans-Bold-74" />
      <use xlink:href="#DejaVuSans-Bold-61" x="47.802734" />
      <use xlink:href="#DejaVuSans-Bold-72" x="115.283203" />
      <use xlink:href="#DejaVuSans-Bold-67" x="164.599609" />
      <use xlink:href="#DejaVuSans-Bold-65" x="236.181641" />
      <use xlink:href="#DejaVuSans-Bold-74" x="304.003906" />
     </g>
    </g>
    <g id="patch_3">
     <path d="M 8 30.012031  L 28 30.012031  L 28 23.012031  L 8 23.012031  z " style="fill: #fefebb; stroke: #444443; stroke-width: 0.4; stroke-linejoin: miter" />
    </g>
    <g id="text_2">
     
     <g style="fill: #444443" transform="translate(31.5 30.012031)scale(0.1 -0.1)">
      <defs>
       <path id="ArialMT-6e" d="M 422 0  L 422 3319  L 928 3319  L 928 2847  Q 1294 3394 1984 3394  Q 2284 3394 2536 3286  Q 2788 3178 2913 3003  Q 3038 2828 3088 2588  Q 3119 2431 3119 2041  L 3119 0  L 2556 0  L 2556 2019  Q 2556 2363 2490 2533  Q 2425 2703 2258 2804  Q 2091 2906 1866 2906  Q 1506 2906 1245 2678  Q 984 2450 984 1813  L 984 0  L 422 0  z " transform="scale(0.015625)" />
       <path id="ArialMT-65" d="M 2694 1069  L 3275 997  Q 3138 488 2766 206  Q 2394 -75 1816 -75  Q 1088 -75 661 373  Q 234 822 234 1631  Q 234 2469 665 2931  Q 1097 3394 1784 3394  Q 2450 3394 2872 2941  Q 3294 2488 3294 1666  Q 3294 1616 3291 1516  L 816 1516  Q 847 969 1125 678  Q 1403 388 1819 388  Q 2128 388 2347 550  Q 2566 713 2694 1069  z M 847 1978  L 2700 1978  Q 2663 2397 2488 2606  Q 2219 2931 1791 2931  Q 1403 2931 1139 2672  Q 875 2413 847 1978  z " transform="scale(0.015625)" />
       <path id="ArialMT-67" d="M 319 -275  L 866 -356  Q 900 -609 1056 -725  Q 1266 -881 1628 -881  Q 2019 -881 2231 -725  Q 2444 -569 2519 -288  Q 2563 -116 2559 434  Q 2191 0 1641 0  Q 956 0 581 494  Q 206 988 206 1678  Q 206 2153 378 2554  Q 550 2956 876 3175  Q 1203 3394 1644 3394  Q 2231 3394 2613 2919  L 2613 3319  L 3131 3319  L 3131 450  Q 3131 -325 2973 -648  Q 2816 -972 2473 -1159  Q 2131 -1347 1631 -1347  Q 1038 -1347 672 -1080  Q 306 -813 319 -275  z M 784 1719  Q 784 1066 1043 766  Q 1303 466 1694 466  Q 2081 466 2343 764  Q 2606 1063 2606 1700  Q 2606 2309 2336 2618  Q 2066 2928 1684 2928  Q 1309 2928 1046 2623  Q 784 2319 784 1719  z " transform="scale(0.015625)" />
      </defs>
      <use xlink:href="#ArialMT-6e" />
      <use xlink:href="#ArialMT-65" x="55.615234" />
      <use xlink:href="#ArialMT-67" x="111.230469" />
     </g>
    </g>
    <g id="patch_4">
     <path d="M 8 44.274531  L 28 44.274531  L 28 37.274531  L 8 37.274531  z " style="fill: #a1dab4; stroke: #444443; stroke-width: 0.4; stroke-linejoin: miter" />
    </g>
    <g id="text_3">
     
     <g style="fill: #444443" transform="translate(31.5 44.274531)scale(0.1 -0.1)">
      <defs>
       <path id="ArialMT-70" d="M 422 -1272  L 422 3319  L 934 3319  L 934 2888  Q 1116 3141 1344 3267  Q 1572 3394 1897 3394  Q 2322 3394 2647 3175  Q 2972 2956 3137 2557  Q 3303 2159 3303 1684  Q 3303 1175 3120 767  Q 2938 359 2589 142  Q 2241 -75 1856 -75  Q 1575 -75 1351 44  Q 1128 163 984 344  L 984 -1272  L 422 -1272  z M 931 1641  Q 931 1000 1190 694  Q 1450 388 1819 388  Q 2194 388 2461 705  Q 2728 1022 2728 1688  Q 2728 2322 2467 2637  Q 2206 2953 1844 2953  Q 1484 2953 1207 2617  Q 931 2281 931 1641  z " transform="scale(0.015625)" />
       <path id="ArialMT-6f" d="M 213 1659  Q 213 2581 725 3025  Q 1153 3394 1769 3394  Q 2453 3394 2887 2945  Q 3322 2497 3322 1706  Q 3322 1066 3130 698  Q 2938 331 2570 128  Q 2203 -75 1769 -75  Q 1072 -75 642 372  Q 213 819 213 1659  z M 791 1659  Q 791 1022 1069 705  Q 1347 388 1769 388  Q 2188 388 2466 706  Q 2744 1025 2744 1678  Q 2744 2294 2464 2611  Q 2184 2928 1769 2928  Q 1347 2928 1069 2612  Q 791 2297 791 1659  z " transform="scale(0.015625)" />
       <path id="ArialMT-7a" d="M 125 0  L 125 456  L 2238 2881  Q 1878 2863 1603 2863  L 250 2863  L 250 3319  L 2963 3319  L 2963 2947  L 1166 841  L 819 456  Q 1197 484 1528 484  L 3063 484  L 3063 0  L 125 0  z " transform="scale(0.015625)" />
      </defs>
      <use xlink:href="#ArialMT-70" />
      <use xlink:href="#ArialMT-6f" x="55.615234" />
      <use xlink:href="#ArialMT-7a" x="111.230469" />
     </g>
    </g>
   </g>
  </g>
 </g>
</svg></g>
</g>
</svg>