<svg xmlns="http://www.w3.org/2000/svg" xmlns:dc="http://purl.org/dc/elements/1.1/" xmlns:ns2="http://creativecommons.org/ns#" xmlns:rdf="http://www.w3.org/1999/02/22-rdf-syntax-ns#" xmlns:xlink="http://www.w3.org/1999/xlink" width="837.0" height="532.5" viewBox="0.0 0.0 837.0 532.5">
<g id="graph0" class="graph" transform="scale(1.5 1.5) rotate(0) translate(4 351)">
<title>G</title>
<polygon fill="white" stroke="transparent" points="-4,4 -4,-351 554,-351 554,4 -4,4" />
<g id="clust12" class="cluster">
<title>cluster_legend</title>
</g>

<g id="node1" class="node">
<title>node4</title>
<text text-anchor="start" x="21" y="-113.9" font-family="Helvetica,sans-Serif" font-size="12.00" fill="#444443">Soca@1591.59</text>
</g>

<g id="node2" class="node">
<title>node7</title>
<text text-anchor="start" x="119" y="-113.9" font-family="Helvetica,sans-Serif" font-size="12.00" fill="#444443">Soca@2044.92</text>
</g>


<g id="node12" class="node">
<title>leaf5</title>
<polygon fill="none" stroke="#444443" stroke-width="0" points="30,-63.5 0,-63.5 0,-19.5 30,-19.5 30,-63.5" />
<svg width="22px" height="36px" viewBox="0 0 29.596 48.529809" version="1.1" preserveAspectRatio="xMinYMin meet" x="4" y="-59.5">
 <metadata>
  <rdf:RDF>
   <ns2:Work>
    <dc:type rdf:resource="http://purl.org/dc/dcmitype/StillImage" />
    <dc:date>2023-05-18T01:41:31.877346</dc:date>
    <dc:format>image/svg+xml</dc:format>
    <dc:creator>
     <ns2:Agent>
      <dc:title>Matplotlib v3.5.2, https://matplotlib.org/</dc:title>
     </ns2:Agent>
    </dc:creator>
   </ns2:Work>
  </rdf:RDF>
 </metadata>
 <defs>
  <style type="text/css">*{stroke-linejoin: round; stroke-linecap: butt}</style>
 </defs>
 <g id="figure_1">
  <g id="patch_1">
   <path d="M 0 48.529809  L 29.596 48.529809  L 29.596 0  L 0 0  L 0 48.529809  z " style="fill: none" />
  </g>
  <g id="axes_1">
   <g id="patch_2">
    <path d="M 29.596 14.798  C 29.596 12.200602 28.912143 9.648413 27.613444 7.399  C 26.314745 5.149587 24.446412 3.281255 22.197 1.982556  C 19.947587 0.683857 17.395398 -0 14.797999 0  C 12.200601 0 9.648412 0.683857 7.398999 1.982557  L 14.798 14.798  L 29.596 14.798  z " style="fill: #fefebb; stroke: #444443; stroke-width: 0.5; stroke-linejoin: miter" />
   </g>
   <g id="patch_3">
    <path d="M 7.398999 1.982557  C 5.149586 3.281256 3.281254 5.149588 1.982555 7.399001  C 0.683857 9.648414 -0 12.200603 0 14.798001  C 0 17.3954 0.683858 19.947589 1.982557 22.197001  C 3.281256 24.446414 5.149589 26.314746 7.399002 27.613445  C 9.648415 28.912144 12.200604 29.596 14.798002 29.596  C 17.3954 29.596 19.947589 28.912142 22.197002 27.613443  C 24.446415 26.314743 26.314746 24.446411 27.613445 22.196998  C 28.912144 19.947585 29.596 17.395395 29.596 14.797997  L 14.798 14.798  L 7.398999 1.982557  z " style="fill: #a1dab4; stroke: #444443; stroke-width: 0.5; stroke-linejoin: miter" />
   </g>
   <g id="text_1">
    
    <g style="fill: #444443" transform="translate(4.662453 37.221871)scale(0.09 -0.09)">
     <defs>
      <path id="ArialMT-6e" d="M 422 0  L 422 3319  L 928 3319  L 928 2847  Q 1294 3394 1984 3394  Q 2284 3394 2536 3286  Q 2788 3178 2913 3003  Q 3038 2828 3088 2588  Q 3119 2431 3119 2041  L 3119 0  L 2556 0  L 2556 2019  Q 2556 2363 2490 2533  Q 2425 2703 2258 2804  Q 2091 2906 1866 2906  Q 1506 2906 1245 2678  Q 984 2450 984 1813  L 984 0  L 422 0  z " transform="scale(0.015625)" />
      <path id="ArialMT-3d" d="M 3381 2694  L 356 2694  L 356 3219  L 3381 3219  L 3381 2694  z M 3381 1303  L 356 1303  L 356 1828  L 3381 1828  L 3381 1303  z " transform="scale(0.015625)" />
      <path id="ArialMT-31" d="M 2384 0  L 1822 0  L 1822 3584  Q 1619 3391 1289 3197  Q 959 3003 697 2906  L 697 3450  Q 1169 3672 1522 3987  Q 1875 4303 2022 4600  L 2384 4600  L 2384 0  z " transform="scale(0.015625)" />
      <path id="ArialMT-37" d="M 303 3981  L 303 4522  L 3269 4522  L 3269 4084  Q 2831 3619 2401 2847  Q 1972 2075 1738 1259  Q 1569 684 1522 0  L 944 0  Q 953 541 1156 1306  Q 1359 2072 1739 2783  Q 2119 3494 2547 3981  L 303 3981  z " transform="scale(0.015625)" />
     </defs>
     <use xlink:href="#ArialMT-6e" />
     <use xlink:href="#ArialMT-3d" x="55.615234" />
     <use xlink:href="#ArialMT-31" x="114.013672" />
     <use xlink:href="#ArialMT-37" x="169.628906" />
    </g>
    
    <g style="fill: #444443" transform="translate(7.543156 46.741059)scale(0.09 -0.09)">
     <defs>
      <path id="ArialMT-70" d="M 422 -1272  L 422 3319  L 934 3319  L 934 2888  Q 1116 3141 1344 3267  Q 1572 3394 1897 3394  Q 2322 3394 2647 3175  Q 2972 2956 3137 2557  Q 3303 2159 3303 1684  Q 3303 1175 3120 767  Q 2938 359 2589 142  Q 2241 -75 1856 -75  Q 1575 -75 1351 44  Q 1128 163 984 344  L 984 -1272  L 422 -1272  z M 931 1641  Q 931 1000 1190 694  Q 1450 388 1819 388  Q 2194 388 2461 705  Q 2728 1022 2728 1688  Q 2728 2322 2467 2637  Q 2206 2953 1844 2953  Q 1484 2953 1207 2617  Q 931 2281 931 1641  z " transform="scale(0.015625)" />
      <path id="ArialMT-6f" d="M 213 1659  Q 213 2581 725 3025  Q 1153 3394 1769 3394  Q 2453 3394 2887 2945  Q 3322 2497 3322 1706  Q 3322 1066 3130 698  Q 2938 331 2570 128  Q 2203 -75 1769 -75  Q 1072 -75 642 372  Q 213 819 213 1659  z M 791 1659  Q 791 1022 1069 705  Q 1347 388 1769 388  Q 2188 388 2466 706  Q 2744 1025 2744 1678  Q 2744 2294 2464 2611  Q 2184 2928 1769 2928  Q 1347 2928 1069 2612  Q 791 2297 791 1659  z " transform="scale(0.015625)" />
      <path id="ArialMT-7a" d="M 125 0  L 125 456  L 2238 2881  Q 1878 2863 1603 2863  L 250 2863  L 250 3319  L 2963 3319  L 2963 2947  L 1166 841  L 819 456  Q 1197 484 1528 484  L 3063 484  L 3063 0  L 125 0  z " transform="scale(0.015625)" />
     </defs>
     <use xlink:href="#ArialMT-70" />
     <use xlink:href="#ArialMT-6f" x="55.615234" />
     <use xlink:href="#ArialMT-7a" x="111.230469" />
    </g>
   </g>
  </g>
 </g>
</svg></g>

<g id="edge1" class="edge">
<title>node4-&gt;leaf5</title>
<path fill="none" stroke="#444443" stroke-width="0.3" d="M59.23,-110.23C53.23,-101.05 41.16,-82.56 31.14,-67.22" />
<polygon fill="#444443" stroke="#444443" stroke-width="0.3" points="32.27,-66.38 28.91,-63.8 29.92,-67.91 32.27,-66.38" />
</g>

<g id="node13" class="node">
<title>leaf6</title>
<polygon fill="none" stroke="#444443" stroke-width="0" points="110.5,-83 43.5,-83 43.5,0 110.5,0 110.5,-83" />
<svg width="59px" height="75px" viewBox="0 0 78.519996 99.516232" version="1.1" preserveAspectRatio="xMinYMin meet" x="48" y="-78.5">
 <metadata>
  <rdf:RDF>
   <ns2:Work>
    <dc:type rdf:resource="http://purl.org/dc/dcmitype/StillImage" />
    <dc:date>2023-05-18T01:41:31.937488</dc:date>
    <dc:format>image/svg+xml</dc:format>
    <dc:creator>
     <ns2:Agent>
      <dc:title>Matplotlib v3.5.2, https://matplotlib.org/</dc:title>
     </ns2:Agent>
    </dc:creator>
   </ns2:Work>
  </rdf:RDF>
 </metadata>
 <defs>
  <style type="text/css">*{stroke-linejoin: round; stroke-linecap: butt}</style>
 </defs>
 <g id="figure_1">
  <g id="patch_1">
   <path d="M 0 99.516232  L 78.519996 99.516232  L 78.519996 -0  L 0 -0  L 0 99.516232  z " style="fill: none" />
  </g>
  <g id="axes_1">
   <g id="patch_2">
    <path d="M 78.519996 39.259994  C 78.519996 34.8227 77.76772 30.417348 76.295197 26.231508  C 74.822675 22.045668 72.651106 18.139603 69.872952 14.679626  C 67.094798 11.219649 63.750056 8.255573 59.981137 5.913602  C 56.212218 3.57163 52.073384 1.885481 47.740857 0.926946  C 43.40833 -0.031589 38.944485 -0.248709 34.539384 0.28483  C 30.134283 0.818369 25.851345 2.094886 21.87293 4.06003  C 17.894514 6.025173 14.277897 8.650651 11.177067 11.824676  C 8.076238 14.9987 5.535837 18.675576 3.664031 22.698749  C 1.792224 26.721922 0.61596 31.033471 0.185322 35.449819  C -0.245317 39.866167 0.07587 44.323732 1.135206 48.632721  C 2.194543 52.94171 3.976778 57.040087 6.406027 60.75335  C 8.835277 64.466614 11.876568 67.741305 15.400407 70.437994  C 18.924247 73.134683 22.879904 75.214546 27.098954 76.589027  C 31.318004 77.963508 35.739705 78.612818 40.175792 78.509312  C 44.611879 78.405806 48.998485 77.550973 53.148837 75.98121  C 57.29919 74.411448 61.153536 72.149356 64.547767 69.291249  L 39.259996 39.259994  L 78.519996 39.259994  z " style="fill: #fefebb; stroke: #444443; stroke-width: 0.5; stroke-linejoin: miter" />
   </g>
   <g id="patch_3">
    <path d="M 64.547767 69.291249  C 68.924136 65.606134 72.442538 61.008539 74.855961 55.821242  C 77.269384 50.633944 78.519996 44.981245 78.519996 39.259998  L 39.259996 39.259994  L 64.547767 69.291249  z " style="fill: #a1dab4; stroke: #444443; stroke-width: 0.5; stroke-linejoin: miter" />
   </g>
   <g id="text_1">
    
    <g style="fill: #444443" transform="translate(26.622027 88.102826)scale(0.09 -0.09)">
     <defs>
      <path id="ArialMT-6e" d="M 422 0  L 422 3319  L 928 3319  L 928 2847  Q 1294 3394 1984 3394  Q 2284 3394 2536 3286  Q 2788 3178 2913 3003  Q 3038 2828 3088 2588  Q 3119 2431 3119 2041  L 3119 0  L 2556 0  L 2556 2019  Q 2556 2363 2490 2533  Q 2425 2703 2258 2804  Q 2091 2906 1866 2906  Q 1506 2906 1245 2678  Q 984 2450 984 1813  L 984 0  L 422 0  z " transform="scale(0.015625)" />
      <path id="ArialMT-3d" d="M 3381 2694  L 356 2694  L 356 3219  L 3381 3219  L 3381 2694  z M 3381 1303  L 356 1303  L 356 1828  L 3381 1828  L 3381 1303  z " transform="scale(0.015625)" />
      <path id="ArialMT-32" d="M 3222 541  L 3222 0  L 194 0  Q 188 203 259 391  Q 375 700 629 1000  Q 884 1300 1366 1694  Q 2113 2306 2375 2664  Q 2638 3022 2638 3341  Q 2638 3675 2398 3904  Q 2159 4134 1775 4134  Q 1369 4134 1125 3890  Q 881 3647 878 3216  L 300 3275  Q 359 3922 746 4261  Q 1134 4600 1788 4600  Q 2447 4600 2831 4234  Q 3216 3869 3216 3328  Q 3216 3053 3103 2787  Q 2991 2522 2730 2228  Q 2469 1934 1863 1422  Q 1356 997 1212 845  Q 1069 694 975 541  L 3222 541  z " transform="scale(0.015625)" />
      <path id="ArialMT-37" d="M 303 3981  L 303 4522  L 3269 4522  L 3269 4084  Q 2831 3619 2401 2847  Q 1972 2075 1738 1259  Q 1569 684 1522 0  L 944 0  Q 953 541 1156 1306  Q 1359 2072 1739 2783  Q 2119 3494 2547 3981  L 303 3981  z " transform="scale(0.015625)" />
      <path id="ArialMT-35" d="M 266 1200  L 856 1250  Q 922 819 1161 601  Q 1400 384 1738 384  Q 2144 384 2425 690  Q 2706 997 2706 1503  Q 2706 1984 2436 2262  Q 2166 2541 1728 2541  Q 1456 2541 1237 2417  Q 1019 2294 894 2097  L 366 2166  L 809 4519  L 3088 4519  L 3088 3981  L 1259 3981  L 1013 2750  Q 1425 3038 1878 3038  Q 2478 3038 2890 2622  Q 3303 2206 3303 1553  Q 3303 931 2941 478  Q 2500 -78 1738 -78  Q 1113 -78 717 272  Q 322 622 266 1200  z " transform="scale(0.015625)" />
     </defs>
     <use xlink:href="#ArialMT-6e" />
     <use xlink:href="#ArialMT-3d" x="55.615234" />
     <use xlink:href="#ArialMT-32" x="114.013672" />
     <use xlink:href="#ArialMT-37" x="169.628906" />
     <use xlink:href="#ArialMT-35" x="225.244141" />
    </g>
    
    <g style="fill: #444443" transform="translate(31.75273 97.622013)scale(0.09 -0.09)">
     <defs>
      <path id="ArialMT-65" d="M 2694 1069  L 3275 997  Q 3138 488 2766 206  Q 2394 -75 1816 -75  Q 1088 -75 661 373  Q 234 822 234 1631  Q 234 2469 665 2931  Q 1097 3394 1784 3394  Q 2450 3394 2872 2941  Q 3294 2488 3294 1666  Q 3294 1616 3291 1516  L 816 1516  Q 847 969 1125 678  Q 1403 388 1819 388  Q 2128 388 2347 550  Q 2566 713 2694 1069  z M 847 1978  L 2700 1978  Q 2663 2397 2488 2606  Q 2219 2931 1791 2931  Q 1403 2931 1139 2672  Q 875 2413 847 1978  z " transform="scale(0.015625)" />
      <path id="ArialMT-67" d="M 319 -275  L 866 -356  Q 900 -609 1056 -725  Q 1266 -881 1628 -881  Q 2019 -881 2231 -725  Q 2444 -569 2519 -288  Q 2563 -116 2559 434  Q 2191 0 1641 0  Q 956 0 581 494  Q 206 988 206 1678  Q 206 2153 378 2554  Q 550 2956 876 3175  Q 1203 3394 1644 3394  Q 2231 3394 2613 2919  L 2613 3319  L 3131 3319  L 3131 450  Q 3131 -325 2973 -648  Q 2816 -972 2473 -1159  Q 2131 -1347 1631 -1347  Q 1038 -1347 672 -1080  Q 306 -813 319 -275  z M 784 1719  Q 784 1066 1043 766  Q 1303 466 1694 466  Q 2081 466 2343 764  Q 2606 1063 2606 1700  Q 2606 2309 2336 2618  Q 2066 2928 1684 2928  Q 1309 2928 1046 2623  Q 784 2319 784 1719  z " transform="scale(0.015625)" />
     </defs>
     <use xlink:href="#ArialMT-6e" />
     <use xlink:href="#ArialMT-65" x="55.615234" />
     <use xlink:href="#ArialMT-67" x="111.230469" />
    </g>
   </g>
  </g>
 </g>
</svg></g>

<g id="edge2" class="edge">
<title>node4-&gt;leaf6</title>
<path fill="none" stroke="#444443" stroke-width="0.3" d="M64.1,-110.23C65.11,-104.9 66.73,-96.44 68.47,-87.28" />
<polygon fill="#444443" stroke="#444443" stroke-width="0.3" points="69.85,-87.51 69.22,-83.32 67.1,-86.99 69.85,-87.51" />
</g>

<g id="node14" class="node">
<title>leaf8</title>
<polygon fill="none" stroke="#444443" stroke-width="0" points="166,-61 140,-61 140,-22 166,-22 166,-61" />
<svg width="18px" height="31px" viewBox="0 0 23.556 42.353677" version="1.1" preserveAspectRatio="xMinYMin meet" x="144" y="-56.5">
 <metadata>
  <rdf:RDF>
   <ns2:Work>
    <dc:type rdf:resource="http://purl.org/dc/dcmitype/StillImage" />
    <dc:date>2023-05-18T01:41:31.990025</dc:date>
    <dc:format>image/svg+xml</dc:format>
    <dc:creator>
     <ns2:Agent>
      <dc:title>Matplotlib v3.5.2, https://matplotlib.org/</dc:title>
     </ns2:Agent>
    </dc:creator>
   </ns2:Work>
  </rdf:RDF>
 </metadata>
 <defs>
  <style type="text/css">*{stroke-linejoin: round; stroke-linecap: butt}</style>
 </defs>
 <g id="figure_1">
  <g id="patch_1">
   <path d="M 0 42.353677  L 23.556 42.353677  L 23.556 0  L 0 0  L 0 42.353677  z " style="fill: none" />
  </g>
  <g id="axes_1">
   <g id="patch_2">
    <path d="M 23.556 11.778  C 23.556 10.231327 23.251339 8.699694 22.659453 7.270755  C 22.067567 5.841815 21.199966 4.543359 20.106304 3.449696  C 19.012641 2.356034 17.714185 1.488433 16.285245 0.896547  C 14.856306 0.304661 13.324673 -0 11.778 -0  C 10.231327 -0 8.699694 0.304661 7.270755 0.896547  C 5.841815 1.488433 4.543359 2.356034 3.449696 3.449696  C 2.356034 4.543359 1.488433 5.841815 0.896547 7.270755  C 0.304661 8.699694 0 10.231327 0 11.778  C 0 13.324673 0.304661 14.856306 0.896547 16.285245  C 1.488433 17.714185 2.356034 19.012641 3.449696 20.106304  C 4.543359 21.199966 5.841815 22.067567 7.270755 22.659453  C 8.699694 23.251339 10.231327 23.556 11.778 23.556  C 13.324673 23.556 14.856306 23.251339 16.285245 22.659453  C 17.714185 22.067567 19.012641 21.199966 20.106304 20.106304  C 21.199966 19.012641 22.067567 17.714185 22.659453 16.285245  C 23.251339 14.856306 23.556 13.324673 23.556 11.778  M 11.778 11.778  M 23.556 11.778  z " style="fill: #fefebb; stroke: #444443; stroke-width: 0.5; stroke-linejoin: miter" />
   </g>
   <g id="text_1">
    
    <g style="fill: #444443" transform="translate(1.642453 30.940271)scale(0.09 -0.09)">
     <defs>
      <path id="ArialMT-6e" d="M 422 0  L 422 3319  L 928 3319  L 928 2847  Q 1294 3394 1984 3394  Q 2284 3394 2536 3286  Q 2788 3178 2913 3003  Q 3038 2828 3088 2588  Q 3119 2431 3119 2041  L 3119 0  L 2556 0  L 2556 2019  Q 2556 2363 2490 2533  Q 2425 2703 2258 2804  Q 2091 2906 1866 2906  Q 1506 2906 1245 2678  Q 984 2450 984 1813  L 984 0  L 422 0  z " transform="scale(0.015625)" />
      <path id="ArialMT-3d" d="M 3381 2694  L 356 2694  L 356 3219  L 3381 3219  L 3381 2694  z M 3381 1303  L 356 1303  L 356 1828  L 3381 1828  L 3381 1303  z " transform="scale(0.015625)" />
      <path id="ArialMT-31" d="M 2384 0  L 1822 0  L 1822 3584  Q 1619 3391 1289 3197  Q 959 3003 697 2906  L 697 3450  Q 1169 3672 1522 3987  Q 1875 4303 2022 4600  L 2384 4600  L 2384 0  z " transform="scale(0.015625)" />
      <path id="ArialMT-32" d="M 3222 541  L 3222 0  L 194 0  Q 188 203 259 391  Q 375 700 629 1000  Q 884 1300 1366 1694  Q 2113 2306 2375 2664  Q 2638 3022 2638 3341  Q 2638 3675 2398 3904  Q 2159 4134 1775 4134  Q 1369 4134 1125 3890  Q 881 3647 878 3216  L 300 3275  Q 359 3922 746 4261  Q 1134 4600 1788 4600  Q 2447 4600 2831 4234  Q 3216 3869 3216 3328  Q 3216 3053 3103 2787  Q 2991 2522 2730 2228  Q 2469 1934 1863 1422  Q 1356 997 1212 845  Q 1069 694 975 541  L 3222 541  z " transform="scale(0.015625)" />
     </defs>
     <use xlink:href="#ArialMT-6e" />
     <use xlink:href="#ArialMT-3d" x="55.615234" />
     <use xlink:href="#ArialMT-31" x="114.013672" />
     <use xlink:href="#ArialMT-32" x="169.628906" />
    </g>
    
    <g style="fill: #444443" transform="translate(4.270734 40.459459)scale(0.09 -0.09)">
     <defs>
      <path id="ArialMT-65" d="M 2694 1069  L 3275 997  Q 3138 488 2766 206  Q 2394 -75 1816 -75  Q 1088 -75 661 373  Q 234 822 234 1631  Q 234 2469 665 2931  Q 1097 3394 1784 3394  Q 2450 3394 2872 2941  Q 3294 2488 3294 1666  Q 3294 1616 3291 1516  L 816 1516  Q 847 969 1125 678  Q 1403 388 1819 388  Q 2128 388 2347 550  Q 2566 713 2694 1069  z M 847 1978  L 2700 1978  Q 2663 2397 2488 2606  Q 2219 2931 1791 2931  Q 1403 2931 1139 2672  Q 875 2413 847 1978  z " transform="scale(0.015625)" />
      <path id="ArialMT-67" d="M 319 -275  L 866 -356  Q 900 -609 1056 -725  Q 1266 -881 1628 -881  Q 2019 -881 2231 -725  Q 2444 -569 2519 -288  Q 2563 -116 2559 434  Q 2191 0 1641 0  Q 956 0 581 494  Q 206 988 206 1678  Q 206 2153 378 2554  Q 550 2956 876 3175  Q 1203 3394 1644 3394  Q 2231 3394 2613 2919  L 2613 3319  L 3131 3319  L 3131 450  Q 3131 -325 2973 -648  Q 2816 -972 2473 -1159  Q 2131 -1347 1631 -1347  Q 1038 -1347 672 -1080  Q 306 -813 319 -275  z M 784 1719  Q 784 1066 1043 766  Q 1303 466 1694 466  Q 2081 466 2343 764  Q 2606 1063 2606 1700  Q 2606 2309 2336 2618  Q 2066 2928 1684 2928  Q 1309 2928 1046 2623  Q 784 2319 784 1719  z " transform="scale(0.015625)" />
     </defs>
     <use xlink:href="#ArialMT-6e" />
     <use xlink:href="#ArialMT-65" x="55.615234" />
     <use xlink:href="#ArialMT-67" x="111.230469" />
    </g>
   </g>
  </g>
 </g>
</svg></g>

<g id="edge4" class="edge">
<title>node7-&gt;leaf8</title>
<path fill="none" stroke="#444443" stroke-width="0.3" d="M160.37,-110.23C159.34,-100.71 157.21,-81.18 155.51,-65.53" />
<polygon fill="#444443" stroke="#444443" stroke-width="0.3" points="156.86,-65.05 155.04,-61.23 154.08,-65.35 156.86,-65.05" />
</g>

<g id="node15" class="node">
<title>leaf9</title>
<polygon fill="none" stroke="#444443" stroke-width="0" points="214.5,-66 179.5,-66 179.5,-17 214.5,-17 214.5,-66" />
<svg width="27px" height="41px" viewBox="0 0 35.635999 54.811407" version="1.1" preserveAspectRatio="xMinYMin meet" x="184" y="-61.5">
 <metadata>
  <rdf:RDF>
   <ns2:Work>
    <dc:type rdf:resource="http://purl.org/dc/dcmitype/StillImage" />
    <dc:date>2023-05-18T01:41:32.046027</dc:date>
    <dc:format>image/svg+xml</dc:format>
    <dc:creator>
     <ns2:Agent>
      <dc:title>Matplotlib v3.5.2, https://matplotlib.org/</dc:title>
     </ns2:Agent>
    </dc:creator>
   </ns2:Work>
  </rdf:RDF>
 </metadata>
 <defs>
  <style type="text/css">*{stroke-linejoin: round; stroke-linecap: butt}</style>
 </defs>
 <g id="figure_1">
  <g id="patch_1">
   <path d="M 0 54.811407  L 35.635999 54.811407  L 35.635999 0  L 0 0  L 0 54.811407  z " style="fill: none" />
  </g>
  <g id="axes_1">
   <g id="patch_2">
    <path d="M 35.635999 17.817999  C 35.635999 13.465512 34.041195 9.260362 31.154963 6.002479  C 28.268731 2.744596 24.286473 0.654546 19.965721 0.129912  L 17.817999 17.817999  L 35.635999 17.817999  z " style="fill: #fefebb; stroke: #444443; stroke-width: 0.5; stroke-linejoin: miter" />
   </g>
   <g id="patch_3">
    <path d="M 19.965721 0.129912  C 18.181292 -0.086757 16.374305 -0.032156 14.606214 0.291859  C 12.838123 0.615874 11.129199 1.205587 9.537561 2.040943  C 7.945922 2.8763 6.489819 3.947721 5.21877 5.21877  C 3.94772 6.48982 2.876299 7.945923 2.040943 9.537562  C 1.205587 11.1292 0.615874 12.838123 0.291859 14.606215  C -0.032156 16.374306 -0.086757 18.181293 0.129912 19.965722  C 0.346581 21.750151 0.832036 23.491563 1.569767 25.130735  C 2.307499 26.769907 3.289048 28.288044 4.481035 29.633519  C 5.673021 30.978993 7.061777 32.136377 8.600074 33.06631  C 10.138371 33.996243 11.808571 34.688062 13.553873 35.11824  C 15.299175 35.548418 17.099568 35.712023 18.893824 35.60349  C 20.688079 35.494958 22.455625 35.115532 24.13635 34.478117  C 25.817074 33.840703 27.391707 32.952607 28.806696 31.844033  C 30.221686 30.735459 31.46081 29.419118 32.481926 27.939775  C 33.503042 26.460432 34.294443 24.835051 34.829215 23.118906  C 35.363987 21.402762 35.635999 19.615532 35.635999 17.817997  L 17.817999 17.817999  L 19.965721 0.129912  z " style="fill: #a1dab4; stroke: #444443; stroke-width: 0.5; stroke-linejoin: miter" />
   </g>
   <g id="text_1">
    
    <g style="fill: #444443" transform="translate(7.682452 43.50347)scale(0.09 -0.09)">
     <defs>
      <path id="ArialMT-6e" d="M 422 0  L 422 3319  L 928 3319  L 928 2847  Q 1294 3394 1984 3394  Q 2284 3394 2536 3286  Q 2788 3178 2913 3003  Q 3038 2828 3088 2588  Q 3119 2431 3119 2041  L 3119 0  L 2556 0  L 2556 2019  Q 2556 2363 2490 2533  Q 2425 2703 2258 2804  Q 2091 2906 1866 2906  Q 1506 2906 1245 2678  Q 984 2450 984 1813  L 984 0  L 422 0  z " transform="scale(0.015625)" />
      <path id="ArialMT-3d" d="M 3381 2694  L 356 2694  L 356 3219  L 3381 3219  L 3381 2694  z M 3381 1303  L 356 1303  L 356 1828  L 3381 1828  L 3381 1303  z " transform="scale(0.015625)" />
      <path id="ArialMT-32" d="M 3222 541  L 3222 0  L 194 0  Q 188 203 259 391  Q 375 700 629 1000  Q 884 1300 1366 1694  Q 2113 2306 2375 2664  Q 2638 3022 2638 3341  Q 2638 3675 2398 3904  Q 2159 4134 1775 4134  Q 1369 4134 1125 3890  Q 881 3647 878 3216  L 300 3275  Q 359 3922 746 4261  Q 1134 4600 1788 4600  Q 2447 4600 2831 4234  Q 3216 3869 3216 3328  Q 3216 3053 3103 2787  Q 2991 2522 2730 2228  Q 2469 1934 1863 1422  Q 1356 997 1212 845  Q 1069 694 975 541  L 3222 541  z " transform="scale(0.015625)" />
     </defs>
     <use xlink:href="#ArialMT-6e" />
     <use xlink:href="#ArialMT-3d" x="55.615234" />
     <use xlink:href="#ArialMT-32" x="114.013672" />
     <use xlink:href="#ArialMT-32" x="169.628906" />
    </g>
    
    <g style="fill: #444443" transform="translate(10.563155 53.022657)scale(0.09 -0.09)">
     <defs>
      <path id="ArialMT-70" d="M 422 -1272  L 422 3319  L 934 3319  L 934 2888  Q 1116 3141 1344 3267  Q 1572 3394 1897 3394  Q 2322 3394 2647 3175  Q 2972 2956 3137 2557  Q 3303 2159 3303 1684  Q 3303 1175 3120 767  Q 2938 359 2589 142  Q 2241 -75 1856 -75  Q 1575 -75 1351 44  Q 1128 163 984 344  L 984 -1272  L 422 -1272  z M 931 1641  Q 931 1000 1190 694  Q 1450 388 1819 388  Q 2194 388 2461 705  Q 2728 1022 2728 1688  Q 2728 2322 2467 2637  Q 2206 2953 1844 2953  Q 1484 2953 1207 2617  Q 931 2281 931 1641  z " transform="scale(0.015625)" />
      <path id="ArialMT-6f" d="M 213 1659  Q 213 2581 725 3025  Q 1153 3394 1769 3394  Q 2453 3394 2887 2945  Q 3322 2497 3322 1706  Q 3322 1066 3130 698  Q 2938 331 2570 128  Q 2203 -75 1769 -75  Q 1072 -75 642 372  Q 213 819 213 1659  z M 791 1659  Q 791 1022 1069 705  Q 1347 388 1769 388  Q 2188 388 2466 706  Q 2744 1025 2744 1678  Q 2744 2294 2464 2611  Q 2184 2928 1769 2928  Q 1347 2928 1069 2612  Q 791 2297 791 1659  z " transform="scale(0.015625)" />
      <path id="ArialMT-7a" d="M 125 0  L 125 456  L 2238 2881  Q 1878 2863 1603 2863  L 250 2863  L 250 3319  L 2963 3319  L 2963 2947  L 1166 841  L 819 456  Q 1197 484 1528 484  L 3063 484  L 3063 0  L 125 0  z " transform="scale(0.015625)" />
     </defs>
     <use xlink:href="#ArialMT-70" />
     <use xlink:href="#ArialMT-6f" x="55.615234" />
     <use xlink:href="#ArialMT-7a" x="111.230469" />
    </g>
   </g>
  </g>
 </g>
</svg></g>

<g id="edge5" class="edge">
<title>node7-&gt;leaf9</title>
<path fill="none" stroke="#444443" stroke-width="0.3" d="M163.82,-110.23C168.07,-101.56 176.38,-84.6 183.62,-69.82" />
<polygon fill="#444443" stroke="#444443" stroke-width="0.3" points="184.93,-70.32 185.43,-66.12 182.42,-69.09 184.93,-70.32" />
</g>

<g id="node3" class="node">
<title>node3</title>
<text text-anchor="start" x="95" y="-189.4" font-family="Helvetica,sans-Serif" font-size="12.00" fill="#444443">Dinophysis caudata@24.30</text>
</g>

<g id="edge7" class="edge">
<title>node3-&gt;node4</title>
<path fill="none" stroke="#444443" stroke-width="0.3" d="M161.03,-185.98C142.46,-173.1 96.24,-141.05 74.57,-126.02" />
<polygon fill="#444443" stroke="#444443" stroke-width="0.3" points="75.14,-124.72 71.06,-123.59 73.55,-127.02 75.14,-124.72" />
</g>

<g id="edge8" class="edge">
<title>node3-&gt;node7</title>
<path fill="none" stroke="#444443" stroke-width="0.3" d="M168.37,-185.73C167.01,-173.22 163.77,-143.46 162.08,-127.88" />
<polygon fill="#444443" stroke="#444443" stroke-width="0.3" points="163.43,-127.36 161.6,-123.54 160.64,-127.67 163.43,-127.36" />
</g>

<g id="node4" class="node">
<title>node1</title>
<text text-anchor="start" x="154" y="-254.4" font-family="Helvetica,sans-Serif" font-size="12.00" fill="#444443">Soca@1469.97</text>
</g>

<g id="edge11" class="edge">
<title>node1-&gt;node3</title>
<path fill="none" stroke="#444443" stroke-width="0.3" d="M193.51,-250.69C188.82,-239.75 178.67,-216.05 173.01,-202.85" />
<polygon fill="#444443" stroke="#444443" stroke-width="0.3" points="174.27,-202.24 171.41,-199.12 171.7,-203.35 174.27,-202.24" />
</g>

<g id="node10" class="node">
<title>node10</title>
<text text-anchor="start" x="254" y="-254.4" font-family="Helvetica,sans-Serif" font-size="12.00" fill="#444443">Phalacroma rotundatum@19.80</text>
</g>


<g id="node16" class="node">
<title>leaf2</title>
<polygon fill="none" stroke="#444443" stroke-width="0" points="81.5,-234 14.5,-234 14.5,-151 81.5,-151 81.5,-234" />
<svg width="59px" height="75px" viewBox="0 0 78.52 99.516238" version="1.1" preserveAspectRatio="xMinYMin meet" x="19" y="-229.5">
 <metadata>
  <rdf:RDF>
   <ns2:Work>
    <dc:type rdf:resource="http://purl.org/dc/dcmitype/StillImage" />
    <dc:date>2023-05-18T01:41:31.826560</dc:date>
    <dc:format>image/svg+xml</dc:format>
    <dc:creator>
     <ns2:Agent>
      <dc:title>Matplotlib v3.5.2, https://matplotlib.org/</dc:title>
     </ns2:Agent>
    </dc:creator>
   </ns2:Work>
  </rdf:RDF>
 </metadata>
 <defs>
  <style type="text/css">*{stroke-linejoin: round; stroke-linecap: butt}</style>
 </defs>
 <g id="figure_1">
  <g id="patch_1">
   <path d="M -0 99.516238  L 78.52 99.516238  L 78.52 0  L -0 0  L -0 99.516238  z " style="fill: none" />
  </g>
  <g id="axes_1">
   <g id="patch_2">
    <path d="M 78.52 39.26  C 78.52 34.104424 77.504464 28.99898 75.53151 24.235848  C 73.558557 19.472717 70.666555 15.14453 67.021012 11.498988  C 63.37547 7.853445 59.047283 4.961443 54.284152 2.98849  C 49.52102 1.015536 44.415576 0 39.26 0  C 34.104424 0 28.99898 1.015536 24.235848 2.98849  C 19.472717 4.961443 15.14453 7.853445 11.498988 11.498988  C 7.853445 15.14453 4.961443 19.472717 2.98849 24.235848  C 1.015536 28.99898 0 34.104424 0 39.26  C 0 44.415576 1.015536 49.52102 2.98849 54.284152  C 4.961443 59.047283 7.853445 63.37547 11.498988 67.021012  C 15.14453 70.666555 19.472717 73.558557 24.235848 75.53151  C 28.99898 77.504464 34.104424 78.52 39.26 78.52  C 44.415576 78.52 49.52102 77.504464 54.284152 75.53151  C 59.047283 73.558557 63.37547 70.666555 67.021012 67.021012  C 70.666555 63.37547 73.558557 59.047283 75.53151 54.284152  C 77.504464 49.52102 78.52 44.415576 78.52 39.26  M 39.26 39.26  M 78.52 39.26  z " style="fill: #fefebb; stroke: #444443; stroke-width: 0.5; stroke-linejoin: miter" />
   </g>
   <g id="text_1">
    
    <g style="fill: #444443" transform="translate(29.124453 88.102831)scale(0.09 -0.09)">
     <defs>
      <path id="ArialMT-6e" d="M 422 0  L 422 3319  L 928 3319  L 928 2847  Q 1294 3394 1984 3394  Q 2284 3394 2536 3286  Q 2788 3178 2913 3003  Q 3038 2828 3088 2588  Q 3119 2431 3119 2041  L 3119 0  L 2556 0  L 2556 2019  Q 2556 2363 2490 2533  Q 2425 2703 2258 2804  Q 2091 2906 1866 2906  Q 1506 2906 1245 2678  Q 984 2450 984 1813  L 984 0  L 422 0  z " transform="scale(0.015625)" />
      <path id="ArialMT-3d" d="M 3381 2694  L 356 2694  L 356 3219  L 3381 3219  L 3381 2694  z M 3381 1303  L 356 1303  L 356 1828  L 3381 1828  L 3381 1303  z " transform="scale(0.015625)" />
      <path id="ArialMT-39" d="M 350 1059  L 891 1109  Q 959 728 1153 556  Q 1347 384 1650 384  Q 1909 384 2104 503  Q 2300 622 2425 820  Q 2550 1019 2634 1356  Q 2719 1694 2719 2044  Q 2719 2081 2716 2156  Q 2547 1888 2255 1720  Q 1963 1553 1622 1553  Q 1053 1553 659 1965  Q 266 2378 266 3053  Q 266 3750 677 4175  Q 1088 4600 1706 4600  Q 2153 4600 2523 4359  Q 2894 4119 3086 3673  Q 3278 3228 3278 2384  Q 3278 1506 3087 986  Q 2897 466 2520 194  Q 2144 -78 1638 -78  Q 1100 -78 759 220  Q 419 519 350 1059  z M 2653 3081  Q 2653 3566 2395 3850  Q 2138 4134 1775 4134  Q 1400 4134 1122 3828  Q 844 3522 844 3034  Q 844 2597 1108 2323  Q 1372 2050 1759 2050  Q 2150 2050 2401 2323  Q 2653 2597 2653 3081  z " transform="scale(0.015625)" />
      <path id="ArialMT-37" d="M 303 3981  L 303 4522  L 3269 4522  L 3269 4084  Q 2831 3619 2401 2847  Q 1972 2075 1738 1259  Q 1569 684 1522 0  L 944 0  Q 953 541 1156 1306  Q 1359 2072 1739 2783  Q 2119 3494 2547 3981  L 303 3981  z " transform="scale(0.015625)" />
     </defs>
     <use xlink:href="#ArialMT-6e" />
     <use xlink:href="#ArialMT-3d" x="55.615234" />
     <use xlink:href="#ArialMT-39" x="114.013672" />
     <use xlink:href="#ArialMT-37" x="169.628906" />
    </g>
    
    <g style="fill: #444443" transform="translate(31.752734 97.622019)scale(0.09 -0.09)">
     <defs>
      <path id="ArialMT-65" d="M 2694 1069  L 3275 997  Q 3138 488 2766 206  Q 2394 -75 1816 -75  Q 1088 -75 661 373  Q 234 822 234 1631  Q 234 2469 665 2931  Q 1097 3394 1784 3394  Q 2450 3394 2872 2941  Q 3294 2488 3294 1666  Q 3294 1616 3291 1516  L 816 1516  Q 847 969 1125 678  Q 1403 388 1819 388  Q 2128 388 2347 550  Q 2566 713 2694 1069  z M 847 1978  L 2700 1978  Q 2663 2397 2488 2606  Q 2219 2931 1791 2931  Q 1403 2931 1139 2672  Q 875 2413 847 1978  z " transform="scale(0.015625)" />
      <path id="ArialMT-67" d="M 319 -275  L 866 -356  Q 900 -609 1056 -725  Q 1266 -881 1628 -881  Q 2019 -881 2231 -725  Q 2444 -569 2519 -288  Q 2563 -116 2559 434  Q 2191 0 1641 0  Q 956 0 581 494  Q 206 988 206 1678  Q 206 2153 378 2554  Q 550 2956 876 3175  Q 1203 3394 1644 3394  Q 2231 3394 2613 2919  L 2613 3319  L 3131 3319  L 3131 450  Q 3131 -325 2973 -648  Q 2816 -972 2473 -1159  Q 2131 -1347 1631 -1347  Q 1038 -1347 672 -1080  Q 306 -813 319 -275  z M 784 1719  Q 784 1066 1043 766  Q 1303 466 1694 466  Q 2081 466 2343 764  Q 2606 1063 2606 1700  Q 2606 2309 2336 2618  Q 2066 2928 1684 2928  Q 1309 2928 1046 2623  Q 784 2319 784 1719  z " transform="scale(0.015625)" />
     </defs>
     <use xlink:href="#ArialMT-6e" />
     <use xlink:href="#ArialMT-65" x="55.615234" />
     <use xlink:href="#ArialMT-67" x="111.230469" />
    </g>
   </g>
  </g>
 </g>
</svg></g>

<g id="edge10" class="edge">
<title>node1-&gt;leaf2</title>
<path fill="none" stroke="#444443" stroke-width="0.3" d="M182.87,-250.91C161.25,-241.71 117.39,-223.04 85.55,-209.48" />
<polygon fill="#444443" stroke="#444443" stroke-width="0.3" points="85.95,-208.13 81.73,-207.86 84.86,-210.71 85.95,-208.13" />
</g>

<g id="node5" class="node">
<title>node12</title>
<text text-anchor="start" x="210.5" y="-113.9" font-family="Helvetica,sans-Serif" font-size="12.00" fill="#444443">Dinophysis fortii@9.72</text>
</g>

<g id="node6" class="node">
<title>node15</title>
<text text-anchor="start" x="345.5" y="-113.9" font-family="Helvetica,sans-Serif" font-size="12.00" fill="#444443">air temp@23.03</text>
</g>


<g id="node17" class="node">
<title>leaf13</title>
<polygon fill="none" stroke="#444443" stroke-width="0" points="250.5,-59 229.5,-59 229.5,-24 250.5,-24 250.5,-59" />
<svg width="13px" height="27px" viewBox="0 0 17.515997 35.966606" version="1.1" preserveAspectRatio="xMinYMin meet" x="234" y="-54.5">
 <metadata>
  <rdf:RDF>
   <ns2:Work>
    <dc:type rdf:resource="http://purl.org/dc/dcmitype/StillImage" />
    <dc:date>2023-05-18T01:41:32.101134</dc:date>
    <dc:format>image/svg+xml</dc:format>
    <dc:creator>
     <ns2:Agent>
      <dc:title>Matplotlib v3.5.2, https://matplotlib.org/</dc:title>
     </ns2:Agent>
    </dc:creator>
   </ns2:Work>
  </rdf:RDF>
 </metadata>
 <defs>
  <style type="text/css">*{stroke-linejoin: round; stroke-linecap: butt}</style>
 </defs>
 <g id="figure_1">
  <g id="patch_1">
   <path d="M 0 35.966606  L 17.515997 35.966606  L 17.515997 0  L 0 0  L 0 35.966606  z " style="fill: none" />
  </g>
  <g id="axes_1">
   <g id="patch_2">
    <path d="M 17.515997 8.757997  C 17.515997 8.321063 17.4833 7.88474 17.418178 7.452685  C 17.353056 7.020631 17.255693 6.594055 17.126904 6.176532  L 8.757997 8.757997  L 17.515997 8.757997  z " style="fill: #fefebb; stroke: #444443; stroke-width: 0.5; stroke-linejoin: miter" />
   </g>
   <g id="patch_3">
    <path d="M 17.126904 6.176532  C 16.804147 5.130179 16.287999 4.153579 15.605277 3.297474  C 14.922556 2.441368 14.085295 1.720847 13.136997 1.173347  C 12.1887 0.625847 11.146079 0.261018 10.063309 0.097817  C 8.98054 -0.065384 7.876705 -0.024082 6.809159 0.219579  C 5.741613 0.463239 4.729172 0.904963 3.82444 1.521798  C 2.919709 2.138634 2.138634 2.919709 1.521798 3.82444  C 0.904963 4.729172 0.463239 5.741613 0.219579 6.809159  C -0.024082 7.876705 -0.065384 8.98054 0.097817 10.06331  C 0.261018 11.146079 0.625847 12.1887 1.173347 13.136998  C 1.720847 14.085295 2.441368 14.922556 3.297474 15.605278  C 4.153579 16.287999 5.13018 16.804147 6.176532 17.126904  C 7.222884 17.449661 8.320546 17.573338 9.412484 17.491508  C 10.504422 17.409679 11.571391 17.123785 12.557951 16.648683  C 13.544512 16.17358 14.433277 15.517642 15.178066 14.71495  C 15.922855 13.912258 16.510541 12.976961 16.91059 11.957654  C 17.310638 10.938347 17.515997 9.852997 17.515997 8.757997  L 8.757997 8.757997  L 17.126904 6.176532  z " style="fill: #a1dab4; stroke: #444443; stroke-width: 0.5; stroke-linejoin: miter" />
   </g>
   <g id="text_1">
    
    <g style="fill: #444443" transform="translate(1.124872 24.658669)scale(0.09 -0.09)">
     <defs>
      <path id="ArialMT-6e" d="M 422 0  L 422 3319  L 928 3319  L 928 2847  Q 1294 3394 1984 3394  Q 2284 3394 2536 3286  Q 2788 3178 2913 3003  Q 3038 2828 3088 2588  Q 3119 2431 3119 2041  L 3119 0  L 2556 0  L 2556 2019  Q 2556 2363 2490 2533  Q 2425 2703 2258 2804  Q 2091 2906 1866 2906  Q 1506 2906 1245 2678  Q 984 2450 984 1813  L 984 0  L 422 0  z " transform="scale(0.015625)" />
      <path id="ArialMT-3d" d="M 3381 2694  L 356 2694  L 356 3219  L 3381 3219  L 3381 2694  z M 3381 1303  L 356 1303  L 356 1828  L 3381 1828  L 3381 1303  z " transform="scale(0.015625)" />
      <path id="ArialMT-37" d="M 303 3981  L 303 4522  L 3269 4522  L 3269 4084  Q 2831 3619 2401 2847  Q 1972 2075 1738 1259  Q 1569 684 1522 0  L 944 0  Q 953 541 1156 1306  Q 1359 2072 1739 2783  Q 2119 3494 2547 3981  L 303 3981  z " transform="scale(0.015625)" />
     </defs>
     <use xlink:href="#ArialMT-6e" />
     <use xlink:href="#ArialMT-3d" x="55.615234" />
     <use xlink:href="#ArialMT-37" x="114.013672" />
    </g>
    
    <g style="fill: #444443" transform="translate(1.503154 34.177856)scale(0.09 -0.09)">
     <defs>
      <path id="ArialMT-70" d="M 422 -1272  L 422 3319  L 934 3319  L 934 2888  Q 1116 3141 1344 3267  Q 1572 3394 1897 3394  Q 2322 3394 2647 3175  Q 2972 2956 3137 2557  Q 3303 2159 3303 1684  Q 3303 1175 3120 767  Q 2938 359 2589 142  Q 2241 -75 1856 -75  Q 1575 -75 1351 44  Q 1128 163 984 344  L 984 -1272  L 422 -1272  z M 931 1641  Q 931 1000 1190 694  Q 1450 388 1819 388  Q 2194 388 2461 705  Q 2728 1022 2728 1688  Q 2728 2322 2467 2637  Q 2206 2953 1844 2953  Q 1484 2953 1207 2617  Q 931 2281 931 1641  z " transform="scale(0.015625)" />
      <path id="ArialMT-6f" d="M 213 1659  Q 213 2581 725 3025  Q 1153 3394 1769 3394  Q 2453 3394 2887 2945  Q 3322 2497 3322 1706  Q 3322 1066 3130 698  Q 2938 331 2570 128  Q 2203 -75 1769 -75  Q 1072 -75 642 372  Q 213 819 213 1659  z M 791 1659  Q 791 1022 1069 705  Q 1347 388 1769 388  Q 2188 388 2466 706  Q 2744 1025 2744 1678  Q 2744 2294 2464 2611  Q 2184 2928 1769 2928  Q 1347 2928 1069 2612  Q 791 2297 791 1659  z " transform="scale(0.015625)" />
      <path id="ArialMT-7a" d="M 125 0  L 125 456  L 2238 2881  Q 1878 2863 1603 2863  L 250 2863  L 250 3319  L 2963 3319  L 2963 2947  L 1166 841  L 819 456  Q 1197 484 1528 484  L 3063 484  L 3063 0  L 125 0  z " transform="scale(0.015625)" />
     </defs>
     <use xlink:href="#ArialMT-70" />
     <use xlink:href="#ArialMT-6f" x="55.615234" />
     <use xlink:href="#ArialMT-7a" x="111.230469" />
    </g>
   </g>
  </g>
 </g>
</svg></g>

<g id="edge13" class="edge">
<title>node12-&gt;leaf13</title>
<path fill="none" stroke="#444443" stroke-width="0.3" d="M268.57,-110.23C264.33,-100.19 255.4,-79.02 248.65,-63.01" />
<polygon fill="#444443" stroke="#444443" stroke-width="0.3" points="249.83,-62.2 246.98,-59.06 247.25,-63.29 249.83,-62.2" />
</g>

<g id="node18" class="node">
<title>leaf14</title>
<polygon fill="none" stroke="#444443" stroke-width="0" points="331.5,-83 264.5,-83 264.5,0 331.5,0 331.5,-83" />
<svg width="59px" height="75px" viewBox="0 0 78.519955 99.516228" version="1.1" preserveAspectRatio="xMinYMin meet" x="269" y="-78.5">
 <metadata>
  <rdf:RDF>
   <ns2:Work>
    <dc:type rdf:resource="http://purl.org/dc/dcmitype/StillImage" />
    <dc:date>2023-05-18T01:41:32.149039</dc:date>
    <dc:format>image/svg+xml</dc:format>
    <dc:creator>
     <ns2:Agent>
      <dc:title>Matplotlib v3.5.2, https://matplotlib.org/</dc:title>
     </ns2:Agent>
    </dc:creator>
   </ns2:Work>
  </rdf:RDF>
 </metadata>
 <defs>
  <style type="text/css">*{stroke-linejoin: round; stroke-linecap: butt}</style>
 </defs>
 <g id="figure_1">
  <g id="patch_1">
   <path d="M 0 99.516228  L 78.519955 99.516228  L 78.519955 0  L 0 0  L 0 99.516228  z " style="fill: none" />
  </g>
  <g id="axes_1">
   <g id="patch_2">
    <path d="M 78.519955 39.25999  C 78.519955 32.703689 76.877632 26.250643 73.743435 20.492006  C 70.609239 14.733369 66.08189 9.850527 60.576134 6.29079  C 55.070377 2.731053 48.759633 0.606545 42.222018 0.111889  C 35.684404 -0.382766 29.125842 0.768011 23.147151 3.458801  C 17.168461 6.14959 11.95796 10.295637 7.992974 15.517129  C 4.027988 20.73862 1.433406 26.871089 0.446915 33.352749  C -0.539576 39.83441 0.113095 46.461102 2.345139 52.625765  C 4.577183 58.790427 8.318294 64.298886 13.225756 68.646518  L 39.259955 39.25999  L 78.519955 39.25999  z " style="fill: #fefebb; stroke: #444443; stroke-width: 0.5; stroke-linejoin: miter" />
   </g>
   <g id="patch_3">
    <path d="M 13.225756 68.646518  C 18.886131 73.661174 25.876622 76.935189 33.352713 78.07303  C 40.828804 79.210872 48.476802 78.164796 55.372756 75.061181  C 62.268711 71.957565 68.123271 66.926634 72.229152 60.576173  C 76.335033 54.225711 78.519954 46.822181 78.519955 39.259997  L 39.259955 39.25999  L 13.225756 68.646518  z " style="fill: #a1dab4; stroke: #444443; stroke-width: 0.5; stroke-linejoin: miter" />
   </g>
   <g id="text_1">
    
    <g style="fill: #444443" transform="translate(29.124409 88.102821)scale(0.09 -0.09)">
     <defs>
      <path id="ArialMT-6e" d="M 422 0  L 422 3319  L 928 3319  L 928 2847  Q 1294 3394 1984 3394  Q 2284 3394 2536 3286  Q 2788 3178 2913 3003  Q 3038 2828 3088 2588  Q 3119 2431 3119 2041  L 3119 0  L 2556 0  L 2556 2019  Q 2556 2363 2490 2533  Q 2425 2703 2258 2804  Q 2091 2906 1866 2906  Q 1506 2906 1245 2678  Q 984 2450 984 1813  L 984 0  L 422 0  z " transform="scale(0.015625)" />
      <path id="ArialMT-3d" d="M 3381 2694  L 356 2694  L 356 3219  L 3381 3219  L 3381 2694  z M 3381 1303  L 356 1303  L 356 1828  L 3381 1828  L 3381 1303  z " transform="scale(0.015625)" />
      <path id="ArialMT-36" d="M 3184 3459  L 2625 3416  Q 2550 3747 2413 3897  Q 2184 4138 1850 4138  Q 1581 4138 1378 3988  Q 1113 3794 959 3422  Q 806 3050 800 2363  Q 1003 2672 1297 2822  Q 1591 2972 1913 2972  Q 2475 2972 2870 2558  Q 3266 2144 3266 1488  Q 3266 1056 3080 686  Q 2894 316 2569 119  Q 2244 -78 1831 -78  Q 1128 -78 684 439  Q 241 956 241 2144  Q 241 3472 731 4075  Q 1159 4600 1884 4600  Q 2425 4600 2770 4297  Q 3116 3994 3184 3459  z M 888 1484  Q 888 1194 1011 928  Q 1134 663 1356 523  Q 1578 384 1822 384  Q 2178 384 2434 671  Q 2691 959 2691 1453  Q 2691 1928 2437 2201  Q 2184 2475 1800 2475  Q 1419 2475 1153 2201  Q 888 1928 888 1484  z " transform="scale(0.015625)" />
      <path id="ArialMT-31" d="M 2384 0  L 1822 0  L 1822 3584  Q 1619 3391 1289 3197  Q 959 3003 697 2906  L 697 3450  Q 1169 3672 1522 3987  Q 1875 4303 2022 4600  L 2384 4600  L 2384 0  z " transform="scale(0.015625)" />
     </defs>
     <use xlink:href="#ArialMT-6e" />
     <use xlink:href="#ArialMT-3d" x="55.615234" />
     <use xlink:href="#ArialMT-36" x="114.013672" />
     <use xlink:href="#ArialMT-31" x="169.628906" />
    </g>
    
    <g style="fill: #444443" transform="translate(31.75269 97.622009)scale(0.09 -0.09)">
     <defs>
      <path id="ArialMT-65" d="M 2694 1069  L 3275 997  Q 3138 488 2766 206  Q 2394 -75 1816 -75  Q 1088 -75 661 373  Q 234 822 234 1631  Q 234 2469 665 2931  Q 1097 3394 1784 3394  Q 2450 3394 2872 2941  Q 3294 2488 3294 1666  Q 3294 1616 3291 1516  L 816 1516  Q 847 969 1125 678  Q 1403 388 1819 388  Q 2128 388 2347 550  Q 2566 713 2694 1069  z M 847 1978  L 2700 1978  Q 2663 2397 2488 2606  Q 2219 2931 1791 2931  Q 1403 2931 1139 2672  Q 875 2413 847 1978  z " transform="scale(0.015625)" />
      <path id="ArialMT-67" d="M 319 -275  L 866 -356  Q 900 -609 1056 -725  Q 1266 -881 1628 -881  Q 2019 -881 2231 -725  Q 2444 -569 2519 -288  Q 2563 -116 2559 434  Q 2191 0 1641 0  Q 956 0 581 494  Q 206 988 206 1678  Q 206 2153 378 2554  Q 550 2956 876 3175  Q 1203 3394 1644 3394  Q 2231 3394 2613 2919  L 2613 3319  L 3131 3319  L 3131 450  Q 3131 -325 2973 -648  Q 2816 -972 2473 -1159  Q 2131 -1347 1631 -1347  Q 1038 -1347 672 -1080  Q 306 -813 319 -275  z M 784 1719  Q 784 1066 1043 766  Q 1303 466 1694 466  Q 2081 466 2343 764  Q 2606 1063 2606 1700  Q 2606 2309 2336 2618  Q 2066 2928 1684 2928  Q 1309 2928 1046 2623  Q 784 2319 784 1719  z " transform="scale(0.015625)" />
     </defs>
     <use xlink:href="#ArialMT-6e" />
     <use xlink:href="#ArialMT-65" x="55.615234" />
     <use xlink:href="#ArialMT-67" x="111.230469" />
    </g>
   </g>
  </g>
 </g>
</svg></g>

<g id="edge14" class="edge">
<title>node12-&gt;leaf14</title>
<path fill="none" stroke="#444443" stroke-width="0.3" d="M273.12,-110.23C275.08,-104.9 278.18,-96.44 281.55,-87.28" />
<polygon fill="#444443" stroke="#444443" stroke-width="0.3" points="282.94,-87.56 283,-83.32 280.31,-86.59 282.94,-87.56" />
</g>

<g id="node19" class="node">
<title>leaf16</title>
<polygon fill="none" stroke="#444443" stroke-width="0" points="390,-73 342,-73 342,-10 390,-10 390,-73" />
<svg width="40px" height="55px" viewBox="0 0 53.755994 73.656199" version="1.1" preserveAspectRatio="xMinYMin meet" x="346" y="-68.5">
 <metadata>
  <rdf:RDF>
   <ns2:Work>
    <dc:type rdf:resource="http://purl.org/dc/dcmitype/StillImage" />
    <dc:date>2023-05-18T01:41:32.205523</dc:date>
    <dc:format>image/svg+xml</dc:format>
    <dc:creator>
     <ns2:Agent>
      <dc:title>Matplotlib v3.5.2, https://matplotlib.org/</dc:title>
     </ns2:Agent>
    </dc:creator>
   </ns2:Work>
  </rdf:RDF>
 </metadata>
 <defs>
  <style type="text/css">*{stroke-linejoin: round; stroke-linecap: butt}</style>
 </defs>
 <g id="figure_1">
  <g id="patch_1">
   <path d="M 0 73.656199  L 53.755994 73.656199  L 53.755994 0  L 0 0  L 0 73.656199  z " style="fill: none" />
  </g>
  <g id="axes_1">
   <g id="patch_2">
    <path d="M 53.755994 26.877991  C 53.755994 25.872492 53.699571 24.867785 53.586991 23.868609  C 53.474411 22.869433 53.305851 21.877361 53.082107 20.897073  L 26.877994 26.877991  L 53.755994 26.877991  z " style="fill: #fefebb; stroke: #444443; stroke-width: 0.5; stroke-linejoin: miter" />
   </g>
   <g id="patch_3">
    <path d="M 53.082107 20.897073  C 52.324919 17.579617 50.944586 14.435928 49.014614 11.633419  C 47.084642 8.83091 44.639911 6.420228 41.810611 4.52975  C 38.98131 2.639272 35.818572 1.303163 32.490823 0.592576  C 29.163074 -0.118012 25.730454 -0.190236 22.375761 0.37975  C 19.021068 0.949735 15.804929 2.151629 12.898615 3.921427  C 9.9923 5.691224 7.448334 7.996942 5.40219 10.715791  C 3.356046 13.43464 1.844703 16.517487 0.948645 19.800157  C 0.052587 23.082828 -0.211992 26.505999 0.168998 29.887374  C 0.549987 33.268748 1.56966 36.547218 3.173716 39.548194  C 4.777771 42.549169 6.937219 45.218417 9.537063 47.413789  C 12.136907 49.609161 15.130162 51.290982 18.357426 52.369691  C 21.584691 53.4484 24.987641 53.904502 28.385058 53.713706  C 31.782476 53.522911 35.112962 52.688668 38.199156 51.255402  C 41.285351 49.822136 44.07148 47.815751 46.409172 45.343092  C 48.746865 42.870433 50.593874 39.976188 51.85184 36.814485  C 53.109806 33.652781 53.755995 30.280758 53.755994 26.877987  L 26.877994 26.877991  L 53.082107 20.897073  z " style="fill: #a1dab4; stroke: #444443; stroke-width: 0.5; stroke-linejoin: miter" />
   </g>
   <g id="text_1">
    
    <g style="fill: #444443" transform="translate(16.742447 62.348262)scale(0.09 -0.09)">
     <defs>
      <path id="ArialMT-6e" d="M 422 0  L 422 3319  L 928 3319  L 928 2847  Q 1294 3394 1984 3394  Q 2284 3394 2536 3286  Q 2788 3178 2913 3003  Q 3038 2828 3088 2588  Q 3119 2431 3119 2041  L 3119 0  L 2556 0  L 2556 2019  Q 2556 2363 2490 2533  Q 2425 2703 2258 2804  Q 2091 2906 1866 2906  Q 1506 2906 1245 2678  Q 984 2450 984 1813  L 984 0  L 422 0  z " transform="scale(0.015625)" />
      <path id="ArialMT-3d" d="M 3381 2694  L 356 2694  L 356 3219  L 3381 3219  L 3381 2694  z M 3381 1303  L 356 1303  L 356 1828  L 3381 1828  L 3381 1303  z " transform="scale(0.015625)" />
      <path id="ArialMT-33" d="M 269 1209  L 831 1284  Q 928 806 1161 595  Q 1394 384 1728 384  Q 2125 384 2398 659  Q 2672 934 2672 1341  Q 2672 1728 2419 1979  Q 2166 2231 1775 2231  Q 1616 2231 1378 2169  L 1441 2663  Q 1497 2656 1531 2656  Q 1891 2656 2178 2843  Q 2466 3031 2466 3422  Q 2466 3731 2256 3934  Q 2047 4138 1716 4138  Q 1388 4138 1169 3931  Q 950 3725 888 3313  L 325 3413  Q 428 3978 793 4289  Q 1159 4600 1703 4600  Q 2078 4600 2393 4439  Q 2709 4278 2876 4000  Q 3044 3722 3044 3409  Q 3044 3113 2884 2869  Q 2725 2625 2413 2481  Q 2819 2388 3044 2092  Q 3269 1797 3269 1353  Q 3269 753 2831 336  Q 2394 -81 1725 -81  Q 1122 -81 723 278  Q 325 638 269 1209  z " transform="scale(0.015625)" />
      <path id="ArialMT-37" d="M 303 3981  L 303 4522  L 3269 4522  L 3269 4084  Q 2831 3619 2401 2847  Q 1972 2075 1738 1259  Q 1569 684 1522 0  L 944 0  Q 953 541 1156 1306  Q 1359 2072 1739 2783  Q 2119 3494 2547 3981  L 303 3981  z " transform="scale(0.015625)" />
     </defs>
     <use xlink:href="#ArialMT-6e" />
     <use xlink:href="#ArialMT-3d" x="55.615234" />
     <use xlink:href="#ArialMT-33" x="114.013672" />
     <use xlink:href="#ArialMT-37" x="169.628906" />
    </g>
    
    <g style="fill: #444443" transform="translate(19.623151 71.867449)scale(0.09 -0.09)">
     <defs>
      <path id="ArialMT-70" d="M 422 -1272  L 422 3319  L 934 3319  L 934 2888  Q 1116 3141 1344 3267  Q 1572 3394 1897 3394  Q 2322 3394 2647 3175  Q 2972 2956 3137 2557  Q 3303 2159 3303 1684  Q 3303 1175 3120 767  Q 2938 359 2589 142  Q 2241 -75 1856 -75  Q 1575 -75 1351 44  Q 1128 163 984 344  L 984 -1272  L 422 -1272  z M 931 1641  Q 931 1000 1190 694  Q 1450 388 1819 388  Q 2194 388 2461 705  Q 2728 1022 2728 1688  Q 2728 2322 2467 2637  Q 2206 2953 1844 2953  Q 1484 2953 1207 2617  Q 931 2281 931 1641  z " transform="scale(0.015625)" />
      <path id="ArialMT-6f" d="M 213 1659  Q 213 2581 725 3025  Q 1153 3394 1769 3394  Q 2453 3394 2887 2945  Q 3322 2497 3322 1706  Q 3322 1066 3130 698  Q 2938 331 2570 128  Q 2203 -75 1769 -75  Q 1072 -75 642 372  Q 213 819 213 1659  z M 791 1659  Q 791 1022 1069 705  Q 1347 388 1769 388  Q 2188 388 2466 706  Q 2744 1025 2744 1678  Q 2744 2294 2464 2611  Q 2184 2928 1769 2928  Q 1347 2928 1069 2612  Q 791 2297 791 1659  z " transform="scale(0.015625)" />
      <path id="ArialMT-7a" d="M 125 0  L 125 456  L 2238 2881  Q 1878 2863 1603 2863  L 250 2863  L 250 3319  L 2963 3319  L 2963 2947  L 1166 841  L 819 456  Q 1197 484 1528 484  L 3063 484  L 3063 0  L 125 0  z " transform="scale(0.015625)" />
     </defs>
     <use xlink:href="#ArialMT-70" />
     <use xlink:href="#ArialMT-6f" x="55.615234" />
     <use xlink:href="#ArialMT-7a" x="111.230469" />
    </g>
   </g>
  </g>
 </g>
</svg></g>

<g id="edge16" class="edge">
<title>node15-&gt;leaf16</title>
<path fill="none" stroke="#444443" stroke-width="0.3" d="M386.27,-110.23C384.09,-102.93 380.15,-89.76 376.32,-76.97" />
<polygon fill="#444443" stroke="#444443" stroke-width="0.3" points="377.62,-76.44 375.13,-73.01 374.94,-77.25 377.62,-76.44" />
</g>

<g id="node20" class="node">
<title>leaf17</title>
<polygon fill="none" stroke="#444443" stroke-width="0" points="424.5,-59 403.5,-59 403.5,-24 424.5,-24 424.5,-59" />
<svg width="13px" height="27px" viewBox="0 0 17.515968 36.072046" version="1.1" preserveAspectRatio="xMinYMin meet" x="408" y="-54.5">
 <metadata>
  <rdf:RDF>
   <ns2:Work>
    <dc:type rdf:resource="http://purl.org/dc/dcmitype/StillImage" />
    <dc:date>2023-05-18T01:41:32.250225</dc:date>
    <dc:format>image/svg+xml</dc:format>
    <dc:creator>
     <ns2:Agent>
      <dc:title>Matplotlib v3.5.2, https://matplotlib.org/</dc:title>
     </ns2:Agent>
    </dc:creator>
   </ns2:Work>
  </rdf:RDF>
 </metadata>
 <defs>
  <style type="text/css">*{stroke-linejoin: round; stroke-linecap: butt}</style>
 </defs>
 <g id="figure_1">
  <g id="patch_1">
   <path d="M 0 36.072046  L 17.515968 36.072046  L 17.515968 0  L 0 0  L 0 36.072046  z " style="fill: none" />
  </g>
  <g id="axes_1">
   <g id="patch_2">
    <path d="M 17.515968 8.757968  C 17.515968 7.026007 17.002205 5.332358 16.039979 3.892284  C 15.077753 2.452211 13.709634 1.329424 12.10951 0.666631  C 10.509386 0.003838 8.74805 -0.169638 7.049367 0.168251  C 5.350685 0.50614 3.789809 1.340446 2.565127 2.565127  C 1.340446 3.789809 0.50614 5.350685 0.168251 7.049367  C -0.169638 8.74805 0.003838 10.509386 0.666631 12.10951  C 1.329424 13.709634 2.452211 15.077753 3.892284 16.039979  C 5.332358 17.002205 7.026007 17.515968 8.757968 17.515968  L 8.757968 8.757968  L 17.515968 8.757968  z " style="fill: #fefebb; stroke: #444443; stroke-width: 0.5; stroke-linejoin: miter" />
   </g>
   <g id="patch_3">
    <path d="M 8.757968 17.515968  C 11.079844 17.515968 13.308996 16.592623 14.95081 14.95081  C 16.592623 13.308996 17.515968 11.079844 17.515968 8.757968  L 8.757968 8.757968  L 8.757968 17.515968  z " style="fill: #a1dab4; stroke: #444443; stroke-width: 0.5; stroke-linejoin: miter" />
   </g>
   <g id="text_1">
    
    <g style="fill: #444443" transform="translate(1.124843 24.65864)scale(0.09 -0.09)">
     <defs>
      <path id="ArialMT-6e" d="M 422 0  L 422 3319  L 928 3319  L 928 2847  Q 1294 3394 1984 3394  Q 2284 3394 2536 3286  Q 2788 3178 2913 3003  Q 3038 2828 3088 2588  Q 3119 2431 3119 2041  L 3119 0  L 2556 0  L 2556 2019  Q 2556 2363 2490 2533  Q 2425 2703 2258 2804  Q 2091 2906 1866 2906  Q 1506 2906 1245 2678  Q 984 2450 984 1813  L 984 0  L 422 0  z " transform="scale(0.015625)" />
      <path id="ArialMT-3d" d="M 3381 2694  L 356 2694  L 356 3219  L 3381 3219  L 3381 2694  z M 3381 1303  L 356 1303  L 356 1828  L 3381 1828  L 3381 1303  z " transform="scale(0.015625)" />
      <path id="ArialMT-37" d="M 303 3981  L 303 4522  L 3269 4522  L 3269 4084  Q 2831 3619 2401 2847  Q 1972 2075 1738 1259  Q 1569 684 1522 0  L 944 0  Q 953 541 1156 1306  Q 1359 2072 1739 2783  Q 2119 3494 2547 3981  L 303 3981  z " transform="scale(0.015625)" />
     </defs>
     <use xlink:href="#ArialMT-6e" />
     <use xlink:href="#ArialMT-3d" x="55.615234" />
     <use xlink:href="#ArialMT-37" x="114.013672" />
    </g>
    
    <g style="fill: #444443" transform="translate(1.250703 34.177827)scale(0.09 -0.09)">
     <defs>
      <path id="ArialMT-65" d="M 2694 1069  L 3275 997  Q 3138 488 2766 206  Q 2394 -75 1816 -75  Q 1088 -75 661 373  Q 234 822 234 1631  Q 234 2469 665 2931  Q 1097 3394 1784 3394  Q 2450 3394 2872 2941  Q 3294 2488 3294 1666  Q 3294 1616 3291 1516  L 816 1516  Q 847 969 1125 678  Q 1403 388 1819 388  Q 2128 388 2347 550  Q 2566 713 2694 1069  z M 847 1978  L 2700 1978  Q 2663 2397 2488 2606  Q 2219 2931 1791 2931  Q 1403 2931 1139 2672  Q 875 2413 847 1978  z " transform="scale(0.015625)" />
      <path id="ArialMT-67" d="M 319 -275  L 866 -356  Q 900 -609 1056 -725  Q 1266 -881 1628 -881  Q 2019 -881 2231 -725  Q 2444 -569 2519 -288  Q 2563 -116 2559 434  Q 2191 0 1641 0  Q 956 0 581 494  Q 206 988 206 1678  Q 206 2153 378 2554  Q 550 2956 876 3175  Q 1203 3394 1644 3394  Q 2231 3394 2613 2919  L 2613 3319  L 3131 3319  L 3131 450  Q 3131 -325 2973 -648  Q 2816 -972 2473 -1159  Q 2131 -1347 1631 -1347  Q 1038 -1347 672 -1080  Q 306 -813 319 -275  z M 784 1719  Q 784 1066 1043 766  Q 1303 466 1694 466  Q 2081 466 2343 764  Q 2606 1063 2606 1700  Q 2606 2309 2336 2618  Q 2066 2928 1684 2928  Q 1309 2928 1046 2623  Q 784 2319 784 1719  z " transform="scale(0.015625)" />
     </defs>
     <use xlink:href="#ArialMT-6e" />
     <use xlink:href="#ArialMT-65" x="55.615234" />
     <use xlink:href="#ArialMT-67" x="111.230469" />
    </g>
   </g>
  </g>
 </g>
</svg></g>

<g id="edge17" class="edge">
<title>node15-&gt;leaf17</title>
<path fill="none" stroke="#444443" stroke-width="0.3" d="M390.04,-110.23C393.59,-100.19 401.08,-79.02 406.75,-63.01" />
<polygon fill="#444443" stroke="#444443" stroke-width="0.3" points="408.13,-63.3 408.14,-59.06 405.49,-62.36 408.13,-63.3" />
</g>

<g id="node7" class="node">
<title>node11</title>
<text text-anchor="start" x="311" y="-189.4" font-family="Helvetica,sans-Serif" font-size="12.00" fill="#444443">DSP@64.96</text>
</g>

<g id="edge19" class="edge">
<title>node11-&gt;node12</title>
<path fill="none" stroke="#444443" stroke-width="0.3" d="M339.19,-185.73C326.27,-172.9 295.07,-141.9 279.76,-126.7" />
<polygon fill="#444443" stroke="#444443" stroke-width="0.3" points="280.4,-125.37 276.58,-123.54 278.43,-127.35 280.4,-125.37" />
</g>

<g id="edge20" class="edge">
<title>node11-&gt;node15</title>
<path fill="none" stroke="#444443" stroke-width="0.3" d="M348.37,-185.73C355.82,-173 373.71,-142.42 382.68,-127.09" />
<polygon fill="#444443" stroke="#444443" stroke-width="0.3" points="383.95,-127.7 384.76,-123.54 381.53,-126.29 383.95,-127.7" />
</g>

<g id="node9" class="node">
<title>node18</title>
<text text-anchor="start" x="399" y="-189.4" font-family="Helvetica,sans-Serif" font-size="12.00" fill="#444443">T@25.80</text>
</g>


<g id="node8" class="node">
<title>node19</title>
<text text-anchor="start" x="438" y="-113.9" font-family="Helvetica,sans-Serif" font-size="12.00" fill="#444443">sun [h]@80.20</text>
</g>

<g id="node21" class="node">
<title>leaf20</title>
<polygon fill="none" stroke="#444443" stroke-width="0" points="466.5,-59.5 443.5,-59.5 443.5,-23.5 466.5,-23.5 466.5,-59.5" />
<svg width="15px" height="28px" viewBox="0 0 19.932 38.479248" version="1.1" preserveAspectRatio="xMinYMin meet" x="448" y="-55.5">
 <metadata>
  <rdf:RDF>
   <ns2:Work>
    <dc:type rdf:resource="http://purl.org/dc/dcmitype/StillImage" />
    <dc:date>2023-05-18T01:41:32.303005</dc:date>
    <dc:format>image/svg+xml</dc:format>
    <dc:creator>
     <ns2:Agent>
      <dc:title>Matplotlib v3.5.2, https://matplotlib.org/</dc:title>
     </ns2:Agent>
    </dc:creator>
   </ns2:Work>
  </rdf:RDF>
 </metadata>
 <defs>
  <style type="text/css">*{stroke-linejoin: round; stroke-linecap: butt}</style>
 </defs>
 <g id="figure_1">
  <g id="patch_1">
   <path d="M 0 38.479248  L 19.932 38.479248  L 19.932 0  L 0 0  L 0 38.479248  z " style="fill: none" />
  </g>
  <g id="axes_1">
   <g id="patch_2">
    <path d="M 19.932 9.965999  C 19.932 8.055675 19.382731 6.185039 18.349932 4.577973  C 17.317133 2.970906 15.843717 1.694184 14.106025 0.900606  L 9.966 9.965999  L 19.932 9.965999  z " style="fill: #fefebb; stroke: #444443; stroke-width: 0.5; stroke-linejoin: miter" />
   </g>
   <g id="patch_3">
    <path d="M 14.106025 0.900606  C 13.133041 0.456259 12.094834 0.171441 11.031316 0.057101  C 9.967798 -0.057239 8.892775 0.000384 7.847574 0.227753  C 6.802372 0.455123 5.800559 0.849289 4.880648 1.395097  C 3.960737 1.940906 3.134669 2.631272 2.434199 3.439657  C 1.73373 4.248042 1.167952 5.163952 0.758616 6.152176  C 0.34928 7.140401 0.101699 8.188112 0.025392 9.255033  C -0.050916 10.321954 0.04504 11.394236 0.30957 12.430656  C 0.574101 13.467076 1.003772 14.454182 1.582067 15.354026  C 2.160361 16.253869 2.879772 17.054771 3.712644 17.725941  C 4.545515 18.397111 5.481035 18.929837 6.48324 19.30364  C 7.485445 19.677443 8.541325 19.887471 9.61029 19.925649  C 10.679255 19.963827 11.747428 19.82966 12.773746 19.528306  C 13.800065 19.226952 14.771205 18.762322 15.649835 18.152278  C 16.528465 17.542235 17.303178 16.794696 17.944194 15.9384  C 18.585209 15.082104 19.084205 14.128166 19.421999 13.113258  C 19.759793 12.09835 19.932 11.035645 19.932 9.965999  L 9.966 9.965999  L 14.106025 0.900606  z " style="fill: #a1dab4; stroke: #444443; stroke-width: 0.5; stroke-linejoin: miter" />
   </g>
   <g id="text_1">
    
    <g style="fill: #444443" transform="translate(2.332875 27.17131)scale(0.09 -0.09)">
     <defs>
      <path id="ArialMT-6e" d="M 422 0  L 422 3319  L 928 3319  L 928 2847  Q 1294 3394 1984 3394  Q 2284 3394 2536 3286  Q 2788 3178 2913 3003  Q 3038 2828 3088 2588  Q 3119 2431 3119 2041  L 3119 0  L 2556 0  L 2556 2019  Q 2556 2363 2490 2533  Q 2425 2703 2258 2804  Q 2091 2906 1866 2906  Q 1506 2906 1245 2678  Q 984 2450 984 1813  L 984 0  L 422 0  z " transform="scale(0.015625)" />
      <path id="ArialMT-3d" d="M 3381 2694  L 356 2694  L 356 3219  L 3381 3219  L 3381 2694  z M 3381 1303  L 356 1303  L 356 1828  L 3381 1828  L 3381 1303  z " transform="scale(0.015625)" />
      <path id="ArialMT-39" d="M 350 1059  L 891 1109  Q 959 728 1153 556  Q 1347 384 1650 384  Q 1909 384 2104 503  Q 2300 622 2425 820  Q 2550 1019 2634 1356  Q 2719 1694 2719 2044  Q 2719 2081 2716 2156  Q 2547 1888 2255 1720  Q 1963 1553 1622 1553  Q 1053 1553 659 1965  Q 266 2378 266 3053  Q 266 3750 677 4175  Q 1088 4600 1706 4600  Q 2153 4600 2523 4359  Q 2894 4119 3086 3673  Q 3278 3228 3278 2384  Q 3278 1506 3087 986  Q 2897 466 2520 194  Q 2144 -78 1638 -78  Q 1100 -78 759 220  Q 419 519 350 1059  z M 2653 3081  Q 2653 3566 2395 3850  Q 2138 4134 1775 4134  Q 1400 4134 1122 3828  Q 844 3522 844 3034  Q 844 2597 1108 2323  Q 1372 2050 1759 2050  Q 2150 2050 2401 2323  Q 2653 2597 2653 3081  z " transform="scale(0.015625)" />
     </defs>
     <use xlink:href="#ArialMT-6e" />
     <use xlink:href="#ArialMT-3d" x="55.615234" />
     <use xlink:href="#ArialMT-39" x="114.013672" />
    </g>
    
    <g style="fill: #444443" transform="translate(2.711156 36.690498)scale(0.09 -0.09)">
     <defs>
      <path id="ArialMT-70" d="M 422 -1272  L 422 3319  L 934 3319  L 934 2888  Q 1116 3141 1344 3267  Q 1572 3394 1897 3394  Q 2322 3394 2647 3175  Q 2972 2956 3137 2557  Q 3303 2159 3303 1684  Q 3303 1175 3120 767  Q 2938 359 2589 142  Q 2241 -75 1856 -75  Q 1575 -75 1351 44  Q 1128 163 984 344  L 984 -1272  L 422 -1272  z M 931 1641  Q 931 1000 1190 694  Q 1450 388 1819 388  Q 2194 388 2461 705  Q 2728 1022 2728 1688  Q 2728 2322 2467 2637  Q 2206 2953 1844 2953  Q 1484 2953 1207 2617  Q 931 2281 931 1641  z " transform="scale(0.015625)" />
      <path id="ArialMT-6f" d="M 213 1659  Q 213 2581 725 3025  Q 1153 3394 1769 3394  Q 2453 3394 2887 2945  Q 3322 2497 3322 1706  Q 3322 1066 3130 698  Q 2938 331 2570 128  Q 2203 -75 1769 -75  Q 1072 -75 642 372  Q 213 819 213 1659  z M 791 1659  Q 791 1022 1069 705  Q 1347 388 1769 388  Q 2188 388 2466 706  Q 2744 1025 2744 1678  Q 2744 2294 2464 2611  Q 2184 2928 1769 2928  Q 1347 2928 1069 2612  Q 791 2297 791 1659  z " transform="scale(0.015625)" />
      <path id="ArialMT-7a" d="M 125 0  L 125 456  L 2238 2881  Q 1878 2863 1603 2863  L 250 2863  L 250 3319  L 2963 3319  L 2963 2947  L 1166 841  L 819 456  Q 1197 484 1528 484  L 3063 484  L 3063 0  L 125 0  z " transform="scale(0.015625)" />
     </defs>
     <use xlink:href="#ArialMT-70" />
     <use xlink:href="#ArialMT-6f" x="55.615234" />
     <use xlink:href="#ArialMT-7a" x="111.230469" />
    </g>
   </g>
  </g>
 </g>
</svg></g>

<g id="edge22" class="edge">
<title>node19-&gt;leaf20</title>
<path fill="none" stroke="#444443" stroke-width="0.3" d="M475.27,-110.23C472.3,-100.31 466.09,-79.55 461.32,-63.61" />
<polygon fill="#444443" stroke="#444443" stroke-width="0.3" points="462.63,-63.1 460.14,-59.67 459.94,-63.9 462.63,-63.1" />
</g>

<g id="node22" class="node">
<title>leaf21</title>
<polygon fill="none" stroke="#444443" stroke-width="0" points="547.5,-83 480.5,-83 480.5,0 547.5,0 547.5,-83" />
<svg width="59px" height="75px" viewBox="0 0 78.519995 99.516236" version="1.1" preserveAspectRatio="xMinYMin meet" x="485" y="-78.5">
 <metadata>
  <rdf:RDF>
   <ns2:Work>
    <dc:type rdf:resource="http://purl.org/dc/dcmitype/StillImage" />
    <dc:date>2023-05-18T01:41:32.357601</dc:date>
    <dc:format>image/svg+xml</dc:format>
    <dc:creator>
     <ns2:Agent>
      <dc:title>Matplotlib v3.5.2, https://matplotlib.org/</dc:title>
     </ns2:Agent>
    </dc:creator>
   </ns2:Work>
  </rdf:RDF>
 </metadata>
 <defs>
  <style type="text/css">*{stroke-linejoin: round; stroke-linecap: butt}</style>
 </defs>
 <g id="figure_1">
  <g id="patch_1">
   <path d="M 0 99.516236  L 78.519995 99.516236  L 78.519995 0  L 0 0  L 0 99.516236  z " style="fill: none" />
  </g>
  <g id="axes_1">
   <g id="patch_2">
    <path d="M 78.519995 39.259999  C 78.519995 34.984133 77.821459 30.736844 76.452028 26.686204  C 75.082597 22.635564 73.060577 18.835716 70.465981 15.437025  C 67.871385 12.038334 64.738894 9.08623 61.192467 6.697531  C 57.64604 4.308833 53.733079 2.515469 49.608427 1.388406  C 45.483775 0.261342 41.202564 -0.184355 36.934207 0.06895  C 32.665851 0.322255 28.467404 1.271177 24.505003 2.878165  C 20.542603 4.485154 16.869214 6.728728 13.630198 9.520108  C 10.391182 12.311488 7.629833 15.613361 5.455422 19.295068  C 3.281012 22.976775 1.722604 26.989104 0.841867 31.17328  C -0.03887 35.357456 -0.230163 39.657552 0.275558 43.903405  C 0.781278 48.149259 1.977252 52.284118 3.816154 56.144361  C 5.655055 60.004603 8.112303 63.538629 11.090662 66.606594  C 14.069021 69.674558 17.528679 72.235452 21.332734 74.187937  C 25.136788 76.140422 29.234391 77.4584 33.463394 78.089717  C 37.692397 78.721034 41.996273 78.65725 46.20471 77.900891  C 50.413148 77.144531 54.469895 75.705706 58.21442 73.641351  L 39.259995 39.259999  L 78.519995 39.259999  z " style="fill: #fefebb; stroke: #444443; stroke-width: 0.5; stroke-linejoin: miter" />
   </g>
   <g id="patch_3">
    <path d="M 58.21442 73.641351  C 64.364335 70.250906 69.493372 65.271672 73.064569 59.224928  C 76.635767 53.178183 78.519996 46.282571 78.519995 39.259995  L 39.259995 39.259999  L 58.21442 73.641351  z " style="fill: #a1dab4; stroke: #444443; stroke-width: 0.5; stroke-linejoin: miter" />
   </g>
   <g id="text_1">
    
    <g style="fill: #444443" transform="translate(29.124449 88.10283)scale(0.09 -0.09)">
     <defs>
      <path id="ArialMT-6e" d="M 422 0  L 422 3319  L 928 3319  L 928 2847  Q 1294 3394 1984 3394  Q 2284 3394 2536 3286  Q 2788 3178 2913 3003  Q 3038 2828 3088 2588  Q 3119 2431 3119 2041  L 3119 0  L 2556 0  L 2556 2019  Q 2556 2363 2490 2533  Q 2425 2703 2258 2804  Q 2091 2906 1866 2906  Q 1506 2906 1245 2678  Q 984 2450 984 1813  L 984 0  L 422 0  z " transform="scale(0.015625)" />
      <path id="ArialMT-3d" d="M 3381 2694  L 356 2694  L 356 3219  L 3381 3219  L 3381 2694  z M 3381 1303  L 356 1303  L 356 1828  L 3381 1828  L 3381 1303  z " transform="scale(0.015625)" />
      <path id="ArialMT-36" d="M 3184 3459  L 2625 3416  Q 2550 3747 2413 3897  Q 2184 4138 1850 4138  Q 1581 4138 1378 3988  Q 1113 3794 959 3422  Q 806 3050 800 2363  Q 1003 2672 1297 2822  Q 1591 2972 1913 2972  Q 2475 2972 2870 2558  Q 3266 2144 3266 1488  Q 3266 1056 3080 686  Q 2894 316 2569 119  Q 2244 -78 1831 -78  Q 1128 -78 684 439  Q 241 956 241 2144  Q 241 3472 731 4075  Q 1159 4600 1884 4600  Q 2425 4600 2770 4297  Q 3116 3994 3184 3459  z M 888 1484  Q 888 1194 1011 928  Q 1134 663 1356 523  Q 1578 384 1822 384  Q 2178 384 2434 671  Q 2691 959 2691 1453  Q 2691 1928 2437 2201  Q 2184 2475 1800 2475  Q 1419 2475 1153 2201  Q 888 1928 888 1484  z " transform="scale(0.015625)" />
      <path id="ArialMT-33" d="M 269 1209  L 831 1284  Q 928 806 1161 595  Q 1394 384 1728 384  Q 2125 384 2398 659  Q 2672 934 2672 1341  Q 2672 1728 2419 1979  Q 2166 2231 1775 2231  Q 1616 2231 1378 2169  L 1441 2663  Q 1497 2656 1531 2656  Q 1891 2656 2178 2843  Q 2466 3031 2466 3422  Q 2466 3731 2256 3934  Q 2047 4138 1716 4138  Q 1388 4138 1169 3931  Q 950 3725 888 3313  L 325 3413  Q 428 3978 793 4289  Q 1159 4600 1703 4600  Q 2078 4600 2393 4439  Q 2709 4278 2876 4000  Q 3044 3722 3044 3409  Q 3044 3113 2884 2869  Q 2725 2625 2413 2481  Q 2819 2388 3044 2092  Q 3269 1797 3269 1353  Q 3269 753 2831 336  Q 2394 -81 1725 -81  Q 1122 -81 723 278  Q 325 638 269 1209  z " transform="scale(0.015625)" />
     </defs>
     <use xlink:href="#ArialMT-6e" />
     <use xlink:href="#ArialMT-3d" x="55.615234" />
     <use xlink:href="#ArialMT-36" x="114.013672" />
     <use xlink:href="#ArialMT-33" x="169.628906" />
    </g>
    
    <g style="fill: #444443" transform="translate(31.75273 97.622018)scale(0.09 -0.09)">
     <defs>
      <path id="ArialMT-65" d="M 2694 1069  L 3275 997  Q 3138 488 2766 206  Q 2394 -75 1816 -75  Q 1088 -75 661 373  Q 234 822 234 1631  Q 234 2469 665 2931  Q 1097 3394 1784 3394  Q 2450 3394 2872 2941  Q 3294 2488 3294 1666  Q 3294 1616 3291 1516  L 816 1516  Q 847 969 1125 678  Q 1403 388 1819 388  Q 2128 388 2347 550  Q 2566 713 2694 1069  z M 847 1978  L 2700 1978  Q 2663 2397 2488 2606  Q 2219 2931 1791 2931  Q 1403 2931 1139 2672  Q 875 2413 847 1978  z " transform="scale(0.015625)" />
      <path id="ArialMT-67" d="M 319 -275  L 866 -356  Q 900 -609 1056 -725  Q 1266 -881 1628 -881  Q 2019 -881 2231 -725  Q 2444 -569 2519 -288  Q 2563 -116 2559 434  Q 2191 0 1641 0  Q 956 0 581 494  Q 206 988 206 1678  Q 206 2153 378 2554  Q 550 2956 876 3175  Q 1203 3394 1644 3394  Q 2231 3394 2613 2919  L 2613 3319  L 3131 3319  L 3131 450  Q 3131 -325 2973 -648  Q 2816 -972 2473 -1159  Q 2131 -1347 1631 -1347  Q 1038 -1347 672 -1080  Q 306 -813 319 -275  z M 784 1719  Q 784 1066 1043 766  Q 1303 466 1694 466  Q 2081 466 2343 764  Q 2606 1063 2606 1700  Q 2606 2309 2336 2618  Q 2066 2928 1684 2928  Q 1309 2928 1046 2623  Q 784 2319 784 1719  z " transform="scale(0.015625)" />
     </defs>
     <use xlink:href="#ArialMT-6e" />
     <use xlink:href="#ArialMT-65" x="55.615234" />
     <use xlink:href="#ArialMT-67" x="111.230469" />
    </g>
   </g>
  </g>
 </g>
</svg></g>

<g id="edge23" class="edge">
<title>node19-&gt;leaf21</title>
<path fill="none" stroke="#444443" stroke-width="0.3" d="M479.9,-110.23C482.59,-104.9 486.85,-96.44 491.46,-87.28" />
<polygon fill="#444443" stroke="#444443" stroke-width="0.3" points="492.9,-87.52 493.45,-83.32 490.4,-86.26 492.9,-87.52" />
</g>

<g id="node23" class="node">
<title>leaf22</title>
<polygon fill="none" stroke="#444443" stroke-width="0" points="550,-134 530,-134 530,-100 550,-100 550,-134" />
<svg width="12px" height="26px" viewBox="0 0 16.308 34.710289" version="1.1" preserveAspectRatio="xMinYMin meet" x="534" y="-130">
 <metadata>
  <rdf:RDF>
   <ns2:Work>
    <dc:type rdf:resource="http://purl.org/dc/dcmitype/StillImage" />
    <dc:date>2023-05-18T01:41:32.405621</dc:date>
    <dc:format>image/svg+xml</dc:format>
    <dc:creator>
     <ns2:Agent>
      <dc:title>Matplotlib v3.5.2, https://matplotlib.org/</dc:title>
     </ns2:Agent>
    </dc:creator>
   </ns2:Work>
  </rdf:RDF>
 </metadata>
 <defs>
  <style type="text/css">*{stroke-linejoin: round; stroke-linecap: butt}</style>
 </defs>
 <g id="figure_1">
  <g id="patch_1">
   <path d="M -0 34.710289  L 16.308 34.710289  L 16.308 0  L -0 0  L -0 34.710289  z " style="fill: none" />
  </g>
  <g id="axes_1">
   <g id="patch_2">
    <path d="M 16.308 8.154  C 16.308 7.083227 16.097081 6.022865 15.687314 5.033599  C 15.277546 4.044334 14.6769 3.145402 13.919749 2.388251  C 13.162598 1.6311 12.263666 1.030454 11.274401 0.620686  C 10.285135 0.210919 9.224773 0 8.154 0  C 7.083227 0 6.022865 0.210919 5.033599 0.620686  C 4.044334 1.030454 3.145402 1.6311 2.388251 2.388251  C 1.6311 3.145402 1.030454 4.044334 0.620686 5.033599  C 0.210919 6.022865 0 7.083227 0 8.154  C 0 9.224773 0.210919 10.285135 0.620686 11.274401  C 1.030454 12.263666 1.6311 13.162598 2.388251 13.919749  C 3.145402 14.6769 4.044334 15.277546 5.033599 15.687314  C 6.022865 16.097081 7.083227 16.308 8.154 16.308  C 9.224773 16.308 10.285135 16.097081 11.274401 15.687314  C 12.263666 15.277546 13.162598 14.6769 13.919749 13.919749  C 14.6769 13.162598 15.277546 12.263666 15.687314 11.274401  C 16.097081 10.285135 16.308 9.224773 16.308 8.154  M 8.154 8.154  M 16.308 8.154  z " style="fill: #a1dab4; stroke: #444443; stroke-width: 0.5; stroke-linejoin: miter" />
   </g>
   <g id="text_1">
    
    <g style="fill: #444443" transform="translate(0.520875 23.402351)scale(0.09 -0.09)">
     <defs>
      <path id="ArialMT-6e" d="M 422 0  L 422 3319  L 928 3319  L 928 2847  Q 1294 3394 1984 3394  Q 2284 3394 2536 3286  Q 2788 3178 2913 3003  Q 3038 2828 3088 2588  Q 3119 2431 3119 2041  L 3119 0  L 2556 0  L 2556 2019  Q 2556 2363 2490 2533  Q 2425 2703 2258 2804  Q 2091 2906 1866 2906  Q 1506 2906 1245 2678  Q 984 2450 984 1813  L 984 0  L 422 0  z " transform="scale(0.015625)" />
      <path id="ArialMT-3d" d="M 3381 2694  L 356 2694  L 356 3219  L 3381 3219  L 3381 2694  z M 3381 1303  L 356 1303  L 356 1828  L 3381 1828  L 3381 1303  z " transform="scale(0.015625)" />
      <path id="ArialMT-36" d="M 3184 3459  L 2625 3416  Q 2550 3747 2413 3897  Q 2184 4138 1850 4138  Q 1581 4138 1378 3988  Q 1113 3794 959 3422  Q 806 3050 800 2363  Q 1003 2672 1297 2822  Q 1591 2972 1913 2972  Q 2475 2972 2870 2558  Q 3266 2144 3266 1488  Q 3266 1056 3080 686  Q 2894 316 2569 119  Q 2244 -78 1831 -78  Q 1128 -78 684 439  Q 241 956 241 2144  Q 241 3472 731 4075  Q 1159 4600 1884 4600  Q 2425 4600 2770 4297  Q 3116 3994 3184 3459  z M 888 1484  Q 888 1194 1011 928  Q 1134 663 1356 523  Q 1578 384 1822 384  Q 2178 384 2434 671  Q 2691 959 2691 1453  Q 2691 1928 2437 2201  Q 2184 2475 1800 2475  Q 1419 2475 1153 2201  Q 888 1928 888 1484  z " transform="scale(0.015625)" />
     </defs>
     <use xlink:href="#ArialMT-6e" />
     <use xlink:href="#ArialMT-3d" x="55.615234" />
     <use xlink:href="#ArialMT-36" x="114.013672" />
    </g>
    
    <g style="fill: #444443" transform="translate(0.899156 32.921539)scale(0.09 -0.09)">
     <defs>
      <path id="ArialMT-70" d="M 422 -1272  L 422 3319  L 934 3319  L 934 2888  Q 1116 3141 1344 3267  Q 1572 3394 1897 3394  Q 2322 3394 2647 3175  Q 2972 2956 3137 2557  Q 3303 2159 3303 1684  Q 3303 1175 3120 767  Q 2938 359 2589 142  Q 2241 -75 1856 -75  Q 1575 -75 1351 44  Q 1128 163 984 344  L 984 -1272  L 422 -1272  z M 931 1641  Q 931 1000 1190 694  Q 1450 388 1819 388  Q 2194 388 2461 705  Q 2728 1022 2728 1688  Q 2728 2322 2467 2637  Q 2206 2953 1844 2953  Q 1484 2953 1207 2617  Q 931 2281 931 1641  z " transform="scale(0.015625)" />
      <path id="ArialMT-6f" d="M 213 1659  Q 213 2581 725 3025  Q 1153 3394 1769 3394  Q 2453 3394 2887 2945  Q 3322 2497 3322 1706  Q 3322 1066 3130 698  Q 2938 331 2570 128  Q 2203 -75 1769 -75  Q 1072 -75 642 372  Q 213 819 213 1659  z M 791 1659  Q 791 1022 1069 705  Q 1347 388 1769 388  Q 2188 388 2466 706  Q 2744 1025 2744 1678  Q 2744 2294 2464 2611  Q 2184 2928 1769 2928  Q 1347 2928 1069 2612  Q 791 2297 791 1659  z " transform="scale(0.015625)" />
      <path id="ArialMT-7a" d="M 125 0  L 125 456  L 2238 2881  Q 1878 2863 1603 2863  L 250 2863  L 250 3319  L 2963 3319  L 2963 2947  L 1166 841  L 819 456  Q 1197 484 1528 484  L 3063 484  L 3063 0  L 125 0  z " transform="scale(0.015625)" />
     </defs>
     <use xlink:href="#ArialMT-70" />
     <use xlink:href="#ArialMT-6f" x="55.615234" />
     <use xlink:href="#ArialMT-7a" x="111.230469" />
    </g>
   </g>
  </g>
 </g>
</svg></g>


<g id="edge25" class="edge">
<title>node18-&gt;node19</title>
<path fill="none" stroke="#444443" stroke-width="0.3" d="M428.16,-185.73C437.34,-173 459.39,-142.42 470.45,-127.09" />
<polygon fill="#444443" stroke="#444443" stroke-width="0.3" points="471.8,-127.6 473.01,-123.54 469.53,-125.97 471.8,-127.6" />
</g>

<g id="edge26" class="edge">
<title>node18-&gt;leaf22</title>
<path fill="none" stroke="#444443" stroke-width="0.3" d="M432.72,-185.98C452.72,-173.3 502.06,-142.04 526.22,-126.73" />
<polygon fill="#444443" stroke="#444443" stroke-width="0.3" points="527.24,-127.74 529.87,-124.42 525.74,-125.38 527.24,-127.74" />
</g>

<g id="edge28" class="edge">
<title>node10-&gt;node11</title>
<path fill="none" stroke="#444443" stroke-width="0.3" d="M339.55,-250.69C340.59,-239.85 342.81,-216.46 344.08,-203.2" />
<polygon fill="#444443" stroke="#444443" stroke-width="0.3" points="345.48,-203.23 344.46,-199.12 342.69,-202.97 345.48,-203.23" />
</g>

<g id="edge29" class="edge">
<title>node10-&gt;node18</title>
<path fill="none" stroke="#444443" stroke-width="0.3" d="M346.54,-250.91C361.63,-239.73 395.56,-214.58 413.08,-201.6" />
<polygon fill="#444443" stroke="#444443" stroke-width="0.3" points="413.97,-202.68 416.35,-199.17 412.3,-200.43 413.97,-202.68" />
</g>

<g id="node11" class="node">
<title>node0</title>
<text text-anchor="start" x="205.5" y="-313.9" font-family="Helvetica,sans-Serif" font-size="12.00" fill="#444443">Dinophysis fortii@0.25</text>
</g>

<g id="edge31" class="edge">
<title>node0-&gt;node1</title>
<path fill="none" stroke="#444443" stroke-width="0.3" d="M259.29,-310.49C247.05,-300.43 221.02,-279.05 206.45,-267.08" />
<polygon fill="#444443" stroke="#444443" stroke-width="0.3" points="206.98,-265.71 203,-264.25 205.2,-267.87 206.98,-265.71" />
<text text-anchor="start" x="229" y="-275.8" font-family="Times,serif" font-size="14.00">&#8804;</text>
</g>

<g id="edge32" class="edge">
<title>node0-&gt;node10</title>
<path fill="none" stroke="#444443" stroke-width="0.3" d="M273,-310.49C285.87,-300.35 313.37,-278.69 328.49,-266.78" />
<polygon fill="#444443" stroke="#444443" stroke-width="0.3" points="329.42,-267.83 331.7,-264.25 327.69,-265.63 329.42,-267.83" />
<text text-anchor="start" x="322" y="-275.8" font-family="Times,serif" font-size="14.00">&gt;</text>
</g>







<g id="node24" class="node">
<title>legend</title>
<polygon fill="none" stroke="black" stroke-width="0" points="380,-339 334,-339 334,-295 380,-295 380,-339" />
<svg width="42px" height="40px" viewBox="0 0 56.182812 54.36" version="1.1" preserveAspectRatio="xMinYMin meet" x="336" y="-337">
 <metadata>
  <rdf:RDF>
   <ns2:Work>
    <dc:type rdf:resource="http://purl.org/dc/dcmitype/StillImage" />
    <dc:date>2023-05-18T01:41:31.662611</dc:date>
    <dc:format>image/svg+xml</dc:format>
    <dc:creator>
     <ns2:Agent>
      <dc:title>Matplotlib v3.5.2, https://matplotlib.org/</dc:title>
     </ns2:Agent>
    </dc:creator>
   </ns2:Work>
  </rdf:RDF>
 </metadata>
 <defs>
  <style type="text/css">*{stroke-linejoin: round; stroke-linecap: butt}</style>
 </defs>
 <g id="figure_1">
  <g id="patch_1">
   <path d="M 0 54.36  L 56.182812 54.36  L 56.182812 0  L 0 0  L 0 54.36  z " style="fill: none" />
  </g>
  <g id="axes_1">
   <g id="legend_1">
    <g id="patch_2">
     <path d="M 2 54.262031  L 54.182812 54.262031  Q 56.182812 54.262031 56.182812 52.262031  L 56.182812 2.097969  Q 56.182812 0.097969 54.182812 0.097969  L 2 0.097969  Q 0 0.097969 0 2.097969  L 0 52.262031  Q 0 54.262031 2 54.262031  z " style="fill: #ffffff; opacity: 0.8; stroke: #444443; stroke-width: 0.5; stroke-linejoin: miter" />
    </g>
    <g id="text_1">
     
     <g style="fill: #444443" transform="translate(10.501562 15.696406)scale(0.1 -0.1)">
      <defs>
       <path id="DejaVuSans-Bold-74" d="M 1759 4494  L 1759 3500  L 2913 3500  L 2913 2700  L 1759 2700  L 1759 1216  Q 1759 972 1856 886  Q 1953 800 2241 800  L 2816 800  L 2816 0  L 1856 0  Q 1194 0 917 276  Q 641 553 641 1216  L 641 2700  L 84 2700  L 84 3500  L 641 3500  L 641 4494  L 1759 4494  z " transform="scale(0.015625)" />
       <path id="DejaVuSans-Bold-61" d="M 2106 1575  Q 1756 1575 1579 1456  Q 1403 1338 1403 1106  Q 1403 894 1545 773  Q 1688 653 1941 653  Q 2256 653 2472 879  Q 2688 1106 2688 1447  L 2688 1575  L 2106 1575  z M 3816 1997  L 3816 0  L 2688 0  L 2688 519  Q 2463 200 2181 54  Q 1900 -91 1497 -91  Q 953 -91 614 226  Q 275 544 275 1050  Q 275 1666 698 1953  Q 1122 2241 2028 2241  L 2688 2241  L 2688 2328  Q 2688 2594 2478 2717  Q 2269 2841 1825 2841  Q 1466 2841 1156 2769  Q 847 2697 581 2553  L 581 3406  Q 941 3494 1303 3539  Q 1666 3584 2028 3584  Q 2975 3584 3395 3211  Q 3816 2838 3816 1997  z " transform="scale(0.015625)" />
       <path id="DejaVuSans-Bold-72" d="M 3138 2547  Q 2991 2616 2845 2648  Q 2700 2681 2553 2681  Q 2122 2681 1889 2404  Q 1656 2128 1656 1613  L 1656 0  L 538 0  L 538 3500  L 1656 3500  L 1656 2925  Q 1872 3269 2151 3426  Q 2431 3584 2822 3584  Q 2878 3584 2943 3579  Q 3009 3575 3134 3559  L 3138 2547  z " transform="scale(0.015625)" />
       <path id="DejaVuSans-Bold-67" d="M 2919 594  Q 2688 288 2409 144  Q 2131 0 1766 0  Q 1125 0 706 504  Q 288 1009 288 1791  Q 288 2575 706 3076  Q 1125 3578 1766 3578  Q 2131 3578 2409 3434  Q 2688 3291 2919 2981  L 2919 3500  L 4044 3500  L 4044 353  Q 4044 -491 3511 -936  Q 2978 -1381 1966 -1381  Q 1638 -1381 1331 -1331  Q 1025 -1281 716 -1178  L 716 -306  Q 1009 -475 1290 -558  Q 1572 -641 1856 -641  Q 2406 -641 2662 -400  Q 2919 -159 2919 353  L 2919 594  z M 2181 2772  Q 1834 2772 1640 2515  Q 1447 2259 1447 1791  Q 1447 1309 1634 1061  Q 1822 813 2181 813  Q 2531 813 2725 1069  Q 2919 1325 2919 1791  Q 2919 2259 2725 2515  Q 2531 2772 2181 2772  z " transform="scale(0.015625)" />
       <path id="DejaVuSans-Bold-65" d="M 4031 1759  L 4031 1441  L 1416 1441  Q 1456 1047 1700 850  Q 1944 653 2381 653  Q 2734 653 3104 758  Q 3475 863 3866 1075  L 3866 213  Q 3469 63 3072 -14  Q 2675 -91 2278 -91  Q 1328 -91 801 392  Q 275 875 275 1747  Q 275 2603 792 3093  Q 1309 3584 2216 3584  Q 3041 3584 3536 3087  Q 4031 2591 4031 1759  z M 2881 2131  Q 2881 2450 2695 2645  Q 2509 2841 2209 2841  Q 1884 2841 1681 2658  Q 1478 2475 1428 2131  L 2881 2131  z " transform="scale(0.015625)" />
      </defs>
      <use xlink:href="#DejaVuSans-Bold-74" />
      <use xlink:href="#DejaVuSans-Bold-61" x="47.802734" />
      <use xlink:href="#DejaVuSans-Bold-72" x="115.283203" />
      <use xlink:href="#DejaVuSans-Bold-67" x="164.599609" />
      <use xlink:href="#DejaVuSans-Bold-65" x="236.181641" />
      <use xlink:href="#DejaVuSans-Bold-74" x="304.003906" />
     </g>
    </g>
    <g id="patch_3">
     <path d="M 8 30.012031  L 28 30.012031  L 28 23.012031  L 8 23.012031  z " style="fill: #fefebb; stroke: #444443; stroke-width: 0.4; stroke-linejoin: miter" />
    </g>
    <g id="text_2">
     
     <g style="fill: #444443" transform="translate(31.5 30.012031)scale(0.1 -0.1)">
      <defs>
       <path id="ArialMT-6e" d="M 422 0  L 422 3319  L 928 3319  L 928 2847  Q 1294 3394 1984 3394  Q 2284 3394 2536 3286  Q 2788 3178 2913 3003  Q 3038 2828 3088 2588  Q 3119 2431 3119 2041  L 3119 0  L 2556 0  L 2556 2019  Q 2556 2363 2490 2533  Q 2425 2703 2258 2804  Q 2091 2906 1866 2906  Q 1506 2906 1245 2678  Q 984 2450 984 1813  L 984 0  L 422 0  z " transform="scale(0.015625)" />
       <path id="ArialMT-65" d="M 2694 1069  L 3275 997  Q 3138 488 2766 206  Q 2394 -75 1816 -75  Q 1088 -75 661 373  Q 234 822 234 1631  Q 234 2469 665 2931  Q 1097 3394 1784 3394  Q 2450 3394 2872 2941  Q 3294 2488 3294 1666  Q 3294 1616 3291 1516  L 816 1516  Q 847 969 1125 678  Q 1403 388 1819 388  Q 2128 388 2347 550  Q 2566 713 2694 1069  z M 847 1978  L 2700 1978  Q 2663 2397 2488 2606  Q 2219 2931 1791 2931  Q 1403 2931 1139 2672  Q 875 2413 847 1978  z " transform="scale(0.015625)" />
       <path id="ArialMT-67" d="M 319 -275  L 866 -356  Q 900 -609 1056 -725  Q 1266 -881 1628 -881  Q 2019 -881 2231 -725  Q 2444 -569 2519 -288  Q 2563 -116 2559 434  Q 2191 0 1641 0  Q 956 0 581 494  Q 206 988 206 1678  Q 206 2153 378 2554  Q 550 2956 876 3175  Q 1203 3394 1644 3394  Q 2231 3394 2613 2919  L 2613 3319  L 3131 3319  L 3131 450  Q 3131 -325 2973 -648  Q 2816 -972 2473 -1159  Q 2131 -1347 1631 -1347  Q 1038 -1347 672 -1080  Q 306 -813 319 -275  z M 784 1719  Q 784 1066 1043 766  Q 1303 466 1694 466  Q 2081 466 2343 764  Q 2606 1063 2606 1700  Q 2606 2309 2336 2618  Q 2066 2928 1684 2928  Q 1309 2928 1046 2623  Q 784 2319 784 1719  z " transform="scale(0.015625)" />
      </defs>
      <use xlink:href="#ArialMT-6e" />
      <use xlink:href="#ArialMT-65" x="55.615234" />
      <use xlink:href="#ArialMT-67" x="111.230469" />
     </g>
    </g>
    <g id="patch_4">
     <path d="M 8 44.274531  L 28 44.274531  L 28 37.274531  L 8 37.274531  z " style="fill: #a1dab4; stroke: #444443; stroke-width: 0.4; stroke-linejoin: miter" />
    </g>
    <g id="text_3">
     
     <g style="fill: #444443" transform="translate(31.5 44.274531)scale(0.1 -0.1)">
      <defs>
       <path id="ArialMT-70" d="M 422 -1272  L 422 3319  L 934 3319  L 934 2888  Q 1116 3141 1344 3267  Q 1572 3394 1897 3394  Q 2322 3394 2647 3175  Q 2972 2956 3137 2557  Q 3303 2159 3303 1684  Q 3303 1175 3120 767  Q 2938 359 2589 142  Q 2241 -75 1856 -75  Q 1575 -75 1351 44  Q 1128 163 984 344  L 984 -1272  L 422 -1272  z M 931 1641  Q 931 1000 1190 694  Q 1450 388 1819 388  Q 2194 388 2461 705  Q 2728 1022 2728 1688  Q 2728 2322 2467 2637  Q 2206 2953 1844 2953  Q 1484 2953 1207 2617  Q 931 2281 931 1641  z " transform="scale(0.015625)" />
       <path id="ArialMT-6f" d="M 213 1659  Q 213 2581 725 3025  Q 1153 3394 1769 3394  Q 2453 3394 2887 2945  Q 3322 2497 3322 1706  Q 3322 1066 3130 698  Q 2938 331 2570 128  Q 2203 -75 1769 -75  Q 1072 -75 642 372  Q 213 819 213 1659  z M 791 1659  Q 791 1022 1069 705  Q 1347 388 1769 388  Q 2188 388 2466 706  Q 2744 1025 2744 1678  Q 2744 2294 2464 2611  Q 2184 2928 1769 2928  Q 1347 2928 1069 2612  Q 791 2297 791 1659  z " transform="scale(0.015625)" />
       <path id="ArialMT-7a" d="M 125 0  L 125 456  L 2238 2881  Q 1878 2863 1603 2863  L 250 2863  L 250 3319  L 2963 3319  L 2963 2947  L 1166 841  L 819 456  Q 1197 484 1528 484  L 3063 484  L 3063 0  L 125 0  z " transform="scale(0.015625)" />
      </defs>
      <use xlink:href="#ArialMT-70" />
      <use xlink:href="#ArialMT-6f" x="55.615234" />
      <use xlink:href="#ArialMT-7a" x="111.230469" />
     </g>
    </g>
   </g>
  </g>
 </g>
</svg></g>
</g>
</svg>