<svg xmlns="http://www.w3.org/2000/svg" xmlns:dc="http://purl.org/dc/elements/1.1/" xmlns:ns2="http://creativecommons.org/ns#" xmlns:rdf="http://www.w3.org/1999/02/22-rdf-syntax-ns#" xmlns:xlink="http://www.w3.org/1999/xlink" width="651.0" height="351.0" viewBox="0.0 0.0 651.0 351.0">
<g id="graph0" class="graph" transform="scale(1.5 1.5) rotate(0) translate(4 230)">
<title>G</title>
<polygon fill="white" stroke="transparent" points="-4,4 -4,-230 430,-230 430,4 -4,4" />
<g id="clust8" class="cluster">
<title>cluster_legend</title>
</g>

<g id="node1" class="node">
<title>node2</title>
<text text-anchor="start" x="13" y="-103.4" font-family="Helvetica,sans-Serif" font-size="12.00" fill="#444443">Dinophysis caudata@130.50</text>
</g>

<g id="node2" class="node">
<title>node5</title>
<text text-anchor="start" x="182" y="-103.4" font-family="Helvetica,sans-Serif" font-size="12.00" fill="#444443">DIN@3.73</text>
</g>


<g id="node8" class="node">
<title>leaf3</title>
<polygon fill="none" stroke="#444443" stroke-width="0" points="67,-83 0,-83 0,0 67,0 67,-83" />
<svg width="59px" height="75px" viewBox="0 0 78.52 99.516238" version="1.1" preserveAspectRatio="xMinYMin meet" x="4.5" y="-78.5">
 <metadata>
  <rdf:RDF>
   <ns2:Work>
    <dc:type rdf:resource="http://purl.org/dc/dcmitype/StillImage" />
    <dc:date>2023-05-03T18:56:22.248777</dc:date>
    <dc:format>image/svg+xml</dc:format>
    <dc:creator>
     <ns2:Agent>
      <dc:title>Matplotlib v3.5.2, https://matplotlib.org/</dc:title>
     </ns2:Agent>
    </dc:creator>
   </ns2:Work>
  </rdf:RDF>
 </metadata>
 <defs>
  <style type="text/css">*{stroke-linejoin: round; stroke-linecap: butt}</style>
 </defs>
 <g id="figure_1">
  <g id="patch_1">
   <path d="M -0 99.516238  L 78.52 99.516238  L 78.52 0  L -0 0  z " style="fill: #ffffff" />
  </g>
  <g id="axes_1">
   <g id="patch_2">
    <path d="M 78.52 39.26  C 78.52 34.104424 77.504464 28.99898 75.53151 24.235848  C 73.558557 19.472717 70.666555 15.14453 67.021012 11.498988  C 63.37547 7.853445 59.047283 4.961443 54.284152 2.98849  C 49.52102 1.015536 44.415576 0 39.26 0  C 34.104424 0 28.99898 1.015536 24.235848 2.98849  C 19.472717 4.961443 15.14453 7.853445 11.498988 11.498988  C 7.853445 15.14453 4.961443 19.472717 2.98849 24.235848  C 1.015536 28.99898 0 34.104424 0 39.26  C 0 44.415576 1.015536 49.52102 2.98849 54.284152  C 4.961443 59.047283 7.853445 63.37547 11.498988 67.021012  C 15.14453 70.666555 19.472717 73.558557 24.235848 75.53151  C 28.99898 77.504464 34.104424 78.52 39.26 78.52  C 44.415576 78.52 49.52102 77.504464 54.284152 75.53151  C 59.047283 73.558557 63.37547 70.666555 67.021012 67.021012  C 70.666555 63.37547 73.558557 59.047283 75.53151 54.284152  C 77.504464 49.52102 78.52 44.415576 78.52 39.26  M 39.26 39.26  M 78.52 39.26  z " style="fill: #fefebb; stroke: #444443; stroke-width: 0.5; stroke-linejoin: miter" />
   </g>
   <g id="text_1">
    
    <g style="fill: #444443" transform="translate(26.622031 88.102831)scale(0.09 -0.09)">
     <defs>
      <path id="ArialMT-6e" d="M 422 0  L 422 3319  L 928 3319  L 928 2847  Q 1294 3394 1984 3394  Q 2284 3394 2536 3286  Q 2788 3178 2913 3003  Q 3038 2828 3088 2588  Q 3119 2431 3119 2041  L 3119 0  L 2556 0  L 2556 2019  Q 2556 2363 2490 2533  Q 2425 2703 2258 2804  Q 2091 2906 1866 2906  Q 1506 2906 1245 2678  Q 984 2450 984 1813  L 984 0  L 422 0  z " transform="scale(0.015625)" />
      <path id="ArialMT-3d" d="M 3381 2694  L 356 2694  L 356 3219  L 3381 3219  L 3381 2694  z M 3381 1303  L 356 1303  L 356 1828  L 3381 1828  L 3381 1303  z " transform="scale(0.015625)" />
      <path id="ArialMT-31" d="M 2384 0  L 1822 0  L 1822 3584  Q 1619 3391 1289 3197  Q 959 3003 697 2906  L 697 3450  Q 1169 3672 1522 3987  Q 1875 4303 2022 4600  L 2384 4600  L 2384 0  z " transform="scale(0.015625)" />
      <path id="ArialMT-30" d="M 266 2259  Q 266 3072 433 3567  Q 600 4063 929 4331  Q 1259 4600 1759 4600  Q 2128 4600 2406 4451  Q 2684 4303 2865 4023  Q 3047 3744 3150 3342  Q 3253 2941 3253 2259  Q 3253 1453 3087 958  Q 2922 463 2592 192  Q 2263 -78 1759 -78  Q 1097 -78 719 397  Q 266 969 266 2259  z M 844 2259  Q 844 1131 1108 757  Q 1372 384 1759 384  Q 2147 384 2411 759  Q 2675 1134 2675 2259  Q 2675 3391 2411 3762  Q 2147 4134 1753 4134  Q 1366 4134 1134 3806  Q 844 3388 844 2259  z " transform="scale(0.015625)" />
      <path id="ArialMT-37" d="M 303 3981  L 303 4522  L 3269 4522  L 3269 4084  Q 2831 3619 2401 2847  Q 1972 2075 1738 1259  Q 1569 684 1522 0  L 944 0  Q 953 541 1156 1306  Q 1359 2072 1739 2783  Q 2119 3494 2547 3981  L 303 3981  z " transform="scale(0.015625)" />
     </defs>
     <use xlink:href="#ArialMT-6e" />
     <use xlink:href="#ArialMT-3d" x="55.615234" />
     <use xlink:href="#ArialMT-31" x="114.013672" />
     <use xlink:href="#ArialMT-30" x="169.628906" />
     <use xlink:href="#ArialMT-37" x="225.244141" />
    </g>
    
    <g style="fill: #444443" transform="translate(31.752734 97.622019)scale(0.09 -0.09)">
     <defs>
      <path id="ArialMT-65" d="M 2694 1069  L 3275 997  Q 3138 488 2766 206  Q 2394 -75 1816 -75  Q 1088 -75 661 373  Q 234 822 234 1631  Q 234 2469 665 2931  Q 1097 3394 1784 3394  Q 2450 3394 2872 2941  Q 3294 2488 3294 1666  Q 3294 1616 3291 1516  L 816 1516  Q 847 969 1125 678  Q 1403 388 1819 388  Q 2128 388 2347 550  Q 2566 713 2694 1069  z M 847 1978  L 2700 1978  Q 2663 2397 2488 2606  Q 2219 2931 1791 2931  Q 1403 2931 1139 2672  Q 875 2413 847 1978  z " transform="scale(0.015625)" />
      <path id="ArialMT-67" d="M 319 -275  L 866 -356  Q 900 -609 1056 -725  Q 1266 -881 1628 -881  Q 2019 -881 2231 -725  Q 2444 -569 2519 -288  Q 2563 -116 2559 434  Q 2191 0 1641 0  Q 956 0 581 494  Q 206 988 206 1678  Q 206 2153 378 2554  Q 550 2956 876 3175  Q 1203 3394 1644 3394  Q 2231 3394 2613 2919  L 2613 3319  L 3131 3319  L 3131 450  Q 3131 -325 2973 -648  Q 2816 -972 2473 -1159  Q 2131 -1347 1631 -1347  Q 1038 -1347 672 -1080  Q 306 -813 319 -275  z M 784 1719  Q 784 1066 1043 766  Q 1303 466 1694 466  Q 2081 466 2343 764  Q 2606 1063 2606 1700  Q 2606 2309 2336 2618  Q 2066 2928 1684 2928  Q 1309 2928 1046 2623  Q 784 2319 784 1719  z " transform="scale(0.015625)" />
     </defs>
     <use xlink:href="#ArialMT-6e" />
     <use xlink:href="#ArialMT-65" x="55.615234" />
     <use xlink:href="#ArialMT-67" x="111.230469" />
    </g>
   </g>
  </g>
 </g>
</svg></g>

<g id="edge1" class="edge">
<title>node2-&gt;leaf3</title>
<path fill="none" stroke="#444443" stroke-width="0.3" d="M85.24,-99.69C81.5,-95.55 76.1,-89.59 70.19,-83.05" />
<polygon fill="#444443" stroke="#444443" stroke-width="0.3" points="70.98,-81.83 67.25,-79.81 68.9,-83.71 70.98,-81.83" />
</g>

<g id="node9" class="node">
<title>leaf4</title>
<polygon fill="none" stroke="#444443" stroke-width="0" points="100,-56.5 81,-56.5 81,-26.5 100,-26.5 100,-56.5" />
<svg width="11px" height="22px" viewBox="0 0 15.26625 29.685009" version="1.1" preserveAspectRatio="xMinYMin meet" x="85.5" y="-52.5">
 <metadata>
  <rdf:RDF>
   <ns2:Work>
    <dc:type rdf:resource="http://purl.org/dc/dcmitype/StillImage" />
    <dc:date>2023-05-03T18:56:22.294095</dc:date>
    <dc:format>image/svg+xml</dc:format>
    <dc:creator>
     <ns2:Agent>
      <dc:title>Matplotlib v3.5.2, https://matplotlib.org/</dc:title>
     </ns2:Agent>
    </dc:creator>
   </ns2:Work>
  </rdf:RDF>
 </metadata>
 <defs>
  <style type="text/css">*{stroke-linejoin: round; stroke-linecap: butt}</style>
 </defs>
 <g id="figure_1">
  <g id="patch_1">
   <path d="M 0 29.685009  L 15.26625 29.685009  L 15.26625 0  L 0 0  z " style="fill: #ffffff" />
  </g>
  <g id="axes_1">
   <g id="patch_2">
    <path d="M 13.371125 5.738  C 13.371125 4.984493 13.222701 4.238312 12.934346 3.542162  C 12.645991 2.846013 12.223314 2.213431 11.690504 1.680621  C 11.157694 1.147811 10.525112 0.725134 9.828963 0.436779  C 9.132813 0.148424 8.386632 -0 7.633125 -0  C 6.879618 -0 6.133437 0.148424 5.437287 0.436779  C 4.741138 0.725134 4.108556 1.147811 3.575746 1.680621  C 3.042936 2.213431 2.620259 2.846013 2.331904 3.542162  C 2.043549 4.238312 1.895125 4.984493 1.895125 5.738  C 1.895125 6.491507 2.043549 7.237688 2.331904 7.933838  C 2.620259 8.629987 3.042936 9.262569 3.575746 9.795379  C 4.108556 10.328189 4.741138 10.750866 5.437287 11.039221  C 6.133437 11.327576 6.879618 11.476 7.633125 11.476  C 8.386632 11.476 9.132813 11.327576 9.828963 11.039221  C 10.525112 10.750866 11.157694 10.328189 11.690504 9.795379  C 12.223314 9.262569 12.645991 8.629987 12.934346 7.933838  C 13.222701 7.237688 13.371125 6.491507 13.371125 5.738  M 7.633125 5.738  M 13.371125 5.738  z " style="fill: #a1dab4; stroke: #444443; stroke-width: 0.5; stroke-linejoin: miter" />
   </g>
   <g id="text_1">
    
    <g style="fill: #444443" transform="translate(0 18.377071)scale(0.09 -0.09)">
     <defs>
      <path id="ArialMT-6e" d="M 422 0  L 422 3319  L 928 3319  L 928 2847  Q 1294 3394 1984 3394  Q 2284 3394 2536 3286  Q 2788 3178 2913 3003  Q 3038 2828 3088 2588  Q 3119 2431 3119 2041  L 3119 0  L 2556 0  L 2556 2019  Q 2556 2363 2490 2533  Q 2425 2703 2258 2804  Q 2091 2906 1866 2906  Q 1506 2906 1245 2678  Q 984 2450 984 1813  L 984 0  L 422 0  z " transform="scale(0.015625)" />
      <path id="ArialMT-3d" d="M 3381 2694  L 356 2694  L 356 3219  L 3381 3219  L 3381 2694  z M 3381 1303  L 356 1303  L 356 1828  L 3381 1828  L 3381 1303  z " transform="scale(0.015625)" />
      <path id="ArialMT-32" d="M 3222 541  L 3222 0  L 194 0  Q 188 203 259 391  Q 375 700 629 1000  Q 884 1300 1366 1694  Q 2113 2306 2375 2664  Q 2638 3022 2638 3341  Q 2638 3675 2398 3904  Q 2159 4134 1775 4134  Q 1369 4134 1125 3890  Q 881 3647 878 3216  L 300 3275  Q 359 3922 746 4261  Q 1134 4600 1788 4600  Q 2447 4600 2831 4234  Q 3216 3869 3216 3328  Q 3216 3053 3103 2787  Q 2991 2522 2730 2228  Q 2469 1934 1863 1422  Q 1356 997 1212 845  Q 1069 694 975 541  L 3222 541  z " transform="scale(0.015625)" />
     </defs>
     <use xlink:href="#ArialMT-6e" />
     <use xlink:href="#ArialMT-3d" x="55.615234" />
     <use xlink:href="#ArialMT-32" x="114.013672" />
    </g>
    
    <g style="fill: #444443" transform="translate(0.378281 27.896259)scale(0.09 -0.09)">
     <defs>
      <path id="ArialMT-70" d="M 422 -1272  L 422 3319  L 934 3319  L 934 2888  Q 1116 3141 1344 3267  Q 1572 3394 1897 3394  Q 2322 3394 2647 3175  Q 2972 2956 3137 2557  Q 3303 2159 3303 1684  Q 3303 1175 3120 767  Q 2938 359 2589 142  Q 2241 -75 1856 -75  Q 1575 -75 1351 44  Q 1128 163 984 344  L 984 -1272  L 422 -1272  z M 931 1641  Q 931 1000 1190 694  Q 1450 388 1819 388  Q 2194 388 2461 705  Q 2728 1022 2728 1688  Q 2728 2322 2467 2637  Q 2206 2953 1844 2953  Q 1484 2953 1207 2617  Q 931 2281 931 1641  z " transform="scale(0.015625)" />
      <path id="ArialMT-6f" d="M 213 1659  Q 213 2581 725 3025  Q 1153 3394 1769 3394  Q 2453 3394 2887 2945  Q 3322 2497 3322 1706  Q 3322 1066 3130 698  Q 2938 331 2570 128  Q 2203 -75 1769 -75  Q 1072 -75 642 372  Q 213 819 213 1659  z M 791 1659  Q 791 1022 1069 705  Q 1347 388 1769 388  Q 2188 388 2466 706  Q 2744 1025 2744 1678  Q 2744 2294 2464 2611  Q 2184 2928 1769 2928  Q 1347 2928 1069 2612  Q 791 2297 791 1659  z " transform="scale(0.015625)" />
      <path id="ArialMT-7a" d="M 125 0  L 125 456  L 2238 2881  Q 1878 2863 1603 2863  L 250 2863  L 250 3319  L 2963 3319  L 2963 2947  L 1166 841  L 819 456  Q 1197 484 1528 484  L 3063 484  L 3063 0  L 125 0  z " transform="scale(0.015625)" />
     </defs>
     <use xlink:href="#ArialMT-70" />
     <use xlink:href="#ArialMT-6f" x="55.615234" />
     <use xlink:href="#ArialMT-7a" x="111.230469" />
    </g>
   </g>
  </g>
 </g>
</svg></g>

<g id="edge2" class="edge">
<title>node2-&gt;leaf4</title>
<path fill="none" stroke="#444443" stroke-width="0.3" d="M90.5,-99.69C90.5,-90.98 90.5,-74.19 90.5,-61.04" />
<polygon fill="#444443" stroke="#444443" stroke-width="0.3" points="91.9,-60.74 90.5,-56.74 89.1,-60.74 91.9,-60.74" />
</g>

<g id="node10" class="node">
<title>leaf6</title>
<polygon fill="none" stroke="#444443" stroke-width="0" points="174,-83 107,-83 107,0 174,0 174,-83" />
<svg width="59px" height="75px" viewBox="0 0 78.519999 99.516237" version="1.1" preserveAspectRatio="xMinYMin meet" x="111.5" y="-78.5">
 <metadata>
  <rdf:RDF>
   <ns2:Work>
    <dc:type rdf:resource="http://purl.org/dc/dcmitype/StillImage" />
    <dc:date>2023-05-03T18:56:22.344531</dc:date>
    <dc:format>image/svg+xml</dc:format>
    <dc:creator>
     <ns2:Agent>
      <dc:title>Matplotlib v3.5.2, https://matplotlib.org/</dc:title>
     </ns2:Agent>
    </dc:creator>
   </ns2:Work>
  </rdf:RDF>
 </metadata>
 <defs>
  <style type="text/css">*{stroke-linejoin: round; stroke-linecap: butt}</style>
 </defs>
 <g id="figure_1">
  <g id="patch_1">
   <path d="M -0 99.516237  L 78.519999 99.516237  L 78.519999 -0  L -0 -0  z " style="fill: #ffffff" />
  </g>
  <g id="axes_1">
   <g id="patch_2">
    <path d="M 78.519999 39.26  C 78.519999 35.06894 77.848897 30.904788 76.532217 26.925926  C 75.215537 22.947064 73.270187 19.204585 70.770158 15.840831  C 68.270129 12.477077 65.247523 9.535242 61.817303 7.127218  C 58.387083 4.719194 54.593297 2.875902 50.58024 1.667451  C 46.567182 0.458999 42.386384 -0.099094 38.196861 0.014397  C 34.007338 0.127889 29.862886 0.911508 25.921138 2.33545  C 21.97939 3.759392 18.290962 5.805373 14.996141 8.395574  C 11.70132 10.985775 8.842415 14.086935 6.528163 17.581105  C 4.21391 21.075275 2.474027 24.917585 1.37469 28.961895  C 0.275353 33.006205 -0.169322 37.200583 0.057577 41.385496  C 0.284477 45.57041 1.180038 49.692122 2.710199 53.593865  C 4.240359 57.495607 6.38547 61.127279 9.063943 64.350751  C 11.742416 67.574222 14.919857 70.348101 18.475414 72.566885  C 22.030971 74.785669 25.918987 76.420866 29.991583 77.410282  C 34.064179 78.399699 38.26906 78.73063 42.446295 78.390488  C 46.62353 78.050347 50.719479 77.0435 54.578355 75.408244  L 39.259999 39.26  L 78.519999 39.26  z " style="fill: #fefebb; stroke: #444443; stroke-width: 0.5; stroke-linejoin: miter" />
   </g>
   <g id="patch_3">
    <path d="M 54.578355 75.408244  C 61.676957 72.400106 67.73465 67.366599 71.991837 60.938893  C 76.249023 54.511187 78.52 46.969668 78.519999 39.259996  L 39.259999 39.26  L 54.578355 75.408244  z " style="fill: #a1dab4; stroke: #444443; stroke-width: 0.5; stroke-linejoin: miter" />
   </g>
   <g id="text_1">
    
    <g style="fill: #444443" transform="translate(26.62203 88.102831)scale(0.09 -0.09)">
     <defs>
      <path id="ArialMT-6e" d="M 422 0  L 422 3319  L 928 3319  L 928 2847  Q 1294 3394 1984 3394  Q 2284 3394 2536 3286  Q 2788 3178 2913 3003  Q 3038 2828 3088 2588  Q 3119 2431 3119 2041  L 3119 0  L 2556 0  L 2556 2019  Q 2556 2363 2490 2533  Q 2425 2703 2258 2804  Q 2091 2906 1866 2906  Q 1506 2906 1245 2678  Q 984 2450 984 1813  L 984 0  L 422 0  z " transform="scale(0.015625)" />
      <path id="ArialMT-3d" d="M 3381 2694  L 356 2694  L 356 3219  L 3381 3219  L 3381 2694  z M 3381 1303  L 356 1303  L 356 1828  L 3381 1828  L 3381 1303  z " transform="scale(0.015625)" />
      <path id="ArialMT-31" d="M 2384 0  L 1822 0  L 1822 3584  Q 1619 3391 1289 3197  Q 959 3003 697 2906  L 697 3450  Q 1169 3672 1522 3987  Q 1875 4303 2022 4600  L 2384 4600  L 2384 0  z " transform="scale(0.015625)" />
      <path id="ArialMT-36" d="M 3184 3459  L 2625 3416  Q 2550 3747 2413 3897  Q 2184 4138 1850 4138  Q 1581 4138 1378 3988  Q 1113 3794 959 3422  Q 806 3050 800 2363  Q 1003 2672 1297 2822  Q 1591 2972 1913 2972  Q 2475 2972 2870 2558  Q 3266 2144 3266 1488  Q 3266 1056 3080 686  Q 2894 316 2569 119  Q 2244 -78 1831 -78  Q 1128 -78 684 439  Q 241 956 241 2144  Q 241 3472 731 4075  Q 1159 4600 1884 4600  Q 2425 4600 2770 4297  Q 3116 3994 3184 3459  z M 888 1484  Q 888 1194 1011 928  Q 1134 663 1356 523  Q 1578 384 1822 384  Q 2178 384 2434 671  Q 2691 959 2691 1453  Q 2691 1928 2437 2201  Q 2184 2475 1800 2475  Q 1419 2475 1153 2201  Q 888 1928 888 1484  z " transform="scale(0.015625)" />
      <path id="ArialMT-33" d="M 269 1209  L 831 1284  Q 928 806 1161 595  Q 1394 384 1728 384  Q 2125 384 2398 659  Q 2672 934 2672 1341  Q 2672 1728 2419 1979  Q 2166 2231 1775 2231  Q 1616 2231 1378 2169  L 1441 2663  Q 1497 2656 1531 2656  Q 1891 2656 2178 2843  Q 2466 3031 2466 3422  Q 2466 3731 2256 3934  Q 2047 4138 1716 4138  Q 1388 4138 1169 3931  Q 950 3725 888 3313  L 325 3413  Q 428 3978 793 4289  Q 1159 4600 1703 4600  Q 2078 4600 2393 4439  Q 2709 4278 2876 4000  Q 3044 3722 3044 3409  Q 3044 3113 2884 2869  Q 2725 2625 2413 2481  Q 2819 2388 3044 2092  Q 3269 1797 3269 1353  Q 3269 753 2831 336  Q 2394 -81 1725 -81  Q 1122 -81 723 278  Q 325 638 269 1209  z " transform="scale(0.015625)" />
     </defs>
     <use xlink:href="#ArialMT-6e" />
     <use xlink:href="#ArialMT-3d" x="55.615234" />
     <use xlink:href="#ArialMT-31" x="114.013672" />
     <use xlink:href="#ArialMT-36" x="169.628906" />
     <use xlink:href="#ArialMT-33" x="225.244141" />
    </g>
    
    <g style="fill: #444443" transform="translate(31.752733 97.622019)scale(0.09 -0.09)">
     <defs>
      <path id="ArialMT-65" d="M 2694 1069  L 3275 997  Q 3138 488 2766 206  Q 2394 -75 1816 -75  Q 1088 -75 661 373  Q 234 822 234 1631  Q 234 2469 665 2931  Q 1097 3394 1784 3394  Q 2450 3394 2872 2941  Q 3294 2488 3294 1666  Q 3294 1616 3291 1516  L 816 1516  Q 847 969 1125 678  Q 1403 388 1819 388  Q 2128 388 2347 550  Q 2566 713 2694 1069  z M 847 1978  L 2700 1978  Q 2663 2397 2488 2606  Q 2219 2931 1791 2931  Q 1403 2931 1139 2672  Q 875 2413 847 1978  z " transform="scale(0.015625)" />
      <path id="ArialMT-67" d="M 319 -275  L 866 -356  Q 900 -609 1056 -725  Q 1266 -881 1628 -881  Q 2019 -881 2231 -725  Q 2444 -569 2519 -288  Q 2563 -116 2559 434  Q 2191 0 1641 0  Q 956 0 581 494  Q 206 988 206 1678  Q 206 2153 378 2554  Q 550 2956 876 3175  Q 1203 3394 1644 3394  Q 2231 3394 2613 2919  L 2613 3319  L 3131 3319  L 3131 450  Q 3131 -325 2973 -648  Q 2816 -972 2473 -1159  Q 2131 -1347 1631 -1347  Q 1038 -1347 672 -1080  Q 306 -813 319 -275  z M 784 1719  Q 784 1066 1043 766  Q 1303 466 1694 466  Q 2081 466 2343 764  Q 2606 1063 2606 1700  Q 2606 2309 2336 2618  Q 2066 2928 1684 2928  Q 1309 2928 1046 2623  Q 784 2319 784 1719  z " transform="scale(0.015625)" />
     </defs>
     <use xlink:href="#ArialMT-6e" />
     <use xlink:href="#ArialMT-65" x="55.615234" />
     <use xlink:href="#ArialMT-67" x="111.230469" />
    </g>
   </g>
  </g>
 </g>
</svg></g>

<g id="edge4" class="edge">
<title>node5-&gt;leaf6</title>
<path fill="none" stroke="#444443" stroke-width="0.3" d="M204.04,-99.69C197.78,-94.05 187.76,-85.03 177.51,-75.81" />
<polygon fill="#444443" stroke="#444443" stroke-width="0.3" points="178.23,-74.57 174.32,-72.94 176.36,-76.66 178.23,-74.57" />
</g>

<g id="node11" class="node">
<title>leaf7</title>
<polygon fill="none" stroke="#444443" stroke-width="0" points="249.5,-80.5 187.5,-80.5 187.5,-2.5 249.5,-2.5 249.5,-80.5" />
<svg width="54px" height="70px" viewBox="0 0 73.083999 93.757017" version="1.1" preserveAspectRatio="xMinYMin meet" x="191.5" y="-76.5">
 <metadata>
  <rdf:RDF>
   <ns2:Work>
    <dc:type rdf:resource="http://purl.org/dc/dcmitype/StillImage" />
    <dc:date>2023-05-03T18:56:22.465763</dc:date>
    <dc:format>image/svg+xml</dc:format>
    <dc:creator>
     <ns2:Agent>
      <dc:title>Matplotlib v3.5.2, https://matplotlib.org/</dc:title>
     </ns2:Agent>
    </dc:creator>
   </ns2:Work>
  </rdf:RDF>
 </metadata>
 <defs>
  <style type="text/css">*{stroke-linejoin: round; stroke-linecap: butt}</style>
 </defs>
 <g id="figure_1">
  <g id="patch_1">
   <path d="M 0 93.757017  L 73.083999 93.757017  L 73.083999 0  L 0 0  z " style="fill: #ffffff" />
  </g>
  <g id="axes_1">
   <g id="patch_2">
    <path d="M 73.083999 36.541689  C 73.083999 28.412867 70.371596 20.51191 65.378771 14.097128  C 60.385946 7.682346 53.39261 3.113372 45.512529 1.117864  C 37.632447 -0.877643 29.307402 -0.18781 21.863244 3.0775  C 14.419086 6.34281 8.27316 12.000535 4.404268 19.14962  L 36.541999 36.541689  L 73.083999 36.541689  z " style="fill: #fefebb; stroke: #444443; stroke-width: 0.5; stroke-linejoin: miter" />
   </g>
   <g id="patch_3">
    <path d="M 4.404268 19.14962  C 1.756884 24.041558 0.261078 29.473997 0.031214 35.031592  C -0.198649 40.589187 0.843441 46.126595 3.07781 51.220443  C 5.312179 56.314292 8.680394 60.831367 12.924932 64.426307  C 17.16947 68.021247 22.179328 70.600038 27.571468 71.965513  C 32.963608 73.330989 38.597016 73.447439 44.040978 72.30596  C 49.48494 71.164481 54.597087 68.794925 58.98656 65.378461  C 63.376033 61.961997 66.928038 57.587972 69.371002 52.59081  C 71.813965 47.593648 73.083999 42.104035 73.083999 36.541689  L 36.541999 36.541689  L 4.404268 19.14962  z " style="fill: #a1dab4; stroke: #444443; stroke-width: 0.5; stroke-linejoin: miter" />
   </g>
   <g id="text_1">
    
    <g style="fill: #444443" transform="translate(26.406452 82.44908)scale(0.09 -0.09)">
     <defs>
      <path id="ArialMT-6e" d="M 422 0  L 422 3319  L 928 3319  L 928 2847  Q 1294 3394 1984 3394  Q 2284 3394 2536 3286  Q 2788 3178 2913 3003  Q 3038 2828 3088 2588  Q 3119 2431 3119 2041  L 3119 0  L 2556 0  L 2556 2019  Q 2556 2363 2490 2533  Q 2425 2703 2258 2804  Q 2091 2906 1866 2906  Q 1506 2906 1245 2678  Q 984 2450 984 1813  L 984 0  L 422 0  z " transform="scale(0.015625)" />
      <path id="ArialMT-3d" d="M 3381 2694  L 356 2694  L 356 3219  L 3381 3219  L 3381 2694  z M 3381 1303  L 356 1303  L 356 1828  L 3381 1828  L 3381 1303  z " transform="scale(0.015625)" />
      <path id="ArialMT-35" d="M 266 1200  L 856 1250  Q 922 819 1161 601  Q 1400 384 1738 384  Q 2144 384 2425 690  Q 2706 997 2706 1503  Q 2706 1984 2436 2262  Q 2166 2541 1728 2541  Q 1456 2541 1237 2417  Q 1019 2294 894 2097  L 366 2166  L 809 4519  L 3088 4519  L 3088 3981  L 1259 3981  L 1013 2750  Q 1425 3038 1878 3038  Q 2478 3038 2890 2622  Q 3303 2206 3303 1553  Q 3303 931 2941 478  Q 2500 -78 1738 -78  Q 1113 -78 717 272  Q 322 622 266 1200  z " transform="scale(0.015625)" />
      <path id="ArialMT-33" d="M 269 1209  L 831 1284  Q 928 806 1161 595  Q 1394 384 1728 384  Q 2125 384 2398 659  Q 2672 934 2672 1341  Q 2672 1728 2419 1979  Q 2166 2231 1775 2231  Q 1616 2231 1378 2169  L 1441 2663  Q 1497 2656 1531 2656  Q 1891 2656 2178 2843  Q 2466 3031 2466 3422  Q 2466 3731 2256 3934  Q 2047 4138 1716 4138  Q 1388 4138 1169 3931  Q 950 3725 888 3313  L 325 3413  Q 428 3978 793 4289  Q 1159 4600 1703 4600  Q 2078 4600 2393 4439  Q 2709 4278 2876 4000  Q 3044 3722 3044 3409  Q 3044 3113 2884 2869  Q 2725 2625 2413 2481  Q 2819 2388 3044 2092  Q 3269 1797 3269 1353  Q 3269 753 2831 336  Q 2394 -81 1725 -81  Q 1122 -81 723 278  Q 325 638 269 1209  z " transform="scale(0.015625)" />
     </defs>
     <use xlink:href="#ArialMT-6e" />
     <use xlink:href="#ArialMT-3d" x="55.615234" />
     <use xlink:href="#ArialMT-35" x="114.013672" />
     <use xlink:href="#ArialMT-33" x="169.628906" />
    </g>
    
    <g style="fill: #444443" transform="translate(29.287155 91.968267)scale(0.09 -0.09)">
     <defs>
      <path id="ArialMT-70" d="M 422 -1272  L 422 3319  L 934 3319  L 934 2888  Q 1116 3141 1344 3267  Q 1572 3394 1897 3394  Q 2322 3394 2647 3175  Q 2972 2956 3137 2557  Q 3303 2159 3303 1684  Q 3303 1175 3120 767  Q 2938 359 2589 142  Q 2241 -75 1856 -75  Q 1575 -75 1351 44  Q 1128 163 984 344  L 984 -1272  L 422 -1272  z M 931 1641  Q 931 1000 1190 694  Q 1450 388 1819 388  Q 2194 388 2461 705  Q 2728 1022 2728 1688  Q 2728 2322 2467 2637  Q 2206 2953 1844 2953  Q 1484 2953 1207 2617  Q 931 2281 931 1641  z " transform="scale(0.015625)" />
      <path id="ArialMT-6f" d="M 213 1659  Q 213 2581 725 3025  Q 1153 3394 1769 3394  Q 2453 3394 2887 2945  Q 3322 2497 3322 1706  Q 3322 1066 3130 698  Q 2938 331 2570 128  Q 2203 -75 1769 -75  Q 1072 -75 642 372  Q 213 819 213 1659  z M 791 1659  Q 791 1022 1069 705  Q 1347 388 1769 388  Q 2188 388 2466 706  Q 2744 1025 2744 1678  Q 2744 2294 2464 2611  Q 2184 2928 1769 2928  Q 1347 2928 1069 2612  Q 791 2297 791 1659  z " transform="scale(0.015625)" />
      <path id="ArialMT-7a" d="M 125 0  L 125 456  L 2238 2881  Q 1878 2863 1603 2863  L 250 2863  L 250 3319  L 2963 3319  L 2963 2947  L 1166 841  L 819 456  Q 1197 484 1528 484  L 3063 484  L 3063 0  L 125 0  z " transform="scale(0.015625)" />
     </defs>
     <use xlink:href="#ArialMT-70" />
     <use xlink:href="#ArialMT-6f" x="55.615234" />
     <use xlink:href="#ArialMT-7a" x="111.230469" />
    </g>
   </g>
  </g>
 </g>
</svg></g>

<g id="edge5" class="edge">
<title>node5-&gt;leaf7</title>
<path fill="none" stroke="#444443" stroke-width="0.3" d="M211.24,-99.69C211.72,-95.92 212.39,-90.65 213.13,-84.81" />
<polygon fill="#444443" stroke="#444443" stroke-width="0.3" points="214.54,-84.84 213.65,-80.69 211.76,-84.48 214.54,-84.84" />
</g>

<g id="node3" class="node">
<title>node1</title>
<text text-anchor="start" x="171" y="-133.4" font-family="Helvetica,sans-Serif" font-size="12.00" fill="#444443">Chl-a@0.39</text>
</g>

<g id="edge7" class="edge">
<title>node1-&gt;node2</title>
<path fill="none" stroke="#444443" stroke-width="0.3" d="M181.17,-129.97C162.76,-125.4 136.58,-118.92 117.08,-114.09" />
<polygon fill="#444443" stroke="#444443" stroke-width="0.3" points="117,-112.62 112.78,-113.02 116.32,-115.34 117,-112.62" />
</g>

<g id="edge8" class="edge">
<title>node1-&gt;node5</title>
<path fill="none" stroke="#444443" stroke-width="0.3" d="M204.92,-129.83C205.83,-126.19 207.03,-121.36 208.09,-117.13" />
<polygon fill="#444443" stroke="#444443" stroke-width="0.3" points="209.47,-117.38 209.09,-113.16 206.76,-116.7 209.47,-117.38" />
</g>

<g id="node6" class="node">
<title>node8</title>
<text text-anchor="start" x="249.5" y="-133.4" font-family="Helvetica,sans-Serif" font-size="12.00" fill="#444443">Dinophysis tripos@1.55</text>
</g>


<g id="node4" class="node">
<title>node9</title>
<text text-anchor="start" x="278" y="-103.4" font-family="Helvetica,sans-Serif" font-size="12.00" fill="#444443">DIN@4.55</text>
</g>

<g id="node5" class="node">
<title>node12</title>
<text text-anchor="start" x="349" y="-103.4" font-family="Helvetica,sans-Serif" font-size="12.00" fill="#444443">Soca@937.24</text>
</g>


<g id="node12" class="node">
<title>leaf10</title>
<polygon fill="none" stroke="#444443" stroke-width="0" points="314,-77.5 257,-77.5 257,-5.5 314,-5.5 314,-77.5" />
<svg width="49px" height="64px" viewBox="0 0 65.835949 86.219278" version="1.1" preserveAspectRatio="xMinYMin meet" x="261.5" y="-73.5">
 <metadata>
  <rdf:RDF>
   <ns2:Work>
    <dc:type rdf:resource="http://purl.org/dc/dcmitype/StillImage" />
    <dc:date>2023-05-03T18:56:22.506334</dc:date>
    <dc:format>image/svg+xml</dc:format>
    <dc:creator>
     <ns2:Agent>
      <dc:title>Matplotlib v3.5.2, https://matplotlib.org/</dc:title>
     </ns2:Agent>
    </dc:creator>
   </ns2:Work>
  </rdf:RDF>
 </metadata>
 <defs>
  <style type="text/css">*{stroke-linejoin: round; stroke-linecap: butt}</style>
 </defs>
 <g id="figure_1">
  <g id="patch_1">
   <path d="M 0 86.219278  L 65.835949 86.219278  L 65.835949 0  L 0 0  z " style="fill: #ffffff" />
  </g>
  <g id="axes_1">
   <g id="patch_2">
    <path d="M 65.835949 32.917869  C 65.835949 26.372004 63.883445 19.972556 60.229257 14.541603  C 56.575068 9.110649 51.382669 4.891147 45.319078 2.425137  C 39.255486 -0.040873 32.591961 -0.643072 26.184504 0.695898  C 19.777047 2.034868 13.9123 5.255108 9.343651 9.942943  L 32.917949 32.917869  L 65.835949 32.917869  z " style="fill: #fefebb; stroke: #444443; stroke-width: 0.5; stroke-linejoin: miter" />
   </g>
   <g id="patch_3">
    <path d="M 9.343651 9.942943  C 5.578128 13.806702 2.819606 18.537594 1.311735 23.71776  C -0.196136 28.897926 -0.407615 34.370225 0.695977 39.651312  C 1.799568 44.932399 4.184753 49.862072 7.640858 54.004914  C 11.096963 58.147755 15.519147 61.378091 20.516817 63.4106  C 25.514486 65.44311 30.936037 66.216136 36.302606 65.6614  C 41.669175 65.106665 46.817967 63.240996 51.294211 60.22918  C 55.770455 57.217364 59.438364 53.150765 61.973967 48.388569  C 64.509569 43.626372 65.835948 38.31304 65.835949 32.917875  L 32.917949 32.917869  L 9.343651 9.942943  z " style="fill: #a1dab4; stroke: #444443; stroke-width: 0.5; stroke-linejoin: miter" />
   </g>
   <g id="text_1">
    
    <g style="fill: #444443" transform="translate(22.782402 74.911341)scale(0.09 -0.09)">
     <defs>
      <path id="ArialMT-6e" d="M 422 0  L 422 3319  L 928 3319  L 928 2847  Q 1294 3394 1984 3394  Q 2284 3394 2536 3286  Q 2788 3178 2913 3003  Q 3038 2828 3088 2588  Q 3119 2431 3119 2041  L 3119 0  L 2556 0  L 2556 2019  Q 2556 2363 2490 2533  Q 2425 2703 2258 2804  Q 2091 2906 1866 2906  Q 1506 2906 1245 2678  Q 984 2450 984 1813  L 984 0  L 422 0  z " transform="scale(0.015625)" />
      <path id="ArialMT-3d" d="M 3381 2694  L 356 2694  L 356 3219  L 3381 3219  L 3381 2694  z M 3381 1303  L 356 1303  L 356 1828  L 3381 1828  L 3381 1303  z " transform="scale(0.015625)" />
      <path id="ArialMT-34" d="M 2069 0  L 2069 1097  L 81 1097  L 81 1613  L 2172 4581  L 2631 4581  L 2631 1613  L 3250 1613  L 3250 1097  L 2631 1097  L 2631 0  L 2069 0  z M 2069 1613  L 2069 3678  L 634 1613  L 2069 1613  z " transform="scale(0.015625)" />
      <path id="ArialMT-37" d="M 303 3981  L 303 4522  L 3269 4522  L 3269 4084  Q 2831 3619 2401 2847  Q 1972 2075 1738 1259  Q 1569 684 1522 0  L 944 0  Q 953 541 1156 1306  Q 1359 2072 1739 2783  Q 2119 3494 2547 3981  L 303 3981  z " transform="scale(0.015625)" />
     </defs>
     <use xlink:href="#ArialMT-6e" />
     <use xlink:href="#ArialMT-3d" x="55.615234" />
     <use xlink:href="#ArialMT-34" x="114.013672" />
     <use xlink:href="#ArialMT-37" x="169.628906" />
    </g>
    
    <g style="fill: #444443" transform="translate(25.663105 84.430528)scale(0.09 -0.09)">
     <defs>
      <path id="ArialMT-70" d="M 422 -1272  L 422 3319  L 934 3319  L 934 2888  Q 1116 3141 1344 3267  Q 1572 3394 1897 3394  Q 2322 3394 2647 3175  Q 2972 2956 3137 2557  Q 3303 2159 3303 1684  Q 3303 1175 3120 767  Q 2938 359 2589 142  Q 2241 -75 1856 -75  Q 1575 -75 1351 44  Q 1128 163 984 344  L 984 -1272  L 422 -1272  z M 931 1641  Q 931 1000 1190 694  Q 1450 388 1819 388  Q 2194 388 2461 705  Q 2728 1022 2728 1688  Q 2728 2322 2467 2637  Q 2206 2953 1844 2953  Q 1484 2953 1207 2617  Q 931 2281 931 1641  z " transform="scale(0.015625)" />
      <path id="ArialMT-6f" d="M 213 1659  Q 213 2581 725 3025  Q 1153 3394 1769 3394  Q 2453 3394 2887 2945  Q 3322 2497 3322 1706  Q 3322 1066 3130 698  Q 2938 331 2570 128  Q 2203 -75 1769 -75  Q 1072 -75 642 372  Q 213 819 213 1659  z M 791 1659  Q 791 1022 1069 705  Q 1347 388 1769 388  Q 2188 388 2466 706  Q 2744 1025 2744 1678  Q 2744 2294 2464 2611  Q 2184 2928 1769 2928  Q 1347 2928 1069 2612  Q 791 2297 791 1659  z " transform="scale(0.015625)" />
      <path id="ArialMT-7a" d="M 125 0  L 125 456  L 2238 2881  Q 1878 2863 1603 2863  L 250 2863  L 250 3319  L 2963 3319  L 2963 2947  L 1166 841  L 819 456  Q 1197 484 1528 484  L 3063 484  L 3063 0  L 125 0  z " transform="scale(0.015625)" />
     </defs>
     <use xlink:href="#ArialMT-70" />
     <use xlink:href="#ArialMT-6f" x="55.615234" />
     <use xlink:href="#ArialMT-7a" x="111.230469" />
    </g>
   </g>
  </g>
 </g>
</svg></g>

<g id="edge10" class="edge">
<title>node9-&gt;leaf10</title>
<path fill="none" stroke="#444443" stroke-width="0.3" d="M304.56,-99.69C303.09,-95.27 300.92,-88.76 298.57,-81.7" />
<polygon fill="#444443" stroke="#444443" stroke-width="0.3" points="299.84,-81.08 297.24,-77.73 297.18,-81.97 299.84,-81.08" />
</g>

<g id="node13" class="node">
<title>leaf11</title>
<polygon fill="none" stroke="#444443" stroke-width="0" points="357,-63 328,-63 328,-20 357,-20 357,-63" />
<svg width="21px" height="35px" viewBox="0 0 28.387999 47.378957" version="1.1" preserveAspectRatio="xMinYMin meet" x="332.5" y="-58.5">
 <metadata>
  <rdf:RDF>
   <ns2:Work>
    <dc:type rdf:resource="http://purl.org/dc/dcmitype/StillImage" />
    <dc:date>2023-05-03T18:56:22.553511</dc:date>
    <dc:format>image/svg+xml</dc:format>
    <dc:creator>
     <ns2:Agent>
      <dc:title>Matplotlib v3.5.2, https://matplotlib.org/</dc:title>
     </ns2:Agent>
    </dc:creator>
   </ns2:Work>
  </rdf:RDF>
 </metadata>
 <defs>
  <style type="text/css">*{stroke-linejoin: round; stroke-linecap: butt}</style>
 </defs>
 <g id="figure_1">
  <g id="patch_1">
   <path d="M 0 47.378957  L 28.387999 47.378957  L 28.387999 -0  L 0 -0  z " style="fill: #ffffff" />
  </g>
  <g id="axes_1">
   <g id="patch_2">
    <path d="M 28.387999 14.194  C 28.387999 12.660564 28.139504 11.137212 27.652191 9.683268  C 27.164878 8.229325 26.445157 6.863912 25.521055 5.640204  C 24.596954 4.416495 23.480626 3.350586 22.215545 2.483986  C 20.950464 1.617385 19.553269 0.961491 18.078371 0.541847  C 16.603473 0.122202 15.07027 -0.055674 13.538471 0.015145  C 12.006671 0.085965 10.496421 0.404548 9.066534 0.958489  C 7.636648 1.51243 6.305931 2.294443 5.126207 3.274074  C 3.946483 4.253704 2.933267 5.418069 2.126017 6.721822  C 1.318767 8.025576 0.7281 9.451571 0.377019 10.944276  C 0.025938 12.436981 -0.08094 13.976763 0.060548 15.503657  C 0.202036 17.030552 0.590028 18.524477 1.209415 19.927255  C 1.828802 21.330033 2.671438 22.623214 3.704507 23.756436  C 4.737576 24.889659 5.947492 25.84802 7.287136 26.594196  C 8.62678 27.340373 10.078533 27.864552 11.585859 28.14632  C 13.093185 28.428088 14.63626 28.463739 16.154991 28.251885  C 17.673722 28.040031 19.148135 27.583458 20.52081 26.899947  L 14.193999 14.194  L 28.387999 14.194  z " style="fill: #fefebb; stroke: #444443; stroke-width: 0.5; stroke-linejoin: miter" />
   </g>
   <g id="patch_3">
    <path d="M 20.52081 26.899947  C 22.883794 25.723321 24.872346 23.910516 26.261982 21.666177  C 27.651617 19.421838 28.387999 16.833722 28.387999 14.193998  L 14.193999 14.194  L 20.52081 26.899947  z " style="fill: #a1dab4; stroke: #444443; stroke-width: 0.5; stroke-linejoin: miter" />
   </g>
   <g id="text_1">
    
    <g style="fill: #444443" transform="translate(4.058452 35.965551)scale(0.09 -0.09)">
     <defs>
      <path id="ArialMT-6e" d="M 422 0  L 422 3319  L 928 3319  L 928 2847  Q 1294 3394 1984 3394  Q 2284 3394 2536 3286  Q 2788 3178 2913 3003  Q 3038 2828 3088 2588  Q 3119 2431 3119 2041  L 3119 0  L 2556 0  L 2556 2019  Q 2556 2363 2490 2533  Q 2425 2703 2258 2804  Q 2091 2906 1866 2906  Q 1506 2906 1245 2678  Q 984 2450 984 1813  L 984 0  L 422 0  z " transform="scale(0.015625)" />
      <path id="ArialMT-3d" d="M 3381 2694  L 356 2694  L 356 3219  L 3381 3219  L 3381 2694  z M 3381 1303  L 356 1303  L 356 1828  L 3381 1828  L 3381 1303  z " transform="scale(0.015625)" />
      <path id="ArialMT-31" d="M 2384 0  L 1822 0  L 1822 3584  Q 1619 3391 1289 3197  Q 959 3003 697 2906  L 697 3450  Q 1169 3672 1522 3987  Q 1875 4303 2022 4600  L 2384 4600  L 2384 0  z " transform="scale(0.015625)" />
      <path id="ArialMT-36" d="M 3184 3459  L 2625 3416  Q 2550 3747 2413 3897  Q 2184 4138 1850 4138  Q 1581 4138 1378 3988  Q 1113 3794 959 3422  Q 806 3050 800 2363  Q 1003 2672 1297 2822  Q 1591 2972 1913 2972  Q 2475 2972 2870 2558  Q 3266 2144 3266 1488  Q 3266 1056 3080 686  Q 2894 316 2569 119  Q 2244 -78 1831 -78  Q 1128 -78 684 439  Q 241 956 241 2144  Q 241 3472 731 4075  Q 1159 4600 1884 4600  Q 2425 4600 2770 4297  Q 3116 3994 3184 3459  z M 888 1484  Q 888 1194 1011 928  Q 1134 663 1356 523  Q 1578 384 1822 384  Q 2178 384 2434 671  Q 2691 959 2691 1453  Q 2691 1928 2437 2201  Q 2184 2475 1800 2475  Q 1419 2475 1153 2201  Q 888 1928 888 1484  z " transform="scale(0.015625)" />
     </defs>
     <use xlink:href="#ArialMT-6e" />
     <use xlink:href="#ArialMT-3d" x="55.615234" />
     <use xlink:href="#ArialMT-31" x="114.013672" />
     <use xlink:href="#ArialMT-36" x="169.628906" />
    </g>
    
    <g style="fill: #444443" transform="translate(6.686733 45.484739)scale(0.09 -0.09)">
     <defs>
      <path id="ArialMT-65" d="M 2694 1069  L 3275 997  Q 3138 488 2766 206  Q 2394 -75 1816 -75  Q 1088 -75 661 373  Q 234 822 234 1631  Q 234 2469 665 2931  Q 1097 3394 1784 3394  Q 2450 3394 2872 2941  Q 3294 2488 3294 1666  Q 3294 1616 3291 1516  L 816 1516  Q 847 969 1125 678  Q 1403 388 1819 388  Q 2128 388 2347 550  Q 2566 713 2694 1069  z M 847 1978  L 2700 1978  Q 2663 2397 2488 2606  Q 2219 2931 1791 2931  Q 1403 2931 1139 2672  Q 875 2413 847 1978  z " transform="scale(0.015625)" />
      <path id="ArialMT-67" d="M 319 -275  L 866 -356  Q 900 -609 1056 -725  Q 1266 -881 1628 -881  Q 2019 -881 2231 -725  Q 2444 -569 2519 -288  Q 2563 -116 2559 434  Q 2191 0 1641 0  Q 956 0 581 494  Q 206 988 206 1678  Q 206 2153 378 2554  Q 550 2956 876 3175  Q 1203 3394 1644 3394  Q 2231 3394 2613 2919  L 2613 3319  L 3131 3319  L 3131 450  Q 3131 -325 2973 -648  Q 2816 -972 2473 -1159  Q 2131 -1347 1631 -1347  Q 1038 -1347 672 -1080  Q 306 -813 319 -275  z M 784 1719  Q 784 1066 1043 766  Q 1303 466 1694 466  Q 2081 466 2343 764  Q 2606 1063 2606 1700  Q 2606 2309 2336 2618  Q 2066 2928 1684 2928  Q 1309 2928 1046 2623  Q 784 2319 784 1719  z " transform="scale(0.015625)" />
     </defs>
     <use xlink:href="#ArialMT-6e" />
     <use xlink:href="#ArialMT-65" x="55.615234" />
     <use xlink:href="#ArialMT-67" x="111.230469" />
    </g>
   </g>
  </g>
 </g>
</svg></g>

<g id="edge11" class="edge">
<title>node9-&gt;leaf11</title>
<path fill="none" stroke="#444443" stroke-width="0.3" d="M309.82,-99.69C314.08,-92.23 321.73,-78.84 328.56,-66.89" />
<polygon fill="#444443" stroke="#444443" stroke-width="0.3" points="329.88,-67.41 330.65,-63.24 327.45,-66.02 329.88,-67.41" />
</g>

<g id="node14" class="node">
<title>leaf13</title>
<polygon fill="none" stroke="#444443" stroke-width="0" points="383,-56 364,-56 364,-27 383,-27 383,-56" />
<svg width="11px" height="21px" viewBox="0 0 15.26625 28.534157" version="1.1" preserveAspectRatio="xMinYMin meet" x="368.5" y="-51.5">
 <metadata>
  <rdf:RDF>
   <ns2:Work>
    <dc:type rdf:resource="http://purl.org/dc/dcmitype/StillImage" />
    <dc:date>2023-05-03T18:56:22.595922</dc:date>
    <dc:format>image/svg+xml</dc:format>
    <dc:creator>
     <ns2:Agent>
      <dc:title>Matplotlib v3.5.2, https://matplotlib.org/</dc:title>
     </ns2:Agent>
    </dc:creator>
   </ns2:Work>
  </rdf:RDF>
 </metadata>
 <defs>
  <style type="text/css">*{stroke-linejoin: round; stroke-linecap: butt}</style>
 </defs>
 <g id="figure_1">
  <g id="patch_1">
   <path d="M 0 28.534157  L 15.26625 28.534157  L 15.26625 0  L 0 0  z " style="fill: #ffffff" />
  </g>
  <g id="axes_1">
   <g id="patch_2">
    <path d="M 12.767125 5.134  C 12.767125 4.459809 12.634324 3.792174 12.376323 3.169303  C 12.118321 2.546432 11.740136 1.980439 11.263411 1.503714  C 10.786686 1.026989 10.220693 0.648804 9.597822 0.390802  C 8.974951 0.132801 8.307316 0 7.633125 0  C 6.958934 0 6.291299 0.132801 5.668428 0.390802  C 5.045557 0.648804 4.479564 1.026989 4.002839 1.503714  C 3.526114 1.980439 3.147929 2.546432 2.889927 3.169303  C 2.631926 3.792174 2.499125 4.459809 2.499125 5.134  C 2.499125 5.808191 2.631926 6.475826 2.889927 7.098697  C 3.147929 7.721568 3.526114 8.287561 4.002839 8.764286  C 4.479564 9.241011 5.045557 9.619196 5.668428 9.877198  C 6.291299 10.135199 6.958934 10.268 7.633125 10.268  C 8.307316 10.268 8.974951 10.135199 9.597822 9.877198  C 10.220693 9.619196 10.786686 9.241011 11.263411 8.764286  C 11.740136 8.287561 12.118321 7.721568 12.376323 7.098697  C 12.634324 6.475826 12.767125 5.808191 12.767125 5.134  M 7.633125 5.134  M 12.767125 5.134  z " style="fill: #fefebb; stroke: #444443; stroke-width: 0.5; stroke-linejoin: miter" />
   </g>
   <g id="text_1">
    
    <g style="fill: #444443" transform="translate(0 17.120751)scale(0.09 -0.09)">
     <defs>
      <path id="ArialMT-6e" d="M 422 0  L 422 3319  L 928 3319  L 928 2847  Q 1294 3394 1984 3394  Q 2284 3394 2536 3286  Q 2788 3178 2913 3003  Q 3038 2828 3088 2588  Q 3119 2431 3119 2041  L 3119 0  L 2556 0  L 2556 2019  Q 2556 2363 2490 2533  Q 2425 2703 2258 2804  Q 2091 2906 1866 2906  Q 1506 2906 1245 2678  Q 984 2450 984 1813  L 984 0  L 422 0  z " transform="scale(0.015625)" />
      <path id="ArialMT-3d" d="M 3381 2694  L 356 2694  L 356 3219  L 3381 3219  L 3381 2694  z M 3381 1303  L 356 1303  L 356 1828  L 3381 1828  L 3381 1303  z " transform="scale(0.015625)" />
      <path id="ArialMT-31" d="M 2384 0  L 1822 0  L 1822 3584  Q 1619 3391 1289 3197  Q 959 3003 697 2906  L 697 3450  Q 1169 3672 1522 3987  Q 1875 4303 2022 4600  L 2384 4600  L 2384 0  z " transform="scale(0.015625)" />
     </defs>
     <use xlink:href="#ArialMT-6e" />
     <use xlink:href="#ArialMT-3d" x="55.615234" />
     <use xlink:href="#ArialMT-31" x="114.013672" />
    </g>
    
    <g style="fill: #444443" transform="translate(0.125859 26.639939)scale(0.09 -0.09)">
     <defs>
      <path id="ArialMT-65" d="M 2694 1069  L 3275 997  Q 3138 488 2766 206  Q 2394 -75 1816 -75  Q 1088 -75 661 373  Q 234 822 234 1631  Q 234 2469 665 2931  Q 1097 3394 1784 3394  Q 2450 3394 2872 2941  Q 3294 2488 3294 1666  Q 3294 1616 3291 1516  L 816 1516  Q 847 969 1125 678  Q 1403 388 1819 388  Q 2128 388 2347 550  Q 2566 713 2694 1069  z M 847 1978  L 2700 1978  Q 2663 2397 2488 2606  Q 2219 2931 1791 2931  Q 1403 2931 1139 2672  Q 875 2413 847 1978  z " transform="scale(0.015625)" />
      <path id="ArialMT-67" d="M 319 -275  L 866 -356  Q 900 -609 1056 -725  Q 1266 -881 1628 -881  Q 2019 -881 2231 -725  Q 2444 -569 2519 -288  Q 2563 -116 2559 434  Q 2191 0 1641 0  Q 956 0 581 494  Q 206 988 206 1678  Q 206 2153 378 2554  Q 550 2956 876 3175  Q 1203 3394 1644 3394  Q 2231 3394 2613 2919  L 2613 3319  L 3131 3319  L 3131 450  Q 3131 -325 2973 -648  Q 2816 -972 2473 -1159  Q 2131 -1347 1631 -1347  Q 1038 -1347 672 -1080  Q 306 -813 319 -275  z M 784 1719  Q 784 1066 1043 766  Q 1303 466 1694 466  Q 2081 466 2343 764  Q 2606 1063 2606 1700  Q 2606 2309 2336 2618  Q 2066 2928 1684 2928  Q 1309 2928 1046 2623  Q 784 2319 784 1719  z " transform="scale(0.015625)" />
     </defs>
     <use xlink:href="#ArialMT-6e" />
     <use xlink:href="#ArialMT-65" x="55.615234" />
     <use xlink:href="#ArialMT-67" x="111.230469" />
    </g>
   </g>
  </g>
 </g>
</svg></g>

<g id="edge13" class="edge">
<title>node12-&gt;leaf13</title>
<path fill="none" stroke="#444443" stroke-width="0.3" d="M386.21,-99.69C384.24,-90.85 380.43,-73.68 377.49,-60.45" />
<polygon fill="#444443" stroke="#444443" stroke-width="0.3" points="378.84,-60.08 376.61,-56.48 376.11,-60.69 378.84,-60.08" />
</g>

<g id="node15" class="node">
<title>leaf14</title>
<polygon fill="none" stroke="#444443" stroke-width="0" points="422.5,-62 396.5,-62 396.5,-21 422.5,-21 422.5,-62" />
<svg width="18px" height="33px" viewBox="0 0 24.764 43.504529" version="1.1" preserveAspectRatio="xMinYMin meet" x="400.5" y="-57.5">
 <metadata>
  <rdf:RDF>
   <ns2:Work>
    <dc:type rdf:resource="http://purl.org/dc/dcmitype/StillImage" />
    <dc:date>2023-05-03T18:56:22.638606</dc:date>
    <dc:format>image/svg+xml</dc:format>
    <dc:creator>
     <ns2:Agent>
      <dc:title>Matplotlib v3.5.2, https://matplotlib.org/</dc:title>
     </ns2:Agent>
    </dc:creator>
   </ns2:Work>
  </rdf:RDF>
 </metadata>
 <defs>
  <style type="text/css">*{stroke-linejoin: round; stroke-linecap: butt}</style>
 </defs>
 <g id="figure_1">
  <g id="patch_1">
   <path d="M 0 43.504529  L 24.764 43.504529  L 24.764 0  L 0 0  z " style="fill: #ffffff" />
  </g>
  <g id="axes_1">
   <g id="patch_2">
    <path d="M 24.764 12.382  C 24.764 10.756011 24.443716 9.145832 23.821476 7.643614  C 23.199237 6.141395 22.287144 4.776352 21.137396 3.626604  C 19.987648 2.476856 18.622605 1.564763 17.120386 0.942524  C 15.618168 0.320284 14.007989 -0 12.382 -0  C 10.756011 -0 9.145832 0.320284 7.643614 0.942524  C 6.141395 1.564763 4.776352 2.476856 3.626604 3.626604  C 2.476856 4.776352 1.564763 6.141395 0.942524 7.643614  C 0.320284 9.145832 0 10.756011 0 12.382  C 0 14.007989 0.320284 15.618168 0.942524 17.120386  C 1.564763 18.622605 2.476856 19.987648 3.626604 21.137396  C 4.776352 22.287144 6.141395 23.199237 7.643614 23.821476  C 9.145832 24.443716 10.756011 24.764 12.382 24.764  C 14.007989 24.764 15.618168 24.443716 17.120386 23.821476  C 18.622605 23.199237 19.987648 22.287144 21.137396 21.137396  C 22.287144 19.987648 23.199237 18.622605 23.821476 17.120386  C 24.443716 15.618168 24.764 14.007989 24.764 12.382  M 12.382 12.382  M 24.764 12.382  z " style="fill: #a1dab4; stroke: #444443; stroke-width: 0.5; stroke-linejoin: miter" />
   </g>
   <g id="text_1">
    
    <g style="fill: #444443" transform="translate(2.246453 32.196591)scale(0.09 -0.09)">
     <defs>
      <path id="ArialMT-6e" d="M 422 0  L 422 3319  L 928 3319  L 928 2847  Q 1294 3394 1984 3394  Q 2284 3394 2536 3286  Q 2788 3178 2913 3003  Q 3038 2828 3088 2588  Q 3119 2431 3119 2041  L 3119 0  L 2556 0  L 2556 2019  Q 2556 2363 2490 2533  Q 2425 2703 2258 2804  Q 2091 2906 1866 2906  Q 1506 2906 1245 2678  Q 984 2450 984 1813  L 984 0  L 422 0  z " transform="scale(0.015625)" />
      <path id="ArialMT-3d" d="M 3381 2694  L 356 2694  L 356 3219  L 3381 3219  L 3381 2694  z M 3381 1303  L 356 1303  L 356 1828  L 3381 1828  L 3381 1303  z " transform="scale(0.015625)" />
      <path id="ArialMT-31" d="M 2384 0  L 1822 0  L 1822 3584  Q 1619 3391 1289 3197  Q 959 3003 697 2906  L 697 3450  Q 1169 3672 1522 3987  Q 1875 4303 2022 4600  L 2384 4600  L 2384 0  z " transform="scale(0.015625)" />
      <path id="ArialMT-33" d="M 269 1209  L 831 1284  Q 928 806 1161 595  Q 1394 384 1728 384  Q 2125 384 2398 659  Q 2672 934 2672 1341  Q 2672 1728 2419 1979  Q 2166 2231 1775 2231  Q 1616 2231 1378 2169  L 1441 2663  Q 1497 2656 1531 2656  Q 1891 2656 2178 2843  Q 2466 3031 2466 3422  Q 2466 3731 2256 3934  Q 2047 4138 1716 4138  Q 1388 4138 1169 3931  Q 950 3725 888 3313  L 325 3413  Q 428 3978 793 4289  Q 1159 4600 1703 4600  Q 2078 4600 2393 4439  Q 2709 4278 2876 4000  Q 3044 3722 3044 3409  Q 3044 3113 2884 2869  Q 2725 2625 2413 2481  Q 2819 2388 3044 2092  Q 3269 1797 3269 1353  Q 3269 753 2831 336  Q 2394 -81 1725 -81  Q 1122 -81 723 278  Q 325 638 269 1209  z " transform="scale(0.015625)" />
     </defs>
     <use xlink:href="#ArialMT-6e" />
     <use xlink:href="#ArialMT-3d" x="55.615234" />
     <use xlink:href="#ArialMT-31" x="114.013672" />
     <use xlink:href="#ArialMT-33" x="169.628906" />
    </g>
    
    <g style="fill: #444443" transform="translate(5.127156 41.715779)scale(0.09 -0.09)">
     <defs>
      <path id="ArialMT-70" d="M 422 -1272  L 422 3319  L 934 3319  L 934 2888  Q 1116 3141 1344 3267  Q 1572 3394 1897 3394  Q 2322 3394 2647 3175  Q 2972 2956 3137 2557  Q 3303 2159 3303 1684  Q 3303 1175 3120 767  Q 2938 359 2589 142  Q 2241 -75 1856 -75  Q 1575 -75 1351 44  Q 1128 163 984 344  L 984 -1272  L 422 -1272  z M 931 1641  Q 931 1000 1190 694  Q 1450 388 1819 388  Q 2194 388 2461 705  Q 2728 1022 2728 1688  Q 2728 2322 2467 2637  Q 2206 2953 1844 2953  Q 1484 2953 1207 2617  Q 931 2281 931 1641  z " transform="scale(0.015625)" />
      <path id="ArialMT-6f" d="M 213 1659  Q 213 2581 725 3025  Q 1153 3394 1769 3394  Q 2453 3394 2887 2945  Q 3322 2497 3322 1706  Q 3322 1066 3130 698  Q 2938 331 2570 128  Q 2203 -75 1769 -75  Q 1072 -75 642 372  Q 213 819 213 1659  z M 791 1659  Q 791 1022 1069 705  Q 1347 388 1769 388  Q 2188 388 2466 706  Q 2744 1025 2744 1678  Q 2744 2294 2464 2611  Q 2184 2928 1769 2928  Q 1347 2928 1069 2612  Q 791 2297 791 1659  z " transform="scale(0.015625)" />
      <path id="ArialMT-7a" d="M 125 0  L 125 456  L 2238 2881  Q 1878 2863 1603 2863  L 250 2863  L 250 3319  L 2963 3319  L 2963 2947  L 1166 841  L 819 456  Q 1197 484 1528 484  L 3063 484  L 3063 0  L 125 0  z " transform="scale(0.015625)" />
     </defs>
     <use xlink:href="#ArialMT-70" />
     <use xlink:href="#ArialMT-6f" x="55.615234" />
     <use xlink:href="#ArialMT-7a" x="111.230469" />
    </g>
   </g>
  </g>
 </g>
</svg></g>

<g id="edge14" class="edge">
<title>node12-&gt;leaf14</title>
<path fill="none" stroke="#444443" stroke-width="0.3" d="M389.53,-99.69C392.19,-92.08 397,-78.28 401.24,-66.15" />
<polygon fill="#444443" stroke="#444443" stroke-width="0.3" points="402.66,-66.35 402.65,-62.11 400.01,-65.42 402.66,-66.35" />
</g>

<g id="edge16" class="edge">
<title>node8-&gt;node9</title>
<path fill="none" stroke="#444443" stroke-width="0.3" d="M312.08,-129.83C311.17,-126.19 309.97,-121.36 308.91,-117.13" />
<polygon fill="#444443" stroke="#444443" stroke-width="0.3" points="310.24,-116.7 307.91,-113.16 307.53,-117.38 310.24,-116.7" />
</g>

<g id="edge17" class="edge">
<title>node8-&gt;node12</title>
<path fill="none" stroke="#444443" stroke-width="0.3" d="M328.12,-129.97C339.88,-125.52 356.46,-119.24 369.12,-114.46" />
<polygon fill="#444443" stroke="#444443" stroke-width="0.3" points="369.66,-115.75 372.91,-113.02 368.67,-113.13 369.66,-115.75" />
</g>

<g id="node7" class="node">
<title>node0</title>
<text text-anchor="start" x="194.5" y="-192.9" font-family="Helvetica,sans-Serif" font-size="12.00" fill="#444443">Dinophysis fortii@10.41</text>
</g>

<g id="edge19" class="edge">
<title>node0-&gt;node1</title>
<path fill="none" stroke="#444443" stroke-width="0.3" d="M253.03,-189.28C243.39,-179.2 223.34,-158.24 211.93,-146.31" />
<polygon fill="#444443" stroke="#444443" stroke-width="0.3" points="212.73,-145.12 208.95,-143.2 210.71,-147.06 212.73,-145.12" />
<text text-anchor="start" x="229.5" y="-154.8" font-family="Times,serif" font-size="14.00">&#8804;</text>
</g>

<g id="edge20" class="edge">
<title>node0-&gt;node8</title>
<path fill="none" stroke="#444443" stroke-width="0.3" d="M263.97,-189.28C273.61,-179.2 293.66,-158.24 305.07,-146.31" />
<polygon fill="#444443" stroke="#444443" stroke-width="0.3" points="306.29,-147.06 308.05,-143.2 304.27,-145.12 306.29,-147.06" />
<text text-anchor="start" x="300.5" y="-154.8" font-family="Times,serif" font-size="14.00">&gt;</text>
</g>





<g id="node16" class="node">
<title>legend</title>
<polygon fill="none" stroke="black" stroke-width="0" points="375.5,-218 329.5,-218 329.5,-174 375.5,-174 375.5,-218" />
<svg width="42px" height="40px" viewBox="0 0 56.182812 54.36" version="1.1" preserveAspectRatio="xMinYMin meet" x="331.5" y="-216">
 <metadata>
  <rdf:RDF>
   <ns2:Work>
    <dc:type rdf:resource="http://purl.org/dc/dcmitype/StillImage" />
    <dc:date>2023-05-03T18:56:22.125703</dc:date>
    <dc:format>image/svg+xml</dc:format>
    <dc:creator>
     <ns2:Agent>
      <dc:title>Matplotlib v3.5.2, https://matplotlib.org/</dc:title>
     </ns2:Agent>
    </dc:creator>
   </ns2:Work>
  </rdf:RDF>
 </metadata>
 <defs>
  <style type="text/css">*{stroke-linejoin: round; stroke-linecap: butt}</style>
 </defs>
 <g id="figure_1">
  <g id="patch_1">
   <path d="M 0 54.36  L 56.182812 54.36  L 56.182812 0  L 0 0  z " style="fill: #ffffff" />
  </g>
  <g id="axes_1">
   <g id="legend_1">
    <g id="patch_2">
     <path d="M 2 54.015156  L 54.182812 54.015156  Q 56.182812 54.015156 56.182812 52.015156  L 56.182812 2.344844  Q 56.182812 0.344844 54.182812 0.344844  L 2 0.344844  Q 0 0.344844 0 2.344844  L 0 52.015156  Q 0 54.015156 2 54.015156  z " style="fill: #ffffff; opacity: 0.8; stroke: #444443; stroke-width: 0.5; stroke-linejoin: miter" />
    </g>
    <g id="text_1">
     
     <g style="fill: #444443" transform="translate(14.200781 15.502656)scale(0.1 -0.1)">
      <defs>
       <path id="Arial-BoldMT-74" d="M 1981 3319  L 1981 2619  L 1381 2619  L 1381 1281  Q 1381 875 1398 808  Q 1416 741 1477 697  Q 1538 653 1625 653  Q 1747 653 1978 738  L 2053 56  Q 1747 -75 1359 -75  Q 1122 -75 931 4  Q 741 84 652 211  Q 563 338 528 553  Q 500 706 500 1172  L 500 2619  L 97 2619  L 97 3319  L 500 3319  L 500 3978  L 1381 4491  L 1381 3319  L 1981 3319  z " transform="scale(0.015625)" />
       <path id="Arial-BoldMT-61" d="M 1116 2306  L 319 2450  Q 453 2931 781 3162  Q 1109 3394 1756 3394  Q 2344 3394 2631 3255  Q 2919 3116 3036 2902  Q 3153 2688 3153 2116  L 3144 1091  Q 3144 653 3186 445  Q 3228 238 3344 0  L 2475 0  Q 2441 88 2391 259  Q 2369 338 2359 363  Q 2134 144 1878 34  Q 1622 -75 1331 -75  Q 819 -75 523 203  Q 228 481 228 906  Q 228 1188 362 1408  Q 497 1628 739 1745  Q 981 1863 1438 1950  Q 2053 2066 2291 2166  L 2291 2253  Q 2291 2506 2166 2614  Q 2041 2722 1694 2722  Q 1459 2722 1328 2630  Q 1197 2538 1116 2306  z M 2291 1594  Q 2122 1538 1756 1459  Q 1391 1381 1278 1306  Q 1106 1184 1106 997  Q 1106 813 1243 678  Q 1381 544 1594 544  Q 1831 544 2047 700  Q 2206 819 2256 991  Q 2291 1103 2291 1419  L 2291 1594  z " transform="scale(0.015625)" />
       <path id="Arial-BoldMT-72" d="M 1300 0  L 422 0  L 422 3319  L 1238 3319  L 1238 2847  Q 1447 3181 1614 3287  Q 1781 3394 1994 3394  Q 2294 3394 2572 3228  L 2300 2463  Q 2078 2606 1888 2606  Q 1703 2606 1575 2504  Q 1447 2403 1373 2137  Q 1300 1872 1300 1025  L 1300 0  z " transform="scale(0.015625)" />
       <path id="Arial-BoldMT-67" d="M 378 -219  L 1381 -341  Q 1406 -516 1497 -581  Q 1622 -675 1891 -675  Q 2234 -675 2406 -572  Q 2522 -503 2581 -350  Q 2622 -241 2622 53  L 2622 538  Q 2228 0 1628 0  Q 959 0 569 566  Q 263 1013 263 1678  Q 263 2513 664 2953  Q 1066 3394 1663 3394  Q 2278 3394 2678 2853  L 2678 3319  L 3500 3319  L 3500 341  Q 3500 -247 3403 -537  Q 3306 -828 3131 -993  Q 2956 -1159 2664 -1253  Q 2372 -1347 1925 -1347  Q 1081 -1347 728 -1058  Q 375 -769 375 -325  Q 375 -281 378 -219  z M 1163 1728  Q 1163 1200 1367 954  Q 1572 709 1872 709  Q 2194 709 2416 961  Q 2638 1213 2638 1706  Q 2638 2222 2425 2472  Q 2213 2722 1888 2722  Q 1572 2722 1367 2476  Q 1163 2231 1163 1728  z " transform="scale(0.015625)" />
       <path id="Arial-BoldMT-65" d="M 2381 1056  L 3256 909  Q 3088 428 2723 176  Q 2359 -75 1813 -75  Q 947 -75 531 491  Q 203 944 203 1634  Q 203 2459 634 2926  Q 1066 3394 1725 3394  Q 2466 3394 2894 2905  Q 3322 2416 3303 1406  L 1103 1406  Q 1113 1016 1316 798  Q 1519 581 1822 581  Q 2028 581 2168 693  Q 2309 806 2381 1056  z M 2431 1944  Q 2422 2325 2234 2523  Q 2047 2722 1778 2722  Q 1491 2722 1303 2513  Q 1116 2303 1119 1944  L 2431 1944  z " transform="scale(0.015625)" />
      </defs>
      <use xlink:href="#Arial-BoldMT-74" />
      <use xlink:href="#Arial-BoldMT-61" x="33.300781" />
      <use xlink:href="#Arial-BoldMT-72" x="88.916016" />
      <use xlink:href="#Arial-BoldMT-67" x="127.832031" />
      <use xlink:href="#Arial-BoldMT-65" x="188.916016" />
      <use xlink:href="#Arial-BoldMT-74" x="244.53125" />
     </g>
    </g>
    <g id="patch_3">
     <path d="M 8 29.765156  L 28 29.765156  L 28 22.765156  L 8 22.765156  z " style="fill: #fefebb; stroke: #444443; stroke-width: 0.4; stroke-linejoin: miter" />
    </g>
    <g id="text_2">
     
     <g style="fill: #444443" transform="translate(31.5 29.765156)scale(0.1 -0.1)">
      <defs>
       <path id="ArialMT-6e" d="M 422 0  L 422 3319  L 928 3319  L 928 2847  Q 1294 3394 1984 3394  Q 2284 3394 2536 3286  Q 2788 3178 2913 3003  Q 3038 2828 3088 2588  Q 3119 2431 3119 2041  L 3119 0  L 2556 0  L 2556 2019  Q 2556 2363 2490 2533  Q 2425 2703 2258 2804  Q 2091 2906 1866 2906  Q 1506 2906 1245 2678  Q 984 2450 984 1813  L 984 0  L 422 0  z " transform="scale(0.015625)" />
       <path id="ArialMT-65" d="M 2694 1069  L 3275 997  Q 3138 488 2766 206  Q 2394 -75 1816 -75  Q 1088 -75 661 373  Q 234 822 234 1631  Q 234 2469 665 2931  Q 1097 3394 1784 3394  Q 2450 3394 2872 2941  Q 3294 2488 3294 1666  Q 3294 1616 3291 1516  L 816 1516  Q 847 969 1125 678  Q 1403 388 1819 388  Q 2128 388 2347 550  Q 2566 713 2694 1069  z M 847 1978  L 2700 1978  Q 2663 2397 2488 2606  Q 2219 2931 1791 2931  Q 1403 2931 1139 2672  Q 875 2413 847 1978  z " transform="scale(0.015625)" />
       <path id="ArialMT-67" d="M 319 -275  L 866 -356  Q 900 -609 1056 -725  Q 1266 -881 1628 -881  Q 2019 -881 2231 -725  Q 2444 -569 2519 -288  Q 2563 -116 2559 434  Q 2191 0 1641 0  Q 956 0 581 494  Q 206 988 206 1678  Q 206 2153 378 2554  Q 550 2956 876 3175  Q 1203 3394 1644 3394  Q 2231 3394 2613 2919  L 2613 3319  L 3131 3319  L 3131 450  Q 3131 -325 2973 -648  Q 2816 -972 2473 -1159  Q 2131 -1347 1631 -1347  Q 1038 -1347 672 -1080  Q 306 -813 319 -275  z M 784 1719  Q 784 1066 1043 766  Q 1303 466 1694 466  Q 2081 466 2343 764  Q 2606 1063 2606 1700  Q 2606 2309 2336 2618  Q 2066 2928 1684 2928  Q 1309 2928 1046 2623  Q 784 2319 784 1719  z " transform="scale(0.015625)" />
      </defs>
      <use xlink:href="#ArialMT-6e" />
      <use xlink:href="#ArialMT-65" x="55.615234" />
      <use xlink:href="#ArialMT-67" x="111.230469" />
     </g>
    </g>
    <g id="patch_4">
     <path d="M 8 44.027656  L 28 44.027656  L 28 37.027656  L 8 37.027656  z " style="fill: #a1dab4; stroke: #444443; stroke-width: 0.4; stroke-linejoin: miter" />
    </g>
    <g id="text_3">
     
     <g style="fill: #444443" transform="translate(31.5 44.027656)scale(0.1 -0.1)">
      <defs>
       <path id="ArialMT-70" d="M 422 -1272  L 422 3319  L 934 3319  L 934 2888  Q 1116 3141 1344 3267  Q 1572 3394 1897 3394  Q 2322 3394 2647 3175  Q 2972 2956 3137 2557  Q 3303 2159 3303 1684  Q 3303 1175 3120 767  Q 2938 359 2589 142  Q 2241 -75 1856 -75  Q 1575 -75 1351 44  Q 1128 163 984 344  L 984 -1272  L 422 -1272  z M 931 1641  Q 931 1000 1190 694  Q 1450 388 1819 388  Q 2194 388 2461 705  Q 2728 1022 2728 1688  Q 2728 2322 2467 2637  Q 2206 2953 1844 2953  Q 1484 2953 1207 2617  Q 931 2281 931 1641  z " transform="scale(0.015625)" />
       <path id="ArialMT-6f" d="M 213 1659  Q 213 2581 725 3025  Q 1153 3394 1769 3394  Q 2453 3394 2887 2945  Q 3322 2497 3322 1706  Q 3322 1066 3130 698  Q 2938 331 2570 128  Q 2203 -75 1769 -75  Q 1072 -75 642 372  Q 213 819 213 1659  z M 791 1659  Q 791 1022 1069 705  Q 1347 388 1769 388  Q 2188 388 2466 706  Q 2744 1025 2744 1678  Q 2744 2294 2464 2611  Q 2184 2928 1769 2928  Q 1347 2928 1069 2612  Q 791 2297 791 1659  z " transform="scale(0.015625)" />
       <path id="ArialMT-7a" d="M 125 0  L 125 456  L 2238 2881  Q 1878 2863 1603 2863  L 250 2863  L 250 3319  L 2963 3319  L 2963 2947  L 1166 841  L 819 456  Q 1197 484 1528 484  L 3063 484  L 3063 0  L 125 0  z " transform="scale(0.015625)" />
      </defs>
      <use xlink:href="#ArialMT-70" />
      <use xlink:href="#ArialMT-6f" x="55.615234" />
      <use xlink:href="#ArialMT-7a" x="111.230469" />
     </g>
    </g>
   </g>
  </g>
 </g>
</svg></g>
</g>
</svg>